<svg version="1.1" id="Layer_1" xmlns="http://www.w3.org/2000/svg" xmlns:xlink="http://www.w3.org/1999/xlink" x="0px" y="0px"
	 width="100%" height="100%" viewBox="0 0 353 303" enable-background="new 0 0 353 303" xml:space="preserve">
<g>
	<path fill="#F2F2F2" d="M182.817,84.505c-0.107-0.164-0.513-0.798-1.191-2.029c-8.074-14.684-16.67-26.271-47.094-30.762
		c-20.13-2.97-34.589-10.451-41.816-21.635c-5.377-8.323-4.914-15.942-4.907-16.018l0.03-0.428l-2.76-0.641l-0.16,0.398
		c-2.291,5.73-2.879,15.104,2.348,24.221c4.957,8.648,16.756,19.844,44.822,24.07c9.92,1.492,18.084,4.127,24.709,7.133
		c-1.539,1.689-2.484,3.925-2.484,6.383c0,5.238,4.262,9.5,9.5,9.5c4.051,0,7.508-2.553,8.872-6.13
		c5.053,4.149,7.435,7.515,7.669,7.853c0.143,0.231,0.521,0.902,1.273,0.902h0.605h0.335l0.39-1.008
		C183.231,85.789,183.173,85.024,182.817,84.505z M163.813,79.698c-2.48,0-4.5-2.018-4.5-4.5c0-1.715,0.975-3.19,2.391-3.949
		c2.465,1.334,4.66,2.695,6.602,4.033C168.259,77.723,166.267,79.698,163.813,79.698z"/>
	<path fill="#F2F2F2" d="M149.688,118.717c-9.395-17.08-30.788-29.606-57.23-33.507c-34.77-5.131-53.566-17.715-60.644-22.452
		c-2.365-1.583-3.077-2.04-3.752-2.04c-0.418,0-0.783,0.195-1,0.534c-0.407,0.64-0.1,1.419,0.344,2.37
		c5.129,10.989,14.631,23.32,62.757,30.565c29.058,4.374,48.283,19.745,55.521,25.531c2.554,2.042,3.184,2.524,3.854,2.524
		c0.402,0,0.762-0.202,0.961-0.541C150.891,121.044,150.552,120.286,149.688,118.717z"/>
	<path fill="#F2F2F2" d="M40.519,93.048c-9.976-1.73,22.799,27.34,18.269,16.479c-3.472-8.318,4.87-10.498,3.519-11.318
		C57.158,95.083,53.535,95.307,40.519,93.048z"/>
	<path fill="#F2F2F2" d="M126.522,193.374c-1.029,3.463,10.639-6.938,6.6-5.785c-3.092,0.883-3.516-2.164-3.863-1.719
		C127.938,187.563,127.864,188.856,126.522,193.374z"/>
	<path fill="#F2F2F2" d="M107.37,189.618c-2.373,4.049,15.574-5.451,10.123-5.25c-4.176,0.154-3.766-3.82-4.342-3.369
		C110.958,182.725,110.466,184.334,107.37,189.618z"/>
	<path fill="#F2F2F2" d="M84.261,175.219c-6.225,2.744,22.93,6.811,16.354,2.42c-5.037-3.361-1.183-7.687-2.244-7.644
		C94.329,170.165,92.384,171.639,84.261,175.219z"/>
	<path fill="#F2F2F2" d="M63.564,152.163c-8.273,0.738,23.858,16.85,17.968,9.197c-4.513-5.859,1.639-9.352,0.395-9.717
		C77.185,150.256,74.359,151.2,63.564,152.163z"/>
	<path fill="#F2F2F2" d="M50.551,122.874c-8.936-1.264,21.075,23.723,16.735,14.174c-3.324-7.316,4.047-9.49,2.82-10.184
		C65.434,124.223,62.211,124.524,50.551,122.874z"/>
	<path fill="#F2F2F2" d="M114.813,283.198c12-18,9.832,0.004,17.842-46.332c7.325-42.385,34.155-52.77,24.038-47.49
		c-13.911,7.262-25.831,14.943-30.993,45.338C117.155,285.014,110.223,290.084,114.813,283.198z"/>
	<path fill="#F2F2F2" d="M134.524,262.874c8.273-12.41,6.777,0.004,12.301-31.943c5.051-29.221,24.987-45.231,16.987-39.231
		c-8.655,6.49-18.224,16.793-21.782,37.75C136.141,264.127,131.358,267.622,134.524,262.874z"/>
	<path fill="#F2F2F2" d="M150.618,249.12c6.617-9.926,5.422,0.002,9.838-25.549c4.039-23.371,18.356-36.373,11.856-29.873
		c-6.118,6.117-12.845,11.926-15.69,28.688C151.909,250.122,148.087,252.918,150.618,249.12z"/>
	<path fill="#F2F2F2" d="M162.249,235.7c4.691-7.037,3.844,0,6.977-18.115c2.863-16.568,17.088-33.387,8.404-21.178
		c-6.408,9.012-9.105,8.455-11.125,20.338C163.165,236.409,160.454,238.391,162.249,235.7z"/>
	<path fill="#F2F2F2" d="M139.104,122.161c8.209,5.537,7.709,4.037,16.709,35.037c6.76,23.277,18.426,30.254,12.809,27.123
		c-7.725-4.307-10.479-6.568-16.76-26.02C136.813,111.698,102.505,97.479,139.104,122.161z"/>
	<path fill="#F2F2F2" d="M76.423,108.692c-6.887-0.584,17.129,17.236,13.402,10.119c-2.855-5.449,2.686-7.428,1.719-7.906
		C87.858,109.087,85.407,109.454,76.423,108.692z"/>
	<path fill="#F2F2F2" d="M132.648,182.756c-0.625,2.105,6.465-4.215,4.013-3.514c-1.879,0.535-2.138-1.314-2.349-1.045
		C133.511,179.227,133.466,180.012,132.648,182.756z"/>
	<path fill="#F2F2F2" d="M120.661,176.387c-1.441,2.461,9.465-3.313,6.151-3.189c-2.537,0.094-2.288-2.322-2.638-2.047
		C122.843,172.2,122.544,173.178,120.661,176.387z"/>
	<path fill="#F2F2F2" d="M108.329,167.514c-3.603,2.024,14.271,2.771,10.032,0.504c-3.243-1.738-1.166-4.58-1.805-4.49
		C114.122,163.866,113.032,164.872,108.329,167.514z"/>
	<path fill="#F2F2F2" d="M94.331,154.297c-4.836,1.445,16.252,7.133,11.815,3.293c-3.397-2.94-0.161-5.768-0.946-5.834
		C102.208,151.506,100.642,152.413,94.331,154.297z"/>
	<path fill="#F2F2F2" d="M83.022,133.553c-5.471,0.398,15.568,11.375,11.764,6.262c-2.918-3.916,1.18-6.156,0.363-6.41
		C92.034,132.438,90.159,133.032,83.022,133.553z"/>
	<path fill="#F2F2F2" d="M282.616,13.077l-1.926,0.449c0.023,0.309,1.836,30.955-47.148,38.183
		c-30.195,4.456-38.723,15.947-46.73,30.508c-0.684,1.24-1.09,1.88-1.209,2.062c-0.107,0.154-0.361,0.537-0.148,1.035l0.217,0.51
		l0.547,0.087c0.059,0.009,0.115,0.015,0.172,0.015c0.344,0,0.635-0.176,0.867-0.522c0.279-0.399,3.018-4.192,8.9-8.767
		c1.24,3.804,4.818,6.563,9.031,6.563c5.236,0,9.5-4.262,9.5-9.5c0-2.471-0.957-4.716-2.508-6.407
		c6.438-2.776,14.262-5.188,23.656-6.604c27.869-4.196,39.563-15.271,44.463-23.823C285.438,27.9,284.866,18.699,282.616,13.077z
		 M209.688,73.698c0,2.482-2.02,4.5-4.5,4.5s-4.5-2.018-4.5-4.5c0-0.104,0.023-0.199,0.029-0.302
		c1.916-1.247,4.053-2.505,6.428-3.731C208.646,70.396,209.688,71.922,209.688,73.698z"/>
	<path fill="#F2F2F2" d="M340.938,60.752c-0.217-0.339-0.58-0.534-1-0.534c-0.674,0-1.387,0.457-3.752,2.04
		c-7.076,4.737-25.875,17.321-60.645,22.452c-26.441,3.9-47.836,16.427-57.229,33.507c-0.865,1.569-1.203,2.327-0.813,2.985
		c0.199,0.339,0.559,0.541,0.961,0.541c0.67,0,1.299-0.482,3.854-2.524c7.238-5.786,26.465-21.157,55.521-25.531
		c48.125-7.245,57.627-19.576,62.756-30.565C341.038,62.171,341.345,61.391,340.938,60.752z"/>
	<path fill="#F2F2F2" d="M327.481,92.548c9.977-1.73-22.799,27.34-18.268,16.479c3.471-8.318-4.869-10.498-3.52-11.318
		C310.843,94.583,314.466,94.807,327.481,92.548z"/>
	<path fill="#F2F2F2" d="M241.479,192.874c1.029,3.463-10.639-6.938-6.602-5.785c3.094,0.883,3.518-2.164,3.863-1.719
		C240.063,187.063,240.136,188.356,241.479,192.874z"/>
	<path fill="#F2F2F2" d="M260.632,189.118c2.373,4.049-15.574-5.451-10.125-5.25c4.178,0.154,3.768-3.82,4.342-3.369
		C257.042,182.225,257.534,183.834,260.632,189.118z"/>
	<path fill="#F2F2F2" d="M283.739,174.719c6.225,2.744-22.93,6.811-16.354,2.42c5.037-3.361,1.184-7.687,2.244-7.644
		C273.673,169.665,275.616,171.139,283.739,174.719z"/>
	<path fill="#F2F2F2" d="M304.437,151.663c8.273,0.738-23.857,16.85-17.967,9.197c4.512-5.859-1.639-9.352-0.396-9.717
		C290.815,149.757,293.642,150.7,304.437,151.663z"/>
	<path fill="#F2F2F2" d="M317.448,122.374c8.938-1.264-21.074,23.723-16.734,14.174c3.324-7.316-4.047-9.49-2.818-10.184
		C302.567,123.723,305.79,124.024,317.448,122.374z"/>
	<path fill="#F2F2F2" d="M253.688,282.698c-12-18-9.832,0.004-17.842-46.332c-7.324-42.385-34.154-52.77-24.037-47.49
		c13.91,7.262,25.83,14.943,30.992,45.338C251.345,284.514,258.278,289.584,253.688,282.698z"/>
	<path fill="#F2F2F2" d="M233.978,262.374c-8.273-12.41-6.779,0.004-12.301-31.943c-5.051-29.221-24.988-45.231-16.988-39.231
		c8.654,6.49,18.225,16.793,21.783,37.75C232.362,263.627,237.142,267.122,233.978,262.374z"/>
	<path fill="#F2F2F2" d="M217.884,248.62c-6.617-9.926-5.422,0.002-9.84-25.549c-4.039-23.371-18.355-36.373-11.855-29.873
		c6.119,6.117,12.846,11.926,15.691,28.688C216.591,249.622,220.415,252.418,217.884,248.62z"/>
	<path fill="#F2F2F2" d="M206.251,235.2c-4.689-7.037-3.844,0-6.975-18.115c-2.863-16.568-17.089-33.387-8.406-21.178
		c6.41,9.012,9.107,8.455,11.125,20.338C205.335,235.909,208.046,237.891,206.251,235.2z"/>
	<path fill="#F2F2F2" d="M291.577,108.192c6.887-0.584-17.129,17.236-13.402,10.119c2.855-5.449-2.686-7.428-1.719-7.906
		C280.144,108.587,282.593,108.954,291.577,108.192z"/>
	<path fill="#F2F2F2" d="M235.353,182.256c0.625,2.105-6.465-4.215-4.012-3.514c1.879,0.535,2.137-1.314,2.348-1.045
		C234.491,178.727,234.534,179.512,235.353,182.256z"/>
	<path fill="#F2F2F2" d="M247.341,175.887c1.441,2.461-9.465-3.313-6.152-3.189c2.537,0.094,2.289-2.322,2.639-2.047
		C245.159,171.7,245.458,172.678,247.341,175.887z"/>
	<path fill="#F2F2F2" d="M259.671,167.014c3.604,2.024-14.268,2.771-10.031,0.504c3.244-1.738,1.166-4.58,1.805-4.49
		C253.88,163.366,254.97,164.372,259.671,167.014z"/>
	<path fill="#F2F2F2" d="M273.669,153.797c4.838,1.445-16.252,7.133-11.814,3.293c3.398-2.94,0.162-5.768,0.947-5.834
		C265.792,151.006,267.36,151.913,273.669,153.797z"/>
	<path fill="#F2F2F2" d="M284.979,133.053c5.469,0.398-15.57,11.375-11.764,6.262c2.916-3.916-1.182-6.156-0.363-6.41
		C275.966,131.938,277.841,132.532,284.979,133.053z"/>
	<path fill="#F2F2F2" d="M187.569,88.824c-0.762-1.063-1.887-1.626-3.256-1.626s-2.475,0.56-3.195,1.617
		c-3.185,4.664,2.146,18.666,2.764,20.248l0.996,2.543l0.883-2.584C186.296,107.447,190.915,93.504,187.569,88.824z
		 M185.452,102.145c0,0-1.154-11.795-0.279-11.451C189.073,92.225,185.452,102.145,185.452,102.145z"/>
	<path fill="#F2F2F2" d="M226.294,123.161c-8.209,5.537-7.709,4.037-16.709,35.037c-6.758,23.277-18.426,30.254-12.809,27.123
		c7.725-4.307,10.479-6.568,16.76-26.02C228.585,112.698,262.894,98.479,226.294,123.161z"/>
	<path fill="#F2F2F2" d="M164.964,113.323c-0.002,0-0.463,0-0.463,0v-1.504c-2,0-2.652,1.416-4.013,3.395
		c-0.665,0.689-1.155,1.568-1.581,2.717c-0.082,0.138-0.105,0.275-0.187,0.415c-0.333,0.572-1.222,1.284-1.356,1.437
		c0.073-0.082,0.137-0.236,0.137-0.236v0.336c0,0.461,0,0.66,0,0.662v1.002c1,0,1.27-0.465,2.274-2.195
		c0.878-1.514,2.726-5.531,4.726-5.531v-0.926C164.501,112.814,165.397,113.323,164.964,113.323z"/>
	<path fill="#F2F2F2" d="M176.689,120.469l0.479-0.229l-0.522-0.918h-0.655c-0.322,0-0.529-0.14-0.674-0.037
		c-0.236,0.168-0.426,0.259-0.561,0.556c-0.782,1.173-0.914,2.474-0.369,3.808c0.207,0.506,0.465,1.101,1.197,1.101l0.455-0.021
		l0.297-0.336c0.34-0.373,0.305-0.749,0.229-1.562c-0.052-0.555-0.154-1.671-0.029-2.183
		C176.604,120.563,176.661,120.502,176.689,120.469z"/>
	<path fill="#F2F2F2" d="M171.073,115.323h-0.82c-0.029,0-0.135,0.185-0.399,0.236c-0.399,0.076-0.781,0.368-1.138,0.692
		c-1.213,0.744-3.146,2.474-3.262,5.692c-0.035,0.979-0.015,1.573,0.334,1.935l0.316,0.444h0.425c0,0,0.001,0,0.003,0
		c0.816,0,1.022-0.703,1.52-2.146c0.429-1.246,1.137-3.355,1.893-4.187c0.28-0.156,0.501-0.274,0.615-0.321l0.838-0.544
		L171.073,115.323z"/>
	<path fill="#F2F2F2" d="M203.474,114.319c-1.768,0.008,4.777-0.16,6.279,6.229C211.065,126.132,206.694,114.305,203.474,114.319z"
		/>
	<path fill="#F2F2F2" d="M209.931,123.046c-0.725,0-0.996-0.466-2-2.197c-0.879-1.512-3.213-5.529-4.451-5.529v-2
		c2.209,0,4.184,3.086,6.18,6.525c0.334,0.572,0.748,1.285,0.883,1.438c-0.074-0.082-0.295-0.236-0.609-0.236c0,0,0,0-0.002,0
		l0.002,2C209.933,123.046,209.931,123.046,209.931,123.046z"/>
	<path fill="#F2F2F2" d="M193.683,121.198c-0.137-0.297-0.328-0.497-0.596-0.687l-0.32-0.188h-0.975l-0.49,1.204l0.447,0.461
		c0.029,0.031,0.086,0.081,0.152,0.167c0.127,0.51,0.023,1.62-0.029,2.175c-0.076,0.813-0.109,1.235,0.23,1.608l0.309,0.385h0.441
		c0.732,0,0.99-0.686,1.197-1.191C194.597,123.799,194.464,122.372,193.683,121.198z"/>
	<path fill="#F2F2F2" d="M202.985,123.489c-0.117-3.219-2.049-4.904-3.262-5.648c-0.357-0.323-0.746-0.456-1.217-0.547l-0.225,0.029
		h-0.92l-0.16,0.734l-0.08,0.806l0.758,0.298c0.113,0.047,0.334,0.13,0.615,0.286c0.756,0.83,1.463,2.885,1.893,4.131
		c0.496,1.444,0.703,2.04,1.521,2.04l0.447-0.013l0.295-0.308C202.999,124.936,203.021,124.469,202.985,123.489z"/>
	<path fill="#F2F2F2" d="M106.292,118.022c-4.778-0.406,11.885,11.959,9.299,7.021c-1.98-3.783,1.865-5.154,1.193-5.486
		C114.227,118.296,112.524,118.55,106.292,118.022z"/>
	<path fill="#F2F2F2" d="M137.639,169.225c-0.826,1.797,6.31-2.937,4.03-2.623c-1.746,0.236-1.739-1.447-1.963-1.234
		C138.858,166.182,138.72,166.879,137.639,169.225z"/>
	<path fill="#F2F2F2" d="M129.771,164.583c-0.89,2.344,7.717-4.256,4.862-3.664c-2.184,0.451-2.321-1.678-2.584-1.389
		C131.048,160.635,130.933,161.526,129.771,164.583z"/>
	<path fill="#F2F2F2" d="M117.718,151.167c-3.356,1.004,11.277,4.949,8.197,2.285c-2.356-2.041-0.11-4.002-0.656-4.049
		C123.184,149.231,122.096,149.858,117.718,151.167z"/>
	<path fill="#F2F2F2" d="M110.37,136.772c-3.795,0.277,10.805,7.893,8.162,4.346c-2.023-2.719,0.819-4.273,0.252-4.449
		C116.624,135.999,115.322,136.411,110.37,136.772z"/>
	<path fill="#F2F2F2" d="M266.253,115.522c4.777-0.406-11.887,11.959-9.301,7.021c1.982-3.783-1.863-5.154-1.191-5.486
		C258.317,115.796,260.019,116.05,266.253,115.522z"/>
	<path fill="#F2F2F2" d="M226.479,172.864c0.826,1.797-6.311-2.934-4.029-2.623c1.744,0.236,1.738-1.447,1.961-1.234
		C225.259,169.823,225.399,170.518,226.479,172.864z"/>
	<path fill="#F2F2F2" d="M238.479,165.364c0.889,2.344-7.717-4.256-4.863-3.664c2.186,0.451,2.322-1.678,2.584-1.389
		C237.202,161.417,237.319,162.307,238.479,165.364z"/>
	<path fill="#F2F2F2" d="M252.843,149.391c3.174,1.482-11.879,3.252-8.443,1.064c2.629-1.674,0.693-3.943,1.24-3.908
		C247.718,146.678,248.702,147.458,252.843,149.391z"/>
	<path fill="#F2F2F2" d="M261.735,134.561c3.77,0.514-11.273,7.207-8.416,3.83c2.188-2.586-0.553-4.314,0.023-4.455
		C255.542,133.401,256.815,133.893,261.735,134.561z"/>
</g>
</svg>
