<?xml version="1.0" encoding="UTF-8" standalone="no"?>
<!DOCTYPE svg  PUBLIC '-//W3C//DTD SVG 1.1//EN'  'http://www.w3.org/Graphics/SVG/1.1/DTD/svg11.dtd'>
<svg xmlns="http://www.w3.org/2000/svg">
<defs>
<font id="EurostileLTPro-Bold" horiz-adv-x="667">
<font-face underline-position="-50" font-weight="700" descent="-200" panose-1="2 11 8 4 2 2 2 5 2 4" units-per-em="1000" unicode-range="U+0020-2215" bbox="-167 -237 988 974" x-height="509" underline-thickness="50" font-family="Eurostile LT Pro Bold" ascent="800" cap-height="723"/>
<missing-glyph horiz-adv-x="1000"/>
<glyph glyph-name="IJ" horiz-adv-x="942" unicode="IJ" d="M365 309h184v-10q0 -46 1 -68t3 -41t10 -24.5t16.5 -8t27.5 -2.5q47 0 60 10.5t13 48.5v509h200v-486q0 -79 -10.5 -119t-39.5 -70q-30 -31 -78.5 -43.5t-137.5 -12.5q-91 0 -141 17.5t-77 59.5q-32 48 -32 189q0 10 1 44v7zM71 723h200v-723h-200v723z"/>
<glyph glyph-name="ij" horiz-adv-x="566" unicode="ij" d="M295 -154v118q44 1 44 32v513h169v-449q0 -81 -10 -126q-13 -57 -57 -76q-39 -17 -95 -17q-31 0 -51 5zM508 723v-122h-169v122h169zM58 0v509h169v-509h-169zM227 601h-169v122h169v-122z"/>
<glyph glyph-name="napostrophe" horiz-adv-x="700" unicode='&quot;n' d="M4 429v72q37 1 49 10.5t12 38.5v11h-56v162h147v-84q0 -110 -14 -147q-14 -34 -44 -47.5t-94 -15.5zM411 392q-32 0 -43 -13.5t-11 -52.5v-326h-169v509h165v-69q22 45 52 61.5t87 16.5q86 0 120 -36.5t34 -130.5v-351h-169v321q0 43 -13 57t-53 14z"/>
<glyph glyph-name=".notdef" horiz-adv-x="1000"/>
<glyph glyph-name=".null" horiz-adv-x="1000"/>
<glyph glyph-name="nonmarkingreturn" horiz-adv-x="333"/>
<glyph glyph-name="space" horiz-adv-x="333" unicode=" "/>
<glyph glyph-name="exclam" horiz-adv-x="333" unicode="!" d="M81 0v167h171v-167h-171zM84 286l-6 437h177l-2 -437h-169z"/>
<glyph glyph-name="quotedbl" horiz-adv-x="395" unicode='&quot;' d="M226 723h143v-130l-39 -169h-68l-36 169v130zM26 723h143v-130l-39 -169h-68l-36 169v130z"/>
<glyph glyph-name="numbersign" d="M279 426l-27 -123h122l27 123h-122zM619 546v-120h-98l-27 -123h82v-120h-108l-39 -183h-120l39 183h-122l-39 -183h-120l39 183h-65v120h91l27 123h-75v120h101l38 177h120l-38 -177h122l38 177h120l-38 -177h72z" unicode="#"/>
<glyph glyph-name="dollar" d="M355 288v-143q61 1 77 12.5t16 55.5q0 46 -13 56.5t-80 18.5zM302 443v131h-9q-43 0 -59.5 -14t-16.5 -50q0 -37 19 -52t66 -15zM40 219h171q0 -44 15.5 -60t58.5 -16q11 0 19 1v148q-127 6 -185 41q-40 24 -56.5 64t-16.5 111t18.5 113t61.5 67q51 30 177 31v54h49v-54 q145 -2 196.5 -42.5t51.5 -153.5h-166v7q0 26 -17.5 35t-63.5 9v-134q149 -14 200 -48q40 -25 57 -65t17 -106q0 -143 -89 -192q-54 -28 -184 -31v-65h-46v65q-86 1 -129.5 11t-76.5 35q-63 47 -63 150q0 15 1 25z" unicode="$"/>
<glyph glyph-name="percent" horiz-adv-x="1000" unicode="%" d="M156 570v-185q0 -27 8.5 -35t37.5 -8q51 0 58 16q7 14 7 168q0 57 -8 72.5t-38 15.5q-43 0 -54 -7.5t-11 -36.5zM17 401v175q0 72 36 108q41 41 158 41q123 0 160 -44q20 -24 27 -66.5t7 -134.5q0 -95 -5.5 -135.5t-21.5 -63.5q-36 -49 -189 -49q-62 0 -95.5 11.5 t-53.5 40.5q-23 34 -23 117zM739 331v-185q0 -27 8.5 -35t37.5 -8q51 0 58 16q7 14 7 168q0 57 -8 72.5t-38 15.5q-43 0 -54 -7.5t-11 -36.5zM600 162v175q0 72 36 108q41 41 158 41q123 0 160 -44q20 -24 27 -66.5t7 -134.5q0 -95 -5.5 -135.5t-21.5 -63.5 q-36 -49 -189 -49q-62 0 -95.5 11.5t-53.5 40.5q-23 34 -23 117zM336 -13l242 746h89l-240 -746h-91z"/>
<glyph glyph-name="ampersand" horiz-adv-x="778" unicode="&amp;" d="M480 154l-216 187q-20 -5 -26 -23.5t-6 -74.5q0 -69 23 -87q26 -20 109 -20q102 0 116 18zM680 -9l-83 66q-29 -36 -79.5 -49.5t-157.5 -13.5q-178 0 -239 47t-61 183q0 102 25 143.5t95 52.5q-37 32 -48.5 58.5t-11.5 79.5q0 99 51 137q26 20 66.5 27.5t121.5 7.5 q94 0 141 -11.5t79 -41.5q27 -25 36.5 -61t9.5 -114h-156v10q-1 57 -15 68q-17 14 -72 14q-61 0 -78 -9.5t-17 -43.5q0 -20 3.5 -28.5t14.5 -18.5l223 -197v80h157v-91q0 -69 -16 -113l95 -80z"/>
<glyph glyph-name="quotesingle" horiz-adv-x="220" unicode="&apos;" d="M34 723h151v-130l-39 -169h-76l-36 169v130z"/>
<glyph glyph-name="parenleft" horiz-adv-x="333" unicode="(" d="M291 723v-125q-48 -1 -58 -22t-10 -115v-260q0 -43 11.5 -58.5t43.5 -15.5h13v-127q-15 -1 -37 -1q-111 0 -154.5 50t-43.5 178v224q0 154 33 206q23 36 63 51.5t108 15.5q19 0 31 -1z"/>
<glyph glyph-name="parenright" horiz-adv-x="333" unicode=")" d="M40 0v125q48 1 58 22t10 115v260q0 43 -11.5 58.5t-43.5 15.5h-13v127q15 1 37 1q111 0 154.5 -50t43.5 -178v-224q0 -154 -33 -206q-23 -36 -63 -51.5t-108 -15.5q-19 0 -31 1z"/>
<glyph glyph-name="asterisk" horiz-adv-x="500" unicode="*" d="M251 447l68 38l75 -115l-81 -44zM104 373l74 113l68 -38l-60 -120zM175 491l-135 -8v89l135 -7v-74zM319 566l135 7v-92l-134 6zM253 609l58 120l83 -44l-77 -114zM184 729l63 -121l-69 -39l-74 114z"/>
<glyph glyph-name="plus" d="M50 341h212v203h143v-203h212v-138h-212v-203h-143v203h-212v138z" unicode="+"/>
<glyph glyph-name="comma" horiz-adv-x="333" unicode="," d="M81 -128v72q38 3 47 9.5t9 31.5q0 9 -1 17h-53v172h153v-117q0 -100 -23 -135q-31 -50 -117 -50h-15z"/>
<glyph glyph-name="hyphen" horiz-adv-x="333" unicode="-" d="M26 197v150h282v-150h-282z"/>
<glyph glyph-name="period" horiz-adv-x="333" unicode="." d="M80 0v174h159v-174h-159z"/>
<glyph glyph-name="slash" horiz-adv-x="333" unicode="/" d="M10 -9l215 740h95l-214 -740h-96z"/>
<glyph glyph-name="zero" d="M232 435v-184q0 -58 13 -76q11 -15 28 -20t56 -5q80 0 96 26q10 17 10 42v211q0 73 -1.5 88t-10.5 30q-16 26 -83 26q-31 0 -45 -0.5t-29 -6t-19.5 -11.5t-9 -25t-5 -37.5t-0.5 -57.5zM332 731q99 0 156.5 -19.5t91.5 -65.5q27 -37 36 -88t9 -170q0 -163 -9.5 -219.5 t-44.5 -99.5q-63 -78 -252 -78q-134 0 -203 59q-44 38 -59 97t-15 198q0 199 28 263q14 32 38.5 58.5t52.5 39.5q53 25 171 25z" unicode="0"/>
<glyph glyph-name="one" d="M523 0h-183v539l-170 -149q-14 9 -51.5 50.5t-59.5 71.5l246 211h218v-723z" unicode="1"/>
<glyph glyph-name="two" d="M231 475h-178q-1 14 -1 39q0 62 13.5 99.5t45.5 65.5q34 30 78.5 41t130.5 11q149 0 210 -31q46 -23 66 -71.5t20 -133.5q0 -58 -6.5 -91.5t-28.5 -58t-52.5 -38t-89.5 -29.5l-138 -38q-45 -13 -55.5 -23t-10.5 -41v-19h377v-157h-565v169q0 98 40.5 141.5t156.5 75.5 l106 29q52 14 65 25t13 40q0 73 -14 88.5t-80 15.5h-43t-27.5 -4.5t-19 -8.5t-8 -20t-5 -29.5t-0.5 -46.5z" unicode="2"/>
<glyph glyph-name="three" d="M46 242h182q-1 -12 -1 -24q0 -41 16 -57q11 -13 26.5 -16.5t57.5 -3.5q68 0 86.5 13t18.5 61q0 36 -5 51.5t-21 22.5q-22 10 -84 10q-14 0 -33 -1v143h24q76 0 93 11t17 58q0 48 -17.5 61t-82.5 13q-63 0 -78 -23q-8 -13 -10 -71h-177q-1 11 -1 31q0 116 69 170 q53 41 199 41q158 0 221.5 -44.5t63.5 -156.5q0 -77 -26.5 -113t-88.5 -44q72 -15 99.5 -52.5t27.5 -117.5q0 -107 -55 -155q-38 -32 -90.5 -45t-142.5 -13q-137 0 -194 29q-76 39 -89 121q-5 36 -5 101z" unicode="3"/>
<glyph glyph-name="four" d="M192 286h194v283zM576 141v-141h-190v141h-363v210l264 372h289v-437h58v-145h-58z" unicode="4"/>
<glyph glyph-name="five" d="M70 725h511v-140h-342v-132q13 28 45 39.5t97 11.5q69 0 112.5 -13.5t73.5 -44.5q28 -29 39.5 -74t11.5 -122q0 -139 -52 -195q-34 -35 -87 -49t-156 -14q-84 0 -131 12.5t-81 43.5q-29 26 -41 60.5t-12 91.5v15h178q-1 -6 -1 -14q0 -37 16.5 -48.5t71.5 -11.5 q42 0 59 1.5t29.5 15.5t14 33t1.5 65q0 76 -14.5 91t-90.5 15q-50 0 -66 -6t-16 -26v-6h-170v401z" unicode="5"/>
<glyph glyph-name="six" d="M347 301q-71 0 -90 -12t-19 -57q0 -58 13.5 -75t57.5 -17q82 0 101 10.5t19 56.5q0 64 -13 79t-69 15zM598 522h-178q0 39 -16 49.5t-74 10.5q-63 0 -77 -18.5t-14 -102.5q0 -29 3 -69q19 27 51 38t93 11q72 0 114 -11t70 -38q27 -25 37.5 -60.5t10.5 -102.5 q0 -78 -13.5 -119t-48.5 -69q-35 -27 -85.5 -38t-143.5 -11q-124 0 -175 26q-54 29 -77 76.5t-23 131.5v240q0 74 11 117.5t38 74.5q35 40 87.5 57t139.5 17q144 0 207.5 -42t63.5 -137q0 -19 -1 -31z" unicode="6"/>
<glyph glyph-name="seven" d="M363 0h-203l241 560h-345v163h546v-163z" unicode="7"/>
<glyph glyph-name="eight" d="M321 306q-58 0 -77 -16q-14 -13 -14 -63q0 -65 15 -79.5t84 -14.5t84 14t15 79q0 53 -18.5 66.5t-88.5 13.5zM322 593q-49 0 -64 -15q-11 -11 -11 -61q0 -53 12 -66.5t60 -13.5q73 0 86 11.5t13 76.5q0 46 -15.5 57t-80.5 11zM179 376q-47 9 -78 39q-37 36 -37 107 q0 64 13 101t45 62q34 26 77.5 35.5t130.5 9.5q91 0 143.5 -13t82.5 -43q25 -26 35 -57.5t10 -83.5q0 -77 -27.5 -114t-89.5 -44q70 -15 100.5 -55.5t30.5 -117.5q0 -108 -58 -158q-37 -31 -79 -38q-75 -13 -159 -13t-131 11t-82 40q-62 50 -62 158q0 79 33 121.5t102 52.5z " unicode="8"/>
<glyph glyph-name="nine" d="M318 582q-53 0 -72 -14q-11 -11 -11 -53q0 -64 12 -75q13 -12 71 -12q78 0 93 12q14 10 14 76q0 45 -13 54q-18 12 -94 12zM43 204h184q-1 -5 -1 -13q0 -27 15 -39q12 -12 55 -12q67 0 94 5q22 4 28.5 15.5t6.5 46.5v141q-14 -28 -33 -39q-36 -22 -139 -22q-99 0 -152 44 q-56 48 -56 173q0 68 14.5 108.5t48.5 69.5q58 49 222 49q94 0 150 -16t88 -52q29 -34 39 -85.5t10 -169.5q0 -158 -6 -220.5t-24 -96.5q-39 -70 -126 -88q-51 -11 -168 -11q-139 0 -194 47q-31 26 -43.5 60t-12.5 90v15z" unicode="9"/>
<glyph glyph-name="colon" horiz-adv-x="333" unicode=":" d="M87 0v174h159v-174h-159zM87 336v173h159v-173h-159z"/>
<glyph glyph-name="semicolon" horiz-adv-x="333" unicode=";" d="M88 -128v72q38 3 47 9.5t9 31.5q0 9 -1 17h-53v172h153v-117q0 -100 -23 -135q-31 -50 -117 -50h-15zM87 336v173h159v-173h-159z"/>
<glyph glyph-name="less" d="M50 200v136l559 199v-147l-369 -118v-2l369 -119v-147z" unicode="&lt;"/>
<glyph glyph-name="equal" d="M55 216h557v-130h-557v130zM55 463h557v-130h-557v130z" unicode="="/>
<glyph glyph-name="greater" d="M617 337v-136l-559 -199v147l369 118v2l-369 119v147z" unicode="&gt;"/>
<glyph glyph-name="question" horiz-adv-x="556" unicode="?" d="M156 0v167h171v-167h-171zM194 530h-166v24q0 98 47 139q25 22 63 30t114 8q93 0 137.5 -8.5t74.5 -32.5q50 -41 50 -148q0 -80 -30 -123.5t-113 -81.5q-27 -12 -35.5 -24.5t-8.5 -38.5q0 -8 1 -15h-168v25q0 74 22.5 107t102.5 74q41 21 50.5 33t9.5 46q0 38 -16 49.5 t-69 11.5q-38 0 -52.5 -13t-14.5 -46q0 -8 1 -16z"/>
<glyph glyph-name="at" horiz-adv-x="994" unicode="@" d="M519 319q-40 0 -60 -18.5t-30 -69.5q-7 -33 -7 -67q0 -54 65 -54q45 0 63 16t27 58l11 55q2 14 2 23q0 28 -15.5 42.5t-55.5 14.5zM497 426q97 0 118 -72l13 59h130l-56 -249q-5 -27 -5 -39q0 -33 30 -33q41 0 70 46t29 146q0 119 -69 175.5t-218 56.5q-343 0 -343 -349 q0 -127 78.5 -195t253.5 -68q106 0 252 32v-107q-164 -32 -271 -32q-227 0 -343 97t-116 273q0 218 121 336.5t375 118.5q194 0 299 -90.5t105 -248.5q0 -136 -66 -209.5t-171 -73.5q-102 0 -118 74q-32 -42 -63 -58t-82 -16q-166 0 -166 134q0 54 9 103q21 108 66.5 148.5 t137.5 40.5z"/>
<glyph glyph-name="A" horiz-adv-x="722" unicode="A" d="M281 273h160l-72 300h-16zM212 723h299l202 -723h-203l-33 130h-231l-31 -130h-206z"/>
<glyph glyph-name="B" horiz-adv-x="715" unicode="B" d="M262 297v-140h147q42 0 51 11.5t9 66.5q0 45 -17 54q-20 10 -128 10q-29 0 -62 -2zM262 567v-129h128q49 0 58 10.5t9 70.5q0 33 -14 41q-20 9 -119 9q-32 0 -62 -2zM69 0v723h300q154 0 212 -35q38 -22 55 -60.5t17 -102.5q0 -88 -43 -120q-37 -26 -88 -32 q83 -13 114 -51.5t31 -127.5q0 -112 -54.5 -153t-205.5 -41h-338z"/>
<glyph glyph-name="C" horiz-adv-x="704" unicode="C" d="M459 278h197q0 -92 -9 -133.5t-37 -75.5q-34 -42 -89.5 -59.5t-157.5 -17.5q-109 0 -171 22t-97 73q-41 62 -41 189v201q0 114 61 178q40 41 94.5 58.5t143.5 17.5q217 0 270 -98q15 -27 19.5 -60t6.5 -117h-192v10q0 34 -3.5 48t-13.5 23q-23 23 -83 23q-59 0 -79 -19.5 t-20 -77.5v-206q0 -55 20.5 -75t76.5 -20q77 0 95 25q11 17 11 66q0 3 -2 25z"/>
<glyph glyph-name="D" horiz-adv-x="769" unicode="D" d="M269 553v-384h128q31 0 47.5 1.5t31.5 11t21.5 22t11 43t5.5 64t1 94.5q0 66 -8.5 96.5t-28.5 41.5q-24 12 -148 12q-24 0 -61 -2zM69 0v723h304q186 0 255 -54q55 -42 73 -111q14 -50 14 -200q0 -106 -9 -159.5t-35 -96.5q-38 -67 -120 -90q-60 -17 -281 -17 q-78 0 -201 5z"/>
<glyph glyph-name="E" d="M69 0v723h549v-160h-349v-125h330v-138h-330v-138h349v-162h-549z" unicode="E"/>
<glyph glyph-name="F" horiz-adv-x="605" unicode="F" d="M69 0v723h490v-163h-290v-134h273v-161h-273v-265h-200z"/>
<glyph glyph-name="G" horiz-adv-x="763" unicode="G" d="M412 398h298q1 -31 1 -69q0 -129 -11 -187q-7 -39 -36 -73t-67 -51q-59 -24 -134 -24h-128q-78 0 -123 13.5t-81 48.5q-44 41 -60.5 103t-16.5 183q0 124 10 186.5t36 101.5q50 76 142 93q43 8 185 8q93 0 145 -14t85 -47q27 -28 37 -63.5t11 -104.5h-192 q-1 42 -25.5 54.5t-105.5 12.5q-44 0 -66.5 -5.5t-37 -27.5t-18 -56t-3.5 -101q0 -162 20 -193q19 -29 90 -29q73 0 103 4.5t41 19.5q7 11 8.5 23.5t2.5 58.5h-110v135z"/>
<glyph glyph-name="H" horiz-adv-x="780" unicode="H" d="M511 454v269h200v-723h-200v282h-242v-282h-200v723h200v-269h242z"/>
<glyph glyph-name="I" horiz-adv-x="342" unicode="I" d="M71 723h200v-723h-200v723z"/>
<glyph glyph-name="J" horiz-adv-x="612" unicode="J" d="M35 309h184v-10q0 -46 1 -68t3 -41t10 -24.5t16.5 -8t27.5 -2.5q47 0 60 10.5t13 48.5v509h200v-486q0 -79 -10.5 -119t-39.5 -70q-30 -31 -78.5 -43.5t-137.5 -12.5q-91 0 -141 17.5t-77 59.5q-32 48 -32 189q0 10 1 44v7z"/>
<glyph glyph-name="K" horiz-adv-x="701" unicode="K" d="M69 0v723h200v-272h18l171 272h229l-236 -352l256 -364v-7h-233l-189 290h-16v-290h-200z"/>
<glyph glyph-name="L" horiz-adv-x="612" unicode="L" d="M69 0v723h200v-549h325v-174h-525z"/>
<glyph glyph-name="M" horiz-adv-x="997" unicode="M" d="M67 0v723h287l74 -252q35 -119 72 -279q47 196 93 344l58 187h279v-723h-189v108q0 26 2.5 106.5t6.5 189.5t5 158q-49 -188 -62 -231l-98 -331h-195l-94 328q-22 75 -58 237q0 -44 5 -254t5 -249v-62h-191z"/>
<glyph glyph-name="N" horiz-adv-x="831" unicode="N" d="M67 0v723h290l101 -246q82 -199 125 -321q0 10 -4.5 137t-4.5 192v238h190v-723h-287l-85 198q-91 211 -144 360q9 -220 9 -315v-243h-190z"/>
<glyph glyph-name="O" horiz-adv-x="761" unicode="O" d="M367 562q-53 0 -75 -12t-29 -45q-9 -42 -9 -138q0 -89 4 -124t17 -52q19 -27 98 -27q97 0 116 27q11 15 14.5 55t3.5 142q0 75 -4 103.5t-16 42.5q-21 28 -120 28zM54 265v159q0 111 19 160q39 105 144 133q49 14 152 14q159 0 225 -37q73 -39 99 -124q14 -45 14 -206 q0 -124 -6 -170.5t-28 -86.5q-34 -62 -95 -85q-76 -30 -192 -30q-214 0 -285 90q-47 59 -47 183z"/>
<glyph glyph-name="P" horiz-adv-x="727" unicode="P" d="M268 558v-200h131q55 0 67.5 17.5t12.5 95.5q0 53 -16.5 70t-66.5 17h-128zM69 0v723h242q104 0 158.5 -6.5t99.5 -23.5q65 -25 92 -93q14 -39 14 -128q0 -79 -7 -118t-26 -71q-41 -68 -126 -81q-61 -9 -173 -9q-28 0 -74 1v-194h-200z"/>
<glyph glyph-name="Q" horiz-adv-x="761" unicode="Q" d="M367 562q-53 0 -75 -12t-29 -45q-9 -42 -9 -138q0 -90 4 -127t17 -54q19 -27 98 -27q41 0 65 3l-66 57l76 85l56 -48q3 45 3 132q0 75 -4 103.5t-16 42.5q-21 28 -120 28zM54 265v159q0 111 19 160q39 105 144 133q49 14 152 14q159 0 225 -37q73 -39 99 -124 q14 -45 14 -206q0 -116 -8.5 -165.5t-30.5 -81.5l57 -48l-75 -86l-60 51q-68 -42 -204 -42q-214 0 -285 90q-47 59 -47 183z"/>
<glyph glyph-name="R" horiz-adv-x="721" unicode="R" d="M266 558v-188q35 -3 62 -3q96 0 116 17q17 14 17 79q0 63 -16.5 80t-77.5 17q-62 0 -101 -2zM69 0v723h291q164 0 221 -39q43 -29 59.5 -73t16.5 -129q0 -63 -11 -96.5t-39 -55.5q-32 -28 -92 -34q85 -17 112 -51t27 -120v-125h-197v143q0 40 -18.5 52.5t-76.5 12.5h-96 v-208h-197z"/>
<glyph glyph-name="S" horiz-adv-x="698" unicode="S" d="M46 224h187q-1 -5 -1 -14q0 -35 23 -49t81 -14q85 0 105 12q15 9 15 54v28.5t-5.5 18.5t-10 13t-23 7t-35 5.5t-53.5 4.5q-102 8 -144.5 17t-68.5 26q-67 47 -67 177q0 126 59 175q32 27 79 36.5t146 9.5q111 0 160.5 -10t83.5 -39q28 -24 39 -59.5t11 -101.5v-10h-182 v13q0 34 -18 42q-22 11 -111 11q-42 0 -56 -14.5t-14 -54.5q0 -42 19.5 -51.5t121.5 -17.5q113 -10 155.5 -21.5t68.5 -39.5q43 -49 43 -160q0 -138 -80 -189q-58 -37 -232 -37q-94 0 -148 10.5t-90 36.5q-31 22 -44.5 56.5t-13.5 92.5v36z"/>
<glyph glyph-name="T" horiz-adv-x="604" unicode="T" d="M402 0h-200v553h-182v170h564v-170h-182v-553z"/>
<glyph glyph-name="U" horiz-adv-x="768" unicode="U" d="M62 723h200v-497q0 -36 21.5 -50t73.5 -14q116 0 133 18q16 19 16 62v481h200v-441q0 -96 -17 -147.5t-61 -87.5q-38 -31 -90.5 -42t-160.5 -11q-112 0 -168.5 17t-94.5 61q-52 61 -52 170v481z"/>
<glyph glyph-name="V" horiz-adv-x="709" unicode="V" d="M699 723l-199 -723h-295l-199 723h203l144 -568l145 568h201z"/>
<glyph glyph-name="W" horiz-adv-x="1002" unicode="W" d="M280 167l113 556h214l107 -559l76 559h193l-116 -723h-281l-34 181q-23 123 -53 319q-36 -217 -56 -316l-37 -184h-277l-112 723h192z"/>
<glyph glyph-name="X" horiz-adv-x="662" unicode="X" d="M9 723h217l103 -257l101 257h215l-169 -351l189 -372h-220l-121 279l-121 -279h-219l190 375z"/>
<glyph glyph-name="Y" horiz-adv-x="642" unicode="Y" d="M220 256l-243 467h217l129 -282l127 282h214l-244 -470v-253h-200v256z"/>
<glyph glyph-name="Z" horiz-adv-x="660" unicode="Z" d="M30 0v169l341 391h-322v163h567v-172l-333 -384h337v-167h-590z"/>
<glyph glyph-name="bracketleft" horiz-adv-x="333" unicode="[" d="M67 0v723h234v-125h-65v-473h62v-125h-231z"/>
<glyph glyph-name="backslash" horiz-adv-x="333" unicode="\" d="M243 -9l-251 740h99l251 -740h-99z"/>
<glyph glyph-name="bracketright" horiz-adv-x="333" unicode="]" d="M32 723h234v-723h-229v125h60v473h-65v125z"/>
<glyph glyph-name="asciicircum" horiz-adv-x="580" unicode="^" d="M174 333h-137l191 391h126l189 -391h-139l-115 239z"/>
<glyph glyph-name="underscore" horiz-adv-x="500" unicode="_" d="M500 -75v-50h-500v50h500z"/>
<glyph glyph-name="grave" horiz-adv-x="333" unicode="`" d="M163 723l97 -149h-120l-160 149h183z"/>
<glyph glyph-name="a" horiz-adv-x="563" unicode="a" d="M262 223q-38 0 -47.5 -12t-9.5 -58q0 -32 13.5 -42t56.5 -10q45 0 56 11q11 10 11 66q0 29 -9 35q-16 10 -71 10zM348 0v51l-8 -7q-37 -33 -58.5 -41t-73.5 -8q-54 0 -82.5 7t-48.5 26q-39 36 -39 126q0 91 36.5 128.5t124.5 37.5q69 0 99 -11.5t47 -43.5v52q0 69 -9 84 q-10 19 -57 19q-32 0 -44 -8.5t-12 -31.5h-161q0 71 28 99q23 24 58 31.5t120 7.5q88 0 126.5 -8t67.5 -31q47 -39 47 -119v-360h-161z"/>
<glyph glyph-name="b" horiz-adv-x="563" unicode="b" d="M287 391q-38 0 -50 -16.5t-12 -71.5q0 -137 9 -163q7 -22 44 -22q52 0 63 21q7 18 7 157q0 64 -10 79.5t-51 15.5zM58 723h169v-272q36 67 123 67q93 0 131 -51q22 -29 30 -70t8 -122q0 -108 -9.5 -161t-34.5 -80q-40 -43 -120 -43q-53 0 -77.5 14.5t-57.5 63.5v-69h-162 v723z"/>
<glyph glyph-name="c" horiz-adv-x="555" unicode="c" d="M511 321h-159q0 49 -11.5 61.5t-56.5 12.5q-51 0 -61 -20q-10 -16 -10 -135q0 -87 11.5 -105t67.5 -18q25 0 36 5t17 18q5 12 8 62h160v-19q0 -119 -70 -163q-46 -29 -169 -29q-136 0 -188 66q-24 30 -33 73t-9 128q0 73 6.5 109.5t23.5 67.5q26 45 73.5 64t132.5 19 q130 0 178 -35q53 -40 53 -137v-25z"/>
<glyph glyph-name="d" horiz-adv-x="563" unicode="d" d="M273 391q-37 0 -47 -16.5t-10 -79.5q0 -138 8 -156q9 -21 53 -21q45 0 53 17.5t8 114.5q0 47 -1 67.5t-3.5 39.5t-11 24t-18.5 7.5t-31 2.5zM505 723v-723h-162v68q-21 -39 -35 -52q-26 -25 -97 -25q-54 0 -85.5 14.5t-51.5 49.5q-30 49 -30 226q0 119 27 169 q19 36 52.5 52t89.5 16q87 0 123 -63v268h169z"/>
<glyph glyph-name="e" horiz-adv-x="563" unicode="e" d="M207 309h155q2 9 2 28q0 52 -13 64.5t-68 12.5q-53 0 -64.5 -15.5t-11.5 -89.5zM521 224h-315q-2 -28 -2 -39q0 -52 14 -69t57 -17q60 0 71 8q13 9 13 33q0 5 -1 13h162q-3 -78 -39 -116q-26 -26 -68 -36t-123 -10q-88 0 -133.5 14t-74.5 50q-23 28 -30.5 69.5 t-7.5 139.5q0 89 13.5 136t46.5 75q51 43 169 43q89 0 138 -17t79 -58q19 -26 26 -63.5t7 -113.5q0 -21 -2 -42z"/>
<glyph glyph-name="f" horiz-adv-x="374" unicode="f" d="M245 0h-169v385h-58v124h58q-1 25 -1 42q0 55 8.5 85.5t28.5 52.5q42 43 138 43q64 0 112 -6v-118q-23 6 -49 6q-43 0 -55.5 -13.5t-12.5 -57.5q0 -15 1 -34h116v-124h-117v-385z"/>
<glyph glyph-name="g" horiz-adv-x="561" unicode="g" d="M275 391q-43 0 -51 -22.5t-8 -145.5q0 -56 12 -74t49 -18q41 0 51 25.5t10 127.5q0 71 -10.5 89t-52.5 18zM63 -42h157q-1 -3 -1 -7q0 -20 12 -28.5t41 -8.5q33 0 45 10t16.5 40t4.5 110q-30 -70 -129 -70q-80 0 -119 41q-26 28 -36 71t-10 125q0 99 7.5 144t27.5 77 q34 56 129 56q57 0 84.5 -15.5t55.5 -63.5v69h157v-470q0 -137 -49 -189t-179 -52q-118 0 -166 32q-49 33 -49 103q0 17 1 26z"/>
<glyph glyph-name="h" horiz-adv-x="570" unicode="h" d="M362 518q86 0 120 -36.5t34 -130.5v-351h-169v321q0 43 -13 57t-53 14q-31 0 -42.5 -15t-11.5 -57v-320h-169v723h169v-285q16 43 48 61.5t87 18.5z"/>
<glyph glyph-name="i" horiz-adv-x="285" unicode="i" d="M58 0v509h169v-509h-169zM227 601h-169v122h169v-122z"/>
<glyph glyph-name="j" horiz-adv-x="285" unicode="j" d="M14 -154v118q44 1 44 32v513h169v-449q0 -81 -10 -126q-13 -57 -57 -76q-39 -17 -95 -17q-31 0 -51 5zM227 723v-122h-169v122h169z"/>
<glyph glyph-name="k" horiz-adv-x="539" unicode="k" d="M58 0v723h169v-406h15l98 192h183l-139 -250l167 -259h-191l-119 204h-14v-204h-169z"/>
<glyph glyph-name="l" horiz-adv-x="285" unicode="l" d="M58 0v723h169v-723h-169z"/>
<glyph glyph-name="m" horiz-adv-x="851" unicode="m" d="M797 0h-169v333q0 32 -12.5 45t-42.5 13q-43 0 -55 -24q-7 -14 -7 -56v-311h-169v318q0 46 -11 60t-46 14t-47.5 -13.5t-12.5 -51.5v-327h-169v509h162v-66q20 40 53 57.5t89 17.5q59 0 87.5 -17.5t47.5 -64.5q22 47 54 64.5t95 17.5q85 0 119 -36.5t34 -130.5v-351z"/>
<glyph glyph-name="n" horiz-adv-x="568" unicode="n" d="M279 392q-32 0 -43 -13.5t-11 -52.5v-326h-169v509h165v-69q22 45 52 61.5t87 16.5q86 0 120 -36.5t34 -130.5v-351h-169v321q0 43 -13 57t-53 14z"/>
<glyph glyph-name="o" horiz-adv-x="554" unicode="o" d="M213 331v-135q0 -47 10 -64q12 -17 55 -17q45 0 55 20q8 16 8 131q0 97 -8 114.5t-55 17.5q-40 0 -52.5 -12.5t-12.5 -54.5zM275 518q144 0 193 -50q26 -27 34 -69.5t8 -149.5q0 -95 -10.5 -140.5t-36.5 -69.5q-54 -48 -197 -48q-75 0 -119 15t-69 49q-34 44 -34 202 q0 85 8.5 133t35.5 78.5t69.5 40t117.5 9.5z"/>
<glyph glyph-name="p" horiz-adv-x="562" unicode="p" d="M283 391q-43 0 -51 -22.5t-8 -141.5q0 -66 12 -88q11 -21 48 -21q38 0 50.5 16t12.5 63q0 154 -7 170q-10 24 -57 24zM221 509v-69q32 78 134 78q90 0 127 -50q21 -28 28.5 -69t7.5 -124q0 -140 -16 -189q-14 -44 -55 -69.5t-99 -25.5q-44 0 -71.5 16.5t-51.5 54.5v-259 h-169v706h165z"/>
<glyph glyph-name="q" horiz-adv-x="563" unicode="q" d="M279 391q-46 0 -56 -25q-7 -19 -7 -167q0 -48 11.5 -64.5t46.5 -16.5q32 0 44.5 10t17 40.5t4.5 105.5q0 80 -9.5 98.5t-51.5 18.5zM507 509v-706h-168v259q-23 -38 -52 -54.5t-74 -16.5q-93 0 -133 58q-21 29 -28.5 71.5t-7.5 131.5q0 138 18 186q34 80 146 80 q101 0 134 -78v69h165z"/>
<glyph glyph-name="r" horiz-adv-x="497" unicode="r" d="M56 0v509h165v-69q17 43 44.5 60.5t77.5 17.5q80 0 109 -35q15 -19 20.5 -47t5.5 -87l-1 -59h-150v24q0 48 -9.5 62.5t-41.5 14.5q-30 0 -40.5 -14.5t-10.5 -56.5v-320h-169z"/>
<glyph glyph-name="s" horiz-adv-x="546" unicode="s" d="M29 145h168v-5q1 -27 15 -37t54 -10q57 0 74 11q13 9 13 44q0 28 -9.5 37.5t-40.5 10.5l-73 4q-105 6 -153 45q-42 33 -42 113q0 89 47.5 124.5t168.5 35.5q177 0 219 -48q26 -28 29 -96h-160q1 5 1 9q0 19 -15 27q-13 7 -73 7q-36 0 -47.5 -9.5t-11.5 -39.5 q0 -29 15 -36.5t82 -11.5q130 -8 168 -33q58 -38 58 -127q0 -91 -54 -131q-52 -38 -189 -38q-139 0 -191 33t-53 121z"/>
<glyph glyph-name="t" horiz-adv-x="496" unicode="t" d="M347 208h132q1 -24 1 -34q0 -96 -26 -130q-44 -53 -184 -53q-128 0 -170 62q-16 24 -22 52t-6 85v199h-58v120h58v99h169v-99h215v-120h-215v-172q0 -72 7.5 -87t40.5 -15q39 0 49.5 11t10.5 56q0 11 -2 26z"/>
<glyph glyph-name="u" horiz-adv-x="568" unicode="u" d="M512 509v-509h-162v79q-18 -50 -49.5 -69t-95.5 -19q-84 0 -117.5 36t-33.5 126v356h169v-335q0 -31 13.5 -44t45.5 -13q41 0 54 22q7 12 7 53v317h169z"/>
<glyph glyph-name="v" horiz-adv-x="538" unicode="v" d="M4 509h172l70 -285q20 -82 23 -99l93 384h170l-145 -509h-239z"/>
<glyph glyph-name="w" horiz-adv-x="790" unicode="w" d="M224 123l74 386h192l73 -388l43 388h159l-79 -509h-231l-62 361l-62 -361h-227l-83 509h161z"/>
<glyph glyph-name="x" horiz-adv-x="521" unicode="x" d="M256 342l66 167h181l-130 -245l146 -264h-184l-80 187l-76 -187h-189l149 266l-128 243h183z"/>
<glyph glyph-name="y" horiz-adv-x="538" unicode="y" d="M274 126l86 383h171l-128 -494q-38 -148 -81 -184q-39 -33 -122 -33q-48 0 -80 6v114q7 -1 16 -1q49 0 70 19t25 67h-83l-144 506h171z"/>
<glyph glyph-name="z" horiz-adv-x="496" unicode="z" d="M23 0v137l243 252h-229v120h424v-136l-240 -250h246v-123h-444z"/>
<glyph glyph-name="braceleft" horiz-adv-x="333" unicode="{" d="M24 250v97q66 7 66 73l-6 155q0 87 43.5 117.5t136.5 30.5h37v-125h-21q-28 0 -38.5 -14t-10.5 -56q0 -17 4 -62.5t4 -63.5q0 -39 -22 -65.5t-83 -36.5v-2q105 -14 105 -103q0 -8 -4 -49.5t-4 -65.5q0 -82 49 -82h21v-123h-26q-104 0 -147 35t-43 112q0 33 2.5 82.5 t2.5 72.5q0 18 -3 30.5t-19 26t-44 16.5z"/>
<glyph glyph-name="bar" horiz-adv-x="333" unicode="|" d="M91 740h151v-830h-151v830z"/>
<glyph glyph-name="braceright" horiz-adv-x="333" unicode="}" d="M309 348v-97q-66 -7 -66 -73l6 -155q0 -87 -43.5 -117.5t-136.5 -30.5h-37v125h21q28 0 38.5 14t10.5 56q0 17 -4 62.5t-4 63.5q0 39 22 65.5t83 36.5v2q-105 14 -105 103q0 8 4 49.5t4 65.5q0 82 -49 82h-21v123h26q104 0 147 -35t43 -112q0 -33 -2.5 -82.5t-2.5 -72.5 q0 -18 3 -30.5t19 -26t44 -16.5z"/>
<glyph glyph-name="asciitilde" d="M452 315q49 0 53 83h122q0 -110 -45.5 -168.5t-123.5 -58.5q-47 0 -131 42t-111 42q-49 0 -53 -83h-122q0 109 46.5 168t122.5 59q51 0 138.5 -42t103.5 -42z" unicode="~"/>
<glyph glyph-name="uni00A0" horiz-adv-x="333" unicode=" "/>
<glyph glyph-name="exclamdown" horiz-adv-x="333" unicode="¡" d="M252 509v-167h-171v167h171zM249 236l6 -433h-177l2 433h169z"/>
<glyph glyph-name="cent" d="M281 153l70 248q-48 -1 -62 -15q-18 -16 -18 -130q0 -76 10 -103zM417 646h49l-34 -127q71 -10 104 -49t33 -115q0 -16 -1 -26h-156q0 47 -15 61l-72 -268h17q48 0 60 23q5 10 9 63h157q1 -11 1 -31q0 -109 -69 -151q-48 -31 -144 -31q-34 0 -64 3l-35 -130h-51l37 138 q-62 15 -96 56q-47 56 -47 194q0 94 16.5 146.5t54.5 83.5q22 17 64 28.5t85 11.5q37 0 63 -2z" unicode="¢"/>
<glyph glyph-name="sterling" d="M54 0v155q30 3 48 19q10 10 12.5 23t2.5 49q0 17 -1 36h-81v130h75q-4 32 -4 81q0 110 42 164q32 40 81 57t131 17q140 0 202 -44t62 -144q0 -21 -1 -34h-175q1 5 1 13q0 37 -17.5 49.5t-69.5 12.5q-46 0 -57 -17t-11 -87q0 -30 3 -68h185v-130h-180q-2 -56 -13.5 -78.5 t-47.5 -43.5h394v-160h-581z" unicode="£"/>
<glyph glyph-name="currency" d="M334 441q-38 0 -69 -26t-31 -74q0 -53 31 -79.5t69 -26.5q37 0 68.5 27t31.5 79q0 49 -30.5 74.5t-69.5 25.5zM333 566q73 0 126 -33l85 93l84 -87l-95 -81q35 -42 35 -118q0 -70 -41 -122l93 -85l-82 -82l-80 98q-48 -39 -124 -39q-78 0 -125 39l-79 -98l-83 82l94 86 q-41 52 -41 122q0 65 36 116l-97 82l84 87l87 -95q47 35 123 35z" unicode="¤"/>
<glyph glyph-name="yen" d="M233 296h-157v114h95l-171 313h212l124 -272l122 272h209l-171 -313h94v-114h-157v-74h157v-114h-157v-108h-200v108h-157v114h157v74z" unicode="¥"/>
<glyph glyph-name="brokenbar" horiz-adv-x="333" unicode="¦" d="M91 740h151v-350h-151v350zM91 260h151v-350h-151v350z"/>
<glyph glyph-name="section" d="M249 431q-12 0 -22.5 -14.5t-10.5 -28.5q0 -40 59 -54q116 -27 137 -27q35 0 35 36q0 20 -10.5 31t-38.5 20q-22 8 -82 22.5t-67 14.5zM103 141h154v-5q0 -35 53 -35q55 0 72 7.5t17 32.5t-16.5 33.5t-87.5 19.5q-120 19 -162 43q-54 31 -54 101q0 91 102 116 q-77 27 -77 128q0 74 47 115q44 36 163 36q86 0 129 -10.5t66 -36.5q24 -26 25 -95h-146q0 22 -13.5 29.5t-54.5 7.5q-34 0 -47 -8t-13 -29q0 -23 21.5 -33.5t95.5 -23.5q117 -21 162 -51.5t45 -88.5q0 -95 -106 -115q43 -19 62 -49.5t19 -80.5q0 -85 -53 -124 q-47 -34 -187 -34q-81 0 -123 12t-68 41q-25 29 -25 97z" unicode="§"/>
<glyph glyph-name="dieresis" horiz-adv-x="333" unicode="¨" d="M-15 585v125h151v-125h-151zM197 585v125h151v-125h-151z"/>
<glyph glyph-name="copyright" horiz-adv-x="840" unicode="©" d="M603 414h-121v16q0 44 -41 44h-24q-35 0 -45 -12.5t-10 -55.5v-89q0 -38 10.5 -50.5t44.5 -12.5h24q43 0 43 42v28h121v-22q0 -71 -32.5 -112t-92.5 -41h-99q-71 0 -106 33.5t-35 106.5v139q0 80 34 115t107 35h99q65 0 94 -42t29 -96v-26zM53 362q0 163 102.5 265.5 t265.5 102.5t264.5 -102.5t101.5 -267.5q0 -163 -102.5 -265.5t-265.5 -102.5t-264.5 102.5t-101.5 267.5zM134 362q0 -132 78.5 -213.5t206.5 -81.5q132 0 209.5 80t77.5 213q0 132 -78.5 213.5t-206.5 81.5q-131 0 -209 -80t-78 -213z"/>
<glyph glyph-name="ordfeminine" horiz-adv-x="400" unicode="ª" d="M186 518q-20 0 -27.5 -8.5t-7.5 -32.5q0 -18 9.5 -25.5t35.5 -7.5q25 0 35 8q1 1 2.5 2t1.5 1.5t1 2.5t1 3.5t0.5 5t0.5 8.5v12q0 18 -10 24.5t-42 6.5zM240 368v35q-24 -23 -42.5 -31t-51.5 -8q-68 0 -94 25q-28 28 -28 87q0 63 29.5 91.5t89.5 28.5q47 0 66.5 -7.5 t30.5 -30.5v36q0 38 -8 48t-34 10q-33 0 -33 -18h-129q0 48 20 68q16 17 44.5 23t90.5 6q110 0 146 -29q32 -30 32 -84v-250h-129z"/>
<glyph glyph-name="guillemotleft" horiz-adv-x="444" unicode="«" d="M129 407h105l-101 -143l98 -146h-105l-98 146zM310 407h105l-101 -143l98 -146h-105l-98 146z"/>
<glyph glyph-name="logicalnot" d="M50 445h541v-340h-143v202h-398v138z" unicode="¬"/>
<glyph glyph-name="uni00AD" horiz-adv-x="333" unicode="­" d="M26 197v150h282v-150h-282z"/>
<glyph glyph-name="registered" horiz-adv-x="480" unicode="®" d="M213 546h39q25 0 25 20q0 22 -29 22h-35v-42zM157 436v198h105q72 0 72 -59q0 -40 -40 -50q39 -13 39 -45v-44h-57v27q0 21 -7.5 29.5t-27.5 8.5h-28v-65h-56zM240 681q-67 0 -106.5 -40.5t-39.5 -109.5t40 -109.5t106 -40.5q67 0 106.5 40.5t39.5 109.5t-40 109.5 t-106 40.5zM240 730q88 0 143.5 -55.5t55.5 -143.5q0 -86 -56 -142.5t-143 -56.5q-88 0 -143.5 55.5t-55.5 143.5q0 86 56 142.5t143 56.5z"/>
<glyph glyph-name="macron" horiz-adv-x="333" unicode="¯" d="M-15 606v83h363v-83h-363z"/>
<glyph glyph-name="degree" horiz-adv-x="400" unicode="°" d="M200 432q-68 0 -109.5 41t-41.5 108q0 66 42 108t109 42q68 0 109.5 -41t41.5 -108q0 -66 -42 -108t-109 -42zM200 508q35 0 53.5 20.5t18.5 53.5q0 31 -19 52t-53 21q-35 0 -53.5 -20.5t-18.5 -53.5q0 -31 19 -52t53 -21z"/>
<glyph glyph-name="plusminus" d="M55 443h207v143h143v-143h207v-132h-207v-123h-143v123h-207v132zM55 130h557v-130h-557v130z" unicode="±"/>
<glyph glyph-name="twosuperior" horiz-adv-x="500" unicode="²" d="M194 556h-130q-2 17 -2 31q0 77 44.5 107.5t137.5 30.5q112 0 156 -31.5t44 -125.5q0 -71 -23.5 -100t-97.5 -50l-90 -25q-22 -6 -29 -14.5t-7 -27.5h245v-113h-383v115q0 65 27.5 94t106.5 52l69 20q44 12 44 55q0 23 -11 34t-42 11q-39 0 -49 -12t-10 -51z"/>
<glyph glyph-name="threesuperior" horiz-adv-x="500" unicode="³" d="M59 400h135q-2 -14 -2 -18q0 -44 57 -44q37 0 48.5 11t11.5 37q0 29 -13 37.5t-50 8.5q-5 0 -29 -2v106h23q46 0 55 6q8 5 8 32q0 28 -10 36.5t-47 8.5q-34 0 -41.5 -9.5t-7.5 -44.5h-129q-2 14 -2 27q0 72 45.5 102.5t136.5 30.5q107 0 150 -30.5t43 -106.5 q0 -42 -16.5 -65t-53.5 -37q78 -18 78 -111q0 -80 -48.5 -111.5t-146.5 -31.5q-197 0 -197 135q0 13 2 33z"/>
<glyph glyph-name="acute" horiz-adv-x="333" unicode="´" d="M353 723l-160 -149h-120l97 149h183z"/>
<glyph glyph-name="mu" d="M562 509v-509h-162v79q-16 -44 -45.5 -60.5t-80.5 -16.5v-199h-169q-1 327 -1 706h169v-335q0 -31 13.5 -44t45.5 -13q41 0 54 22q7 12 7 53v317h169z" unicode="µ"/>
<glyph glyph-name="paragraph" horiz-adv-x="700" unicode="¶" d="M592 -197h-129v790h-74v-790h-129v437q-104 0 -161.5 54.5t-57.5 185.5q0 122 56 182.5t178 60.5h392v-131h-75v-789z"/>
<glyph glyph-name="periodcentered" horiz-adv-x="333" unicode="·" d="M168 405q36 0 61.5 -25.5t25.5 -61.5q0 -37 -25.5 -63t-62.5 -26t-62.5 26t-25.5 63t25.5 62t63.5 25z"/>
<glyph glyph-name="cedilla" horiz-adv-x="333" unicode="¸" d="M28 -227v55q49 -10 90 -10q22 0 34.5 10.5t12.5 26.5t-12.5 26t-33.5 10q-19 0 -48 -3v41l48 71h66l-44 -64q13 2 29 2q42 0 66.5 -23.5t24.5 -58.5q0 -42 -33 -67.5t-101 -25.5q-50 0 -99 10z"/>
<glyph glyph-name="onesuperior" horiz-adv-x="500" unicode="¹" d="M368 238h-135v339l-112 -99l-73 99l167 142h153v-481z"/>
<glyph glyph-name="ordmasculine" horiz-adv-x="400" unicode="º" d="M160 590v-75q0 -35 7 -45q8 -12 33 -12q26 0 34 14q5 10 5 82q0 57 -6 70t-33 13q-22 0 -31 -9.5t-9 -37.5zM198 731q116 0 151 -37q18 -19 23.5 -47.5t5.5 -104.5q0 -67 -7 -97.5t-26 -47.5q-41 -36 -153 -36t-147 47q-24 31 -24 140q0 112 34 147.5t143 35.5z"/>
<glyph glyph-name="guillemotright" horiz-adv-x="444" unicode="»" d="M315 118h-105l101 143l-98 146h105l98 -146zM134 118h-105l101 143l-98 146h105l98 -146z"/>
<glyph glyph-name="onequarter" horiz-adv-x="1000" unicode="¼" d="M654 196h96v166zM889 91v-91h-139v91h-230v114l168 276h201v-285h53v-105h-53zM301 0l233 723h89l-231 -723h-91zM328 238h-135v339l-112 -99l-73 99l167 142h153v-481z"/>
<glyph glyph-name="onehalf" horiz-adv-x="1000" unicode="½" d="M701 318h-130q-2 17 -2 31q0 77 44.5 107.5t137.5 30.5q112 0 156 -31.5t44 -125.5q0 -71 -23.5 -100t-97.5 -50l-90 -25q-22 -6 -29 -14.5t-7 -27.5h245v-113h-383v115q0 65 27.5 94t106.5 52l69 20q44 12 44 55q0 23 -11 34t-42 11q-39 0 -49 -12t-10 -51zM301 0 l233 723h89l-231 -723h-91zM328 238h-135v339l-112 -99l-73 99l167 142h153v-481z"/>
<glyph glyph-name="threequarters" horiz-adv-x="1000" unicode="¾" d="M341 0l233 723h89l-231 -723h-91zM684 196h96v166zM919 91v-91h-139v91h-230v114l168 276h201v-285h53v-105h-53zM19 400h135q-2 -14 -2 -18q0 -44 57 -44q37 0 48.5 11t11.5 37q0 29 -13 37.5t-50 8.5q-5 0 -29 -2v106h23q46 0 55 6q8 5 8 32q0 28 -10 36.5t-47 8.5 q-34 0 -41.5 -9.5t-7.5 -44.5h-129q-2 14 -2 27q0 72 45.5 102.5t136.5 30.5q107 0 150 -30.5t43 -106.5q0 -42 -16.5 -65t-53.5 -37q78 -18 78 -111q0 -80 -48.5 -111.5t-146.5 -31.5q-197 0 -197 135q0 13 2 33z"/>
<glyph glyph-name="questiondown" horiz-adv-x="556" unicode="¿" d="M387 509v-167h-171v167h171zM349 -2h166v-24q0 -98 -47 -139q-25 -22 -63 -30t-114 -8q-93 0 -137.5 8.5t-74.5 32.5q-50 41 -50 148q0 80 29.5 122t113.5 80q27 12 35.5 22.5t8.5 30.5q0 8 -1 15h168v-25q0 -68 -22.5 -99t-102.5 -72q-42 -22 -51 -32.5t-9 -43.5 q0 -38 16 -49.5t69 -11.5q38 0 52.5 13t14.5 46q0 8 -1 16z"/>
<glyph glyph-name="Agrave" horiz-adv-x="722" unicode="À" d="M347 929l97 -149h-120l-160 149h183zM281 273h160l-72 300h-16zM212 723h299l202 -723h-203l-33 130h-231l-31 -130h-206z"/>
<glyph glyph-name="Aacute" horiz-adv-x="722" unicode="Á" d="M561 929l-160 -149h-120l97 149h183zM281 273h160l-72 300h-16zM212 723h299l202 -723h-203l-33 130h-231l-31 -130h-206z"/>
<glyph glyph-name="Acircumflex" horiz-adv-x="722" unicode="Â" d="M286 929h153l112 -149h-128l-60 80l-61 -80h-128zM281 273h160l-72 300h-16zM212 723h299l202 -723h-203l-33 130h-231l-31 -130h-206z"/>
<glyph glyph-name="Atilde" horiz-adv-x="722" unicode="Ã" d="M483 918h71q-6 -59 -37.5 -93t-81.5 -34q-33 0 -81 18t-63 18q-17 0 -29.5 -12t-15.5 -31h-72q7 58 41 96t81 38q30 0 81 -20t63 -20q35 0 43 40zM281 273h160l-72 300h-16zM212 723h299l202 -723h-203l-33 130h-231l-31 -130h-206z"/>
<glyph glyph-name="Adieresis" horiz-adv-x="722" unicode="Ä" d="M182 791v125h151v-125h-151zM394 791v125h151v-125h-151zM281 273h160l-72 300h-16zM212 723h299l202 -723h-203l-33 130h-231l-31 -130h-206z"/>
<glyph glyph-name="Aring" horiz-adv-x="722" unicode="Å" d="M358 815q22 0 36 14.5t14 38.5t-14 38t-35 14q-22 0 -36 -14.5t-14 -38.5t14 -38t35 -14zM359 974q47 0 76.5 -29.5t29.5 -76.5t-30 -77t-77 -30t-76.5 29.5t-29.5 76.5t30 77t77 30zM281 273h160l-72 300h-16zM212 723h299l202 -723h-203l-33 130h-231l-31 -130h-206z "/>
<glyph glyph-name="AE" horiz-adv-x="978" unicode="Æ" d="M457 288v298h-44l-110 -298h154zM286 723h634v-154h-273v-131h263v-136h-263v-147h282v-155h-472v153h-201q-24 -56 -55 -153h-205z"/>
<glyph glyph-name="Ccedilla" horiz-adv-x="704" unicode="Ç" d="M234 -227v55q49 -10 90 -10q22 0 34.5 10.5t12.5 26.5t-12.5 26t-33.5 10q-19 0 -48 -3v41l43 64q-88 4 -141 26t-84 68q-41 62 -41 189v201q0 114 61 178q40 41 94.5 58.5t143.5 17.5q217 0 270 -98q15 -27 19.5 -60t6.5 -117h-192v10q0 34 -3.5 48t-13.5 23 q-23 23 -83 23q-59 0 -79 -19.5t-20 -77.5v-206q0 -55 20.5 -75t76.5 -20q77 0 95 25q11 17 11 66q0 3 -2 25h197q0 -92 -9 -133.5t-37 -75.5q-32 -40 -83 -57.5t-142 -19.5l-38 -56q13 2 29 2q42 0 66.5 -23.5t24.5 -58.5q0 -42 -33 -67.5t-101 -25.5q-50 0 -99 10z"/>
<glyph glyph-name="Egrave" d="M335 929l97 -149h-120l-160 149h183zM69 0v723h549v-160h-349v-125h330v-138h-330v-138h349v-162h-549z" unicode="È"/>
<glyph glyph-name="Eacute" d="M529 929l-160 -149h-120l97 149h183zM69 0v723h549v-160h-349v-125h330v-138h-330v-138h349v-162h-549z" unicode="É"/>
<glyph glyph-name="Ecircumflex" d="M264 929h153l112 -149h-128l-60 80l-61 -80h-128zM69 0v723h549v-160h-349v-125h330v-138h-330v-138h349v-162h-549z" unicode="Ê"/>
<glyph glyph-name="Edieresis" d="M160 791v125h151v-125h-151zM372 791v125h151v-125h-151zM69 0v723h549v-160h-349v-125h330v-138h-330v-138h349v-162h-549z" unicode="Ë"/>
<glyph glyph-name="Igrave" horiz-adv-x="342" unicode="Ì" d="M165 929l97 -149h-120l-160 149h183zM71 723h200v-723h-200v723z"/>
<glyph glyph-name="Iacute" horiz-adv-x="342" unicode="Í" d="M359 929l-160 -149h-120l97 149h183zM71 723h200v-723h-200v723z"/>
<glyph glyph-name="Icircumflex" horiz-adv-x="342" unicode="Î" d="M94 929h153l112 -149h-128l-60 80l-61 -80h-128zM71 723h200v-723h-200v723z"/>
<glyph glyph-name="Idieresis" horiz-adv-x="342" unicode="Ï" d="M-10 791v125h151v-125h-151zM202 791v125h151v-125h-151zM71 723h200v-723h-200v723z"/>
<glyph glyph-name="Eth" horiz-adv-x="769" unicode="Ð" d="M269 553v-134h132v-104h-132v-146h128q31 0 47.5 1.5t31.5 11t21.5 22t11 43t5.5 64t1 94.5q0 66 -8.5 96.5t-28.5 41.5q-24 12 -148 12q-24 0 -61 -2zM0 419h69v304h304q186 0 255 -54q55 -42 73 -111q14 -50 14 -200q0 -106 -9 -159.5t-35 -96.5q-38 -67 -120 -90 q-60 -17 -281 -17q-78 0 -201 5v315h-69v104z"/>
<glyph glyph-name="Ntilde" horiz-adv-x="831" unicode="Ñ" d="M541 918h71q-6 -59 -37.5 -93t-81.5 -34q-34 0 -81.5 18t-62.5 18q-17 0 -29.5 -12t-15.5 -31h-72q7 58 41 96t81 38q30 0 80.5 -20t63.5 -20q35 0 43 40zM67 0v723h290l101 -246q82 -199 125 -321q0 10 -4.5 137t-4.5 192v238h190v-723h-287l-85 198q-91 211 -144 360 q9 -220 9 -315v-243h-190z"/>
<glyph glyph-name="Ograve" horiz-adv-x="761" unicode="Ò" d="M378 929l97 -149h-120l-160 149h183zM367 562q-53 0 -75 -12t-29 -45q-9 -42 -9 -138q0 -89 4 -124t17 -52q19 -27 98 -27q97 0 116 27q11 15 14.5 55t3.5 142q0 75 -4 103.5t-16 42.5q-21 28 -120 28zM54 265v159q0 111 19 160q39 105 144 133q49 14 152 14 q159 0 225 -37q73 -39 99 -124q14 -45 14 -206q0 -124 -6 -170.5t-28 -86.5q-34 -62 -95 -85q-76 -30 -192 -30q-214 0 -285 90q-47 59 -47 183z"/>
<glyph glyph-name="Oacute" horiz-adv-x="761" unicode="Ó" d="M572 929l-160 -149h-120l97 149h183zM367 562q-53 0 -75 -12t-29 -45q-9 -42 -9 -138q0 -89 4 -124t17 -52q19 -27 98 -27q97 0 116 27q11 15 14.5 55t3.5 142q0 75 -4 103.5t-16 42.5q-21 28 -120 28zM54 265v159q0 111 19 160q39 105 144 133q49 14 152 14 q159 0 225 -37q73 -39 99 -124q14 -45 14 -206q0 -124 -6 -170.5t-28 -86.5q-34 -62 -95 -85q-76 -30 -192 -30q-214 0 -285 90q-47 59 -47 183z"/>
<glyph glyph-name="Ocircumflex" horiz-adv-x="761" unicode="Ô" d="M307 929h153l112 -149h-128l-60 80l-61 -80h-128zM367 562q-53 0 -75 -12t-29 -45q-9 -42 -9 -138q0 -89 4 -124t17 -52q19 -27 98 -27q97 0 116 27q11 15 14.5 55t3.5 142q0 75 -4 103.5t-16 42.5q-21 28 -120 28zM54 265v159q0 111 19 160q39 105 144 133q49 14 152 14 q159 0 225 -37q73 -39 99 -124q14 -45 14 -206q0 -124 -6 -170.5t-28 -86.5q-34 -62 -95 -85q-76 -30 -192 -30q-214 0 -285 90q-47 59 -47 183z"/>
<glyph glyph-name="Otilde" horiz-adv-x="761" unicode="Õ" d="M504 918h71q-6 -59 -37.5 -93t-81.5 -34q-34 0 -81 18t-63 18q-17 0 -29.5 -12t-15.5 -31h-72q7 58 41 96t81 38q31 0 81 -20t63 -20q35 0 43 40zM367 562q-53 0 -75 -12t-29 -45q-9 -42 -9 -138q0 -89 4 -124t17 -52q19 -27 98 -27q97 0 116 27q11 15 14.5 55t3.5 142 q0 75 -4 103.5t-16 42.5q-21 28 -120 28zM54 265v159q0 111 19 160q39 105 144 133q49 14 152 14q159 0 225 -37q73 -39 99 -124q14 -45 14 -206q0 -124 -6 -170.5t-28 -86.5q-34 -62 -95 -85q-76 -30 -192 -30q-214 0 -285 90q-47 59 -47 183z"/>
<glyph glyph-name="Odieresis" horiz-adv-x="761" unicode="Ö" d="M203 791v125h151v-125h-151zM415 791v125h151v-125h-151zM367 562q-53 0 -75 -12t-29 -45q-9 -42 -9 -138q0 -89 4 -124t17 -52q19 -27 98 -27q97 0 116 27q11 15 14.5 55t3.5 142q0 75 -4 103.5t-16 42.5q-21 28 -120 28zM54 265v159q0 111 19 160q39 105 144 133 q49 14 152 14q159 0 225 -37q73 -39 99 -124q14 -45 14 -206q0 -124 -6 -170.5t-28 -86.5q-34 -62 -95 -85q-76 -30 -192 -30q-214 0 -285 90q-47 59 -47 183z"/>
<glyph glyph-name="multiply" d="M62 445l93 94l178 -184l177 181l91 -93l-176 -181l179 -184l-93 -93l-178 183l-177 -181l-91 92l176 182z" unicode="×"/>
<glyph glyph-name="Oslash" horiz-adv-x="761" unicode="Ø" d="M492 191q11 16 14.5 58.5t3.5 171.5l-240 -238q18 -19 103 -19q100 0 119 27zM367 562q-53 0 -77 -12.5t-31 -44.5q-8 -37 -8 -138v-74l239 241q-6 17 -34 22.5t-89 5.5zM54 265v159q0 111 19 160q39 105 144 133q49 14 152 14q97 0 153 -12t103 -45l59 61l65 -65 l-68 -70q18 -38 22 -77.5t4 -158.5q0 -124 -6 -170.5t-28 -86.5q-34 -62 -95 -85q-76 -30 -192 -30q-170 0 -245 52l-58 -59l-68 61l65 67q-26 52 -26 152z"/>
<glyph glyph-name="Ugrave" horiz-adv-x="768" unicode="Ù" d="M380 929l97 -149h-120l-160 149h183zM62 723h200v-497q0 -36 21.5 -50t73.5 -14q116 0 133 18q16 19 16 62v481h200v-441q0 -96 -17 -147.5t-61 -87.5q-38 -31 -90.5 -42t-160.5 -11q-112 0 -168.5 17t-94.5 61q-52 61 -52 170v481z"/>
<glyph glyph-name="Uacute" horiz-adv-x="768" unicode="Ú" d="M573 929l-160 -149h-120l97 149h183zM62 723h200v-497q0 -36 21.5 -50t73.5 -14q116 0 133 18q16 19 16 62v481h200v-441q0 -96 -17 -147.5t-61 -87.5q-38 -31 -90.5 -42t-160.5 -11q-112 0 -168.5 17t-94.5 61q-52 61 -52 170v481z"/>
<glyph glyph-name="Ucircumflex" horiz-adv-x="768" unicode="Û" d="M308 929h153l112 -149h-128l-60 80l-61 -80h-128zM62 723h200v-497q0 -36 21.5 -50t73.5 -14q116 0 133 18q16 19 16 62v481h200v-441q0 -96 -17 -147.5t-61 -87.5q-38 -31 -90.5 -42t-160.5 -11q-112 0 -168.5 17t-94.5 61q-52 61 -52 170v481z"/>
<glyph glyph-name="Udieresis" horiz-adv-x="768" unicode="Ü" d="M205 791v125h151v-125h-151zM417 791v125h151v-125h-151zM62 723h200v-497q0 -36 21.5 -50t73.5 -14q116 0 133 18q16 19 16 62v481h200v-441q0 -96 -17 -147.5t-61 -87.5q-38 -31 -90.5 -42t-160.5 -11q-112 0 -168.5 17t-94.5 61q-52 61 -52 170v481z"/>
<glyph glyph-name="Yacute" horiz-adv-x="642" unicode="Ý" d="M511 929l-160 -149h-120l97 149h183zM220 256l-243 467h217l129 -282l127 282h214l-244 -470v-253h-200v256z"/>
<glyph glyph-name="Thorn" horiz-adv-x="727" unicode="Þ" d="M268 483v-170h131q47 0 63.5 19.5t16.5 68.5q0 82 -83 82h-128zM69 723h200v-80h135q150 0 210.5 -57t60.5 -174q0 -106 -37 -168t-122 -82q-37 -9 -173 -9q-28 0 -74 1v-154h-200v723z"/>
<glyph glyph-name="germandbls" horiz-adv-x="566" unicode="ß" d="M58 0v534q0 105 50 151.5t162 46.5q114 0 166 -44q46 -40 46 -141q0 -61 -15.5 -90.5t-55.5 -43.5q48 -4 79 -38q18 -19 24.5 -52.5t6.5 -100.5q0 -137 -36.5 -184t-142.5 -47q-39 0 -66 5v119q9 -1 16 -1q38 0 50 20q10 18 10 111q0 45 -3 62.5t-13 25.5q-15 12 -44 12 q-9 0 -14 -1v105q23 0 34 10q10 8 10 56q0 67 -11 82q-12 17 -39 17q-45 0 -45 -45v-569h-169z"/>
<glyph glyph-name="agrave" horiz-adv-x="563" unicode="à" d="M277 723l97 -149h-120l-160 149h183zM262 223q-38 0 -47.5 -12t-9.5 -58q0 -32 13.5 -42t56.5 -10q45 0 56 11q11 10 11 66q0 29 -9 35q-16 10 -71 10zM348 0v51l-8 -7q-37 -33 -58.5 -41t-73.5 -8q-54 0 -82.5 7t-48.5 26q-39 36 -39 126q0 91 36.5 128.5t124.5 37.5 q69 0 99 -11.5t47 -43.5v52q0 69 -9 84q-10 19 -57 19q-32 0 -44 -8.5t-12 -31.5h-161q0 71 28 99q23 24 58 31.5t120 7.5q88 0 126.5 -8t67.5 -31q47 -39 47 -119v-360h-161z"/>
<glyph glyph-name="aacute" horiz-adv-x="563" unicode="á" d="M472 723l-160 -149h-120l97 149h183zM262 223q-38 0 -47.5 -12t-9.5 -58q0 -32 13.5 -42t56.5 -10q45 0 56 11q11 10 11 66q0 29 -9 35q-16 10 -71 10zM348 0v51l-8 -7q-37 -33 -58.5 -41t-73.5 -8q-54 0 -82.5 7t-48.5 26q-39 36 -39 126q0 91 36.5 128.5t124.5 37.5 q69 0 99 -11.5t47 -43.5v52q0 69 -9 84q-10 19 -57 19q-32 0 -44 -8.5t-12 -31.5h-161q0 71 28 99q23 24 58 31.5t120 7.5q88 0 126.5 -8t67.5 -31q47 -39 47 -119v-360h-161z"/>
<glyph glyph-name="acircumflex" horiz-adv-x="563" unicode="â" d="M206 723h153l112 -149h-128l-60 80l-61 -80h-128zM262 223q-38 0 -47.5 -12t-9.5 -58q0 -32 13.5 -42t56.5 -10q45 0 56 11q11 10 11 66q0 29 -9 35q-16 10 -71 10zM348 0v51l-8 -7q-37 -33 -58.5 -41t-73.5 -8q-54 0 -82.5 7t-48.5 26q-39 36 -39 126q0 91 36.5 128.5 t124.5 37.5q69 0 99 -11.5t47 -43.5v52q0 69 -9 84q-10 19 -57 19q-32 0 -44 -8.5t-12 -31.5h-161q0 71 28 99q23 24 58 31.5t120 7.5q88 0 126.5 -8t67.5 -31q47 -39 47 -119v-360h-161z"/>
<glyph glyph-name="atilde" horiz-adv-x="563" unicode="ã" d="M403 712h71q-6 -59 -37.5 -93t-81.5 -34q-33 0 -81 18t-63 18q-17 0 -29.5 -12t-15.5 -31h-72q7 58 41 96t81 38q30 0 81 -20t63 -20q35 0 43 40zM262 223q-38 0 -47.5 -12t-9.5 -58q0 -32 13.5 -42t56.5 -10q45 0 56 11q11 10 11 66q0 29 -9 35q-16 10 -71 10zM348 0v51 l-8 -7q-37 -33 -58.5 -41t-73.5 -8q-54 0 -82.5 7t-48.5 26q-39 36 -39 126q0 91 36.5 128.5t124.5 37.5q69 0 99 -11.5t47 -43.5v52q0 69 -9 84q-10 19 -57 19q-32 0 -44 -8.5t-12 -31.5h-161q0 71 28 99q23 24 58 31.5t120 7.5q88 0 126.5 -8t67.5 -31q47 -39 47 -119 v-360h-161z"/>
<glyph glyph-name="adieresis" horiz-adv-x="563" unicode="ä" d="M102 585v125h151v-125h-151zM314 585v125h151v-125h-151zM262 223q-38 0 -47.5 -12t-9.5 -58q0 -32 13.5 -42t56.5 -10q45 0 56 11q11 10 11 66q0 29 -9 35q-16 10 -71 10zM348 0v51l-8 -7q-37 -33 -58.5 -41t-73.5 -8q-54 0 -82.5 7t-48.5 26q-39 36 -39 126 q0 91 36.5 128.5t124.5 37.5q69 0 99 -11.5t47 -43.5v52q0 69 -9 84q-10 19 -57 19q-32 0 -44 -8.5t-12 -31.5h-161q0 71 28 99q23 24 58 31.5t120 7.5q88 0 126.5 -8t67.5 -31q47 -39 47 -119v-360h-161z"/>
<glyph glyph-name="aring" horiz-adv-x="563" unicode="å" d="M284 628q22 0 36 14.5t14 38.5t-14 38t-35 14q-22 0 -36 -14.5t-14 -38.5t14 -38t35 -14zM285 787q47 0 76.5 -29.5t29.5 -76.5t-30 -77t-77 -30t-76.5 29.5t-29.5 76.5t30 77t77 30zM262 223q-38 0 -47.5 -12t-9.5 -58q0 -32 13.5 -42t56.5 -10q45 0 56 11q11 10 11 66 q0 29 -9 35q-16 10 -71 10zM348 0v51l-8 -7q-37 -33 -58.5 -41t-73.5 -8q-54 0 -82.5 7t-48.5 26q-39 36 -39 126q0 91 36.5 128.5t124.5 37.5q69 0 99 -11.5t47 -43.5v52q0 69 -9 84q-10 19 -57 19q-32 0 -44 -8.5t-12 -31.5h-161q0 71 28 99q23 24 58 31.5t120 7.5 q88 0 126.5 -8t67.5 -31q47 -39 47 -119v-360h-161z"/>
<glyph glyph-name="ae" horiz-adv-x="887" unicode="æ" d="M273 218q-45 0 -57.5 -11.5t-12.5 -53.5q0 -31 11 -41.5t44 -10.5q74 0 93 11q13 8 13 45q0 44 -12.5 52.5t-78.5 8.5zM528 309h157v21q0 57 -11 70.5t-59 13.5q-61 0 -74.5 -11.5t-13.5 -63.5q0 -17 1 -30zM685 153h162q-2 -45 -9 -68.5t-25 -41.5q-51 -52 -199 -52 q-89 0 -132.5 20t-60.5 68q-14 -48 -56 -68t-130 -20q-108 0 -152.5 36.5t-44.5 124.5q0 90 39 129t130 39q135 0 155 -55v78q0 53 -10 63q-13 13 -67 13q-38 0 -50 -6.5t-12 -25.5v-9h-161q1 46 9 69.5t29 39.5q24 19 58.5 25.5t108.5 6.5q119 0 152 -26q23 -17 32 -51 q16 42 52.5 59t110.5 17q159 0 203 -74q29 -46 29 -173q0 -17 -1 -47h-317q-2 -14 -2 -39q0 -54 13 -69.5t59 -15.5q54 0 70.5 9.5t16.5 43.5z"/>
<glyph glyph-name="ccedilla" horiz-adv-x="555" unicode="ç" d="M156 -227v55q49 -10 90 -10q22 0 34.5 10.5t12.5 26.5t-12.5 26t-33.5 10q-19 0 -48 -3v41l42 63q-110 7 -155 65q-24 30 -33 73.5t-9 127.5q0 73 6.5 109.5t23.5 67.5q26 45 73.5 64t132.5 19q130 0 178 -35q53 -40 53 -137v-25h-159q0 49 -11.5 61.5t-56.5 12.5 q-51 0 -61 -20q-10 -16 -10 -135q0 -87 11.5 -105t67.5 -18q25 0 36 5t17 18q5 12 8 62h160v-19q0 -119 -70 -163q-38 -25 -136 -28l-38 -56q13 2 29 2q42 0 66.5 -23.5t24.5 -58.5q0 -42 -33 -67.5t-101 -25.5q-50 0 -99 10z"/>
<glyph glyph-name="egrave" horiz-adv-x="563" unicode="è" d="M279 723l97 -149h-120l-160 149h183zM207 309h155q2 9 2 28q0 52 -13 64.5t-68 12.5q-53 0 -64.5 -15.5t-11.5 -89.5zM521 224h-315q-2 -28 -2 -39q0 -52 14 -69t57 -17q60 0 71 8q13 9 13 33q0 5 -1 13h162q-3 -78 -39 -116q-26 -26 -68 -36t-123 -10q-88 0 -133.5 14 t-74.5 50q-23 28 -30.5 69.5t-7.5 139.5q0 89 13.5 136t46.5 75q51 43 169 43q89 0 138 -17t79 -58q19 -26 26 -63.5t7 -113.5q0 -21 -2 -42z"/>
<glyph glyph-name="eacute" horiz-adv-x="563" unicode="é" d="M473 723l-160 -149h-120l97 149h183zM207 309h155q2 9 2 28q0 52 -13 64.5t-68 12.5q-53 0 -64.5 -15.5t-11.5 -89.5zM521 224h-315q-2 -28 -2 -39q0 -52 14 -69t57 -17q60 0 71 8q13 9 13 33q0 5 -1 13h162q-3 -78 -39 -116q-26 -26 -68 -36t-123 -10q-88 0 -133.5 14 t-74.5 50q-23 28 -30.5 69.5t-7.5 139.5q0 89 13.5 136t46.5 75q51 43 169 43q89 0 138 -17t79 -58q19 -26 26 -63.5t7 -113.5q0 -21 -2 -42z"/>
<glyph glyph-name="ecircumflex" horiz-adv-x="563" unicode="ê" d="M208 723h153l112 -149h-128l-60 80l-61 -80h-128zM207 309h155q2 9 2 28q0 52 -13 64.5t-68 12.5q-53 0 -64.5 -15.5t-11.5 -89.5zM521 224h-315q-2 -28 -2 -39q0 -52 14 -69t57 -17q60 0 71 8q13 9 13 33q0 5 -1 13h162q-3 -78 -39 -116q-26 -26 -68 -36t-123 -10 q-88 0 -133.5 14t-74.5 50q-23 28 -30.5 69.5t-7.5 139.5q0 89 13.5 136t46.5 75q51 43 169 43q89 0 138 -17t79 -58q19 -26 26 -63.5t7 -113.5q0 -21 -2 -42z"/>
<glyph glyph-name="edieresis" horiz-adv-x="563" unicode="ë" d="M104 585v125h151v-125h-151zM316 585v125h151v-125h-151zM207 309h155q2 9 2 28q0 52 -13 64.5t-68 12.5q-53 0 -64.5 -15.5t-11.5 -89.5zM521 224h-315q-2 -28 -2 -39q0 -52 14 -69t57 -17q60 0 71 8q13 9 13 33q0 5 -1 13h162q-3 -78 -39 -116q-26 -26 -68 -36 t-123 -10q-88 0 -133.5 14t-74.5 50q-23 28 -30.5 69.5t-7.5 139.5q0 89 13.5 136t46.5 75q51 43 169 43q89 0 138 -17t79 -58q19 -26 26 -63.5t7 -113.5q0 -21 -2 -42z"/>
<glyph glyph-name="igrave" horiz-adv-x="285" unicode="ì" d="M138 723l97 -149h-120l-160 149h183zM58 0v509h169v-509h-169z"/>
<glyph glyph-name="iacute" horiz-adv-x="285" unicode="í" d="M332 723l-160 -149h-120l97 149h183zM58 0v509h169v-509h-169z"/>
<glyph glyph-name="icircumflex" horiz-adv-x="285" unicode="î" d="M67 723h153l112 -149h-128l-60 80l-61 -80h-128zM58 0v509h169v-509h-169z"/>
<glyph glyph-name="idieresis" horiz-adv-x="285" unicode="ï" d="M-37 585v125h151v-125h-151zM175 585v125h151v-125h-151zM58 0v509h169v-509h-169z"/>
<glyph glyph-name="eth" horiz-adv-x="554" unicode="ð" d="M209 311v-115q0 -46 11 -64q12 -17 58 -17q44 0 56 20q11 18 11 126q0 78 -10.5 99t-56.5 21q-38 0 -53.5 -16.5t-15.5 -53.5zM245 498q54 0 85 -20q-6 23 -30.5 54.5t-42.5 45.5l-106 -41l-27 66l70 27l-53 44l116 58l70 -46l98 40l28 -68l-64 -25q66 -80 93.5 -154 t27.5 -191q0 -203 -53 -251q-52 -46 -191 -46q-137 0 -185 64q-37 49 -37 207q0 131 44 183.5t157 52.5z"/>
<glyph glyph-name="ntilde" horiz-adv-x="568" unicode="ñ" d="M405 712h71q-6 -59 -37.5 -93t-81.5 -34q-33 0 -81 18t-63 18q-17 0 -29.5 -12t-15.5 -31h-72q7 58 41 96t81 38q30 0 80.5 -20t63.5 -20q35 0 43 40zM279 392q-32 0 -43 -13.5t-11 -52.5v-326h-169v509h165v-69q22 45 52 61.5t87 16.5q86 0 120 -36.5t34 -130.5v-351 h-169v321q0 43 -13 57t-53 14z"/>
<glyph glyph-name="ograve" horiz-adv-x="554" unicode="ò" d="M275 723l97 -149h-120l-160 149h183zM213 331v-135q0 -47 10 -64q12 -17 55 -17q45 0 55 20q8 16 8 131q0 97 -8 114.5t-55 17.5q-40 0 -52.5 -12.5t-12.5 -54.5zM275 518q144 0 193 -50q26 -27 34 -69.5t8 -149.5q0 -95 -10.5 -140.5t-36.5 -69.5q-54 -48 -197 -48 q-75 0 -119 15t-69 49q-34 44 -34 202q0 85 8.5 133t35.5 78.5t69.5 40t117.5 9.5z"/>
<glyph glyph-name="oacute" horiz-adv-x="554" unicode="ó" d="M469 723l-160 -149h-120l97 149h183zM213 331v-135q0 -47 10 -64q12 -17 55 -17q45 0 55 20q8 16 8 131q0 97 -8 114.5t-55 17.5q-40 0 -52.5 -12.5t-12.5 -54.5zM275 518q144 0 193 -50q26 -27 34 -69.5t8 -149.5q0 -95 -10.5 -140.5t-36.5 -69.5q-54 -48 -197 -48 q-75 0 -119 15t-69 49q-34 44 -34 202q0 85 8.5 133t35.5 78.5t69.5 40t117.5 9.5z"/>
<glyph glyph-name="ocircumflex" horiz-adv-x="554" unicode="ô" d="M204 723h153l112 -149h-128l-60 80l-61 -80h-128zM213 331v-135q0 -47 10 -64q12 -17 55 -17q45 0 55 20q8 16 8 131q0 97 -8 114.5t-55 17.5q-40 0 -52.5 -12.5t-12.5 -54.5zM275 518q144 0 193 -50q26 -27 34 -69.5t8 -149.5q0 -95 -10.5 -140.5t-36.5 -69.5 q-54 -48 -197 -48q-75 0 -119 15t-69 49q-34 44 -34 202q0 85 8.5 133t35.5 78.5t69.5 40t117.5 9.5z"/>
<glyph glyph-name="otilde" horiz-adv-x="554" unicode="õ" d="M401 712h71q-6 -59 -37.5 -93t-81.5 -34q-33 0 -81 18t-63 18q-17 0 -29.5 -12t-15.5 -31h-72q7 58 41 96t81 38q30 0 81 -20t63 -20q35 0 43 40zM213 331v-135q0 -47 10 -64q12 -17 55 -17q45 0 55 20q8 16 8 131q0 97 -8 114.5t-55 17.5q-40 0 -52.5 -12.5t-12.5 -54.5 zM275 518q144 0 193 -50q26 -27 34 -69.5t8 -149.5q0 -95 -10.5 -140.5t-36.5 -69.5q-54 -48 -197 -48q-75 0 -119 15t-69 49q-34 44 -34 202q0 85 8.5 133t35.5 78.5t69.5 40t117.5 9.5z"/>
<glyph glyph-name="odieresis" horiz-adv-x="554" unicode="ö" d="M100 585v125h151v-125h-151zM312 585v125h151v-125h-151zM213 331v-135q0 -47 10 -64q12 -17 55 -17q45 0 55 20q8 16 8 131q0 97 -8 114.5t-55 17.5q-40 0 -52.5 -12.5t-12.5 -54.5zM275 518q144 0 193 -50q26 -27 34 -69.5t8 -149.5q0 -95 -10.5 -140.5t-36.5 -69.5 q-54 -48 -197 -48q-75 0 -119 15t-69 49q-34 44 -34 202q0 85 8.5 133t35.5 78.5t69.5 40t117.5 9.5z"/>
<glyph glyph-name="divide" d="M50 341h567v-138h-567v138zM332 -9q-44 0 -68 24t-24 67q0 44 24 68t69 24t68.5 -24t24.5 -68q0 -42 -24.5 -66.5t-69.5 -24.5zM332 369q-44 0 -68 24t-24 67q0 44 24 68t69 24t68.5 -24t24.5 -68q0 -42 -24.5 -66.5t-69.5 -24.5z" unicode="÷"/>
<glyph glyph-name="oslash" horiz-adv-x="554" unicode="ø" d="M210 335v-96l129 127q-1 22 -15 29t-46 7q-41 0 -54.5 -13t-13.5 -54zM336 131q8 16 8 144l-131 -128q2 -19 15.5 -27.5t49.5 -8.5q48 0 58 20zM275 518q129 0 180 -39l46 45l48 -48l-54 -53q15 -41 15 -174q0 -95 -10.5 -140.5t-36.5 -69.5q-54 -48 -197 -48 q-122 0 -169 43l-42 -41l-49 47l53 52q-15 46 -15 165q0 85 8.5 133t35.5 78.5t69.5 40t117.5 9.5z"/>
<glyph glyph-name="ugrave" horiz-adv-x="568" unicode="ù" d="M279 723l97 -149h-120l-160 149h183zM512 509v-509h-162v79q-18 -50 -49.5 -69t-95.5 -19q-84 0 -117.5 36t-33.5 126v356h169v-335q0 -31 13.5 -44t45.5 -13q41 0 54 22q7 12 7 53v317h169z"/>
<glyph glyph-name="uacute" horiz-adv-x="568" unicode="ú" d="M473 723l-160 -149h-120l97 149h183zM512 509v-509h-162v79q-18 -50 -49.5 -69t-95.5 -19q-84 0 -117.5 36t-33.5 126v356h169v-335q0 -31 13.5 -44t45.5 -13q41 0 54 22q7 12 7 53v317h169z"/>
<glyph glyph-name="ucircumflex" horiz-adv-x="568" unicode="û" d="M208 723h153l112 -149h-128l-60 80l-61 -80h-128zM512 509v-509h-162v79q-18 -50 -49.5 -69t-95.5 -19q-84 0 -117.5 36t-33.5 126v356h169v-335q0 -31 13.5 -44t45.5 -13q41 0 54 22q7 12 7 53v317h169z"/>
<glyph glyph-name="udieresis" horiz-adv-x="568" unicode="ü" d="M104 585v125h151v-125h-151zM316 585v125h151v-125h-151zM512 509v-509h-162v79q-18 -50 -49.5 -69t-95.5 -19q-84 0 -117.5 36t-33.5 126v356h169v-335q0 -31 13.5 -44t45.5 -13q41 0 54 22q7 12 7 53v317h169z"/>
<glyph glyph-name="yacute" horiz-adv-x="538" unicode="ý" d="M462 723l-160 -149h-120l97 149h183zM274 126l86 383h171l-128 -494q-38 -148 -81 -184q-39 -33 -122 -33q-48 0 -80 6v114q7 -1 16 -1q49 0 70 19t25 67h-83l-144 506h171z"/>
<glyph glyph-name="thorn" horiz-adv-x="564" unicode="þ" d="M285 391q-43 0 -51 -22.5t-8 -141.5q0 -66 12 -88q11 -21 48 -21q38 0 50.5 16t12.5 63q0 154 -7 170q-10 24 -57 24zM483 468q21 -29 29 -69.5t8 -123.5q0 -140 -16 -189q-14 -44 -55 -69.5t-99 -25.5q-44 0 -71.5 16.5t-51.5 54.5v-259h-169v920h169v-272q36 67 123 67 q96 0 133 -50z"/>
<glyph glyph-name="ydieresis" horiz-adv-x="538" unicode="ÿ" d="M93 585v125h151v-125h-151zM305 585v125h151v-125h-151zM274 126l86 383h171l-128 -494q-38 -148 -81 -184q-39 -33 -122 -33q-48 0 -80 6v114q7 -1 16 -1q49 0 70 19t25 67h-83l-144 506h171z"/>
<glyph glyph-name="Amacron" horiz-adv-x="722" unicode="Ā" d="M182 812v83h363v-83h-363zM281 273h160l-72 300h-16zM212 723h299l202 -723h-203l-33 130h-231l-31 -130h-206z"/>
<glyph glyph-name="amacron" horiz-adv-x="563" unicode="ā" d="M102 606v83h363v-83h-363zM262 223q-38 0 -47.5 -12t-9.5 -58q0 -32 13.5 -42t56.5 -10q45 0 56 11q11 10 11 66q0 29 -9 35q-16 10 -71 10zM348 0v51l-8 -7q-37 -33 -58.5 -41t-73.5 -8q-54 0 -82.5 7t-48.5 26q-39 36 -39 126q0 91 36.5 128.5t124.5 37.5 q69 0 99 -11.5t47 -43.5v52q0 69 -9 84q-10 19 -57 19q-32 0 -44 -8.5t-12 -31.5h-161q0 71 28 99q23 24 58 31.5t120 7.5q88 0 126.5 -8t67.5 -31q47 -39 47 -119v-360h-161z"/>
<glyph glyph-name="Abreve" horiz-adv-x="722" unicode="Ă" d="M188 929h72q8 -68 104 -68q93 0 103 68h71q-3 -70 -51 -111t-127 -41t-124.5 40.5t-47.5 111.5zM281 273h160l-72 300h-16zM212 723h299l202 -723h-203l-33 130h-231l-31 -130h-206z"/>
<glyph glyph-name="abreve" horiz-adv-x="563" unicode="ă" d="M108 723h72q8 -68 104 -68q93 0 103 68h71q-3 -70 -51 -111t-127 -41t-124.5 40.5t-47.5 111.5zM262 223q-38 0 -47.5 -12t-9.5 -58q0 -32 13.5 -42t56.5 -10q45 0 56 11q11 10 11 66q0 29 -9 35q-16 10 -71 10zM348 0v51l-8 -7q-37 -33 -58.5 -41t-73.5 -8 q-54 0 -82.5 7t-48.5 26q-39 36 -39 126q0 91 36.5 128.5t124.5 37.5q69 0 99 -11.5t47 -43.5v52q0 69 -9 84q-10 19 -57 19q-32 0 -44 -8.5t-12 -31.5h-161q0 71 28 99q23 24 58 31.5t120 7.5q88 0 126.5 -8t67.5 -31q47 -39 47 -119v-360h-161z"/>
<glyph glyph-name="Aogonek" horiz-adv-x="722" unicode="Ą" d="M281 273h160l-72 300h-16zM511 0l-34 130h-231l-31 -130h-206l203 723h299l202 -723h-105q-67 -51 -67 -93q0 -19 11.5 -30.5t35.5 -11.5q18 0 53 8v-76q-37 -10 -72 -10q-61 0 -93.5 27t-32.5 74q0 59 68 112z"/>
<glyph glyph-name="aogonek" horiz-adv-x="563" unicode="ą" d="M262 223q-38 0 -47.5 -12t-9.5 -58q0 -32 13.5 -42t56.5 -10q45 0 56 11q11 10 11 66q0 29 -9 35q-16 10 -71 10zM348 0v51l-8 -7q-37 -33 -58.5 -41t-73.5 -8q-54 0 -82.5 7t-48.5 26q-39 36 -39 126q0 91 36.5 128.5t124.5 37.5q69 0 99 -11.5t47 -43.5v52q0 69 -9 84 q-10 19 -57 19q-32 0 -44 -8.5t-12 -31.5h-161q0 71 28 99q23 24 58 31.5t120 7.5q88 0 126.5 -8t67.5 -31q47 -39 47 -119v-360h-42q-67 -51 -67 -93q0 -19 12 -30.5t35 -11.5q18 0 53 8v-76q-37 -10 -72 -10q-61 0 -93.5 27t-32.5 74q0 59 68 112h-22z"/>
<glyph glyph-name="Cacute" horiz-adv-x="704" unicode="Ć" d="M550 929l-160 -149h-120l97 149h183zM459 278h197q0 -92 -9 -133.5t-37 -75.5q-34 -42 -89.5 -59.5t-157.5 -17.5q-109 0 -171 22t-97 73q-41 62 -41 189v201q0 114 61 178q40 41 94.5 58.5t143.5 17.5q217 0 270 -98q15 -27 19.5 -60t6.5 -117h-192v10q0 34 -3.5 48 t-13.5 23q-23 23 -83 23q-59 0 -79 -19.5t-20 -77.5v-206q0 -55 20.5 -75t76.5 -20q77 0 95 25q11 17 11 66q0 3 -2 25z"/>
<glyph glyph-name="cacute" horiz-adv-x="555" unicode="ć" d="M470 723l-160 -149h-120l97 149h183zM511 321h-159q0 49 -11.5 61.5t-56.5 12.5q-51 0 -61 -20q-10 -16 -10 -135q0 -87 11.5 -105t67.5 -18q25 0 36 5t17 18q5 12 8 62h160v-19q0 -119 -70 -163q-46 -29 -169 -29q-136 0 -188 66q-24 30 -33 73t-9 128q0 73 6.5 109.5 t23.5 67.5q26 45 73.5 64t132.5 19q130 0 178 -35q53 -40 53 -137v-25z"/>
<glyph glyph-name="Ccircumflex" horiz-adv-x="704" unicode="Ĉ" d="M285 929h153l112 -149h-128l-60 80l-61 -80h-128zM459 278h197q0 -92 -9 -133.5t-37 -75.5q-34 -42 -89.5 -59.5t-157.5 -17.5q-109 0 -171 22t-97 73q-41 62 -41 189v201q0 114 61 178q40 41 94.5 58.5t143.5 17.5q217 0 270 -98q15 -27 19.5 -60t6.5 -117h-192v10 q0 34 -3.5 48t-13.5 23q-23 23 -83 23q-59 0 -79 -19.5t-20 -77.5v-206q0 -55 20.5 -75t76.5 -20q77 0 95 25q11 17 11 66q0 3 -2 25z"/>
<glyph glyph-name="ccircumflex" horiz-adv-x="555" unicode="ĉ" d="M205 723h153l112 -149h-128l-60 80l-61 -80h-128zM511 321h-159q0 49 -11.5 61.5t-56.5 12.5q-51 0 -61 -20q-10 -16 -10 -135q0 -87 11.5 -105t67.5 -18q25 0 36 5t17 18q5 12 8 62h160v-19q0 -119 -70 -163q-46 -29 -169 -29q-136 0 -188 66q-24 30 -33 73t-9 128 q0 73 6.5 109.5t23.5 67.5q26 45 73.5 64t132.5 19q130 0 178 -35q53 -40 53 -137v-25z"/>
<glyph glyph-name="Cdotaccent" horiz-adv-x="704" unicode="Ċ" d="M447 794h-169v122h169v-122zM459 278h197q0 -92 -9 -133.5t-37 -75.5q-34 -42 -89.5 -59.5t-157.5 -17.5q-109 0 -171 22t-97 73q-41 62 -41 189v201q0 114 61 178q40 41 94.5 58.5t143.5 17.5q217 0 270 -98q15 -27 19.5 -60t6.5 -117h-192v10q0 34 -3.5 48t-13.5 23 q-23 23 -83 23q-59 0 -79 -19.5t-20 -77.5v-206q0 -55 20.5 -75t76.5 -20q77 0 95 25q11 17 11 66q0 3 -2 25z"/>
<glyph glyph-name="cdotaccent" horiz-adv-x="555" unicode="ċ" d="M368 588h-169v122h169v-122zM511 321h-159q0 49 -11.5 61.5t-56.5 12.5q-51 0 -61 -20q-10 -16 -10 -135q0 -87 11.5 -105t67.5 -18q25 0 36 5t17 18q5 12 8 62h160v-19q0 -119 -70 -163q-46 -29 -169 -29q-136 0 -188 66q-24 30 -33 73t-9 128q0 73 6.5 109.5t23.5 67.5 q26 45 73.5 64t132.5 19q130 0 178 -35q53 -40 53 -137v-25z"/>
<glyph glyph-name="Ccaron" horiz-adv-x="704" unicode="Č" d="M438 780h-153l-112 149h128l61 -80l60 80h128zM459 278h197q0 -92 -9 -133.5t-37 -75.5q-34 -42 -89.5 -59.5t-157.5 -17.5q-109 0 -171 22t-97 73q-41 62 -41 189v201q0 114 61 178q40 41 94.5 58.5t143.5 17.5q217 0 270 -98q15 -27 19.5 -60t6.5 -117h-192v10 q0 34 -3.5 48t-13.5 23q-23 23 -83 23q-59 0 -79 -19.5t-20 -77.5v-206q0 -55 20.5 -75t76.5 -20q77 0 95 25q11 17 11 66q0 3 -2 25z"/>
<glyph glyph-name="ccaron" horiz-adv-x="555" unicode="č" d="M360 574h-153l-112 149h128l61 -80l60 80h128zM511 321h-159q0 49 -11.5 61.5t-56.5 12.5q-51 0 -61 -20q-10 -16 -10 -135q0 -87 11.5 -105t67.5 -18q25 0 36 5t17 18q5 12 8 62h160v-19q0 -119 -70 -163q-46 -29 -169 -29q-136 0 -188 66q-24 30 -33 73t-9 128 q0 73 6.5 109.5t23.5 67.5q26 45 73.5 64t132.5 19q130 0 178 -35q53 -40 53 -137v-25z"/>
<glyph glyph-name="Dcaron" horiz-adv-x="769" unicode="Ď" d="M436 780h-153l-112 149h128l61 -80l60 80h128zM269 553v-384h128q31 0 47.5 1.5t31.5 11t21.5 22t11 43t5.5 64t1 94.5q0 66 -8.5 96.5t-28.5 41.5q-24 12 -148 12q-24 0 -61 -2zM69 0v723h304q186 0 255 -54q55 -42 73 -111q14 -50 14 -200q0 -106 -9 -159.5t-35 -96.5 q-38 -67 -120 -90q-60 -17 -281 -17q-78 0 -201 5z"/>
<glyph glyph-name="dcaron" horiz-adv-x="563" unicode="ď" d="M723 723l-78 -179h-97l27 179h148zM273 391q-37 0 -47 -16.5t-10 -79.5q0 -138 8 -156q9 -21 53 -21q45 0 53 17.5t8 114.5q0 47 -1 67.5t-3.5 39.5t-11 24t-18.5 7.5t-31 2.5zM505 723v-723h-162v68q-21 -39 -35 -52q-26 -25 -97 -25q-54 0 -85.5 14.5t-51.5 49.5 q-30 49 -30 226q0 119 27 169q19 36 52.5 52t89.5 16q87 0 123 -63v268h169z"/>
<glyph glyph-name="Dcroat" horiz-adv-x="769" unicode="Đ" d="M269 553v-134h132v-104h-132v-146h128q31 0 47.5 1.5t31.5 11t21.5 22t11 43t5.5 64t1 94.5q0 66 -8.5 96.5t-28.5 41.5q-24 12 -148 12q-24 0 -61 -2zM0 419h69v304h304q186 0 255 -54q55 -42 73 -111q14 -50 14 -200q0 -106 -9 -159.5t-35 -96.5q-38 -67 -120 -90 q-60 -17 -281 -17q-78 0 -201 5v315h-69v104z"/>
<glyph glyph-name="dcroat" horiz-adv-x="563" unicode="đ" d="M273 391q-37 0 -47 -16.5t-10 -79.5q0 -138 8 -156q9 -21 53 -21q45 0 53 17.5t8 114.5q0 47 -1 67.5t-3.5 39.5t-11 24t-18.5 7.5t-31 2.5zM505 723v-81h58v-78h-58v-564h-162v68q-21 -39 -35 -52q-26 -25 -97 -25q-54 0 -85.5 14.5t-51.5 49.5q-30 49 -30 226 q0 119 27 169q19 36 52.5 52t89.5 16q87 0 123 -63v109h-134v78h134v81h169z"/>
<glyph glyph-name="Emacron" d="M160 812v83h363v-83h-363zM69 0v723h549v-160h-349v-125h330v-138h-330v-138h349v-162h-549z" unicode="Ē"/>
<glyph glyph-name="emacron" horiz-adv-x="563" unicode="ē" d="M104 606v83h363v-83h-363zM207 309h155q2 9 2 28q0 52 -13 64.5t-68 12.5q-53 0 -64.5 -15.5t-11.5 -89.5zM521 224h-315q-2 -28 -2 -39q0 -52 14 -69t57 -17q60 0 71 8q13 9 13 33q0 5 -1 13h162q-3 -78 -39 -116q-26 -26 -68 -36t-123 -10q-88 0 -133.5 14t-74.5 50 q-23 28 -30.5 69.5t-7.5 139.5q0 89 13.5 136t46.5 75q51 43 169 43q89 0 138 -17t79 -58q19 -26 26 -63.5t7 -113.5q0 -21 -2 -42z"/>
<glyph glyph-name="Ebreve" d="M166 929h72q8 -68 104 -68q93 0 103 68h71q-3 -70 -51 -111t-127 -41t-124.5 40.5t-47.5 111.5zM69 0v723h549v-160h-349v-125h330v-138h-330v-138h349v-162h-549z" unicode="Ĕ"/>
<glyph glyph-name="ebreve" horiz-adv-x="563" unicode="ĕ" d="M110 723h72q8 -68 104 -68q93 0 103 68h71q-3 -70 -51 -111t-127 -41t-124.5 40.5t-47.5 111.5zM207 309h155q2 9 2 28q0 52 -13 64.5t-68 12.5q-53 0 -64.5 -15.5t-11.5 -89.5zM521 224h-315q-2 -28 -2 -39q0 -52 14 -69t57 -17q60 0 71 8q13 9 13 33q0 5 -1 13h162 q-3 -78 -39 -116q-26 -26 -68 -36t-123 -10q-88 0 -133.5 14t-74.5 50q-23 28 -30.5 69.5t-7.5 139.5q0 89 13.5 136t46.5 75q51 43 169 43q89 0 138 -17t79 -58q19 -26 26 -63.5t7 -113.5q0 -21 -2 -42z"/>
<glyph glyph-name="Edotaccent" d="M425 794h-169v122h169v-122zM69 0v723h549v-160h-349v-125h330v-138h-330v-138h349v-162h-549z" unicode="Ė"/>
<glyph glyph-name="edotaccent" horiz-adv-x="563" unicode="ė" d="M371 588h-169v122h169v-122zM207 309h155q2 9 2 28q0 52 -13 64.5t-68 12.5q-53 0 -64.5 -15.5t-11.5 -89.5zM521 224h-315q-2 -28 -2 -39q0 -52 14 -69t57 -17q60 0 71 8q13 9 13 33q0 5 -1 13h162q-3 -78 -39 -116q-26 -26 -68 -36t-123 -10q-88 0 -133.5 14t-74.5 50 q-23 28 -30.5 69.5t-7.5 139.5q0 89 13.5 136t46.5 75q51 43 169 43q89 0 138 -17t79 -58q19 -26 26 -63.5t7 -113.5q0 -21 -2 -42z"/>
<glyph glyph-name="Eogonek" d="M69 0v723h549v-160h-349v-125h330v-138h-330v-138h349v-162h-61q-67 -51 -67 -93q0 -19 12 -30.5t35 -11.5q18 0 53 8v-76q-37 -10 -72 -10q-61 0 -93.5 27t-32.5 74q0 59 68 112h-391z" unicode="Ę"/>
<glyph glyph-name="eogonek" horiz-adv-x="563" unicode="ę" d="M207 309h155q2 9 2 28q0 54 -15 65.5t-85 11.5q-38 0 -47.5 -17.5t-9.5 -87.5zM521 224h-315q-2 -28 -2 -39q0 -52 14 -69t57 -17q60 0 71 8q13 9 13 33q0 5 -1 13h162q-3 -78 -39 -116q-37 -37 -127 -44q-58 -47 -58 -86q0 -19 12 -30.5t35 -11.5q18 0 53 8v-76 q-37 -10 -72 -10q-61 0 -93.5 27t-32.5 74q0 55 57 104q-69 2 -108 16.5t-65 46.5q-23 28 -30.5 69.5t-7.5 139.5q0 93 12.5 138t45.5 73q51 43 171 43q89 0 138 -17t79 -58q19 -26 26 -63.5t7 -113.5q0 -21 -2 -42z"/>
<glyph glyph-name="Ecaron" d="M418 780h-153l-112 149h128l61 -80l60 80h128zM69 0v723h549v-160h-349v-125h330v-138h-330v-138h349v-162h-549z" unicode="Ě"/>
<glyph glyph-name="ecaron" horiz-adv-x="563" unicode="ě" d="M361 574h-153l-112 149h128l61 -80l60 80h128zM207 309h155q2 9 2 28q0 52 -13 64.5t-68 12.5q-53 0 -64.5 -15.5t-11.5 -89.5zM521 224h-315q-2 -28 -2 -39q0 -52 14 -69t57 -17q60 0 71 8q13 9 13 33q0 5 -1 13h162q-3 -78 -39 -116q-26 -26 -68 -36t-123 -10 q-88 0 -133.5 14t-74.5 50q-23 28 -30.5 69.5t-7.5 139.5q0 89 13.5 136t46.5 75q51 43 169 43q89 0 138 -17t79 -58q19 -26 26 -63.5t7 -113.5q0 -21 -2 -42z"/>
<glyph glyph-name="Gcircumflex" horiz-adv-x="763" unicode="Ĝ" d="M312 929h153l112 -149h-128l-60 80l-61 -80h-128zM412 398h298q1 -31 1 -69q0 -129 -11 -187q-7 -39 -36 -73t-67 -51q-59 -24 -134 -24h-128q-78 0 -123 13.5t-81 48.5q-44 41 -60.5 103t-16.5 183q0 124 10 186.5t36 101.5q50 76 142 93q43 8 185 8q93 0 145 -14 t85 -47q27 -28 37 -63.5t11 -104.5h-192q-1 42 -25.5 54.5t-105.5 12.5q-44 0 -66.5 -5.5t-37 -27.5t-18 -56t-3.5 -101q0 -162 20 -193q19 -29 90 -29q73 0 103 4.5t41 19.5q7 11 8.5 23.5t2.5 58.5h-110v135z"/>
<glyph glyph-name="gcircumflex" horiz-adv-x="561" unicode="ĝ" d="M215 723h153l112 -149h-128l-60 80l-61 -80h-128zM275 391q-43 0 -51 -22.5t-8 -145.5q0 -56 12 -74t49 -18q41 0 51 25.5t10 127.5q0 71 -10.5 89t-52.5 18zM63 -42h157q-1 -3 -1 -7q0 -20 12 -28.5t41 -8.5q33 0 45 10t16.5 40t4.5 110q-30 -70 -129 -70q-80 0 -119 41 q-26 28 -36 71t-10 125q0 99 7.5 144t27.5 77q34 56 129 56q57 0 84.5 -15.5t55.5 -63.5v69h157v-470q0 -137 -49 -189t-179 -52q-118 0 -166 32q-49 33 -49 103q0 17 1 26z"/>
<glyph glyph-name="Gbreve" horiz-adv-x="763" unicode="Ğ" d="M214 929h72q8 -68 104 -68q93 0 103 68h71q-3 -70 -51 -111t-127 -41t-124.5 40.5t-47.5 111.5zM412 398h298q1 -31 1 -69q0 -129 -11 -187q-7 -39 -36 -73t-67 -51q-59 -24 -134 -24h-128q-78 0 -123 13.5t-81 48.5q-44 41 -60.5 103t-16.5 183q0 124 10 186.5t36 101.5 q50 76 142 93q43 8 185 8q93 0 145 -14t85 -47q27 -28 37 -63.5t11 -104.5h-192q-1 42 -25.5 54.5t-105.5 12.5q-44 0 -66.5 -5.5t-37 -27.5t-18 -56t-3.5 -101q0 -162 20 -193q19 -29 90 -29q73 0 103 4.5t41 19.5q7 11 8.5 23.5t2.5 58.5h-110v135z"/>
<glyph glyph-name="gbreve" horiz-adv-x="561" unicode="ğ" d="M117 723h72q8 -68 104 -68q93 0 103 68h71q-3 -70 -51 -111t-127 -41t-124.5 40.5t-47.5 111.5zM275 391q-43 0 -51 -22.5t-8 -145.5q0 -56 12 -74t49 -18q41 0 51 25.5t10 127.5q0 71 -10.5 89t-52.5 18zM63 -42h157q-1 -3 -1 -7q0 -20 12 -28.5t41 -8.5q33 0 45 10 t16.5 40t4.5 110q-30 -70 -129 -70q-80 0 -119 41q-26 28 -36 71t-10 125q0 99 7.5 144t27.5 77q34 56 129 56q57 0 84.5 -15.5t55.5 -63.5v69h157v-470q0 -137 -49 -189t-179 -52q-118 0 -166 32q-49 33 -49 103q0 17 1 26z"/>
<glyph glyph-name="Gdotaccent" horiz-adv-x="763" unicode="Ġ" d="M474 794h-169v122h169v-122zM412 398h298q1 -31 1 -69q0 -129 -11 -187q-7 -39 -36 -73t-67 -51q-59 -24 -134 -24h-128q-78 0 -123 13.5t-81 48.5q-44 41 -60.5 103t-16.5 183q0 124 10 186.5t36 101.5q50 76 142 93q43 8 185 8q93 0 145 -14t85 -47q27 -28 37 -63.5 t11 -104.5h-192q-1 42 -25.5 54.5t-105.5 12.5q-44 0 -66.5 -5.5t-37 -27.5t-18 -56t-3.5 -101q0 -162 20 -193q19 -29 90 -29q73 0 103 4.5t41 19.5q7 11 8.5 23.5t2.5 58.5h-110v135z"/>
<glyph glyph-name="gdotaccent" horiz-adv-x="561" unicode="ġ" d="M376 588h-169v122h169v-122zM275 391q-43 0 -51 -22.5t-8 -145.5q0 -56 12 -74t49 -18q41 0 51 25.5t10 127.5q0 71 -10.5 89t-52.5 18zM63 -42h157q-1 -3 -1 -7q0 -20 12 -28.5t41 -8.5q33 0 45 10t16.5 40t4.5 110q-30 -70 -129 -70q-80 0 -119 41q-26 28 -36 71 t-10 125q0 99 7.5 144t27.5 77q34 56 129 56q57 0 84.5 -15.5t55.5 -63.5v69h157v-470q0 -137 -49 -189t-179 -52q-118 0 -166 32q-49 33 -49 103q0 17 1 26z"/>
<glyph glyph-name="Gcommaaccent" horiz-adv-x="763" unicode="Ģ" d="M469 -48l-78 -155h-110l39 155h149zM412 398h298q1 -31 1 -69q0 -129 -11 -187q-7 -39 -36 -73t-67 -51q-59 -24 -134 -24h-128q-78 0 -123 13.5t-81 48.5q-44 41 -60.5 103t-16.5 183q0 124 10 186.5t36 101.5q50 76 142 93q43 8 185 8q93 0 145 -14t85 -47 q27 -28 37 -63.5t11 -104.5h-192q-1 42 -25.5 54.5t-105.5 12.5q-44 0 -66.5 -5.5t-37 -27.5t-18 -56t-3.5 -101q0 -162 20 -193q19 -29 90 -29q73 0 103 4.5t41 19.5q7 11 8.5 23.5t2.5 58.5h-110v135z"/>
<glyph glyph-name="gcommaaccent" horiz-adv-x="561" unicode="ģ" d="M204 574l77 149h105l-38 -149h-144zM275 391q-43 0 -51 -22.5t-8 -145.5q0 -56 12 -74t49 -18q41 0 51 25.5t10 127.5q0 71 -10.5 89t-52.5 18zM63 -42h157q-1 -3 -1 -7q0 -20 12 -28.5t41 -8.5q33 0 45 10t16.5 40t4.5 110q-30 -70 -129 -70q-80 0 -119 41 q-26 28 -36 71t-10 125q0 99 7.5 144t27.5 77q34 56 129 56q57 0 84.5 -15.5t55.5 -63.5v69h157v-470q0 -137 -49 -189t-179 -52q-118 0 -166 32q-49 33 -49 103q0 17 1 26z"/>
<glyph glyph-name="Hcircumflex" horiz-adv-x="780" unicode="Ĥ" d="M315 929h153l112 -149h-128l-60 80l-61 -80h-128zM511 454v269h200v-723h-200v282h-242v-282h-200v723h200v-269h242z"/>
<glyph glyph-name="hcircumflex" horiz-adv-x="570" unicode="ĥ" d="M188 929h153l112 -149h-128l-60 80l-61 -80h-128zM362 518q86 0 120 -36.5t34 -130.5v-351h-169v321q0 43 -13 57t-53 14q-31 0 -42.5 -15t-11.5 -57v-320h-169v723h169v-285q16 43 48 61.5t87 18.5z"/>
<glyph glyph-name="Hbar" horiz-adv-x="780" unicode="Ħ" d="M269 420h242v103h-242v-103zM269 723v-100h242v100h200v-723h-200v260h-242v-260h-200v723h200z"/>
<glyph glyph-name="hbar" horiz-adv-x="570" unicode="ħ" d="M362 518q86 0 120 -36.5t34 -130.5v-351h-169v321q0 43 -13 57t-53 14q-31 0 -42.5 -15t-11.5 -57v-320h-169v564h-58v78h58v81h169v-81h134v-78h-134v-126q16 43 48 61.5t87 18.5z"/>
<glyph glyph-name="Itilde" horiz-adv-x="342" unicode="Ĩ" d="M291 918h71q-6 -59 -37.5 -93t-81.5 -34q-33 0 -80.5 18t-63.5 18q-17 0 -29.5 -12t-15.5 -31h-72q7 58 41 96t81 38q30 0 81 -20t63 -20q35 0 43 40zM71 723h200v-723h-200v723z"/>
<glyph glyph-name="itilde" horiz-adv-x="285" unicode="ĩ" d="M264 712h71q-6 -59 -37.5 -93t-81.5 -34q-34 0 -81 18t-63 18q-17 0 -29.5 -12t-15.5 -31h-72q7 58 41 96t81 38q31 0 81 -20t63 -20q35 0 43 40zM58 0v509h169v-509h-169z"/>
<glyph glyph-name="Imacron" horiz-adv-x="342" unicode="Ī" d="M-10 812v83h363v-83h-363zM71 723h200v-723h-200v723z"/>
<glyph glyph-name="imacron" horiz-adv-x="285" unicode="ī" d="M-37 606v83h363v-83h-363zM58 0v509h169v-509h-169z"/>
<glyph glyph-name="Iogonek" horiz-adv-x="342" unicode="Į" d="M138 0h-67v723h200v-723h-36q-67 -51 -67 -93q0 -19 12 -30.5t35 -11.5q18 0 53 8v-76q-37 -10 -72 -10q-61 0 -93.5 27t-32.5 74q0 59 68 112z"/>
<glyph glyph-name="iogonek" horiz-adv-x="285" unicode="į" d="M227 601h-169v122h169v-122zM58 0v509h169v-509h-23q-67 -51 -67 -93q0 -19 11.5 -30.5t35.5 -11.5q18 0 53 8v-76q-37 -10 -72 -10q-61 0 -93.5 27t-32.5 74q0 59 68 112h-49z"/>
<glyph glyph-name="Idotaccent" horiz-adv-x="342" unicode="İ" d="M257 794h-169v122h169v-122zM71 723h200v-723h-200v723z"/>
<glyph glyph-name="dotlessi" horiz-adv-x="285" unicode="ı" d="M58 0v509h169v-509h-169z"/>
<glyph glyph-name="Jcircumflex" horiz-adv-x="612" unicode="Ĵ" d="M365 929h153l112 -149h-128l-60 80l-61 -80h-128zM35 309h184v-10q0 -46 1 -68t3 -41t10 -24.5t16.5 -8t27.5 -2.5q47 0 60 10.5t13 48.5v509h200v-486q0 -79 -10.5 -119t-39.5 -70q-30 -31 -78.5 -43.5t-137.5 -12.5q-91 0 -141 17.5t-77 59.5q-32 48 -32 189q0 10 1 44 v7z"/>
<glyph glyph-name="jcircumflex" horiz-adv-x="285" unicode="ĵ" d="M67 723h153l112 -149h-128l-60 80l-61 -80h-128zM14 -154v118q44 1 44 32v513h169v-449q0 -81 -10 -126q-13 -57 -57 -76q-39 -17 -95 -17q-31 0 -51 5z"/>
<glyph glyph-name="Kcommaaccent" horiz-adv-x="701" unicode="Ķ" d="M444 -48l-78 -155h-110l39 155h149zM69 0v723h200v-272h18l171 272h229l-236 -352l256 -364v-7h-233l-189 290h-16v-290h-200z"/>
<glyph glyph-name="kcommaaccent" horiz-adv-x="539" unicode="ķ" d="M365 -48l-78 -155h-110l39 155h149zM58 0v723h169v-406h15l98 192h183l-139 -250l167 -259h-191l-119 204h-14v-204h-169z"/>
<glyph glyph-name="Lacute" horiz-adv-x="612" unicode="Ĺ" d="M373 929l-160 -149h-120l97 149h183zM69 0v723h200v-549h325v-174h-525z"/>
<glyph glyph-name="lacute" horiz-adv-x="285" unicode="ĺ" d="M347 929l-160 -149h-120l97 149h183zM58 0v723h169v-723h-169z"/>
<glyph glyph-name="Lcommaaccent" horiz-adv-x="612" unicode="Ļ" d="M412 -48l-78 -155h-110l39 155h149zM69 0v723h200v-549h325v-174h-525z"/>
<glyph glyph-name="lcommaaccent" horiz-adv-x="285" unicode="ļ" d="M219 -48l-78 -155h-110l39 155h149zM58 0v723h169v-723h-169z"/>
<glyph glyph-name="Lcaron" horiz-adv-x="612" unicode="Ľ" d="M513 723l-78 -179h-97l27 179h148zM69 0v723h200v-549h325v-174h-525z"/>
<glyph glyph-name="lcaron" horiz-adv-x="285" unicode="ľ" d="M445 723l-78 -179h-97l27 179h148zM58 0v723h169v-723h-169z"/>
<glyph glyph-name="Ldot" horiz-adv-x="612" unicode="Ŀ" d="M535 305h-169v122h169v-122zM69 0v723h200v-549h325v-174h-525z"/>
<glyph glyph-name="ldot" horiz-adv-x="454" unicode="ŀ" d="M448 305h-169v122h169v-122zM58 0v723h169v-723h-169z"/>
<glyph glyph-name="Lslash" horiz-adv-x="612" unicode="Ł" d="M69 0v228l-69 -32v111l69 32v384h200v-289l173 84v-111l-173 -84v-149h325v-174h-525z"/>
<glyph glyph-name="lslash" horiz-adv-x="309" unicode="ł" d="M2 357l68 36v330h169v-241l68 36v-98l-68 -36v-384h-169v295l-68 -36v98z"/>
<glyph glyph-name="Nacute" horiz-adv-x="831" unicode="Ń" d="M609 929l-160 -149h-120l97 149h183zM67 0v723h290l101 -246q82 -199 125 -321q0 10 -4.5 137t-4.5 192v238h190v-723h-287l-85 198q-91 211 -144 360q9 -220 9 -315v-243h-190z"/>
<glyph glyph-name="nacute" horiz-adv-x="568" unicode="ń" d="M473 723l-160 -149h-120l97 149h183zM279 392q-32 0 -43 -13.5t-11 -52.5v-326h-169v509h165v-69q22 45 52 61.5t87 16.5q86 0 120 -36.5t34 -130.5v-351h-169v321q0 43 -13 57t-53 14z"/>
<glyph glyph-name="Ncommaaccent" horiz-adv-x="831" unicode="Ņ" d="M509 -48l-78 -155h-110l39 155h149zM67 0v723h290l101 -246q82 -199 125 -321q0 10 -4.5 137t-4.5 192v238h190v-723h-287l-85 198q-91 211 -144 360q9 -220 9 -315v-243h-190z"/>
<glyph glyph-name="ncommaaccent" horiz-adv-x="568" unicode="ņ" d="M360 -48l-78 -155h-110l39 155h149zM279 392q-32 0 -43 -13.5t-11 -52.5v-326h-169v509h165v-69q22 45 52 61.5t87 16.5q86 0 120 -36.5t34 -130.5v-351h-169v321q0 43 -13 57t-53 14z"/>
<glyph glyph-name="Ncaron" horiz-adv-x="831" unicode="Ň" d="M496 780h-153l-112 149h128l61 -80l60 80h128zM67 0v723h290l101 -246q82 -199 125 -321q0 10 -4.5 137t-4.5 192v238h190v-723h-287l-85 198q-91 211 -144 360q9 -220 9 -315v-243h-190z"/>
<glyph glyph-name="ncaron" horiz-adv-x="568" unicode="ň" d="M362 574h-153l-112 149h128l61 -80l60 80h128zM279 392q-32 0 -43 -13.5t-11 -52.5v-326h-169v509h165v-69q22 45 52 61.5t87 16.5q86 0 120 -36.5t34 -130.5v-351h-169v321q0 43 -13 57t-53 14z"/>
<glyph glyph-name="Omacron" horiz-adv-x="761" unicode="Ō" d="M203 812v83h363v-83h-363zM367 562q-53 0 -75 -12t-29 -45q-9 -42 -9 -138q0 -89 4 -124t17 -52q19 -27 98 -27q97 0 116 27q11 15 14.5 55t3.5 142q0 75 -4 103.5t-16 42.5q-21 28 -120 28zM54 265v159q0 111 19 160q39 105 144 133q49 14 152 14q159 0 225 -37 q73 -39 99 -124q14 -45 14 -206q0 -124 -6 -170.5t-28 -86.5q-34 -62 -95 -85q-76 -30 -192 -30q-214 0 -285 90q-47 59 -47 183z"/>
<glyph glyph-name="omacron" horiz-adv-x="554" unicode="ō" d="M100 606v83h363v-83h-363zM213 331v-135q0 -47 10 -64q12 -17 55 -17q45 0 55 20q8 16 8 131q0 97 -8 114.5t-55 17.5q-40 0 -52.5 -12.5t-12.5 -54.5zM275 518q144 0 193 -50q26 -27 34 -69.5t8 -149.5q0 -95 -10.5 -140.5t-36.5 -69.5q-54 -48 -197 -48q-75 0 -119 15 t-69 49q-34 44 -34 202q0 85 8.5 133t35.5 78.5t69.5 40t117.5 9.5z"/>
<glyph glyph-name="Obreve" horiz-adv-x="761" unicode="Ŏ" d="M209 929h72q8 -68 104 -68q93 0 103 68h71q-3 -70 -51 -111t-127 -41t-124.5 40.5t-47.5 111.5zM367 562q-53 0 -75 -12t-29 -45q-9 -42 -9 -138q0 -89 4 -124t17 -52q19 -27 98 -27q97 0 116 27q11 15 14.5 55t3.5 142q0 75 -4 103.5t-16 42.5q-21 28 -120 28zM54 265 v159q0 111 19 160q39 105 144 133q49 14 152 14q159 0 225 -37q73 -39 99 -124q14 -45 14 -206q0 -124 -6 -170.5t-28 -86.5q-34 -62 -95 -85q-76 -30 -192 -30q-214 0 -285 90q-47 59 -47 183z"/>
<glyph glyph-name="obreve" horiz-adv-x="554" unicode="ŏ" d="M106 723h72q8 -68 104 -68q93 0 103 68h71q-3 -70 -51 -111t-127 -41t-124.5 40.5t-47.5 111.5zM213 331v-135q0 -47 10 -64q12 -17 55 -17q45 0 55 20q8 16 8 131q0 97 -8 114.5t-55 17.5q-40 0 -52.5 -12.5t-12.5 -54.5zM275 518q144 0 193 -50q26 -27 34 -69.5 t8 -149.5q0 -95 -10.5 -140.5t-36.5 -69.5q-54 -48 -197 -48q-75 0 -119 15t-69 49q-34 44 -34 202q0 85 8.5 133t35.5 78.5t69.5 40t117.5 9.5z"/>
<glyph glyph-name="Ohungarumlaut" horiz-adv-x="761" unicode="Ő" d="M664 929l-150 -149h-110l107 149h153zM454 929l-130 -149h-110l92 149h148zM367 562q-53 0 -75 -12t-29 -45q-9 -42 -9 -138q0 -89 4 -124t17 -52q19 -27 98 -27q97 0 116 27q11 15 14.5 55t3.5 142q0 75 -4 103.5t-16 42.5q-21 28 -120 28zM54 265v159q0 111 19 160 q39 105 144 133q49 14 152 14q159 0 225 -37q73 -39 99 -124q14 -45 14 -206q0 -124 -6 -170.5t-28 -86.5q-34 -62 -95 -85q-76 -30 -192 -30q-214 0 -285 90q-47 59 -47 183z"/>
<glyph glyph-name="ohungarumlaut" horiz-adv-x="554" unicode="ő" d="M561 723l-150 -149h-110l107 149h153zM351 723l-130 -149h-110l92 149h148zM213 331v-135q0 -47 10 -64q12 -17 55 -17q45 0 55 20q8 16 8 131q0 97 -8 114.5t-55 17.5q-40 0 -52.5 -12.5t-12.5 -54.5zM275 518q144 0 193 -50q26 -27 34 -69.5t8 -149.5 q0 -95 -10.5 -140.5t-36.5 -69.5q-54 -48 -197 -48q-75 0 -119 15t-69 49q-34 44 -34 202q0 85 8.5 133t35.5 78.5t69.5 40t117.5 9.5z"/>
<glyph glyph-name="OE" horiz-adv-x="993" unicode="Œ" d="M354 574q-70 0 -88 -28q-11 -18 -15 -54t-4 -126q0 -126 7 -164q6 -29 27 -41t67 -12q92 0 112 29q12 16 15 53.5t3 166.5q0 82 -3 107.5t-15 41.5q-20 27 -106 27zM495 635v86h440v-152h-266v-131h256v-137h-256v-146h275v-155h-452v87q-26 -52 -68 -72.5t-125 -20.5 q-80 0 -126.5 18.5t-78.5 62.5q-38 50 -38 166v233q0 121 50 182q32 40 77.5 57t118.5 17q80 0 123.5 -21.5t69.5 -73.5z"/>
<glyph glyph-name="oe" horiz-adv-x="882" unicode="œ" d="M291 398q-59 0 -70 -25q-9 -23 -9 -163q0 -62 14.5 -78.5t66.5 -16.5q55 0 67 22q8 16 8 156q0 48 -1.5 61t-8.5 24q-8 12 -21.5 16t-45.5 4zM535 309h143v11q0 68 -8 79q-10 14 -53 14q-58 0 -70.5 -9.5t-12.5 -54.5q0 -26 1 -40zM679 153h163q-2 -42 -9 -66t-26 -44 q-27 -28 -73.5 -40t-128.5 -12q-73 0 -105 17.5t-49 63.5q-12 -33 -34 -50q-41 -31 -148 -31q-146 0 -192 70q-19 29 -26 75t-7 142q0 77 10.5 119.5t35.5 69.5q47 51 173 51q95 0 133.5 -14t54.5 -56q16 43 47.5 56.5t109.5 13.5q116 0 159 -29q34 -22 50 -54t20 -85 q3 -30 3 -126h-308v-24q0 -67 12.5 -83t62.5 -16q43 0 56.5 10t15.5 42z"/>
<glyph glyph-name="Racute" horiz-adv-x="721" unicode="Ŕ" d="M529 929l-160 -149h-120l97 149h183zM266 558v-188q35 -3 62 -3q96 0 116 17q17 14 17 79q0 63 -16.5 80t-77.5 17q-62 0 -101 -2zM69 0v723h291q164 0 221 -39q43 -29 59.5 -73t16.5 -129q0 -63 -11 -96.5t-39 -55.5q-32 -28 -92 -34q85 -17 112 -51t27 -120v-125h-197 v143q0 40 -18.5 52.5t-76.5 12.5h-96v-208h-197z"/>
<glyph glyph-name="racute" horiz-adv-x="497" unicode="ŕ" d="M456 723l-160 -149h-120l97 149h183zM56 0v509h165v-69q17 43 44.5 60.5t77.5 17.5q80 0 109 -35q15 -19 20.5 -47t5.5 -87l-1 -59h-150v24q0 48 -9.5 62.5t-41.5 14.5q-30 0 -40.5 -14.5t-10.5 -56.5v-320h-169z"/>
<glyph glyph-name="Rcommaaccent" horiz-adv-x="721" unicode="Ŗ" d="M443 -48l-78 -155h-110l39 155h149zM266 558v-188q35 -3 62 -3q96 0 116 17q17 14 17 79q0 63 -16.5 80t-77.5 17q-62 0 -101 -2zM69 0v723h291q164 0 221 -39q43 -29 59.5 -73t16.5 -129q0 -63 -11 -96.5t-39 -55.5q-32 -28 -92 -34q85 -17 112 -51t27 -120v-125h-197 v143q0 40 -18.5 52.5t-76.5 12.5h-96v-208h-197z"/>
<glyph glyph-name="rcommaaccent" horiz-adv-x="497" unicode="ŗ" d="M217 -48l-78 -155h-110l39 155h149zM56 0v509h165v-69q17 43 44.5 60.5t77.5 17.5q80 0 109 -35q15 -19 20.5 -47t5.5 -87l-1 -59h-150v24q0 48 -9.5 62.5t-41.5 14.5q-30 0 -40.5 -14.5t-10.5 -56.5v-320h-169z"/>
<glyph glyph-name="Rcaron" horiz-adv-x="721" unicode="Ř" d="M418 780h-153l-112 149h128l61 -80l60 80h128zM266 558v-188q35 -3 62 -3q96 0 116 17q17 14 17 79q0 63 -16.5 80t-77.5 17q-62 0 -101 -2zM69 0v723h291q164 0 221 -39q43 -29 59.5 -73t16.5 -129q0 -63 -11 -96.5t-39 -55.5q-32 -28 -92 -34q85 -17 112 -51t27 -120 v-125h-197v143q0 40 -18.5 52.5t-76.5 12.5h-96v-208h-197z"/>
<glyph glyph-name="rcaron" horiz-adv-x="497" unicode="ř" d="M345 574h-153l-112 149h128l61 -80l60 80h128zM56 0v509h165v-69q17 43 44.5 60.5t77.5 17.5q80 0 109 -35q15 -19 20.5 -47t5.5 -87l-1 -59h-150v24q0 48 -9.5 62.5t-41.5 14.5q-30 0 -40.5 -14.5t-10.5 -56.5v-320h-169z"/>
<glyph glyph-name="Sacute" horiz-adv-x="698" unicode="Ś" d="M536 929l-160 -149h-120l97 149h183zM46 224h187q-1 -5 -1 -14q0 -35 23 -49t81 -14q85 0 105 12q15 9 15 54v28.5t-5.5 18.5t-10 13t-23 7t-35 5.5t-53.5 4.5q-102 8 -144.5 17t-68.5 26q-67 47 -67 177q0 126 59 175q32 27 79 36.5t146 9.5q111 0 160.5 -10t83.5 -39 q28 -24 39 -59.5t11 -101.5v-10h-182v13q0 34 -18 42q-22 11 -111 11q-42 0 -56 -14.5t-14 -54.5q0 -42 19.5 -51.5t121.5 -17.5q113 -10 155.5 -21.5t68.5 -39.5q43 -49 43 -160q0 -138 -80 -189q-58 -37 -232 -37q-94 0 -148 10.5t-90 36.5q-31 22 -44.5 56.5t-13.5 92.5 v36z"/>
<glyph glyph-name="sacute" horiz-adv-x="546" unicode="ś" d="M457 723l-160 -149h-120l97 149h183zM29 145h168v-5q1 -27 15 -37t54 -10q57 0 74 11q13 9 13 44q0 28 -9.5 37.5t-40.5 10.5l-73 4q-105 6 -153 45q-42 33 -42 113q0 89 47.5 124.5t168.5 35.5q177 0 219 -48q26 -28 29 -96h-160q1 5 1 9q0 19 -15 27q-13 7 -73 7 q-36 0 -47.5 -9.5t-11.5 -39.5q0 -29 15 -36.5t82 -11.5q130 -8 168 -33q58 -38 58 -127q0 -91 -54 -131q-52 -38 -189 -38q-139 0 -191 33t-53 121z"/>
<glyph glyph-name="Scircumflex" horiz-adv-x="698" unicode="Ŝ" d="M271 929h153l112 -149h-128l-60 80l-61 -80h-128zM46 224h187q-1 -5 -1 -14q0 -35 23 -49t81 -14q85 0 105 12q15 9 15 54v28.5t-5.5 18.5t-10 13t-23 7t-35 5.5t-53.5 4.5q-102 8 -144.5 17t-68.5 26q-67 47 -67 177q0 126 59 175q32 27 79 36.5t146 9.5 q111 0 160.5 -10t83.5 -39q28 -24 39 -59.5t11 -101.5v-10h-182v13q0 34 -18 42q-22 11 -111 11q-42 0 -56 -14.5t-14 -54.5q0 -42 19.5 -51.5t121.5 -17.5q113 -10 155.5 -21.5t68.5 -39.5q43 -49 43 -160q0 -138 -80 -189q-58 -37 -232 -37q-94 0 -148 10.5t-90 36.5 q-31 22 -44.5 56.5t-13.5 92.5v36z"/>
<glyph glyph-name="scircumflex" horiz-adv-x="546" unicode="ŝ" d="M192 723h153l112 -149h-128l-60 80l-61 -80h-128zM29 145h168v-5q1 -27 15 -37t54 -10q57 0 74 11q13 9 13 44q0 28 -9.5 37.5t-40.5 10.5l-73 4q-105 6 -153 45q-42 33 -42 113q0 89 47.5 124.5t168.5 35.5q177 0 219 -48q26 -28 29 -96h-160q1 5 1 9q0 19 -15 27 q-13 7 -73 7q-36 0 -47.5 -9.5t-11.5 -39.5q0 -29 15 -36.5t82 -11.5q130 -8 168 -33q58 -38 58 -127q0 -91 -54 -131q-52 -38 -189 -38q-139 0 -191 33t-53 121z"/>
<glyph glyph-name="Scedilla" horiz-adv-x="698" unicode="Ş" d="M228 -227v55q49 -10 90 -10q22 0 34.5 10.5t12.5 26.5t-12.5 26t-33.5 10q-19 0 -48 -3v41l42 63q-148 3 -209 47q-31 22 -44.5 56.5t-13.5 92.5v36h187q-1 -5 -1 -14q0 -35 23 -49t81 -14q85 0 105 12q15 9 15 54v28.5t-5.5 18.5t-10 13t-23 7t-35 5.5t-53.5 4.5 q-102 8 -144.5 17t-68.5 26q-67 47 -67 177q0 126 59 175q32 27 79 36.5t146 9.5q111 0 160.5 -10t83.5 -39q28 -24 39 -59.5t11 -101.5v-10h-182v13q0 34 -18 42q-22 11 -111 11q-42 0 -56 -14.5t-14 -54.5q0 -42 19.5 -51.5t121.5 -17.5q113 -10 155.5 -21.5t68.5 -39.5 q43 -49 43 -160q0 -138 -80 -189q-54 -34 -195 -37l-38 -56q13 2 29 2q42 0 66.5 -23.5t24.5 -58.5q0 -42 -33 -67.5t-101 -25.5q-50 0 -99 10z"/>
<glyph glyph-name="scedilla" horiz-adv-x="546" unicode="ş" d="M147 -227v55q49 -10 90 -10q22 0 34.5 10.5t12.5 26.5t-12.5 26t-33.5 10q-20 0 -48 -3v41l42 63q-114 4 -158 37.5t-45 115.5h168v-5q1 -27 15 -37t54 -10q57 0 74 11q13 9 13 44q0 28 -9.5 37.5t-40.5 10.5l-73 4q-105 6 -153 45q-42 33 -42 113q0 89 47.5 124.5 t168.5 35.5q177 0 219 -48q26 -28 29 -96h-160q1 5 1 9q0 19 -15 27q-13 7 -73 7q-36 0 -47.5 -9.5t-11.5 -39.5q0 -29 15 -36.5t82 -11.5q130 -8 168 -33q58 -38 58 -127q0 -91 -54 -131q-48 -35 -164 -38l-38 -55q13 2 29 2q42 0 66.5 -23.5t24.5 -58.5q0 -42 -33 -67.5 t-101 -25.5q-50 0 -99 10z"/>
<glyph glyph-name="Scaron" horiz-adv-x="698" unicode="Š" d="M424 780h-153l-112 149h128l61 -80l60 80h128zM46 224h187q-1 -5 -1 -14q0 -35 23 -49t81 -14q85 0 105 12q15 9 15 54v28.5t-5.5 18.5t-10 13t-23 7t-35 5.5t-53.5 4.5q-102 8 -144.5 17t-68.5 26q-67 47 -67 177q0 126 59 175q32 27 79 36.5t146 9.5q111 0 160.5 -10 t83.5 -39q28 -24 39 -59.5t11 -101.5v-10h-182v13q0 34 -18 42q-22 11 -111 11q-42 0 -56 -14.5t-14 -54.5q0 -42 19.5 -51.5t121.5 -17.5q113 -10 155.5 -21.5t68.5 -39.5q43 -49 43 -160q0 -138 -80 -189q-58 -37 -232 -37q-94 0 -148 10.5t-90 36.5q-31 22 -44.5 56.5 t-13.5 92.5v36z"/>
<glyph glyph-name="scaron" horiz-adv-x="546" unicode="š" d="M346 574h-153l-112 149h128l61 -80l60 80h128zM29 145h168v-5q1 -27 15 -37t54 -10q57 0 74 11q13 9 13 44q0 28 -9.5 37.5t-40.5 10.5l-73 4q-105 6 -153 45q-42 33 -42 113q0 89 47.5 124.5t168.5 35.5q177 0 219 -48q26 -28 29 -96h-160q1 5 1 9q0 19 -15 27 q-13 7 -73 7q-36 0 -47.5 -9.5t-11.5 -39.5q0 -29 15 -36.5t82 -11.5q130 -8 168 -33q58 -38 58 -127q0 -91 -54 -131q-52 -38 -189 -38q-139 0 -191 33t-53 121z"/>
<glyph glyph-name="Tcommaaccent" horiz-adv-x="604" unicode="Ţ" d="M380 -48l-78 -155h-110l39 155h149zM402 0h-200v553h-182v170h564v-170h-182v-553z"/>
<glyph glyph-name="tcommaaccent" horiz-adv-x="496" unicode="ţ" d="M339 -48l-78 -155h-110l39 155h149zM347 208h132q1 -24 1 -34q0 -96 -26 -130q-44 -53 -184 -53q-128 0 -170 62q-16 24 -22 52t-6 85v199h-58v120h58v99h169v-99h215v-120h-215v-172q0 -72 7.5 -87t40.5 -15q39 0 49.5 11t10.5 56q0 11 -2 26z"/>
<glyph glyph-name="Tcaron" horiz-adv-x="604" unicode="Ť" d="M378 780h-153l-112 149h128l61 -80l60 80h128zM402 0h-200v553h-182v170h564v-170h-182v-553z"/>
<glyph glyph-name="tcaron" horiz-adv-x="496" unicode="ť" d="M470 723l-78 -179h-97l27 179h148zM347 208h132q1 -24 1 -34q0 -96 -26 -130q-44 -53 -184 -53q-128 0 -170 62q-16 24 -22 52t-6 85v199h-58v120h58v99h169v-99h215v-120h-215v-172q0 -72 7.5 -87t40.5 -15q39 0 49.5 11t10.5 56q0 11 -2 26z"/>
<glyph glyph-name="Tbar" horiz-adv-x="604" unicode="Ŧ" d="M402 0h-200v337h-117v108h117v108h-182v170h564v-170h-182v-108h117v-108h-117v-337z"/>
<glyph glyph-name="tbar" horiz-adv-x="496" unicode="ŧ" d="M348 193h131q1 -21 1 -34q0 -81 -26 -115q-44 -53 -184 -53q-128 0 -170 62q-16 24 -22 52t-6 85v64h-54v78h54v57h-58v120h58v99h169v-99h207v-120h-207v-57h148v-78h-148v-42q0 -72 7.5 -87t40.5 -15q39 0 49.5 9.5t10.5 47.5q0 14 -1 26z"/>
<glyph glyph-name="Utilde" horiz-adv-x="768" unicode="Ũ" d="M505 918h71q-6 -59 -37.5 -93t-81.5 -34q-34 0 -81.5 18t-62.5 18q-17 0 -29.5 -12t-15.5 -31h-72q7 58 41 96t81 38q30 0 81 -20t63 -20q35 0 43 40zM62 723h200v-497q0 -36 21.5 -50t73.5 -14q116 0 133 18q16 19 16 62v481h200v-441q0 -96 -17 -147.5t-61 -87.5 q-38 -31 -90.5 -42t-160.5 -11q-112 0 -168.5 17t-94.5 61q-52 61 -52 170v481z"/>
<glyph glyph-name="utilde" horiz-adv-x="568" unicode="ũ" d="M405 712h71q-6 -59 -37.5 -93t-81.5 -34q-33 0 -81 18t-63 18q-17 0 -29.5 -12t-15.5 -31h-72q7 58 41 96t81 38q30 0 80.5 -20t63.5 -20q35 0 43 40zM512 509v-509h-162v79q-18 -50 -49.5 -69t-95.5 -19q-84 0 -117.5 36t-33.5 126v356h169v-335q0 -31 13.5 -44 t45.5 -13q41 0 54 22q7 12 7 53v317h169z"/>
<glyph glyph-name="Umacron" horiz-adv-x="768" unicode="Ū" d="M205 812v83h363v-83h-363zM62 723h200v-497q0 -36 21.5 -50t73.5 -14q116 0 133 18q16 19 16 62v481h200v-441q0 -96 -17 -147.5t-61 -87.5q-38 -31 -90.5 -42t-160.5 -11q-112 0 -168.5 17t-94.5 61q-52 61 -52 170v481z"/>
<glyph glyph-name="umacron" horiz-adv-x="568" unicode="ū" d="M104 606v83h363v-83h-363zM512 509v-509h-162v79q-18 -50 -49.5 -69t-95.5 -19q-84 0 -117.5 36t-33.5 126v356h169v-335q0 -31 13.5 -44t45.5 -13q41 0 54 22q7 12 7 53v317h169z"/>
<glyph glyph-name="Ubreve" horiz-adv-x="768" unicode="Ŭ" d="M210 929h72q8 -68 104 -68q93 0 103 68h71q-3 -70 -51 -111t-127 -41t-124.5 40.5t-47.5 111.5zM62 723h200v-497q0 -36 21.5 -50t73.5 -14q116 0 133 18q16 19 16 62v481h200v-441q0 -96 -17 -147.5t-61 -87.5q-38 -31 -90.5 -42t-160.5 -11q-112 0 -168.5 17t-94.5 61 q-52 61 -52 170v481z"/>
<glyph glyph-name="ubreve" horiz-adv-x="568" unicode="ŭ" d="M110 723h72q8 -68 104 -68q93 0 103 68h71q-3 -70 -51 -111t-127 -41t-124.5 40.5t-47.5 111.5zM512 509v-509h-162v79q-18 -50 -49.5 -69t-95.5 -19q-84 0 -117.5 36t-33.5 126v356h169v-335q0 -31 13.5 -44t45.5 -13q41 0 54 22q7 12 7 53v317h169z"/>
<glyph glyph-name="Uring" horiz-adv-x="768" unicode="Ů" d="M385 815q22 0 36 14.5t14 38.5t-14 38t-35 14q-22 0 -36 -14.5t-14 -38.5t14 -38t35 -14zM386 974q47 0 76.5 -29.5t29.5 -76.5t-30 -77t-77 -30t-76.5 29.5t-29.5 76.5t30 77t77 30zM62 723h200v-497q0 -36 21.5 -50t73.5 -14q116 0 133 18q16 19 16 62v481h200v-441 q0 -96 -17 -147.5t-61 -87.5q-38 -31 -90.5 -42t-160.5 -11q-112 0 -168.5 17t-94.5 61q-52 61 -52 170v481z"/>
<glyph glyph-name="uring" horiz-adv-x="568" unicode="ů" d="M285 628q22 0 36 14.5t14 38.5t-14 38t-35 14q-22 0 -36 -14.5t-14 -38.5t14 -38t35 -14zM286 787q47 0 76.5 -29.5t29.5 -76.5t-30 -77t-77 -30t-76.5 29.5t-29.5 76.5t30 77t77 30zM512 509v-509h-162v79q-18 -50 -49.5 -69t-95.5 -19q-84 0 -117.5 36t-33.5 126v356 h169v-335q0 -31 13.5 -44t45.5 -13q41 0 54 22q7 12 7 53v317h169z"/>
<glyph glyph-name="Uhungarumlaut" horiz-adv-x="768" unicode="Ű" d="M665 929l-150 -149h-110l107 149h153zM455 929l-130 -149h-110l92 149h148zM62 723h200v-497q0 -36 21.5 -50t73.5 -14q116 0 133 18q16 19 16 62v481h200v-441q0 -96 -17 -147.5t-61 -87.5q-38 -31 -90.5 -42t-160.5 -11q-112 0 -168.5 17t-94.5 61q-52 61 -52 170v481z "/>
<glyph glyph-name="uhungarumlaut" horiz-adv-x="568" unicode="ű" d="M565 723l-150 -149h-110l107 149h153zM355 723l-130 -149h-110l92 149h148zM512 509v-509h-162v79q-18 -50 -49.5 -69t-95.5 -19q-84 0 -117.5 36t-33.5 126v356h169v-335q0 -31 13.5 -44t45.5 -13q41 0 54 22q7 12 7 53v317h169z"/>
<glyph glyph-name="Uogonek" horiz-adv-x="768" unicode="Ų" d="M62 723h200v-497q0 -36 21.5 -50t73.5 -14q116 0 133 18q16 19 16 62v481h200v-441q0 -96 -17 -147.5t-61 -87.5q-32 -26 -71.5 -37.5t-109.5 -14.5q-60 -48 -60 -88q0 -19 11.5 -30.5t35.5 -11.5q18 0 53 8v-76q-37 -10 -72 -10q-61 0 -93.5 27t-32.5 74q0 57 60 106 q-96 2 -148 19.5t-87 58.5q-52 61 -52 170v481z"/>
<glyph glyph-name="uogonek" horiz-adv-x="568" unicode="ų" d="M372 0h-22v79q-18 -50 -49.5 -69t-95.5 -19q-84 0 -117.5 36t-33.5 126v356h169v-335q0 -31 13.5 -44t45.5 -13q41 0 54 22q7 12 7 53v317h169v-509h-43q-67 -51 -67 -93q0 -19 12 -30.5t35 -11.5q18 0 53 8v-76q-37 -10 -72 -10q-61 0 -93.5 27t-32.5 74q0 59 68 112z "/>
<glyph glyph-name="Wcircumflex" horiz-adv-x="1002" unicode="Ŵ" d="M427 929h153l112 -149h-128l-60 80l-61 -80h-128zM280 167l113 556h214l107 -559l76 559h193l-116 -723h-281l-34 181q-23 123 -53 319q-36 -217 -56 -316l-37 -184h-277l-112 723h192z"/>
<glyph glyph-name="wcircumflex" horiz-adv-x="790" unicode="ŵ" d="M320 723h153l112 -149h-128l-60 80l-61 -80h-128zM224 123l74 386h192l73 -388l43 388h159l-79 -509h-231l-62 361l-62 -361h-227l-83 509h161z"/>
<glyph glyph-name="Ycircumflex" horiz-adv-x="642" unicode="Ŷ" d="M246 929h153l112 -149h-128l-60 80l-61 -80h-128zM220 256l-243 467h217l129 -282l127 282h214l-244 -470v-253h-200v256z"/>
<glyph glyph-name="ycircumflex" horiz-adv-x="538" unicode="ŷ" d="M197 723h153l112 -149h-128l-60 80l-61 -80h-128zM274 126l86 383h171l-128 -494q-38 -148 -81 -184q-39 -33 -122 -33q-48 0 -80 6v114q7 -1 16 -1q49 0 70 19t25 67h-83l-144 506h171z"/>
<glyph glyph-name="Ydieresis" horiz-adv-x="642" unicode="Ÿ" d="M142 791v125h151v-125h-151zM354 791v125h151v-125h-151zM220 256l-243 467h217l129 -282l127 282h214l-244 -470v-253h-200v256z"/>
<glyph glyph-name="Zacute" horiz-adv-x="660" unicode="Ź" d="M515 929l-160 -149h-120l97 149h183zM30 0v169l341 391h-322v163h567v-172l-333 -384h337v-167h-590z"/>
<glyph glyph-name="zacute" horiz-adv-x="496" unicode="ź" d="M441 723l-160 -149h-120l97 149h183zM23 0v137l243 252h-229v120h424v-136l-240 -250h246v-123h-444z"/>
<glyph glyph-name="Zdotaccent" horiz-adv-x="660" unicode="Ż" d="M414 794h-169v122h169v-122zM30 0v169l341 391h-322v163h567v-172l-333 -384h337v-167h-590z"/>
<glyph glyph-name="zdotaccent" horiz-adv-x="496" unicode="ż" d="M337 588h-169v122h169v-122zM23 0v137l243 252h-229v120h424v-136l-240 -250h246v-123h-444z"/>
<glyph glyph-name="Zcaron" horiz-adv-x="660" unicode="Ž" d="M404 780h-153l-112 149h128l61 -80l60 80h128zM30 0v169l341 391h-322v163h567v-172l-333 -384h337v-167h-590z"/>
<glyph glyph-name="zcaron" horiz-adv-x="496" unicode="ž" d="M330 574h-153l-112 149h128l61 -80l60 80h128zM23 0v137l243 252h-229v120h424v-136l-240 -250h246v-123h-444z"/>
<glyph glyph-name="florin" d="M15 -180v138q22 -5 53 -5q60 0 85 17.5t34 66.5l55 308h-120v108h141q22 136 68 201q31 42 73 59.5t114 17.5q54 0 110 -6v-140q-41 8 -67 8q-55 0 -81 -31.5t-35 -108.5h124v-110h-144l-15 -88q-33 -193 -52 -263t-50 -109q-30 -38 -75.5 -53.5t-127.5 -15.5 q-53 0 -90 6z" unicode="ƒ"/>
<glyph glyph-name="Scommaaccent" horiz-adv-x="698" unicode="Ș" d="M432 -48l-78 -155h-110l39 155h149zM46 224h187q-1 -5 -1 -14q0 -35 23 -49t81 -14q85 0 105 12q15 9 15 54v28.5t-5.5 18.5t-10 13t-23 7t-35 5.5t-53.5 4.5q-102 8 -144.5 17t-68.5 26q-67 47 -67 177q0 126 59 175q32 27 79 36.5t146 9.5q111 0 160.5 -10t83.5 -39 q28 -24 39 -59.5t11 -101.5v-10h-182v13q0 34 -18 42q-22 11 -111 11q-42 0 -56 -14.5t-14 -54.5q0 -42 19.5 -51.5t121.5 -17.5q113 -10 155.5 -21.5t68.5 -39.5q43 -49 43 -160q0 -138 -80 -189q-58 -37 -232 -37q-94 0 -148 10.5t-90 36.5q-31 22 -44.5 56.5t-13.5 92.5 v36z"/>
<glyph glyph-name="scommaaccent" horiz-adv-x="546" unicode="ș" d="M350 -48l-78 -155h-110l39 155h149zM29 145h168v-5q1 -27 15 -37t54 -10q57 0 74 11q13 9 13 44q0 28 -9.5 37.5t-40.5 10.5l-73 4q-105 6 -153 45q-42 33 -42 113q0 89 47.5 124.5t168.5 35.5q177 0 219 -48q26 -28 29 -96h-160q1 5 1 9q0 19 -15 27q-13 7 -73 7 q-36 0 -47.5 -9.5t-11.5 -39.5q0 -29 15 -36.5t82 -11.5q130 -8 168 -33q58 -38 58 -127q0 -91 -54 -131q-52 -38 -189 -38q-139 0 -191 33t-53 121z"/>
<glyph glyph-name="uni021A" horiz-adv-x="604" unicode="Ț" d="M380 -48l-78 -155h-110l39 155h149zM402 0h-200v553h-182v170h564v-170h-182v-553z"/>
<glyph glyph-name="uni021B" horiz-adv-x="496" unicode="ț" d="M339 -48l-78 -155h-110l39 155h149zM347 208h132q1 -24 1 -34q0 -96 -26 -130q-44 -53 -184 -53q-128 0 -170 62q-16 24 -22 52t-6 85v199h-58v120h58v99h169v-99h215v-120h-215v-172q0 -72 7.5 -87t40.5 -15q39 0 49.5 11t10.5 56q0 11 -2 26z"/>
<glyph glyph-name="dotlessj" horiz-adv-x="285" unicode="ȷ" d="M14 -154v118q44 1 44 32v513h169v-449q0 -81 -10 -126q-13 -57 -57 -76q-39 -17 -95 -17q-31 0 -51 5z"/>
<glyph glyph-name="circumflex" horiz-adv-x="333" unicode="ˆ" d="M90 723h153l112 -149h-128l-60 80l-61 -80h-128z"/>
<glyph glyph-name="caron" horiz-adv-x="333" unicode="ˇ" d="M243 574h-153l-112 149h128l61 -80l60 80h128z"/>
<glyph glyph-name="uni02C9" horiz-adv-x="333" unicode="ˉ" d="M-15 606v83h363v-83h-363z"/>
<glyph glyph-name="breve" horiz-adv-x="333" unicode="˘" d="M-8 723h72q8 -68 104 -68q93 0 103 68h71q-3 -70 -51 -111t-127 -41t-124.5 40.5t-47.5 111.5z"/>
<glyph glyph-name="dotaccent" horiz-adv-x="333" unicode="˙" d="M251 588h-169v122h169v-122z"/>
<glyph glyph-name="ring" horiz-adv-x="333" unicode="˚" d="M164 628q22 0 36 14.5t14 38.5t-14 38t-35 14q-22 0 -36 -14.5t-14 -38.5t14 -38t35 -14zM165 787q47 0 76.5 -29.5t29.5 -76.5t-30 -77t-77 -30t-76.5 29.5t-29.5 76.5t30 77t77 30z"/>
<glyph glyph-name="ogonek" horiz-adv-x="333" unicode="˛" d="M146 0h97q-67 -51 -67 -93q0 -19 12 -30.5t35 -11.5q18 0 53 8v-76q-37 -10 -72 -10q-61 0 -93.5 27t-32.5 74q0 59 68 112z"/>
<glyph glyph-name="tilde" horiz-adv-x="333" unicode="˜" d="M286 712h71q-6 -59 -37.5 -93t-81.5 -34q-34 0 -81 18t-63 18q-17 0 -29.5 -12t-15.5 -31h-72q7 58 41 96t81 38q31 0 81.5 -20t62.5 -20q35 0 43 40z"/>
<glyph glyph-name="hungarumlaut" horiz-adv-x="333" unicode="˝" d="M433 723l-150 -149h-110l107 149h153zM223 723l-130 -149h-110l92 149h148z"/>
<glyph glyph-name="endash" d="M0 341h667v-138h-667v138z" unicode="–"/>
<glyph glyph-name="emdash" horiz-adv-x="1000" unicode="—" d="M60 203v138h880v-138h-880z"/>
<glyph glyph-name="quoteleft" horiz-adv-x="278" unicode="‘" d="M215 730v-72q-37 -1 -49 -10.5t-12 -38.5v-11h56v-162h-147v84q0 110 14 147q14 34 44 47.5t94 15.5z"/>
<glyph glyph-name="quoteright" horiz-adv-x="278" unicode="’" d="M63 429v72q37 1 49 10.5t12 38.5v11h-56v162h147v-84q0 -110 -14 -147q-14 -34 -44 -47.5t-94 -15.5z"/>
<glyph glyph-name="quotesinglbase" horiz-adv-x="278" unicode="‚" d="M63 -120v72q37 1 49 10.5t12 38.5v11h-56v162h147v-84q0 -110 -14 -147q-14 -34 -44 -47.5t-94 -15.5z"/>
<glyph glyph-name="quotedblleft" horiz-adv-x="500" unicode="“" d="M204 730v-72q-37 -1 -49 -10.5t-12 -38.5v-11h56v-162h-147v84q0 110 14 147q14 34 44 47.5t94 15.5zM448 730v-72q-37 -1 -49 -10.5t-12 -38.5v-11h56v-162h-147v84q0 110 14 147q14 34 44 47.5t94 15.5z"/>
<glyph glyph-name="quotedblright" horiz-adv-x="500" unicode="”" d="M296 429v72q37 1 49 10.5t12 38.5v11h-56v162h147v-84q0 -110 -14 -147q-14 -34 -44 -47.5t-94 -15.5zM52 429v72q37 1 49 10.5t12 38.5v11h-56v162h147v-84q0 -110 -14 -147q-14 -34 -44 -47.5t-94 -15.5z"/>
<glyph glyph-name="quotedblbase" horiz-adv-x="500" unicode="„" d="M296 -120v72q37 1 49 10.5t12 38.5v11h-56v162h147v-84q0 -110 -14 -147q-14 -34 -44 -47.5t-94 -15.5zM52 -120v72q37 1 49 10.5t12 38.5v11h-56v162h147v-84q0 -110 -14 -147q-14 -34 -44 -47.5t-94 -15.5z"/>
<glyph glyph-name="bullet" horiz-adv-x="333" unicode="•" d="M169 496q62 0 106.5 -44.5t44.5 -106.5q0 -65 -44.5 -110t-108.5 -45t-108.5 45t-44.5 110q0 64 45 107.5t110 43.5z"/>
<glyph glyph-name="guilsinglleft" horiz-adv-x="278" unicode="‹" d="M135 407h105l-101 -143l98 -146h-105l-98 146z"/>
<glyph glyph-name="guilsinglright" horiz-adv-x="278" unicode="›" d="M143 118h-105l101 143l-98 146h105l98 -146z"/>
<glyph glyph-name="fraction" horiz-adv-x="167" unicode="⁄" d="M238 731h96l-404 -740h-97z"/>
<glyph glyph-name="Euro" d="M77 476h55q5 125 83 190t212 65h30q112 0 173 -37l-42 -148q-47 29 -124 29h-28q-52 0 -83 -25t-35 -74h255l-24 -89h-232v-61h218l-24 -89h-194q7 -48 35 -69t81 -21h34q44 0 76 13t67 43v-164q-49 -47 -140 -47h-55q-139 0 -204 62t-78 183h-80l24 89h54v61h-78z" unicode="€"/>
<glyph glyph-name="uni2215" horiz-adv-x="167" unicode="∕" d="M238 731h96l-404 -740h-97z"/>
</font>
</defs>
</svg>
