<?xml version="1.0" encoding="UTF-8" standalone="no"?>
<!DOCTYPE svg  PUBLIC '-//W3C//DTD SVG 1.1//EN'  'http://www.w3.org/Graphics/SVG/1.1/DTD/svg11.dtd'>
<svg xmlns="http://www.w3.org/2000/svg">
<defs>
<font id="EurostileLTPro-Regular" horiz-adv-x="333">
<font-face underline-position="-50" font-weight="400" descent="-200" panose-1="2 11 5 4 2 2 2 5 2 4" units-per-em="1000" unicode-range="U+0020-2215" bbox="-172 -225 978 959" x-height="509" underline-thickness="50" font-family="EurostileLTPro" ascent="800" cap-height="723"/>
<missing-glyph horiz-adv-x="1000"/>
<glyph glyph-name="IJ" horiz-adv-x="867" unicode="IJ" d="M295 266h83v-89q0 -62 25 -86q26 -23 151 -23q64 0 92.5 8t41.5 29q16 28 16 111v507h83v-506q0 -70 -8.5 -106t-30.5 -63q-26 -31 -72.5 -43t-143.5 -12q-87 0 -132.5 12.5t-70.5 43.5q-34 42 -34 130v87zM93 0v723h83v-723h-83z"/>
<glyph glyph-name="ij" horiz-adv-x="428" unicode="ij" d="M214 -192v61h7q35 0 47 17t12 66v557h78v-582q0 -61 -22 -88q-24 -32 -99 -32q-13 0 -23 1zM358 638h-78v85h78v-85zM70 0v509h78v-509h-78zM70 638v85h78v-85h-78z"/>
<glyph glyph-name="napostrophe" horiz-adv-x="609" unicode='&quot;n' d="M0 513v44q20 2 27.5 9t7.5 23v28h-33v106h84v-126q0 -46 -19 -64.5t-67 -19.5zM117 0v509h76v-73l16 22q24 34 56 47t92 13q68 0 106 -15.5t58 -50.5q24 -42 24 -162v-290h-78v319q0 73 -20 101q-27 35 -103 35q-80 0 -114.5 -35.5t-34.5 -117.5v-302h-78z"/>
<glyph glyph-name=".notdef" horiz-adv-x="1000"/>
<glyph glyph-name=".null" horiz-adv-x="1000"/>
<glyph glyph-name="nonmarkingreturn"/>
<glyph glyph-name="space" unicode=" "/>
<glyph glyph-name="exclam" d="M202 194h-71l-5 529h81zM205 93v-93h-78v93h78z" unicode="!"/>
<glyph glyph-name="quotedbl" d="M37 723h90v-111l-23 -148h-46l-21 148v111zM205 723h90v-111l-23 -148h-46l-21 148v111z" unicode='&quot;'/>
<glyph glyph-name="numbersign" horiz-adv-x="667" unicode="#" d="M263 446l-35 -163h162l35 163h-162zM599 526v-80h-94l-35 -163h86v-80h-103l-44 -203h-80l44 203h-162l-44 -203h-80l44 203h-70v80h87l35 163h-79v80h96l43 197h80l-43 -197h162l43 197h80l-43 -197h77z"/>
<glyph glyph-name="dollar" horiz-adv-x="667" unicode="$" d="M367 332v-258h17q82 0 117 27q28 24 28 104q0 56 -8 78.5t-32 33.5q-31 15 -122 15zM302 410v242h-18q-84 0 -114 -23q-13 -10 -18 -27.5t-5 -54.5q0 -60 6.5 -83t27.5 -35q29 -17 121 -19zM59 219h80v-53q0 -46 27 -69q28 -23 116 -23h20v263q-129 3 -172 31 q-35 24 -50.5 63t-15.5 106q0 99 45 140q53 47 165 47h28v60h65v-60h25q106 0 154 -39.5t48 -127.5v-20h-79v35q0 42 -31.5 61t-101.5 19h-15v-245q126 0 178 -34q39 -25 53 -60t14 -107q0 -94 -29 -135q-49 -69 -186 -69h-30v-61h-65v61h-30q-119 0 -167 44q-46 42 -46 149 v24z"/>
<glyph glyph-name="percent" horiz-adv-x="1000" unicode="%" d="M901 159v151q0 85 -19 104t-104 19q-83 0 -104 -18t-21 -90v-155q0 -77 22.5 -97.5t105.5 -20.5q80 0 100 18t20 89zM588 168v155q0 89 30 124q19 24 56 33.5t110 9.5q111 0 147.5 -36.5t36.5 -147.5v-130q0 -111 -37 -147t-151 -36q-71 0 -108.5 12t-57.5 40 q-26 37 -26 123zM593 734h56l-245 -741h-57zM343 404v152q0 84 -19 103t-104 19q-83 0 -104 -18t-21 -89v-156q0 -77 22.5 -97.5t105.5 -20.5q80 0 100 18t20 89zM30 413v155q0 89 30 124q19 24 56 33.5t110 9.5q111 0 147.5 -36.5t36.5 -147.5v-130q0 -112 -36.5 -147.5 t-151.5 -35.5q-71 0 -108.5 12t-57.5 40q-26 38 -26 123z"/>
<glyph glyph-name="ampersand" horiz-adv-x="764" unicode="&amp;" d="M541 138l-274 227q-7 4 -13 4q-47 0 -75 -28q-18 -18 -24.5 -44t-6.5 -78q0 -56 6.5 -82.5t25.5 -42.5q19 -17 49 -23t98 -6q82 0 123 6t61.5 21t29.5 46zM720 -7l-115 94q-19 -44 -58 -68q-26 -15 -69.5 -20t-152.5 -5q-88 0 -123.5 6t-66.5 26q-39 26 -53 66.5 t-14 129.5q0 70 9.5 103t36.5 56q30 28 88 36q-46 37 -57 62t-11 90q0 50 8.5 76.5t30.5 43.5q47 37 175 37t176 -38q48 -40 48 -141q0 -25 -1 -40h-78v17q0 33 -1.5 52t-7.5 36t-14.5 24.5t-27 13.5t-40.5 7t-59 1q-81 0 -105.5 -16.5t-24.5 -69.5q0 -58 17 -72l326 -271 v94h79v-59q0 -65 -4 -96l140 -119z"/>
<glyph glyph-name="quotesingle" horiz-adv-x="200" unicode="&apos;" d="M53 723h94v-111l-23 -148h-50l-21 148v111z"/>
<glyph glyph-name="parenleft" d="M279 724v-65h-13q-69 0 -91.5 -33.5t-22.5 -136.5v-269q0 -93 23.5 -124t88.5 -31h15v-65h-11q-57 0 -88.5 8.5t-54.5 30.5q-54 53 -54 167v302q0 123 55 175q24 22 55 31.5t87 9.5h11z" unicode="("/>
<glyph glyph-name="parenright" d="M54 0v65h13q69 0 91.5 33.5t22.5 136.5v269q0 91 -23.5 123t-88.5 32h-15v65h11q56 0 86 -8.5t55 -30.5q56 -49 56 -197v-272q0 -127 -55 -175q-25 -22 -56 -31.5t-86 -9.5h-11z" unicode=")"/>
<glyph glyph-name="asterisk" horiz-adv-x="500" unicode="*" d="M255 479l43 26l77 -132l-44 -27zM243 479l-76 -131l-44 25l79 132zM43 514v51h153v-51h-153zM306 565h150v-53h-150v53zM332 729l45 -25l-79 -133l-43 25zM171 729l73 -133l-44 -24l-75 135z"/>
<glyph glyph-name="plus" horiz-adv-x="667" unicode="+" d="M70 298h231v212h64v-212h232v-62h-232v-213h-64v213h-231v62z"/>
<glyph glyph-name="comma" d="M107 -104v44q20 2 27.5 9t7.5 23v28h-33v106h84v-126q0 -46 -19 -64.5t-67 -19.5z" unicode=","/>
<glyph glyph-name="hyphen" d="M29 232v67h275v-67h-275z" unicode="-"/>
<glyph glyph-name="period" d="M109 0v106h84v-106h-84z" unicode="."/>
<glyph glyph-name="slash" d="M97 -12h-73l211 743h73z" unicode="/"/>
<glyph glyph-name="zero" horiz-adv-x="667" unicode="0" d="M138 481v-232q0 -67 5 -96.5t20 -48.5q18 -23 48.5 -30.5t108.5 -7.5q92 0 128 7t53 29t22.5 64t5.5 155q0 174 -3.5 221.5t-17.5 71.5q-15 26 -51.5 35.5t-116.5 9.5q-88 0 -118 -5t-49 -22q-21 -19 -28 -49.5t-7 -101.5zM57 233v252q0 73 10 114.5t35 71.5 q28 34 76.5 47t150.5 13q111 0 162 -13.5t80 -50.5q23 -29 31 -71t8 -133v-211q0 -85 -10.5 -132.5t-43.5 -78t-85.5 -40t-144.5 -9.5q-106 0 -155.5 14.5t-75.5 52.5q-38 56 -38 174z"/>
<glyph glyph-name="one" horiz-adv-x="667" unicode="1" d="M116 534l189 189h114v-723h-80v655l-174 -170z"/>
<glyph glyph-name="two" horiz-adv-x="667" unicode="2" d="M63 0v152q0 68 32 110q22 29 54 43.5t132 41.5l107 29q89 24 111 44t22 78v40q0 70 -31 95t-133 25h-53q-77 0 -107 -8t-42 -31q-11 -22 -11 -80v-47h-80v28q0 70 11 109t38 62q28 23 69 31.5t128 8.5q113 0 163.5 -9t79.5 -36q49 -44 49 -142v-44q0 -90 -30 -124 t-117 -59l-205 -60q-69 -19 -86.5 -39t-17.5 -94v-50h456v-74h-539z"/>
<glyph glyph-name="three" horiz-adv-x="667" unicode="3" d="M59 235h81v-61q0 -64 27 -87q17 -13 55.5 -17t146.5 -4q98 0 129 24q15 12 20.5 33t5.5 65q0 63 -3.5 82t-17.5 33q-28 29 -127 29h-95v72h95q77 0 103 19q18 13 24.5 34t6.5 68q0 57 -6 79.5t-25 35.5q-19 11 -55.5 15t-129.5 4q-63 0 -87.5 -6t-37.5 -24 q-16 -23 -16 -94v-36h-80v39q0 58 8.5 90t31.5 56q26 28 65.5 37.5t134.5 9.5q143 0 183 -13q60 -18 83 -68q15 -35 15 -123q0 -48 -5 -71t-18 -39q-24 -31 -89 -47q64 -10 89 -36q20 -21 28 -52t8 -91q0 -62 -9 -95t-32 -55q-36 -33 -107 -43q-30 -5 -150 -5q-99 0 -129 7 q-67 14 -94 57t-27 134v44z"/>
<glyph glyph-name="four" horiz-adv-x="667" unicode="4" d="M111 242h315v409zM426 167h-394v98l351 458h128v-481h109v-75h-109v-167h-85v167z"/>
<glyph glyph-name="five" horiz-adv-x="667" unicode="5" d="M70 212h79v-28q0 -70 31 -95q30 -23 144 -23q77 0 113 6t54 22q17 16 22.5 40.5t5.5 79.5q0 124 -15 156q-15 31 -48.5 42.5t-106.5 11.5q-78 0 -114 -5.5t-53 -19.5q-19 -15 -20 -44h-78v368h481v-72h-400v-215q20 37 55.5 47.5t124.5 10.5q86 0 128.5 -10t72.5 -38 q32 -29 44 -75.5t12 -140.5q0 -76 -10.5 -116.5t-37.5 -68.5q-29 -29 -76.5 -40t-141.5 -11t-138 8t-72 30q-56 44 -56 137v43z"/>
<glyph glyph-name="six" horiz-adv-x="667" unicode="6" d="M352 373q-131 0 -163 -14q-28 -13 -35.5 -38.5t-7.5 -102.5q0 -49 3.5 -70t13.5 -37q17 -26 55.5 -34t141.5 -8q110 0 139 25q13 13 17.5 34t4.5 75q0 72 -1.5 91t-8.5 35q-12 26 -44 35t-115 9zM588 537h-76v17q0 64 -30 86q-16 11 -46 15t-102 4q-86 0 -118.5 -6.5 t-48.5 -27.5q-21 -26 -21 -102v-146q22 41 58 53.5t138 12.5t146 -8.5t71 -33.5q27 -26 36 -62t9 -121q0 -92 -14.5 -132t-55.5 -63q-50 -29 -205 -29q-96 0 -140 10.5t-76 40.5q-48 47 -48 139v360q0 94 44 138q29 29 71 39t131 10q114 0 159.5 -8t74.5 -33 q24 -20 33.5 -48t9.5 -81v-24z"/>
<glyph glyph-name="seven" horiz-adv-x="667" unicode="7" d="M68 651v72h532v-78l-355 -645h-93l355 651h-439z"/>
<glyph glyph-name="eight" horiz-adv-x="667" unicode="8" d="M308 337q-106 0 -136 -24t-30 -107q0 -93 30 -118q18 -14 51 -18t123 -4q75 0 103.5 4.5t46.5 19.5q17 14 23 38.5t6 77.5q0 34 -1.5 52.5t-10.5 35.5t-20 23.5t-39 12t-59 6.5t-87 1zM317 659q-112 0 -140 -24q-23 -20 -23 -107q0 -72 27 -94q32 -25 134 -25 q57 0 89 2.5t56.5 8t34.5 19t14 31t4 48.5q0 56 -4 78.5t-16 34.5q-27 28 -176 28zM170 375q-42 9 -69 37q-31 34 -31 131q0 113 51 151q29 23 71 30t145 7q124 0 161 -12q55 -17 76.5 -56t21.5 -122q0 -86 -20.5 -119t-82.5 -47q73 -17 94 -50.5t21 -131.5q0 -112 -45 -156 q-27 -26 -73 -35t-153 -9q-98 0 -139 5.5t-70 21.5q-70 39 -70 191q0 82 23.5 116.5t88.5 47.5z"/>
<glyph glyph-name="nine" horiz-adv-x="667" unicode="9" d="M315 352q131 0 163 14q28 13 35.5 38.5t7.5 102.5q0 49 -3.5 70t-13.5 37q-17 26 -55.5 34t-141.5 8q-110 0 -139 -25q-13 -13 -17.5 -34t-4.5 -75q0 -72 1.5 -91t8.5 -35q12 -26 44 -35t115 -9zM79 188h76v-17q0 -63 30 -86q16 -11 46 -15t102 -4q86 0 118.5 6.5 t48.5 27.5q21 26 21 102v146q-22 -41 -58 -53.5t-138 -12.5t-146 8.5t-71 33.5q-27 26 -36 62t-9 121q0 92 14.5 132t55.5 63q50 29 205 29q96 0 140 -10.5t76 -40.5q48 -47 48 -139v-360q0 -94 -44 -138q-29 -29 -71 -39t-131 -10q-114 0 -159.5 8t-74.5 33 q-24 20 -33.5 48t-9.5 81v24z"/>
<glyph glyph-name="colon" d="M125 0v106h84v-106h-84zM125 509h84v-106h-84v106z" unicode=":"/>
<glyph glyph-name="semicolon" d="M123 -104v44q20 2 27.5 9t7.5 23v28h-33v106h84v-126q0 -46 -19 -64.5t-67 -19.5zM125 509h84v-106h-84v106z" unicode=";"/>
<glyph glyph-name="less" horiz-adv-x="667" unicode="&lt;" d="M66 237v56l516 237v-70l-436 -194v-2l436 -193v-70z"/>
<glyph glyph-name="equal" horiz-adv-x="667" unicode="=" d="M75 198h517v-62h-517v62zM75 398h517v-62h-517v62z"/>
<glyph glyph-name="greater" horiz-adv-x="667" unicode="&gt;" d="M601 237l-516 -236v70l436 193v2l-436 194v70l516 -237v-56z"/>
<glyph glyph-name="question" horiz-adv-x="556" unicode="?" d="M281 93v-93h-78v93h78zM125 499h-78v40q0 61 8.5 93.5t32.5 54.5q47 44 177 44q143 0 189 -38q50 -40 50 -173q0 -84 -17 -120t-69 -61l-67 -32q-50 -24 -59.5 -36.5t-9.5 -57.5v-20h-79q-1 17 -1 39q0 57 14 80.5t70 50.5l50 24q64 31 75 47.5t12 80.5v38q0 48 -10.5 68 t-33.5 30q-27 12 -122 12q-55 0 -81.5 -9.5t-39.5 -34.5q-11 -24 -11 -120z"/>
<glyph glyph-name="at" horiz-adv-x="980" unicode="@" d="M508 366q-69 0 -96 -29.5t-40 -114.5q-8 -53 -8 -87q0 -41 22 -56.5t85 -15.5q110 0 125 91l21 120q1 4 1 13q0 36 -23.5 57.5t-86.5 21.5zM518 426q93 0 114 -72l10 59h68l-54 -284q-4 -21 -4 -32q0 -40 47 -40q60 0 101 70.5t41 183.5q0 119 -75.5 183t-224.5 64 q-385 0 -385 -401q0 -139 84 -216t260 -77q131 0 259 32v-67q-141 -30 -261 -30q-418 0 -418 358q0 221 115 343t350 122q176 0 270.5 -81t94.5 -231q0 -138 -63.5 -224t-158.5 -86q-77 0 -90 70q-22 -25 -35 -37t-41 -22.5t-67 -10.5q-83 0 -119 29.5t-36 94.5q0 46 9 103 q20 119 64 159t145 40z"/>
<glyph glyph-name="A" horiz-adv-x="721" unicode="A" d="M204 252h314l-144 401h-22zM290 723h144l266 -723h-90l-67 183h-365l-68 -183h-89z"/>
<glyph glyph-name="B" horiz-adv-x="723" unicode="B" d="M173 74h246q101 0 129 23.5t28 108.5q0 49 -7.5 73.5t-27.5 38.5q-26 20 -76 20h-292v-264zM173 410h286q48 0 71 23q28 25 28 99q0 47 -7 68.5t-26 33.5q-25 17 -82 17h-270v-241zM90 723h320q69 0 105.5 -7t65.5 -26q35 -23 47.5 -55t12.5 -97q0 -52 -6.5 -78 t-25.5 -45q-23 -23 -69 -38q49 -7 80 -38q39 -39 39 -135q0 -72 -17.5 -112.5t-59.5 -64.5q-29 -16 -67 -21.5t-121 -5.5h-304v723z"/>
<glyph glyph-name="C" horiz-adv-x="720" unicode="C" d="M651 491h-80q0 103 -22 132q-16 22 -55.5 28.5t-161.5 6.5q-107 0 -137 -31q-35 -38 -35 -185v-213q0 -120 64 -147q33 -14 135 -14q142 0 170 14q46 24 46 132v36h81v-42q0 -148 -69 -187q-31 -17 -77.5 -22.5t-151.5 -5.5q-99 0 -150.5 14.5t-83.5 52.5 q-26 31 -36.5 80.5t-10.5 144.5v165q0 90 10.5 138t38.5 80q30 34 81 51q37 11 153 11q124 0 162 -7q53 -11 82 -37t39 -73q8 -38 8 -122z"/>
<glyph glyph-name="D" horiz-adv-x="786" unicode="D" d="M173 651v-575h273q48 0 77 6.5t51 22.5t32.5 48.5t15 77.5t4.5 117q0 77 -2 120.5t-11.5 82t-22 55t-41.5 28.5t-62 14.5t-91 2.5h-223zM90 0v723h348q83 0 130.5 -14t80.5 -50q33 -35 46 -89t14 -158v-97q-1 -177 -59.5 -246t-207.5 -69h-352z"/>
<glyph glyph-name="E" horiz-adv-x="674" unicode="E" d="M90 0v723h518v-74h-435v-239h424v-72h-424v-262h438v-76h-521z"/>
<glyph glyph-name="F" horiz-adv-x="603" unicode="F" d="M90 0v723h463v-74h-380v-246h371v-74h-371v-329h-83z"/>
<glyph glyph-name="G" horiz-adv-x="778" unicode="G" d="M701 506h-80v25q0 54 -11 78t-41 34q-29 10 -72 13t-152 3q-63 0 -96.5 -7t-55 -32t-27.5 -64.5t-6 -112.5v-189q0 -106 28 -142q21 -26 67.5 -35t157.5 -9q96 0 130 5.5t51 22.5q27 30 27 101v89h-204v74h287v-140q0 -122 -39 -170q-28 -34 -78.5 -45t-173.5 -11 q-137 0 -190 11t-89 46q-57 57 -57 163v248q0 63 3.5 91.5t16.5 61.5q26 67 85 94q28 13 67 17.5t131 4.5q119 0 171 -6.5t85 -25.5q46 -25 56 -76q8 -35 9 -117z"/>
<glyph glyph-name="H" horiz-adv-x="773" unicode="H" d="M90 0v723h83v-313h427v313h83v-723h-83v336h-427v-336h-83z"/>
<glyph glyph-name="I" horiz-adv-x="269" unicode="I" d="M93 0v723h83v-723h-83z"/>
<glyph glyph-name="J" horiz-adv-x="614" unicode="J" d="M42 266h83v-89q0 -62 25 -86q26 -23 151 -23q64 0 92.5 8t41.5 29q16 28 16 111v507h83v-506q0 -70 -8.5 -106t-30.5 -63q-26 -31 -72.5 -43t-143.5 -12q-87 0 -132.5 12.5t-70.5 43.5q-34 42 -34 130v87z"/>
<glyph glyph-name="K" horiz-adv-x="681" unicode="K" d="M90 0v723h83v-309h67l297 309h114l-336 -347l380 -376h-118l-337 340h-67v-340h-83z"/>
<glyph glyph-name="L" horiz-adv-x="608" unicode="L" d="M90 0v723h83v-647h415v-76h-498z"/>
<glyph glyph-name="M" horiz-adv-x="960" unicode="M" d="M90 0v723h151l241 -621l239 621h149v-723h-83v661l-257 -661h-98l-259 661v-661h-83z"/>
<glyph glyph-name="N" horiz-adv-x="784" unicode="N" d="M86 0v723h134l396 -645v645h82v-723h-129l-401 649v-649h-82z"/>
<glyph glyph-name="O" horiz-adv-x="779" unicode="O" d="M619 268v161q0 90 -6 130t-21 60q-23 27 -74 35q-24 4 -115 4q-110 0 -143 -4t-55 -19q-25 -18 -35 -49t-10 -91v-218q0 -81 8.5 -120.5t30.5 -59.5q21 -19 53.5 -24t126.5 -5q107 0 137.5 3.5t52.5 18.5q30 20 40 55.5t10 122.5zM702 427v-176q0 -76 -11 -119.5 t-39 -73.5q-35 -39 -86 -52t-172 -13q-128 0 -178 11t-84 47q-55 58 -55 185v291q0 102 64 156q40 33 95 41q34 6 175 6q93 0 133.5 -6.5t72.5 -26.5q55 -35 73 -105q12 -50 12 -165z"/>
<glyph glyph-name="P" horiz-adv-x="670" unicode="P" d="M173 354h238q74 0 97.5 24t23.5 101q0 71 -6.5 102.5t-24.5 46.5q-25 21 -86 21h-242v-295zM90 0v723h305q65 0 101 -8.5t61 -29.5q32 -26 45 -68t13 -120q0 -76 -14.5 -118t-49.5 -68q-39 -31 -141 -31h-237v-280h-83z"/>
<glyph glyph-name="Q" horiz-adv-x="779" unicode="Q" d="M619 268v161q0 90 -6 130t-21 60q-23 27 -74 35q-24 4 -115 4q-110 0 -143 -4t-55 -19q-25 -18 -35 -49t-10 -91v-218q0 -81 8.5 -120.5t30.5 -59.5q21 -19 53.5 -24t126.5 -5q95 0 127.5 2t50.5 10l-143 140l48 50l144 -139q13 32 13 137zM702 427v-176q0 -125 -39 -177 l41 -38l-49 -50l-41 39q-33 -21 -78 -26.5t-142 -5.5q-128 0 -178 11t-84 47q-55 58 -55 185v291q0 102 64 156q40 33 95 41q34 6 175 6q93 0 133.5 -6.5t72.5 -26.5q55 -35 73 -105q12 -50 12 -165z"/>
<glyph glyph-name="R" horiz-adv-x="729" unicode="R" d="M173 361h259q83 0 110.5 31t27.5 122q0 87 -26.5 112t-118.5 25h-252v-290zM90 0v723h350q110 0 159 -39q30 -25 42 -63.5t12 -109.5q0 -93 -22 -130t-83 -54q59 -13 80 -48q13 -21 17 -61t4 -141v-77h-83v168q0 70 -25.5 95.5t-94.5 25.5h-273v-289h-83z"/>
<glyph glyph-name="S" horiz-adv-x="709" unicode="S" d="M63 234h82v-32q0 -86 34 -110q20 -13 51 -17.5t107 -4.5q151 0 185 15q23 11 32.5 34t9.5 74q0 71 -10 91q-16 31 -91 37l-158 13q-83 7 -120.5 16.5t-64.5 32.5q-48 42 -48 158q0 64 13 100.5t44 58.5q27 19 62 25t124 6q138 0 189.5 -7.5t83.5 -31.5q26 -21 36.5 -53 t10.5 -98v-22h-76v23q0 75 -31 94q-34 23 -163 23h-46q-105 0 -134.5 -22.5t-29.5 -101.5q0 -72 21.5 -93t90.5 -27l140 -12q90 -8 132 -18.5t68 -32.5q40 -36 40 -141q0 -65 -6.5 -97t-24.5 -57q-27 -37 -77.5 -50t-169.5 -13q-121 0 -167.5 7t-77.5 30q-62 47 -62 172 q0 17 1 31z"/>
<glyph glyph-name="T" horiz-adv-x="566" unicode="T" d="M10 723h546v-76h-232v-647h-83v647h-231v76z"/>
<glyph glyph-name="U" horiz-adv-x="755" unicode="U" d="M80 723h83v-509q0 -82 34 -114q20 -19 61 -25.5t141 -6.5q81 0 114.5 8t52.5 33q26 34 26 105v509h83v-516q0 -114 -57 -165q-33 -29 -83 -39t-167 -10q-144 0 -193 26q-51 27 -73 73.5t-22 127.5v503z"/>
<glyph glyph-name="V" horiz-adv-x="681" unicode="V" d="M587 723h89l-269 -723h-133l-267 723h90l243 -658z"/>
<glyph glyph-name="W" horiz-adv-x="1000" unicode="W" d="M19 723h87l165 -638l169 638h117l163 -638l174 638h84l-196 -723h-124l-160 642l-165 -642h-122z"/>
<glyph glyph-name="X" horiz-adv-x="631" unicode="X" d="M313 313l-223 -313h-102l267 376l-244 347h102l201 -286l204 286h103l-248 -347l268 -376h-103z"/>
<glyph glyph-name="Y" horiz-adv-x="654" unicode="Y" d="M371 0h-87v303l-292 420h102l233 -340l238 340h99l-293 -420v-303z"/>
<glyph glyph-name="Z" horiz-adv-x="627" unicode="Z" d="M26 0v78l453 571h-434v74h541v-74l-453 -573h462v-76h-569z"/>
<glyph glyph-name="bracketleft" d="M81 0v723h197v-65h-116v-593h116v-65h-197z" unicode="["/>
<glyph glyph-name="backslash" d="M256 -9l-254 740h76l254 -740h-76z" unicode="\"/>
<glyph glyph-name="bracketright" d="M252 0h-197v65h116v593h-116v65h197v-723z" unicode="]"/>
<glyph glyph-name="asciicircum" horiz-adv-x="580" unicode="^" d="M253 723h76l199 -390h-86l-151 306l-154 -306h-85z"/>
<glyph glyph-name="underscore" horiz-adv-x="500" unicode="_" d="M500 -75v-50h-500v50h500z"/>
<glyph glyph-name="grave" d="M144 714l89 -141h-67l-131 141h109z" unicode="`"/>
<glyph glyph-name="a" horiz-adv-x="559" unicode="a" d="M242 254q-67 0 -91 -19t-24 -74q0 -61 23 -79q25 -21 115 -21q94 0 128 22q28 18 28 77q0 56 -27 71q-36 23 -152 23zM424 0v70q-12 -29 -30 -43q-41 -32 -145 -32q-114 0 -161 41q-38 35 -38 118q0 94 41 127q44 35 151 35q83 0 120.5 -12.5t56.5 -46.5v15 q0 91 -3.5 118t-15.5 41q-27 27 -138 27q-68 0 -87 -13q-28 -15 -28 -51v-9h-77q0 66 29 95q21 22 56 30t108 8q124 0 171 -25q61 -31 61 -118v-375h-71z"/>
<glyph glyph-name="b" horiz-adv-x="554" unicode="b" d="M288 456q-77 0 -110 -40q-18 -23 -24.5 -56t-6.5 -105q0 -103 18 -139q29 -60 125 -60q81 0 108 36q15 19 21 54t6 109q0 78 -5.5 112.5t-20.5 54.5q-27 34 -111 34zM68 0v723h78v-285q31 46 65.5 63t93.5 17q112 0 156 -56q41 -52 41 -197q0 -135 -26 -188 q-41 -86 -184 -86q-58 0 -93 21t-57 69v-81h-74z"/>
<glyph glyph-name="c" horiz-adv-x="542" unicode="c" d="M491 340h-74v17q0 58 -28.5 78.5t-111.5 20.5q-93 0 -122 -36q-15 -20 -20.5 -55.5t-5.5 -117.5q0 -65 5 -100t21.5 -56.5t42.5 -28t74 -6.5q62 0 93 8.5t42 28.5q11 19 12 93h76q1 -10 1 -28q0 -87 -50 -127q-27 -22 -63 -31t-101 -9q-75 0 -116.5 11.5t-68.5 40.5 q-45 49 -45 135v123q0 109 38 157q26 32 66.5 46t111.5 14q126 0 174.5 -33t48.5 -118v-27z"/>
<glyph glyph-name="d" horiz-adv-x="553" unicode="d" d="M262 456q-72 0 -100 -28q-18 -20 -25.5 -54t-7.5 -108q0 -80 6 -117t21 -57q28 -36 112 -36q76 0 109 40q17 22 23.5 57t6.5 108q0 66 -7 99.5t-25 55.5q-34 40 -113 40zM407 437v286h78v-723h-73v83q-21 -51 -53 -71.5t-91 -20.5q-129 0 -174 58q-42 53 -42 222 q0 145 45 196q46 51 164 51q61 0 92 -17.5t54 -63.5z"/>
<glyph glyph-name="e" horiz-adv-x="554" unicode="e" d="M131 302h293v15q0 92 -26 115q-29 26 -126 26q-82 0 -112 -26t-30 -100q0 -19 1 -30zM426 146h75v-13q0 -78 -46 -111q-45 -31 -178 -31q-74 0 -114.5 11.5t-64.5 39.5q-25 30 -35.5 75t-10.5 126q0 150 29 205q20 37 63.5 53.5t120.5 16.5q78 0 119.5 -9.5t68.5 -33.5 q49 -43 49 -174v-64h-371q-1 -15 -1 -38q0 -82 29 -112.5t105 -30.5q122 0 144 26q17 21 18 64z"/>
<glyph glyph-name="f" d="M89 444h-75v65h75v48q0 56 5 82t19 44q37 48 134 48q43 0 84 -6v-64q-54 4 -80 4q-58 0 -74 -30q-10 -17 -10 -70v-56h164v-65h-164v-444h-78v444z" unicode="f"/>
<glyph glyph-name="g" horiz-adv-x="552" unicode="g" d="M261 456q-77 0 -105 -39q-26 -38 -26 -166q0 -112 29 -148q27 -36 99 -36q87 0 119 40q31 36 31 159q0 96 -20 133q-30 57 -127 57zM74 -59h72q0 -45 26 -61t98 -16q106 0 126 43q13 26 13 120v55l-10 -17q-37 -63 -156 -63t-158 71q-32 57 -32 202q0 77 11 121t38 73 q46 49 149 49q72 0 111 -24.5t52 -77.5v93h72v-518q0 -111 -46 -151.5t-173 -40.5q-103 0 -150 31q-44 30 -44 90q0 13 1 21z"/>
<glyph glyph-name="h" horiz-adv-x="563" unicode="h" d="M68 0v723h78v-293l8 16q20 39 54.5 55.5t95.5 16.5q129 0 170 -65q25 -42 25 -161v-292h-78v318q0 83 -24.5 110t-97.5 27q-153 0 -153 -140v-315h-78z"/>
<glyph glyph-name="i" horiz-adv-x="218" unicode="i" d="M70 0v509h78v-509h-78zM70 638v85h78v-85h-78z"/>
<glyph glyph-name="j" horiz-adv-x="218" unicode="j" d="M4 -192v61h7q35 0 47 17t12 66v557h78v-582q0 -61 -22 -88q-24 -32 -99 -32q-13 0 -23 1zM148 638h-78v85h78v-85z"/>
<glyph glyph-name="k" horiz-adv-x="466" unicode="k" d="M68 0v723h78v-416h24l168 202h105l-208 -235l243 -274h-103l-205 244h-24v-244h-78z"/>
<glyph glyph-name="l" horiz-adv-x="218" unicode="l" d="M70 0v723h78v-723h-78z"/>
<glyph glyph-name="m" horiz-adv-x="835" unicode="m" d="M66 0v509h75v-72l15 21q43 60 137 60q113 0 150 -80q26 43 63.5 61.5t96.5 18.5q104 0 143 -57q25 -37 25 -124v-337h-78v346q0 60 -24.5 84.5t-86.5 24.5q-81 0 -108 -45q-15 -27 -15 -109v-301h-78v332q0 71 -21 97t-81 26q-79 0 -112 -49q-23 -34 -23 -94v-312h-78z "/>
<glyph glyph-name="n" horiz-adv-x="558" unicode="n" d="M66 0v509h76v-73l16 22q24 34 56 47t92 13q68 0 106 -15.5t58 -50.5q24 -42 24 -162v-290h-78v319q0 73 -20 101q-27 35 -103 35q-80 0 -114.5 -35.5t-34.5 -117.5v-302h-78z"/>
<glyph glyph-name="o" horiz-adv-x="558" unicode="o" d="M263 456q-87 0 -109 -33q-25 -38 -25 -166q0 -132 28 -170q23 -31 116 -31q39 0 61.5 1.5t42.5 9.5t28 19t14.5 35.5t8 53t1.5 78.5q0 53 -1 82t-8 55.5t-15.5 36.5t-30 18.5t-44.5 9.5t-67 1zM293 518q131 0 174 -50q23 -26 31 -69t8 -139q0 -99 -7.5 -141t-29.5 -73 q-23 -30 -69.5 -42.5t-137.5 -12.5q-70 0 -109 11.5t-61 39.5q-23 28 -31.5 76t-8.5 145q0 98 12.5 146t44.5 75q22 19 62 26.5t122 7.5z"/>
<glyph glyph-name="p" horiz-adv-x="552" unicode="p" d="M284 456q-78 0 -109 -40q-17 -22 -23.5 -58t-6.5 -107q0 -66 7 -100t25 -57q30 -38 113 -38q78 0 105.5 34t27.5 139q0 128 -12 164q-11 33 -39.5 48t-87.5 15zM66 -196v705h74v-82q22 50 55.5 70.5t96.5 20.5q123 0 168 -60q22 -30 31 -79.5t9 -139.5q0 -137 -44 -192.5 t-166 -55.5q-60 0 -91.5 17.5t-54.5 63.5v-268h-78z"/>
<glyph glyph-name="q" horiz-adv-x="552" unicode="q" d="M264 456q-81 0 -108 -36q-27 -34 -27 -169q0 -73 5.5 -106.5t19.5 -53.5q26 -35 113 -35q79 0 108 39q19 23 25.5 56.5t6.5 103.5q0 103 -19 140q-32 61 -124 61zM412 426v83h74v-705h-78v268q-23 -46 -55 -63.5t-94 -17.5q-107 0 -154 43q-28 26 -40.5 74t-12.5 134 q0 167 43 220q46 56 163 56q64 0 97.5 -20.5t56.5 -71.5z"/>
<glyph glyph-name="r" horiz-adv-x="445" unicode="r" d="M66 0v509h74v-58q29 38 58 52t78 14q79 0 112 -34.5t33 -117.5q0 -20 -1 -32h-74q1 10 1 25q0 55 -17.5 75.5t-64.5 20.5q-71 0 -101 -42q-20 -27 -20 -79v-333h-78z"/>
<glyph glyph-name="s" horiz-adv-x="548" unicode="s" d="M48 154h73q3 -62 28.5 -79t114.5 -17q108 0 138 18q21 13 21 64q0 58 -15 69t-95 16l-54 3q-141 8 -175 38t-34 114q0 81 42 109q27 17 68 23t125 6q81 0 119.5 -9.5t58.5 -34.5q22 -27 23 -85h-72q-3 35 -22 51q-22 19 -123 19q-94 0 -123 -20q-20 -12 -20 -70 q0 -20 1.5 -28t7.5 -18t22.5 -13t42 -6.5t70.5 -5.5l79 -4q92 -4 121.5 -33.5t29.5 -116.5t-43 -116q-51 -34 -193 -34q-83 0 -127 12.5t-66 42.5q-23 31 -23 105z"/>
<glyph glyph-name="t" horiz-adv-x="430" unicode="t" d="M84 444h-64v65h64v121h78v-121h219v-65h-219v-319q0 -38 17.5 -53t61.5 -15q52 0 69.5 18t17.5 73q0 13 -1 35h70v-56q0 -66 -28 -94q-40 -40 -136 -40q-89 0 -125 43q-24 29 -24 82v326z"/>
<glyph glyph-name="u" horiz-adv-x="558" unicode="u" d="M63 509h78v-348q0 -53 22 -75q30 -30 95 -30q101 0 135 58q21 37 21 129v266h78v-509h-74v73l-12 -18q-42 -64 -159 -64q-93 0 -138.5 40t-45.5 123v355z"/>
<glyph glyph-name="v" horiz-adv-x="494" unicode="v" d="M13 509h85l146 -442l151 442h84l-181 -509h-104z"/>
<glyph glyph-name="w" horiz-adv-x="782" unicode="w" d="M18 509h85l118 -442l114 442h110l116 -442l119 442h82l-143 -509h-120l-109 432l-112 -432h-114z"/>
<glyph glyph-name="x" horiz-adv-x="479" unicode="x" d="M237 206l-141 -206h-96l188 266l-165 243h94l119 -179l123 179h94l-167 -239l187 -270h-93z"/>
<glyph glyph-name="y" horiz-adv-x="494" unicode="y" d="M13 509h84l166 -435l134 435h82l-164 -519q-25 -78 -37.5 -106t-32.5 -47q-36 -33 -102 -33q-17 0 -33 2v66q13 -1 22 -1q50 0 72 40q18 32 29 91h-23z"/>
<glyph glyph-name="z" horiz-adv-x="482" unicode="z" d="M29 0v79l320 365h-306v65h400v-72l-320 -370h325v-67h-419z"/>
<glyph glyph-name="braceleft" d="M54 290v62q25 0 41 5t22.5 16.5t8 21.5t1.5 27q0 20 -4.5 74.5t-4.5 79.5q0 148 136 148h26v-65h-16q-44 0 -60.5 -21t-16.5 -69q0 -23 4.5 -75.5t4.5 -68.5q0 -36 -16 -65t-44 -38q58 -20 58 -103q0 -22 -3.5 -75t-3.5 -73q0 -54 23 -72.5t60 -18.5h10v-65h-24 q-67 0 -103 34t-36 99q0 30 5 90t5 81q0 15 -2 25t-8 22t-22 18t-41 6z" unicode="{"/>
<glyph glyph-name="bar" d="M132 740h68v-830h-68v830z" unicode="|"/>
<glyph glyph-name="braceright" d="M279 349v-62q-25 0 -41 -5t-22.5 -16.5t-8 -21.5t-1.5 -27q0 -20 4.5 -74.5t4.5 -79.5q0 -148 -136 -148h-26v65h16q44 0 60.5 21t16.5 69q0 23 -4.5 75.5t-4.5 68.5q0 36 16 65t44 38q-58 20 -58 103q0 22 3.5 75t3.5 73q0 54 -23 72.5t-60 18.5h-10v65h24q67 0 103 -34 t36 -99q0 -30 -5 -90t-5 -81q0 -15 2 -25t8 -22t22 -18t41 -6z" unicode="}"/>
<glyph glyph-name="asciitilde" horiz-adv-x="667" unicode="~" d="M473 269q36 0 55 24.5t27 73.5h60q-7 -79 -45.5 -121t-94.5 -42q-51 0 -146 49t-136 49q-36 0 -55 -24.5t-27 -73.5h-60q7 79 45.5 121t94.5 42q44 0 97 -24.5t102 -49t83 -24.5z"/>
<glyph glyph-name="uni00A0" unicode=" "/>
<glyph glyph-name="exclamdown" d="M128 416v93h78v-93h-78zM126 -196l5 523h71l5 -523h-81z" unicode="¡"/>
<glyph glyph-name="cent" horiz-adv-x="667" unicode="¢" d="M187 247q0 -88 11.5 -127t44.5 -53l110 389h-18q-93 0 -122 -36q-15 -20 -20.5 -55.5t-5.5 -117.5zM549 340h-74v17q0 40 -12.5 61t-44.5 30l-111 -392h23q62 0 93 8.5t42 28.5q11 19 12 93h76q1 -10 1 -28q0 -87 -50 -127q-27 -22 -63 -31t-101 -9q-19 0 -51 2l-37 -132 h-67l40 141q-44 12 -70 41q-45 49 -45 135v123q0 109 38 157q26 32 66.5 46t111.5 14q31 0 45 -1l35 123h67l-37 -131q61 -12 87 -45t26 -97v-27z"/>
<glyph glyph-name="sterling" horiz-adv-x="667" unicode="£" d="M47 0v70q56 0 76 19q14 13 19 40t5 91q0 48 -2 66h-98v69h95q0 33 -1 65q-3 69 -3 111q0 62 9.5 95t33.5 56q28 27 73.5 38t124.5 11q127 0 177.5 -37.5t50.5 -131.5v-50h-78v47q0 60 -35 81t-136 21q-87 0 -113 -25t-26 -110q0 -40 4 -144l1 -27h214v-69h-211 q2 -66 2 -83q0 -108 -48 -131h440v-72h-574z"/>
<glyph glyph-name="currency" horiz-adv-x="667" unicode="¤" d="M328 473q-61 0 -99.5 -42.5t-38.5 -99.5q0 -71 43.5 -105.5t93.5 -34.5q54 0 97 34.5t43 110.5q0 52 -37.5 94.5t-101.5 42.5zM330 535q80 0 126 -40l76 76l45 -47l-80 -69q40 -45 40 -118q0 -83 -40 -125l75 -73l-45 -45l-72 77q-47 -43 -127 -43q-78 0 -124 39l-69 -73 l-44 45l72 68q-18 18 -31 51.5t-13 69.5q0 75 46 127l-76 68l46 48l71 -76q50 40 124 40z"/>
<glyph glyph-name="yen" horiz-adv-x="667" unicode="¥" d="M94 236h196v97h-196v67h147l-233 323h102l223 -320l228 320h99l-235 -323h147v-67h-195v-97h195v-67h-195v-169h-87v169h-196v67z"/>
<glyph glyph-name="brokenbar" d="M132 740h68v-350h-68v350zM132 260h68v-350h-68v350z" unicode="¦"/>
<glyph glyph-name="section" horiz-adv-x="667" unicode="§" d="M254 470q-30 0 -58 -25.5t-28 -52.5q0 -26 18 -42t73 -34l123 -39q38 -12 51 -12q22 0 43.5 26t21.5 53q0 30 -20 46.5t-73 33.5l-106 34q-39 12 -45 12zM132 138h75q-1 -5 -1 -15q0 -41 23 -53.5t100 -12.5q80 0 104 11t24 49q0 35 -19.5 52t-79.5 36l-137 43 q-70 22 -100.5 48.5t-30.5 77.5q0 43 24 70.5t79 47.5q-64 28 -64 111q0 73 40 102q22 17 50 22.5t88 5.5q72 0 106 -6t56 -22q36 -24 36 -86v-21h-72v9q0 41 -25 52.5t-113 11.5q-53 0 -71 -11t-18 -45q0 -32 20 -47.5t88 -35.5l115 -35q84 -26 113 -53q34 -34 34 -87 q0 -42 -27 -73t-71 -41q31 -17 43 -41.5t12 -72.5q0 -78 -33 -103q-43 -35 -183 -35q-68 0 -101.5 8t-53.5 29q-30 32 -30 83v27z"/>
<glyph glyph-name="dieresis" d="M205 585v101h82v-101h-82zM131 686v-101h-82v101h82z" unicode="¨"/>
<glyph glyph-name="copyright" horiz-adv-x="840" unicode="©" d="M590 431h-68v11q0 44 -14 59t-57 15h-55q-59 0 -74.5 -20t-15.5 -88v-99q0 -62 16 -82.5t74 -20.5h55q48 0 60.5 17t12.5 65v13h68v-22q0 -70 -26.5 -101.5t-87.5 -31.5h-109q-71 0 -101.5 31t-30.5 104v149q0 81 29.5 113t102.5 32h109q65 0 88.5 -32.5t23.5 -85.5v-26z M115 362q0 -138 84.5 -225t219.5 -87q139 0 222.5 85.5t83.5 224.5q0 138 -84.5 225t-219.5 87q-138 0 -222 -85.5t-84 -224.5zM53 362q0 163 102.5 265.5t265.5 102.5t264.5 -102.5t101.5 -267.5q0 -163 -102.5 -265.5t-265.5 -102.5t-264.5 102.5t-101.5 267.5z"/>
<glyph glyph-name="ordfeminine" horiz-adv-x="400" unicode="ª" d="M179 544q-44 0 -60 -12.5t-16 -49.5q0 -44 13 -53q19 -14 79 -14q65 0 87 15q18 11 18 52q0 38 -17 46q-26 16 -104 16zM302 367v36q-20 -23 -45 -31t-73 -8q-82 0 -115 30q-28 24 -28 83q0 67 30 91q32 25 108 25q53 0 79 -7t40 -25q0 61 -2 78t-10 26q-18 18 -93 18 q-45 0 -59 -9q-18 -11 -18 -41h-61q0 47 22 70q16 16 40.5 22t76.5 6q86 0 121 -18q44 -23 44 -84v-262h-57z"/>
<glyph glyph-name="guillemotleft" horiz-adv-x="500" unicode="«" d="M350 410h81l-118 -153l118 -153h-81l-118 153zM186 410h81l-118 -153l118 -153h-81l-118 153z"/>
<glyph glyph-name="logicalnot" horiz-adv-x="667" unicode="¬" d="M70 398h481v-312h-64v250h-417v62z"/>
<glyph glyph-name="uni00AD" d="M29 232v67h275v-67h-275z" unicode="­"/>
<glyph glyph-name="registered" horiz-adv-x="480" unicode="®" d="M198 540h54q23 0 31.5 7.5t8.5 26.5q0 15 -9 21t-35 6h-50v-61zM155 430v206h112q69 0 69 -61q0 -42 -37 -52q36 -12 36 -47v-46h-44v38q0 21 -7.5 29t-27.5 8h-58v-75h-43zM240 690q-71 0 -112.5 -43t-41.5 -116q0 -72 42 -115.5t112 -43.5q71 0 112.5 43t41.5 116 q0 72 -42 115.5t-112 43.5zM240 730q88 0 142.5 -55.5t54.5 -143.5q0 -87 -55 -143t-142 -56q-88 0 -142.5 55.5t-54.5 143.5q0 87 55 143t142 56z"/>
<glyph glyph-name="macron" d="M10 606v58h313v-58h-313z" unicode="¯"/>
<glyph glyph-name="degree" horiz-adv-x="400" unicode="°" d="M200 731q64 0 105 -41t41 -103q0 -61 -41 -102.5t-105 -41.5t-105 41t-41 103q0 61 41 102.5t105 41.5zM200 674q-41 0 -63 -24.5t-22 -62.5q0 -37 23 -62t62 -25q41 0 63 24.5t22 62.5q0 37 -23 62t-62 25z"/>
<glyph glyph-name="plusminus" horiz-adv-x="667" unicode="±" d="M75 62h517v-62h-517v62zM75 348h226v192h64v-192h227v-62h-227v-163h-64v163h-226v62z"/>
<glyph glyph-name="twosuperior" horiz-adv-x="500" unicode="²" d="M70 243v106q0 53 23.5 78t89.5 43l103 29q53 15 68 29.5t15 49.5v26q0 44 -19.5 59t-82.5 15h-34q-64 0 -81 -13t-17 -60v-34h-64v21q0 86 35.5 114.5t140.5 28.5q109 0 147.5 -28t38.5 -99v-29q0 -59 -22 -85t-77 -41l-128 -35q-43 -12 -56.5 -26.5t-13.5 -60.5v-31h297 v-57h-363z"/>
<glyph glyph-name="threesuperior" horiz-adv-x="500" unicode="³" d="M69 404h65v-43q0 -42 22 -54t105 -12q72 0 92 14t20 61q0 61 -16.5 77t-74.5 16h-68v55h68q51 0 66 13t15 65q0 56 -22 69.5t-112 13.5q-55 0 -70.5 -13t-15.5 -64v-27h-65v29q0 76 32 103.5t130 27.5q117 0 153.5 -27t36.5 -111q0 -48 -14 -71t-46 -34 q39 -10 53.5 -36.5t14.5 -83.5q0 -84 -39.5 -109t-152.5 -25q-103 0 -140 26.5t-37 107.5v32z"/>
<glyph glyph-name="acute" d="M190 714h109l-131 -141h-67z" unicode="´"/>
<glyph glyph-name="mu" horiz-adv-x="667" unicode="µ" d="M119 509h78v-348q0 -53 22 -75q30 -30 95 -30q101 0 135 58q21 37 21 129v266h78v-509h-74v73l-12 -18q-42 -64 -159 -64q-60 0 -106 28v-215h-78v705z"/>
<glyph glyph-name="paragraph" horiz-adv-x="700" unicode="¶" d="M549 -196h-78v844h-96v-844h-78v486q-114 0 -171.5 45t-57.5 170q0 113 54 165.5t170 52.5h339v-76h-82v-843z"/>
<glyph glyph-name="periodcentered" d="M167 387q26 0 44.5 -19t18.5 -45t-18.5 -44.5t-44.5 -18.5q-27 0 -45.5 18.5t-18.5 44.5q0 27 18.5 45.5t45.5 18.5z" unicode="·"/>
<glyph glyph-name="cedilla" d="M154 0h50l-50 -63q13 1 26 1q39 0 64 -20.5t25 -56.5q0 -86 -118 -86q-46 0 -87 10v47q43 -9 72 -9q59 0 59 38q0 17 -15.5 26.5t-39.5 9.5q-16 0 -42 -3v34z" unicode="¸"/>
<glyph glyph-name="onesuperior" horiz-adv-x="500" unicode="¹" d="M87 580l146 149h86v-486h-67v423l-125 -128z"/>
<glyph glyph-name="ordmasculine" horiz-adv-x="400" unicode="º" d="M188 681q-58 0 -72 -22q-17 -26 -17 -110q0 -89 19 -117q15 -20 77 -20q72 0 88.5 20.5t16.5 113.5q0 36 -0.5 56t-5.5 37t-10.5 24t-21 12t-30 5.5t-44.5 0.5zM209 731q95 0 125 -36q17 -19 22.5 -47.5t5.5 -96.5q0 -70 -5.5 -99.5t-21.5 -50.5q-30 -40 -147 -40 q-92 0 -122 37q-16 19 -22.5 53t-6.5 102q0 65 9.5 99t31.5 54q31 25 131 25z"/>
<glyph glyph-name="guillemotright" horiz-adv-x="500" unicode="»" d="M150 410l118 -153l-118 -153h-81l118 153l-118 153h81zM233 410h81l118 -153l-118 -153h-81l118 153z"/>
<glyph glyph-name="onequarter" horiz-adv-x="1000" unicode="¼" d="M611 167h197v256zM808 112h-260v69l238 305h86v-319h71v-55h-71v-112h-64v112zM542 723h56l-242 -723h-57zM49 580l146 149h86v-486h-67v423l-125 -128z"/>
<glyph glyph-name="onehalf" horiz-adv-x="1000" unicode="½" d="M37 580l146 149h86v-486h-67v423l-125 -128zM532 723h56l-242 -723h-57zM566 0v106q0 53 23.5 78t89.5 43l103 29q53 15 68 29.5t15 49.5v26q0 44 -19.5 59t-82.5 15h-34q-64 0 -81 -13t-17 -60v-34h-64v21q0 86 35.5 114.5t140.5 28.5q109 0 147.5 -28t38.5 -99v-29 q0 -59 -22 -85t-77 -41l-128 -35q-43 -12 -56.5 -26.5t-13.5 -60.5v-31h297v-57h-363z"/>
<glyph glyph-name="threequarters" horiz-adv-x="1000" unicode="¾" d="M631 167h197v256zM828 112h-260v69l238 305h86v-319h71v-55h-71v-112h-64v112zM637 723h56l-242 -723h-57zM69 404h65v-43q0 -42 22 -54t105 -12q72 0 92 14t20 61q0 61 -16.5 77t-74.5 16h-68v55h68q51 0 66 13t15 65q0 56 -22 69.5t-112 13.5q-55 0 -70.5 -13 t-15.5 -64v-27h-65v29q0 76 32 103.5t130 27.5q117 0 153.5 -27t36.5 -111q0 -48 -14 -71t-46 -34q39 -10 53.5 -36.5t14.5 -83.5q0 -84 -39.5 -109t-152.5 -25q-103 0 -140 26.5t-37 107.5v32z"/>
<glyph glyph-name="questiondown" horiz-adv-x="556" unicode="¿" d="M273 416v93h79v-93h-79zM430 31h78v-40q0 -61 -8.5 -93.5t-32.5 -54.5q-47 -44 -177 -44q-143 0 -189 38q-50 40 -50 173q0 84 17 120t69 61l67 32q50 24 59.5 36.5t9.5 57.5v10h79q1 -17 1 -29q0 -57 -14 -80.5t-70 -50.5l-50 -24q-64 -31 -75 -47.5t-12 -80.5v-38 q0 -48 10.5 -68t33.5 -30q27 -12 122 -12q55 0 81.5 9.5t39.5 34.5q11 24 11 120z"/>
<glyph glyph-name="Agrave" horiz-adv-x="721" unicode="À" d="M313 920l89 -141h-67l-131 141h109zM204 252h314l-144 401h-22zM290 723h144l266 -723h-90l-67 183h-365l-68 -183h-89z"/>
<glyph glyph-name="Aacute" horiz-adv-x="721" unicode="Á" d="M410 920h109l-131 -141h-67zM204 252h314l-144 401h-22zM290 723h144l266 -723h-90l-67 183h-365l-68 -183h-89z"/>
<glyph glyph-name="Acircumflex" horiz-adv-x="721" unicode="Â" d="M315 920h92l100 -141h-80l-66 94l-66 -94h-80zM204 252h314l-144 401h-22zM290 723h144l266 -723h-90l-67 183h-365l-68 -183h-89z"/>
<glyph glyph-name="Atilde" horiz-adv-x="721" unicode="Ã" d="M482 904h51q-6 -49 -33.5 -79t-66.5 -30q-23 0 -68 16q-60 22 -79 22q-17 0 -29.5 -12.5t-17.5 -32.5h-47q5 50 33 79t71 29q33 0 90 -24q30 -13 48 -13q44 0 48 45zM204 252h314l-144 401h-22zM290 723h144l266 -723h-90l-67 183h-365l-68 -183h-89z"/>
<glyph glyph-name="Adieresis" horiz-adv-x="721" unicode="Ä" d="M399 791v101h82v-101h-82zM325 892v-101h-82v101h82zM204 252h314l-144 401h-22zM290 723h144l266 -723h-90l-67 183h-365l-68 -183h-89z"/>
<glyph glyph-name="Aring" horiz-adv-x="721" unicode="Å" d="M363 756q-44 0 -73 27t-29 74q0 45 29.5 73.5t73.5 28.5t73 -27t29 -74q0 -45 -29.5 -73.5t-73.5 -28.5zM364 796q26 0 43.5 17t17.5 45q0 27 -17.5 44t-44.5 17q-26 0 -43.5 -17t-17.5 -45q0 -27 17.5 -44t44.5 -17zM204 252h314l-144 401h-22zM290 723h144l266 -723 h-90l-67 183h-365l-68 -183h-89z"/>
<glyph glyph-name="AE" horiz-adv-x="966" unicode="Æ" d="M443 659l-211 -393h242v393h-31zM387 723h510v-74h-341v-239h333v-72h-333v-263h347v-75h-429v194h-281l-103 -194h-96z"/>
<glyph glyph-name="Ccedilla" horiz-adv-x="720" unicode="Ç" d="M651 491h-80q0 103 -22 132q-16 22 -55.5 28.5t-161.5 6.5q-107 0 -137 -31q-35 -38 -35 -185v-213q0 -120 64 -147q33 -14 135 -14q142 0 170 14q46 24 46 132v36h81v-42q0 -148 -69 -187q-49 -27 -190 -28l-44 -56q13 1 26 1q39 0 64 -20.5t25 -56.5q0 -86 -118 -86 q-46 0 -87 10v47q43 -9 72 -9q59 0 59 38q0 17 -15.5 26.5t-39.5 9.5q-17 0 -42 -3v34l50 65q-93 1 -142.5 15.5t-80.5 51.5q-26 31 -36.5 80.5t-10.5 144.5v165q0 90 10.5 138t38.5 80q30 34 81 51q37 11 153 11q124 0 162 -7q53 -11 82 -37t39 -73q8 -38 8 -122z"/>
<glyph glyph-name="Egrave" horiz-adv-x="674" unicode="È" d="M306 920l89 -141h-67l-131 141h109zM90 0v723h518v-74h-435v-239h424v-72h-424v-262h438v-76h-521z"/>
<glyph glyph-name="Eacute" horiz-adv-x="674" unicode="É" d="M385 920h109l-131 -141h-67zM90 0v723h518v-74h-435v-239h424v-72h-424v-262h438v-76h-521z"/>
<glyph glyph-name="Ecircumflex" horiz-adv-x="674" unicode="Ê" d="M299 920h92l100 -141h-80l-66 94l-66 -94h-80zM90 0v723h518v-74h-435v-239h424v-72h-424v-262h438v-76h-521z"/>
<glyph glyph-name="Edieresis" horiz-adv-x="674" unicode="Ë" d="M383 791v101h82v-101h-82zM309 892v-101h-82v101h82zM90 0v723h518v-74h-435v-239h424v-72h-424v-262h438v-76h-521z"/>
<glyph glyph-name="Igrave" horiz-adv-x="269" unicode="Ì" d="M103 920l89 -141h-67l-131 141h109zM93 0v723h83v-723h-83z"/>
<glyph glyph-name="Iacute" horiz-adv-x="269" unicode="Í" d="M168 920h109l-131 -141h-67zM93 0v723h83v-723h-83z"/>
<glyph glyph-name="Icircumflex" horiz-adv-x="269" unicode="Î" d="M89 920h92l100 -141h-80l-66 94l-66 -94h-80zM93 0v723h83v-723h-83z"/>
<glyph glyph-name="Idieresis" horiz-adv-x="269" unicode="Ï" d="M173 791v101h82v-101h-82zM99 892v-101h-82v101h82zM93 0v723h83v-723h-83z"/>
<glyph glyph-name="Eth" horiz-adv-x="786" unicode="Ð" d="M173 651v-245h220v-67h-220v-263h273q48 0 77 6.5t51 22.5t32.5 48.5t15 77.5t4.5 117q0 77 -2 120.5t-11.5 82t-22 55t-41.5 28.5t-62 14.5t-91 2.5h-223zM2 406h88v317h348q83 0 130.5 -14t80.5 -50q33 -35 46 -89t14 -158v-97q-1 -177 -59.5 -246t-207.5 -69h-352v339 h-88v67z"/>
<glyph glyph-name="Ntilde" horiz-adv-x="784" unicode="Ñ" d="M516 904h51q-6 -49 -33.5 -79t-66.5 -30q-23 0 -68 16q-60 22 -79 22q-17 0 -29.5 -12.5t-17.5 -32.5h-47q5 50 33 79t71 29q33 0 90 -24q30 -13 48 -13q44 0 48 45zM86 0v723h134l396 -645v645h82v-723h-129l-401 649v-649h-82z"/>
<glyph glyph-name="Ograve" horiz-adv-x="779" unicode="Ò" d="M353 920l89 -141h-67l-131 141h109zM619 268v161q0 90 -6 130t-21 60q-23 27 -74 35q-24 4 -115 4q-110 0 -143 -4t-55 -19q-25 -18 -35 -49t-10 -91v-218q0 -81 8.5 -120.5t30.5 -59.5q21 -19 53.5 -24t126.5 -5q107 0 137.5 3.5t52.5 18.5q30 20 40 55.5t10 122.5z M702 427v-176q0 -76 -11 -119.5t-39 -73.5q-35 -39 -86 -52t-172 -13q-128 0 -178 11t-84 47q-55 58 -55 185v291q0 102 64 156q40 33 95 41q34 6 175 6q93 0 133.5 -6.5t72.5 -26.5q55 -35 73 -105q12 -50 12 -165z"/>
<glyph glyph-name="Oacute" horiz-adv-x="779" unicode="Ó" d="M432 920h109l-131 -141h-67zM619 268v161q0 90 -6 130t-21 60q-23 27 -74 35q-24 4 -115 4q-110 0 -143 -4t-55 -19q-25 -18 -35 -49t-10 -91v-218q0 -81 8.5 -120.5t30.5 -59.5q21 -19 53.5 -24t126.5 -5q107 0 137.5 3.5t52.5 18.5q30 20 40 55.5t10 122.5zM702 427 v-176q0 -76 -11 -119.5t-39 -73.5q-35 -39 -86 -52t-172 -13q-128 0 -178 11t-84 47q-55 58 -55 185v291q0 102 64 156q40 33 95 41q34 6 175 6q93 0 133.5 -6.5t72.5 -26.5q55 -35 73 -105q12 -50 12 -165z"/>
<glyph glyph-name="Ocircumflex" horiz-adv-x="779" unicode="Ô" d="M346 920h92l100 -141h-80l-66 94l-66 -94h-80zM619 268v161q0 90 -6 130t-21 60q-23 27 -74 35q-24 4 -115 4q-110 0 -143 -4t-55 -19q-25 -18 -35 -49t-10 -91v-218q0 -81 8.5 -120.5t30.5 -59.5q21 -19 53.5 -24t126.5 -5q107 0 137.5 3.5t52.5 18.5q30 20 40 55.5 t10 122.5zM702 427v-176q0 -76 -11 -119.5t-39 -73.5q-35 -39 -86 -52t-172 -13q-128 0 -178 11t-84 47q-55 58 -55 185v291q0 102 64 156q40 33 95 41q34 6 175 6q93 0 133.5 -6.5t72.5 -26.5q55 -35 73 -105q12 -50 12 -165z"/>
<glyph glyph-name="Otilde" horiz-adv-x="779" unicode="Õ" d="M513 904h51q-6 -49 -33.5 -79t-66.5 -30q-23 0 -68 16q-60 22 -79 22q-17 0 -29.5 -12.5t-17.5 -32.5h-47q5 50 33 79t71 29q33 0 90 -24q30 -13 48 -13q43 0 48 45zM619 268v161q0 90 -6 130t-21 60q-23 27 -74 35q-24 4 -115 4q-110 0 -143 -4t-55 -19q-25 -18 -35 -49 t-10 -91v-218q0 -81 8.5 -120.5t30.5 -59.5q21 -19 53.5 -24t126.5 -5q107 0 137.5 3.5t52.5 18.5q30 20 40 55.5t10 122.5zM702 427v-176q0 -76 -11 -119.5t-39 -73.5q-35 -39 -86 -52t-172 -13q-128 0 -178 11t-84 47q-55 58 -55 185v291q0 102 64 156q40 33 95 41 q34 6 175 6q93 0 133.5 -6.5t72.5 -26.5q55 -35 73 -105q12 -50 12 -165z"/>
<glyph glyph-name="Odieresis" horiz-adv-x="779" unicode="Ö" d="M430 791v101h82v-101h-82zM356 892v-101h-82v101h82zM619 268v161q0 90 -6 130t-21 60q-23 27 -74 35q-24 4 -115 4q-110 0 -143 -4t-55 -19q-25 -18 -35 -49t-10 -91v-218q0 -81 8.5 -120.5t30.5 -59.5q21 -19 53.5 -24t126.5 -5q107 0 137.5 3.5t52.5 18.5 q30 20 40 55.5t10 122.5zM702 427v-176q0 -76 -11 -119.5t-39 -73.5q-35 -39 -86 -52t-172 -13q-128 0 -178 11t-84 47q-55 58 -55 185v291q0 102 64 156q40 33 95 41q34 6 175 6q93 0 133.5 -6.5t72.5 -26.5q55 -35 73 -105q12 -50 12 -165z"/>
<glyph glyph-name="multiply" horiz-adv-x="667" unicode="×" d="M333 311l185 186l44 -45l-184 -185l178 -180l-44 -43l-179 181l-179 -181l-44 43l178 180l-184 185l44 45z"/>
<glyph glyph-name="Oslash" horiz-adv-x="779" unicode="Ø" d="M160 277q0 -76 4 -102l428 444q-23 27 -74 35q-24 4 -115 4q-110 0 -143 -4t-55 -19q-25 -18 -35 -49t-10 -91v-218zM619 268v161q0 86 -4 125l-428 -444q4 -7 12 -13q21 -19 53.5 -24t126.5 -5q107 0 137.5 3.5t52.5 18.5q30 20 40 55.5t10 122.5zM702 427v-176 q0 -76 -11 -119.5t-39 -73.5q-35 -39 -86 -52t-172 -13q-128 0 -178 11t-85 48l-57 -59l-42 44l65 68q-20 49 -20 131v291q0 102 64 156q40 33 95 41q34 6 175 6q93 0 133.5 -6.5t72.5 -26.5q17 -12 28 -23l49 51l43 -43l-58 -60q5 -10 11 -30q12 -50 12 -165z"/>
<glyph glyph-name="Ugrave" horiz-adv-x="755" unicode="Ù" d="M338 920l89 -141h-67l-131 141h109zM80 723h83v-509q0 -82 34 -114q20 -19 61 -25.5t141 -6.5q81 0 114.5 8t52.5 33q26 34 26 105v509h83v-516q0 -114 -57 -165q-33 -29 -83 -39t-167 -10q-144 0 -193 26q-51 27 -73 73.5t-22 127.5v503z"/>
<glyph glyph-name="Uacute" horiz-adv-x="755" unicode="Ú" d="M417 920h109l-131 -141h-67zM80 723h83v-509q0 -82 34 -114q20 -19 61 -25.5t141 -6.5q81 0 114.5 8t52.5 33q26 34 26 105v509h83v-516q0 -114 -57 -165q-33 -29 -83 -39t-167 -10q-144 0 -193 26q-51 27 -73 73.5t-22 127.5v503z"/>
<glyph glyph-name="Ucircumflex" horiz-adv-x="755" unicode="Û" d="M331 920h92l100 -141h-80l-66 94l-66 -94h-80zM80 723h83v-509q0 -82 34 -114q20 -19 61 -25.5t141 -6.5q81 0 114.5 8t52.5 33q26 34 26 105v509h83v-516q0 -114 -57 -165q-33 -29 -83 -39t-167 -10q-144 0 -193 26q-51 27 -73 73.5t-22 127.5v503z"/>
<glyph glyph-name="Udieresis" horiz-adv-x="755" unicode="Ü" d="M415 791v101h82v-101h-82zM341 892v-101h-82v101h82zM80 723h83v-509q0 -82 34 -114q20 -19 61 -25.5t141 -6.5q81 0 114.5 8t52.5 33q26 34 26 105v509h83v-516q0 -114 -57 -165q-33 -29 -83 -39t-167 -10q-144 0 -193 26q-51 27 -73 73.5t-22 127.5v503z"/>
<glyph glyph-name="Yacute" horiz-adv-x="654" unicode="Ý" d="M369 920h109l-131 -141h-67zM371 0h-87v303l-292 420h102l233 -340l238 340h99l-293 -420v-303z"/>
<glyph glyph-name="Thorn" horiz-adv-x="670" unicode="Þ" d="M173 264h238q74 0 97.5 24t23.5 101q0 71 -6.5 102.5t-24.5 46.5q-25 21 -86 21h-242v-295zM90 0v723h83v-90h222q65 0 101 -8.5t61 -29.5q32 -26 45 -68t13 -120q0 -76 -14.5 -118t-49.5 -68q-39 -31 -141 -31h-237v-190h-83z"/>
<glyph glyph-name="germandbls" horiz-adv-x="558" unicode="ß" d="M68 0v544q0 101 47 144t157 43q105 0 152.5 -42.5t47.5 -137.5q0 -65 -22.5 -99t-73.5 -46q58 -9 88 -41q23 -25 31.5 -59t8.5 -101q0 -78 -13 -116.5t-47 -62.5q-48 -35 -135 -35q-39 0 -67 7v67q28 -7 62 -7q68 0 97 31q24 27 24 123q0 62 -7.5 89t-28.5 44 q-27 20 -115 20h-25v61h17q76 0 102.5 27.5t26.5 106.5q0 61 -28 86t-96 25q-70 0 -98.5 -29.5t-28.5 -101.5v-540h-76z"/>
<glyph glyph-name="agrave" horiz-adv-x="559" unicode="à" d="M242 714l89 -141h-67l-131 141h109zM242 254q-67 0 -91 -19t-24 -74q0 -61 23 -79q25 -21 115 -21q94 0 128 22q28 18 28 77q0 56 -27 71q-36 23 -152 23zM424 0v70q-12 -29 -30 -43q-41 -32 -145 -32q-114 0 -161 41q-38 35 -38 118q0 94 41 127q44 35 151 35 q83 0 120.5 -12.5t56.5 -46.5v15q0 91 -3.5 118t-15.5 41q-27 27 -138 27q-68 0 -87 -13q-28 -15 -28 -51v-9h-77q0 66 29 95q21 22 56 30t108 8q124 0 171 -25q61 -31 61 -118v-375h-71z"/>
<glyph glyph-name="aacute" horiz-adv-x="559" unicode="á" d="M321 714h109l-131 -141h-67zM242 254q-67 0 -91 -19t-24 -74q0 -61 23 -79q25 -21 115 -21q94 0 128 22q28 18 28 77q0 56 -27 71q-36 23 -152 23zM424 0v70q-12 -29 -30 -43q-41 -32 -145 -32q-114 0 -161 41q-38 35 -38 118q0 94 41 127q44 35 151 35q83 0 120.5 -12.5 t56.5 -46.5v15q0 91 -3.5 118t-15.5 41q-27 27 -138 27q-68 0 -87 -13q-28 -15 -28 -51v-9h-77q0 66 29 95q21 22 56 30t108 8q124 0 171 -25q61 -31 61 -118v-375h-71z"/>
<glyph glyph-name="acircumflex" horiz-adv-x="559" unicode="â" d="M235 714h92l100 -141h-80l-66 94l-66 -94h-80zM242 254q-67 0 -91 -19t-24 -74q0 -61 23 -79q25 -21 115 -21q94 0 128 22q28 18 28 77q0 56 -27 71q-36 23 -152 23zM424 0v70q-12 -29 -30 -43q-41 -32 -145 -32q-114 0 -161 41q-38 35 -38 118q0 94 41 127q44 35 151 35 q83 0 120.5 -12.5t56.5 -46.5v15q0 91 -3.5 118t-15.5 41q-27 27 -138 27q-68 0 -87 -13q-28 -15 -28 -51v-9h-77q0 66 29 95q21 22 56 30t108 8q124 0 171 -25q61 -31 61 -118v-375h-71z"/>
<glyph glyph-name="atilde" horiz-adv-x="559" unicode="ã" d="M402 698h51q-6 -49 -33.5 -79t-66.5 -30q-23 0 -68 16q-60 22 -79 22q-17 0 -29.5 -12.5t-17.5 -32.5h-47q5 50 33 79t71 29q33 0 90 -24q30 -13 48 -13q44 0 48 45zM242 254q-67 0 -91 -19t-24 -74q0 -61 23 -79q25 -21 115 -21q94 0 128 22q28 18 28 77q0 56 -27 71 q-36 23 -152 23zM424 0v70q-12 -29 -30 -43q-41 -32 -145 -32q-114 0 -161 41q-38 35 -38 118q0 94 41 127q44 35 151 35q83 0 120.5 -12.5t56.5 -46.5v15q0 91 -3.5 118t-15.5 41q-27 27 -138 27q-68 0 -87 -13q-28 -15 -28 -51v-9h-77q0 66 29 95q21 22 56 30t108 8 q124 0 171 -25q61 -31 61 -118v-375h-71z"/>
<glyph glyph-name="adieresis" horiz-adv-x="559" unicode="ä" d="M319 585v101h82v-101h-82zM245 686v-101h-82v101h82zM242 254q-67 0 -91 -19t-24 -74q0 -61 23 -79q25 -21 115 -21q94 0 128 22q28 18 28 77q0 56 -27 71q-36 23 -152 23zM424 0v70q-12 -29 -30 -43q-41 -32 -145 -32q-114 0 -161 41q-38 35 -38 118q0 94 41 127 q44 35 151 35q83 0 120.5 -12.5t56.5 -46.5v15q0 91 -3.5 118t-15.5 41q-27 27 -138 27q-68 0 -87 -13q-28 -15 -28 -51v-9h-77q0 66 29 95q21 22 56 30t108 8q124 0 171 -25q61 -31 61 -118v-375h-71z"/>
<glyph glyph-name="aring" horiz-adv-x="559" unicode="å" d="M281 572q-44 0 -73 27t-29 74q0 45 29.5 73.5t73.5 28.5t73 -27t29 -74q0 -45 -29.5 -73.5t-73.5 -28.5zM282 612q26 0 43.5 17t17.5 45q0 27 -17.5 44t-44.5 17q-26 0 -43.5 -17t-17.5 -45q0 -27 17.5 -44t44.5 -17zM242 254q-67 0 -91 -19t-24 -74q0 -61 23 -79 q25 -21 115 -21q94 0 128 22q28 18 28 77q0 56 -27 71q-36 23 -152 23zM424 0v70q-12 -29 -30 -43q-41 -32 -145 -32q-114 0 -161 41q-38 35 -38 118q0 94 41 127q44 35 151 35q83 0 120.5 -12.5t56.5 -46.5v15q0 91 -3.5 118t-15.5 41q-27 27 -138 27q-68 0 -87 -13 q-28 -15 -28 -51v-9h-77q0 66 29 95q21 22 56 30t108 8q124 0 171 -25q61 -31 61 -118v-375h-71z"/>
<glyph glyph-name="ae" horiz-adv-x="894" unicode="æ" d="M255 253q-76 0 -102 -19q-22 -16 -22 -68q0 -65 24.5 -87t98.5 -22q91 0 127 24q26 19 26 75q0 34 -4.5 49.5t-17.5 24.5q-31 23 -130 23zM483 302h280q1 11 1 31q0 77 -24 98q-29 27 -124 27q-77 0 -105 -27.5t-28 -103.5v-25zM765 144h77q0 -72 -30 -105 q-23 -26 -61 -36t-108 -10q-98 0 -137 18t-64 73q-26 -55 -63 -72.5t-128 -17.5q-93 0 -134 20q-67 33 -67 140q0 89 44 125.5t152 36.5q75 0 111.5 -13t49.5 -45v65q0 52 -3 74t-14 34q-22 27 -115 27q-77 0 -101.5 -14t-24.5 -59h-78q1 67 31 95q22 22 57 30t106 8 q99 0 134.5 -14.5t51.5 -61.5q18 43 54.5 59.5t116.5 16.5q89 0 136 -18t66 -60q18 -41 18 -144v-58h-359v-28q0 -90 28 -122q16 -17 41.5 -23.5t79.5 -6.5q80 0 107 16q26 18 26 57v13z"/>
<glyph glyph-name="ccedilla" horiz-adv-x="542" unicode="ç" d="M491 340h-74v17q0 58 -28.5 78.5t-111.5 20.5q-93 0 -122 -36q-15 -20 -20.5 -55.5t-5.5 -117.5q0 -65 5 -100t21.5 -56.5t42.5 -28t74 -6.5q62 0 93 8.5t42 28.5q11 19 12 93h76q1 -10 1 -28q0 -87 -50 -127q-45 -37 -147 -40l-43 -54q13 1 26 1q39 0 64 -20.5t25 -56.5 q0 -86 -118 -86q-46 0 -87 10v47q44 -9 72 -9q59 0 59 38q0 17 -15.5 26.5t-39.5 9.5q-16 0 -42 -3v34l49 64q-108 4 -152 51q-45 49 -45 135v123q0 109 38 157q26 32 66.5 46t111.5 14q126 0 174.5 -33t48.5 -118v-27z"/>
<glyph glyph-name="egrave" horiz-adv-x="554" unicode="è" d="M241 714l89 -141h-67l-131 141h109zM131 302h293v15q0 92 -26 115q-29 26 -126 26q-82 0 -112 -26t-30 -100q0 -19 1 -30zM426 146h75v-13q0 -78 -46 -111q-45 -31 -178 -31q-74 0 -114.5 11.5t-64.5 39.5q-25 30 -35.5 75t-10.5 126q0 150 29 205q20 37 63.5 53.5 t120.5 16.5q78 0 119.5 -9.5t68.5 -33.5q49 -43 49 -174v-64h-371q-1 -15 -1 -38q0 -82 29 -112.5t105 -30.5q122 0 144 26q17 21 18 64z"/>
<glyph glyph-name="eacute" horiz-adv-x="554" unicode="é" d="M320 714h109l-131 -141h-67zM131 302h293v15q0 92 -26 115q-29 26 -126 26q-82 0 -112 -26t-30 -100q0 -19 1 -30zM426 146h75v-13q0 -78 -46 -111q-45 -31 -178 -31q-74 0 -114.5 11.5t-64.5 39.5q-25 30 -35.5 75t-10.5 126q0 150 29 205q20 37 63.5 53.5t120.5 16.5 q78 0 119.5 -9.5t68.5 -33.5q49 -43 49 -174v-64h-371q-1 -15 -1 -38q0 -82 29 -112.5t105 -30.5q122 0 144 26q17 21 18 64z"/>
<glyph glyph-name="ecircumflex" horiz-adv-x="554" unicode="ê" d="M234 714h92l100 -141h-80l-66 94l-66 -94h-80zM131 302h293v15q0 92 -26 115q-29 26 -126 26q-82 0 -112 -26t-30 -100q0 -19 1 -30zM426 146h75v-13q0 -78 -46 -111q-45 -31 -178 -31q-74 0 -114.5 11.5t-64.5 39.5q-25 30 -35.5 75t-10.5 126q0 150 29 205 q20 37 63.5 53.5t120.5 16.5q78 0 119.5 -9.5t68.5 -33.5q49 -43 49 -174v-64h-371q-1 -15 -1 -38q0 -82 29 -112.5t105 -30.5q122 0 144 26q17 21 18 64z"/>
<glyph glyph-name="edieresis" horiz-adv-x="554" unicode="ë" d="M318 585v101h82v-101h-82zM244 686v-101h-82v101h82zM131 302h293v15q0 92 -26 115q-29 26 -126 26q-82 0 -112 -26t-30 -100q0 -19 1 -30zM426 146h75v-13q0 -78 -46 -111q-45 -31 -178 -31q-74 0 -114.5 11.5t-64.5 39.5q-25 30 -35.5 75t-10.5 126q0 150 29 205 q20 37 63.5 53.5t120.5 16.5q78 0 119.5 -9.5t68.5 -33.5q49 -43 49 -174v-64h-371q-1 -15 -1 -38q0 -82 29 -112.5t105 -30.5q122 0 144 26q17 21 18 64z"/>
<glyph glyph-name="igrave" horiz-adv-x="218" unicode="ì" d="M83 714l89 -141h-67l-131 141h109zM70 0v509h78v-509h-78z"/>
<glyph glyph-name="iacute" horiz-adv-x="218" unicode="í" d="M137 714h109l-131 -141h-67zM70 0v509h78v-509h-78z"/>
<glyph glyph-name="icircumflex" horiz-adv-x="218" unicode="î" d="M64 714h92l100 -141h-80l-66 94l-66 -94h-80zM70 0v509h78v-509h-78z"/>
<glyph glyph-name="idieresis" horiz-adv-x="218" unicode="ï" d="M148 585v101h82v-101h-82zM74 686v-101h-82v101h82zM70 0v509h78v-509h-78z"/>
<glyph glyph-name="eth" horiz-adv-x="558" unicode="ð" d="M263 436q-84 0 -109 -37t-25 -147q0 -127 28 -165q23 -31 116 -31q39 0 61.5 1.5t42 9.5t28 18.5t15 34.5t8 52t1.5 76q0 47 -1 73t-7.5 50.5t-16 34.5t-30 18.5t-45 10t-66.5 1.5zM273 498q54 0 85 -11t59 -42q-34 91 -114 154l-127 -45l-19 49l99 35l-72 53l55 39 l88 -66l114 41l19 -50l-86 -30q72 -80 102 -156.5t30 -213.5q0 -96 -7.5 -137t-29.5 -72q-23 -30 -69.5 -42.5t-137.5 -12.5q-70 0 -109 11.5t-61 39.5q-23 28 -31.5 75t-8.5 141q0 140 47 190t174 50z"/>
<glyph glyph-name="ntilde" horiz-adv-x="558" unicode="ñ" d="M407 698h51q-6 -49 -33.5 -79t-66.5 -30q-23 0 -68 16q-60 22 -79 22q-17 0 -29.5 -12.5t-17.5 -32.5h-47q5 50 33 79t71 29q33 0 90 -24q30 -13 48 -13q43 0 48 45zM66 0v509h76v-73l16 22q24 34 56 47t92 13q68 0 106 -15.5t58 -50.5q24 -42 24 -162v-290h-78v319 q0 73 -20 101q-27 35 -103 35q-80 0 -114.5 -35.5t-34.5 -117.5v-302h-78z"/>
<glyph glyph-name="ograve" horiz-adv-x="558" unicode="ò" d="M243 714l89 -141h-67l-131 141h109zM263 456q-87 0 -109 -33q-25 -38 -25 -166q0 -132 28 -170q23 -31 116 -31q39 0 61.5 1.5t42.5 9.5t28 19t14.5 35.5t8 53t1.5 78.5q0 53 -1 82t-8 55.5t-15.5 36.5t-30 18.5t-44.5 9.5t-67 1zM293 518q131 0 174 -50q23 -26 31 -69 t8 -139q0 -99 -7.5 -141t-29.5 -73q-23 -30 -69.5 -42.5t-137.5 -12.5q-70 0 -109 11.5t-61 39.5q-23 28 -31.5 76t-8.5 145q0 98 12.5 146t44.5 75q22 19 62 26.5t122 7.5z"/>
<glyph glyph-name="oacute" horiz-adv-x="558" unicode="ó" d="M322 714h109l-131 -141h-67zM263 456q-87 0 -109 -33q-25 -38 -25 -166q0 -132 28 -170q23 -31 116 -31q39 0 61.5 1.5t42.5 9.5t28 19t14.5 35.5t8 53t1.5 78.5q0 53 -1 82t-8 55.5t-15.5 36.5t-30 18.5t-44.5 9.5t-67 1zM293 518q131 0 174 -50q23 -26 31 -69t8 -139 q0 -99 -7.5 -141t-29.5 -73q-23 -30 -69.5 -42.5t-137.5 -12.5q-70 0 -109 11.5t-61 39.5q-23 28 -31.5 76t-8.5 145q0 98 12.5 146t44.5 75q22 19 62 26.5t122 7.5z"/>
<glyph glyph-name="ocircumflex" horiz-adv-x="558" unicode="ô" d="M236 714h92l100 -141h-80l-66 94l-66 -94h-80zM263 456q-87 0 -109 -33q-25 -38 -25 -166q0 -132 28 -170q23 -31 116 -31q39 0 61.5 1.5t42.5 9.5t28 19t14.5 35.5t8 53t1.5 78.5q0 53 -1 82t-8 55.5t-15.5 36.5t-30 18.5t-44.5 9.5t-67 1zM293 518q131 0 174 -50 q23 -26 31 -69t8 -139q0 -99 -7.5 -141t-29.5 -73q-23 -30 -69.5 -42.5t-137.5 -12.5q-70 0 -109 11.5t-61 39.5q-23 28 -31.5 76t-8.5 145q0 98 12.5 146t44.5 75q22 19 62 26.5t122 7.5z"/>
<glyph glyph-name="otilde" horiz-adv-x="558" unicode="õ" d="M403 698h51q-6 -49 -33.5 -79t-66.5 -30q-23 0 -68 16q-60 22 -79 22q-17 0 -29.5 -12.5t-17.5 -32.5h-47q5 50 33 79t71 29q33 0 90 -24q30 -13 48 -13q43 0 48 45zM263 456q-87 0 -109 -33q-25 -38 -25 -166q0 -132 28 -170q23 -31 116 -31q39 0 61.5 1.5t42.5 9.5 t28 19t14.5 35.5t8 53t1.5 78.5q0 53 -1 82t-8 55.5t-15.5 36.5t-30 18.5t-44.5 9.5t-67 1zM293 518q131 0 174 -50q23 -26 31 -69t8 -139q0 -99 -7.5 -141t-29.5 -73q-23 -30 -69.5 -42.5t-137.5 -12.5q-70 0 -109 11.5t-61 39.5q-23 28 -31.5 76t-8.5 145q0 98 12.5 146 t44.5 75q22 19 62 26.5t122 7.5z"/>
<glyph glyph-name="odieresis" horiz-adv-x="558" unicode="ö" d="M320 585v101h82v-101h-82zM246 686v-101h-82v101h82zM263 456q-87 0 -109 -33q-25 -38 -25 -166q0 -132 28 -170q23 -31 116 -31q39 0 61.5 1.5t42.5 9.5t28 19t14.5 35.5t8 53t1.5 78.5q0 53 -1 82t-8 55.5t-15.5 36.5t-30 18.5t-44.5 9.5t-67 1zM293 518q131 0 174 -50 q23 -26 31 -69t8 -139q0 -99 -7.5 -141t-29.5 -73q-23 -30 -69.5 -42.5t-137.5 -12.5q-70 0 -109 11.5t-61 39.5q-23 28 -31.5 76t-8.5 145q0 98 12.5 146t44.5 75q22 19 62 26.5t122 7.5z"/>
<glyph glyph-name="divide" horiz-adv-x="667" unicode="÷" d="M70 298h527v-62h-527v62zM333 34q-25 0 -40.5 16.5t-15.5 42.5q0 27 16 43t40 16q26 0 41.5 -16t15.5 -43q0 -26 -16 -42.5t-41 -16.5zM333 384q-25 0 -40.5 16.5t-15.5 42.5q0 27 16 43t40 16q26 0 41.5 -16t15.5 -43q0 -26 -16 -42.5t-41 -16.5z"/>
<glyph glyph-name="oslash" horiz-adv-x="558" unicode="ø" d="M429 253q0 75 -4 112l-273 -271q15 -22 40 -30t81 -8q39 0 61.5 1.5t42.5 9.5t28 19t14.5 35.5t8 53t1.5 78.5zM263 456q-87 0 -109 -33q-25 -38 -25 -166q0 -77 6 -111l275 273q-15 24 -45.5 30.5t-101.5 6.5zM293 518q127 0 170 -46l43 42l33 -35l-50 -49 q17 -47 17 -170q0 -99 -7.5 -141t-29.5 -73q-23 -30 -69.5 -42.5t-137.5 -12.5q-68 0 -106.5 10.5t-60.5 35.5l-44 -44l-35 34l54 54q-18 48 -18 182q0 98 12.5 146t44.5 75q22 19 62 26.5t122 7.5z"/>
<glyph glyph-name="ugrave" horiz-adv-x="558" unicode="ù" d="M239 714l89 -141h-67l-131 141h109zM63 509h78v-348q0 -53 22 -75q30 -30 95 -30q101 0 135 58q21 37 21 129v266h78v-509h-74v73l-12 -18q-42 -64 -159 -64q-93 0 -138.5 40t-45.5 123v355z"/>
<glyph glyph-name="uacute" horiz-adv-x="558" unicode="ú" d="M318 714h109l-131 -141h-67zM63 509h78v-348q0 -53 22 -75q30 -30 95 -30q101 0 135 58q21 37 21 129v266h78v-509h-74v73l-12 -18q-42 -64 -159 -64q-93 0 -138.5 40t-45.5 123v355z"/>
<glyph glyph-name="ucircumflex" horiz-adv-x="558" unicode="û" d="M232 714h92l100 -141h-80l-66 94l-66 -94h-80zM63 509h78v-348q0 -53 22 -75q30 -30 95 -30q101 0 135 58q21 37 21 129v266h78v-509h-74v73l-12 -18q-42 -64 -159 -64q-93 0 -138.5 40t-45.5 123v355z"/>
<glyph glyph-name="udieresis" horiz-adv-x="558" unicode="ü" d="M316 585v101h82v-101h-82zM242 686v-101h-82v101h82zM63 509h78v-348q0 -53 22 -75q30 -30 95 -30q101 0 135 58q21 37 21 129v266h78v-509h-74v73l-12 -18q-42 -64 -159 -64q-93 0 -138.5 40t-45.5 123v355z"/>
<glyph glyph-name="yacute" horiz-adv-x="494" unicode="ý" d="M291 714h109l-131 -141h-67zM13 509h84l166 -435l134 435h82l-164 -519q-25 -78 -37.5 -106t-32.5 -47q-36 -33 -102 -33q-17 0 -33 2v66q13 -1 22 -1q50 0 72 40q18 32 29 91h-23z"/>
<glyph glyph-name="thorn" horiz-adv-x="554" unicode="þ" d="M286 456q-78 0 -109 -40q-17 -22 -23.5 -58t-6.5 -107q0 -66 7 -100t25 -57q30 -38 113 -38q80 0 106.5 33.5t26.5 139.5q0 126 -13 165q-21 62 -126 62zM305 518q112 0 156 -59q41 -56 41 -220q0 -144 -47 -196q-49 -52 -163 -52q-60 0 -91.5 17.5t-54.5 63.5v-268h-78 v919h78v-285q31 46 65.5 63t93.5 17z"/>
<glyph glyph-name="ydieresis" horiz-adv-x="494" unicode="ÿ" d="M289 585v101h82v-101h-82zM215 686v-101h-82v101h82zM13 509h84l166 -435l134 435h82l-164 -519q-25 -78 -37.5 -106t-32.5 -47q-36 -33 -102 -33q-17 0 -33 2v66q13 -1 22 -1q50 0 72 40q18 32 29 91h-23z"/>
<glyph glyph-name="Amacron" horiz-adv-x="721" unicode="Ā" d="M206 812v58h313v-58h-313zM204 252h314l-144 401h-22zM290 723h144l266 -723h-90l-67 183h-365l-68 -183h-89z"/>
<glyph glyph-name="amacron" horiz-adv-x="559" unicode="ā" d="M126 606v58h313v-58h-313zM242 254q-67 0 -91 -19t-24 -74q0 -61 23 -79q25 -21 115 -21q94 0 128 22q28 18 28 77q0 56 -27 71q-36 23 -152 23zM424 0v70q-12 -29 -30 -43q-41 -32 -145 -32q-114 0 -161 41q-38 35 -38 118q0 94 41 127q44 35 151 35q83 0 120.5 -12.5 t56.5 -46.5v15q0 91 -3.5 118t-15.5 41q-27 27 -138 27q-68 0 -87 -13q-28 -15 -28 -51v-9h-77q0 66 29 95q21 22 56 30t108 8q124 0 171 -25q61 -31 61 -118v-375h-71z"/>
<glyph glyph-name="Abreve" horiz-adv-x="721" unicode="Ă" d="M208 920h50q18 -77 106 -77q87 0 104 77h49q-7 -65 -47.5 -100.5t-108.5 -35.5q-70 0 -109.5 35t-43.5 101zM204 252h314l-144 401h-22zM290 723h144l266 -723h-90l-67 183h-365l-68 -183h-89z"/>
<glyph glyph-name="abreve" horiz-adv-x="559" unicode="ă" d="M128 714h50q18 -77 106 -77q87 0 104 77h49q-7 -65 -47.5 -100.5t-108.5 -35.5q-70 0 -109 35t-44 101zM242 254q-67 0 -91 -19t-24 -74q0 -61 23 -79q25 -21 115 -21q94 0 128 22q28 18 28 77q0 56 -27 71q-36 23 -152 23zM424 0v70q-12 -29 -30 -43q-41 -32 -145 -32 q-114 0 -161 41q-38 35 -38 118q0 94 41 127q44 35 151 35q83 0 120.5 -12.5t56.5 -46.5v15q0 91 -3.5 118t-15.5 41q-27 27 -138 27q-68 0 -87 -13q-28 -15 -28 -51v-9h-77q0 66 29 95q21 22 56 30t108 8q124 0 171 -25q61 -31 61 -118v-375h-71z"/>
<glyph glyph-name="Aogonek" horiz-adv-x="721" unicode="Ą" d="M204 252h314l-144 401h-22zM610 0l-67 183h-365l-68 -183h-89l269 723h144l266 -723h-23q-84 -44 -84 -99q0 -24 14.5 -38t42.5 -14q22 0 45 6v-49q-25 -7 -53 -7q-50 0 -78.5 24.5t-28.5 65.5q0 71 75 111z"/>
<glyph glyph-name="aogonek" horiz-adv-x="559" unicode="ą" d="M242 254q-67 0 -91 -19t-24 -74q0 -61 23 -79q25 -21 115 -21q94 0 128 22q28 18 28 77q0 56 -27 71q-36 23 -152 23zM424 0v70q-12 -29 -30 -43q-41 -32 -145 -32q-114 0 -161 41q-38 35 -38 118q0 94 41 127q44 35 151 35q83 0 120.5 -12.5t56.5 -46.5v15 q0 91 -3.5 118t-15.5 41q-27 27 -138 27q-68 0 -87 -13q-28 -15 -28 -51v-9h-77q0 66 29 95q21 22 56 30t108 8q124 0 171 -25q61 -31 61 -118v-375h-4q-84 -44 -84 -99q0 -24 14.5 -38t42.5 -14q22 0 45 6v-49q-25 -7 -53 -7q-50 0 -78.5 24.5t-28.5 65.5q0 71 75 111z"/>
<glyph glyph-name="Cacute" horiz-adv-x="720" unicode="Ć" d="M408 920h109l-131 -141h-67zM651 491h-80q0 103 -22 132q-16 22 -55.5 28.5t-161.5 6.5q-107 0 -137 -31q-35 -38 -35 -185v-213q0 -120 64 -147q33 -14 135 -14q142 0 170 14q46 24 46 132v36h81v-42q0 -148 -69 -187q-31 -17 -77.5 -22.5t-151.5 -5.5 q-99 0 -150.5 14.5t-83.5 52.5q-26 31 -36.5 80.5t-10.5 144.5v165q0 90 10.5 138t38.5 80q30 34 81 51q37 11 153 11q124 0 162 -7q53 -11 82 -37t39 -73q8 -38 8 -122z"/>
<glyph glyph-name="cacute" horiz-adv-x="542" unicode="ć" d="M320 714h109l-131 -141h-67zM491 340h-74v17q0 58 -28.5 78.5t-111.5 20.5q-93 0 -122 -36q-15 -20 -20.5 -55.5t-5.5 -117.5q0 -65 5 -100t21.5 -56.5t42.5 -28t74 -6.5q62 0 93 8.5t42 28.5q11 19 12 93h76q1 -10 1 -28q0 -87 -50 -127q-27 -22 -63 -31t-101 -9 q-75 0 -116.5 11.5t-68.5 40.5q-45 49 -45 135v123q0 109 38 157q26 32 66.5 46t111.5 14q126 0 174.5 -33t48.5 -118v-27z"/>
<glyph glyph-name="Ccircumflex" horiz-adv-x="720" unicode="Ĉ" d="M322 920h92l100 -141h-80l-66 94l-66 -94h-80zM651 491h-80q0 103 -22 132q-16 22 -55.5 28.5t-161.5 6.5q-107 0 -137 -31q-35 -38 -35 -185v-213q0 -120 64 -147q33 -14 135 -14q142 0 170 14q46 24 46 132v36h81v-42q0 -148 -69 -187q-31 -17 -77.5 -22.5t-151.5 -5.5 q-99 0 -150.5 14.5t-83.5 52.5q-26 31 -36.5 80.5t-10.5 144.5v165q0 90 10.5 138t38.5 80q30 34 81 51q37 11 153 11q124 0 162 -7q53 -11 82 -37t39 -73q8 -38 8 -122z"/>
<glyph glyph-name="ccircumflex" horiz-adv-x="542" unicode="ĉ" d="M234 714h92l100 -141h-80l-66 94l-66 -94h-80zM491 340h-74v17q0 58 -28.5 78.5t-111.5 20.5q-93 0 -122 -36q-15 -20 -20.5 -55.5t-5.5 -117.5q0 -65 5 -100t21.5 -56.5t42.5 -28t74 -6.5q62 0 93 8.5t42 28.5q11 19 12 93h76q1 -10 1 -28q0 -87 -50 -127 q-27 -22 -63 -31t-101 -9q-75 0 -116.5 11.5t-68.5 40.5q-45 49 -45 135v123q0 109 38 157q26 32 66.5 46t111.5 14q126 0 174.5 -33t48.5 -118v-27z"/>
<glyph glyph-name="Cdotaccent" horiz-adv-x="720" unicode="Ċ" d="M331 807v85h78v-85h-78zM651 491h-80q0 103 -22 132q-16 22 -55.5 28.5t-161.5 6.5q-107 0 -137 -31q-35 -38 -35 -185v-213q0 -120 64 -147q33 -14 135 -14q142 0 170 14q46 24 46 132v36h81v-42q0 -148 -69 -187q-31 -17 -77.5 -22.5t-151.5 -5.5q-99 0 -150.5 14.5 t-83.5 52.5q-26 31 -36.5 80.5t-10.5 144.5v165q0 90 10.5 138t38.5 80q30 34 81 51q37 11 153 11q124 0 162 -7q53 -11 82 -37t39 -73q8 -38 8 -122z"/>
<glyph glyph-name="cdotaccent" horiz-adv-x="542" unicode="ċ" d="M241 601v85h78v-85h-78zM491 340h-74v17q0 58 -28.5 78.5t-111.5 20.5q-93 0 -122 -36q-15 -20 -20.5 -55.5t-5.5 -117.5q0 -65 5 -100t21.5 -56.5t42.5 -28t74 -6.5q62 0 93 8.5t42 28.5q11 19 12 93h76q1 -10 1 -28q0 -87 -50 -127q-27 -22 -63 -31t-101 -9 q-75 0 -116.5 11.5t-68.5 40.5q-45 49 -45 135v123q0 109 38 157q26 32 66.5 46t111.5 14q126 0 174.5 -33t48.5 -118v-27z"/>
<glyph glyph-name="Ccaron" horiz-adv-x="720" unicode="Č" d="M514 920l-100 -141h-92l-100 141h80l66 -94l66 94h80zM651 491h-80q0 103 -22 132q-16 22 -55.5 28.5t-161.5 6.5q-107 0 -137 -31q-35 -38 -35 -185v-213q0 -120 64 -147q33 -14 135 -14q142 0 170 14q46 24 46 132v36h81v-42q0 -148 -69 -187q-31 -17 -77.5 -22.5 t-151.5 -5.5q-99 0 -150.5 14.5t-83.5 52.5q-26 31 -36.5 80.5t-10.5 144.5v165q0 90 10.5 138t38.5 80q30 34 81 51q37 11 153 11q124 0 162 -7q53 -11 82 -37t39 -73q8 -38 8 -122z"/>
<glyph glyph-name="ccaron" horiz-adv-x="542" unicode="č" d="M428 714l-100 -141h-92l-100 141h80l66 -94l66 94h80zM491 340h-74v17q0 58 -28.5 78.5t-111.5 20.5q-93 0 -122 -36q-15 -20 -20.5 -55.5t-5.5 -117.5q0 -65 5 -100t21.5 -56.5t42.5 -28t74 -6.5q62 0 93 8.5t42 28.5q11 19 12 93h76q1 -10 1 -28q0 -87 -50 -127 q-27 -22 -63 -31t-101 -9q-75 0 -116.5 11.5t-68.5 40.5q-45 49 -45 135v123q0 109 38 157q26 32 66.5 46t111.5 14q126 0 174.5 -33t48.5 -118v-27z"/>
<glyph glyph-name="Dcaron" horiz-adv-x="786" unicode="Ď" d="M512 920l-100 -141h-92l-100 141h80l66 -94l66 94h80zM173 651v-575h273q48 0 77 6.5t51 22.5t32.5 48.5t15 77.5t4.5 117q0 77 -2 120.5t-11.5 82t-22 55t-41.5 28.5t-62 14.5t-91 2.5h-223zM90 0v723h348q83 0 130.5 -14t80.5 -50q33 -35 46 -89t14 -158v-97 q-1 -177 -59.5 -246t-207.5 -69h-352z"/>
<glyph glyph-name="dcaron" horiz-adv-x="553" unicode="ď" d="M563 714h87l-51 -181h-55zM262 456q-72 0 -100 -28q-18 -20 -25.5 -54t-7.5 -108q0 -80 6 -117t21 -57q28 -36 112 -36q76 0 109 40q17 22 23.5 57t6.5 108q0 66 -7 99.5t-25 55.5q-34 40 -113 40zM407 437v286h78v-723h-73v83q-21 -51 -53 -71.5t-91 -20.5 q-129 0 -174 58q-42 53 -42 222q0 145 45 196q46 51 164 51q61 0 92 -17.5t54 -63.5z"/>
<glyph glyph-name="Dcroat" horiz-adv-x="786" unicode="Đ" d="M173 651v-245h220v-67h-220v-263h273q48 0 77 6.5t51 22.5t32.5 48.5t15 77.5t4.5 117q0 77 -2 120.5t-11.5 82t-22 55t-41.5 28.5t-62 14.5t-91 2.5h-223zM2 406h88v317h348q83 0 130.5 -14t80.5 -50q33 -35 46 -89t14 -158v-97q-1 -177 -59.5 -246t-207.5 -69h-352v339 h-88v67z"/>
<glyph glyph-name="dcroat" horiz-adv-x="553" unicode="đ" d="M262 456q-72 0 -100 -28q-18 -20 -25.5 -54t-7.5 -108q0 -80 6 -117t21 -57q28 -36 112 -36q76 0 109 40q17 22 23.5 57t6.5 108q0 66 -7 99.5t-25 55.5q-34 40 -113 40zM407 630v93h78v-93h68v-55h-68v-575h-73v83q-21 -51 -53 -71.5t-91 -20.5q-129 0 -174 58 q-42 53 -42 222q0 145 45 196q46 51 164 51q61 0 92 -17.5t54 -63.5v138h-175v55h175z"/>
<glyph glyph-name="Emacron" horiz-adv-x="674" unicode="Ē" d="M190 812v58h313v-58h-313zM90 0v723h518v-74h-435v-239h424v-72h-424v-262h438v-76h-521z"/>
<glyph glyph-name="emacron" horiz-adv-x="554" unicode="ē" d="M125 606v58h313v-58h-313zM131 302h293v15q0 92 -26 115q-29 26 -126 26q-82 0 -112 -26t-30 -100q0 -19 1 -30zM426 146h75v-13q0 -78 -46 -111q-45 -31 -178 -31q-74 0 -114.5 11.5t-64.5 39.5q-25 30 -35.5 75t-10.5 126q0 150 29 205q20 37 63.5 53.5t120.5 16.5 q78 0 119.5 -9.5t68.5 -33.5q49 -43 49 -174v-64h-371q-1 -15 -1 -38q0 -82 29 -112.5t105 -30.5q122 0 144 26q17 21 18 64z"/>
<glyph glyph-name="Ebreve" horiz-adv-x="674" unicode="Ĕ" d="M192 920h50q18 -77 106 -77q87 0 104 77h49q-7 -65 -47.5 -100.5t-108.5 -35.5q-70 0 -109.5 35t-43.5 101zM90 0v723h518v-74h-435v-239h424v-72h-424v-262h438v-76h-521z"/>
<glyph glyph-name="ebreve" horiz-adv-x="554" unicode="ĕ" d="M127 714h50q18 -77 106 -77q87 0 104 77h49q-7 -65 -47.5 -100.5t-108.5 -35.5q-70 0 -109 35t-44 101zM131 302h293v15q0 92 -26 115q-29 26 -126 26q-82 0 -112 -26t-30 -100q0 -19 1 -30zM426 146h75v-13q0 -78 -46 -111q-45 -31 -178 -31q-74 0 -114.5 11.5 t-64.5 39.5q-25 30 -35.5 75t-10.5 126q0 150 29 205q20 37 63.5 53.5t120.5 16.5q78 0 119.5 -9.5t68.5 -33.5q49 -43 49 -174v-64h-371q-1 -15 -1 -38q0 -82 29 -112.5t105 -30.5q122 0 144 26q17 21 18 64z"/>
<glyph glyph-name="Edotaccent" horiz-adv-x="674" unicode="Ė" d="M306 807v85h78v-85h-78zM90 0v723h518v-74h-435v-239h424v-72h-424v-262h438v-76h-521z"/>
<glyph glyph-name="edotaccent" horiz-adv-x="554" unicode="ė" d="M242 601v85h78v-85h-78zM131 302h293v15q0 92 -26 115q-29 26 -126 26q-82 0 -112 -26t-30 -100q0 -19 1 -30zM426 146h75v-13q0 -78 -46 -111q-45 -31 -178 -31q-74 0 -114.5 11.5t-64.5 39.5q-25 30 -35.5 75t-10.5 126q0 150 29 205q20 37 63.5 53.5t120.5 16.5 q78 0 119.5 -9.5t68.5 -33.5q49 -43 49 -174v-64h-371q-1 -15 -1 -38q0 -82 29 -112.5t105 -30.5q122 0 144 26q17 21 18 64z"/>
<glyph glyph-name="Eogonek" horiz-adv-x="674" unicode="Ę" d="M90 0v723h518v-74h-435v-239h424v-72h-424v-262h438v-76h-58q-84 -44 -84 -99q0 -24 14.5 -38t42.5 -14q22 0 45 6v-49q-25 -7 -53 -7q-50 0 -78.5 24.5t-28.5 65.5q0 71 75 111h-396z"/>
<glyph glyph-name="eogonek" horiz-adv-x="554" unicode="ę" d="M131 302h293v15q0 92 -26 115q-29 26 -126 26q-82 0 -112 -26t-30 -100q0 -19 1 -30zM426 146h75v-13q0 -78 -46 -111q-36 -25 -117 -29q-70 -41 -70 -92q0 -24 14.5 -38t42.5 -14q22 0 45 6v-49q-25 -7 -53 -7q-50 0 -78.5 24.5t-28.5 65.5q0 64 59 102q-70 1 -109 12.5 t-62 38.5q-25 30 -35.5 75t-10.5 126q0 150 29 205q20 37 63.5 53.5t120.5 16.5q78 0 119.5 -9.5t68.5 -33.5q49 -43 49 -174v-64h-371q-1 -15 -1 -38q0 -82 29 -112.5t105 -30.5q122 0 144 26q17 21 18 64z"/>
<glyph glyph-name="Ecaron" horiz-adv-x="674" unicode="Ě" d="M491 920l-100 -141h-92l-100 141h80l66 -94l66 94h80zM90 0v723h518v-74h-435v-239h424v-72h-424v-262h438v-76h-521z"/>
<glyph glyph-name="ecaron" horiz-adv-x="554" unicode="ě" d="M427 714l-100 -141h-92l-100 141h80l66 -94l66 94h80zM131 302h293v15q0 92 -26 115q-29 26 -126 26q-82 0 -112 -26t-30 -100q0 -19 1 -30zM426 146h75v-13q0 -78 -46 -111q-45 -31 -178 -31q-74 0 -114.5 11.5t-64.5 39.5q-25 30 -35.5 75t-10.5 126q0 150 29 205 q20 37 63.5 53.5t120.5 16.5q78 0 119.5 -9.5t68.5 -33.5q49 -43 49 -174v-64h-371q-1 -15 -1 -38q0 -82 29 -112.5t105 -30.5q122 0 144 26q17 21 18 64z"/>
<glyph glyph-name="Gcircumflex" horiz-adv-x="778" unicode="Ĝ" d="M349 920h92l100 -141h-80l-66 94l-66 -94h-80zM701 506h-80v25q0 54 -11 78t-41 34q-29 10 -72 13t-152 3q-63 0 -96.5 -7t-55 -32t-27.5 -64.5t-6 -112.5v-189q0 -106 28 -142q21 -26 67.5 -35t157.5 -9q96 0 130 5.5t51 22.5q27 30 27 101v89h-204v74h287v-140 q0 -122 -39 -170q-28 -34 -78.5 -45t-173.5 -11q-137 0 -190 11t-89 46q-57 57 -57 163v248q0 63 3.5 91.5t16.5 61.5q26 67 85 94q28 13 67 17.5t131 4.5q119 0 171 -6.5t85 -25.5q46 -25 56 -76q8 -35 9 -117z"/>
<glyph glyph-name="gcircumflex" horiz-adv-x="552" unicode="ĝ" d="M238 714h92l100 -141h-80l-66 94l-66 -94h-80zM261 456q-77 0 -105 -39q-26 -38 -26 -166q0 -112 29 -148q27 -36 99 -36q87 0 119 40q31 36 31 159q0 96 -20 133q-30 57 -127 57zM74 -59h72q0 -45 26 -61t98 -16q106 0 126 43q13 26 13 120v55l-10 -17q-37 -63 -156 -63 t-158 71q-32 57 -32 202q0 77 11 121t38 73q46 49 149 49q72 0 111 -24.5t52 -77.5v93h72v-518q0 -111 -46 -151.5t-173 -40.5q-103 0 -150 31q-44 30 -44 90q0 13 1 21z"/>
<glyph glyph-name="Gbreve" horiz-adv-x="778" unicode="Ğ" d="M242 920h50q18 -77 106 -77q87 0 104 77h49q-7 -65 -47.5 -100.5t-108.5 -35.5q-70 0 -109 35t-44 101zM701 506h-80v25q0 54 -11 78t-41 34q-29 10 -72 13t-152 3q-63 0 -96.5 -7t-55 -32t-27.5 -64.5t-6 -112.5v-189q0 -106 28 -142q21 -26 67.5 -35t157.5 -9 q96 0 130 5.5t51 22.5q27 30 27 101v89h-204v74h287v-140q0 -122 -39 -170q-28 -34 -78.5 -45t-173.5 -11q-137 0 -190 11t-89 46q-57 57 -57 163v248q0 63 3.5 91.5t16.5 61.5q26 67 85 94q28 13 67 17.5t131 4.5q119 0 171 -6.5t85 -25.5q46 -25 56 -76q8 -35 9 -117z"/>
<glyph glyph-name="gbreve" horiz-adv-x="552" unicode="ğ" d="M131 714h50q18 -77 106 -77q87 0 104 77h49q-7 -65 -47.5 -100.5t-108.5 -35.5q-70 0 -109 35t-44 101zM261 456q-77 0 -105 -39q-26 -38 -26 -166q0 -112 29 -148q27 -36 99 -36q87 0 119 40q31 36 31 159q0 96 -20 133q-30 57 -127 57zM74 -59h72q0 -45 26 -61t98 -16 q106 0 126 43q13 26 13 120v55l-10 -17q-37 -63 -156 -63t-158 71q-32 57 -32 202q0 77 11 121t38 73q46 49 149 49q72 0 111 -24.5t52 -77.5v93h72v-518q0 -111 -46 -151.5t-173 -40.5q-103 0 -150 31q-44 30 -44 90q0 13 1 21z"/>
<glyph glyph-name="Gdotaccent" horiz-adv-x="778" unicode="Ġ" d="M357 807v85h78v-85h-78zM701 506h-80v25q0 54 -11 78t-41 34q-29 10 -72 13t-152 3q-63 0 -96.5 -7t-55 -32t-27.5 -64.5t-6 -112.5v-189q0 -106 28 -142q21 -26 67.5 -35t157.5 -9q96 0 130 5.5t51 22.5q27 30 27 101v89h-204v74h287v-140q0 -122 -39 -170 q-28 -34 -78.5 -45t-173.5 -11q-137 0 -190 11t-89 46q-57 57 -57 163v248q0 63 3.5 91.5t16.5 61.5q26 67 85 94q28 13 67 17.5t131 4.5q119 0 171 -6.5t85 -25.5q46 -25 56 -76q8 -35 9 -117z"/>
<glyph glyph-name="gdotaccent" horiz-adv-x="552" unicode="ġ" d="M246 601v85h78v-85h-78zM261 456q-77 0 -105 -39q-26 -38 -26 -166q0 -112 29 -148q27 -36 99 -36q87 0 119 40q31 36 31 159q0 96 -20 133q-30 57 -127 57zM74 -59h72q0 -45 26 -61t98 -16q106 0 126 43q13 26 13 120v55l-10 -17q-37 -63 -156 -63t-158 71 q-32 57 -32 202q0 77 11 121t38 73q46 49 149 49q72 0 111 -24.5t52 -77.5v93h72v-518q0 -111 -46 -151.5t-173 -40.5q-103 0 -150 31q-44 30 -44 90q0 13 1 21z"/>
<glyph glyph-name="Gcommaaccent" horiz-adv-x="778" unicode="Ģ" d="M354 -53h93l-71 -148h-59zM701 506h-80v25q0 54 -11 78t-41 34q-29 10 -72 13t-152 3q-63 0 -96.5 -7t-55 -32t-27.5 -64.5t-6 -112.5v-189q0 -106 28 -142q21 -26 67.5 -35t157.5 -9q96 0 130 5.5t51 22.5q27 30 27 101v89h-204v74h287v-140q0 -122 -39 -170 q-28 -34 -78.5 -45t-173.5 -11q-137 0 -190 11t-89 46q-57 57 -57 163v248q0 63 3.5 91.5t16.5 61.5q26 67 85 94q28 13 67 17.5t131 4.5q119 0 171 -6.5t85 -25.5q46 -25 56 -76q8 -35 9 -117z"/>
<glyph glyph-name="gcommaaccent" horiz-adv-x="552" unicode="ģ" d="M314 573h-88l71 141h58zM261 456q-77 0 -105 -39q-26 -38 -26 -166q0 -112 29 -148q27 -36 99 -36q87 0 119 40q31 36 31 159q0 96 -20 133q-30 57 -127 57zM74 -59h72q0 -45 26 -61t98 -16q106 0 126 43q13 26 13 120v55l-10 -17q-37 -63 -156 -63t-158 71 q-32 57 -32 202q0 77 11 121t38 73q46 49 149 49q72 0 111 -24.5t52 -77.5v93h72v-518q0 -111 -46 -151.5t-173 -40.5q-103 0 -150 31q-44 30 -44 90q0 13 1 21z"/>
<glyph glyph-name="Hcircumflex" horiz-adv-x="773" unicode="Ĥ" d="M341 920h92l100 -141h-80l-66 94l-66 -94h-80zM90 0v723h83v-313h427v313h83v-723h-83v336h-427v-336h-83z"/>
<glyph glyph-name="hcircumflex" horiz-adv-x="563" unicode="ĥ" d="M214 920h92l100 -141h-80l-66 94l-66 -94h-80zM68 0v723h78v-293l8 16q20 39 54.5 55.5t95.5 16.5q129 0 170 -65q25 -42 25 -161v-292h-78v318q0 83 -24.5 110t-97.5 27q-153 0 -153 -140v-315h-78z"/>
<glyph glyph-name="Hbar" horiz-adv-x="773" unicode="Ħ" d="M173 377h427v143h-427v-143zM173 723v-139h427v139h83v-723h-83v304h-427v-304h-83v723h83z"/>
<glyph glyph-name="hbar" horiz-adv-x="563" unicode="ħ" d="M68 630v93h78v-93h175v-55h-175v-145l8 16q20 39 54.5 55.5t95.5 16.5q129 0 170 -65q25 -42 25 -161v-292h-78v318q0 83 -24.5 110t-97.5 27q-153 0 -153 -140v-315h-78v575h-68v55h68z"/>
<glyph glyph-name="Itilde" horiz-adv-x="269" unicode="Ĩ" d="M256 904h51q-6 -49 -33.5 -79t-66.5 -30q-23 0 -68 16q-60 22 -79 22q-17 0 -29.5 -12.5t-17.5 -32.5h-47q5 50 33 79t71 29q33 0 90 -24q30 -13 48 -13q44 0 48 45zM93 0v723h83v-723h-83z"/>
<glyph glyph-name="itilde" horiz-adv-x="218" unicode="ĩ" d="M231 698h51q-6 -49 -33.5 -79t-66.5 -30q-23 0 -68 16q-60 22 -79 22q-17 0 -29.5 -12.5t-17.5 -32.5h-47q5 50 33 79t71 29q33 0 90 -24q30 -13 48 -13q43 0 48 45zM70 0v509h78v-509h-78z"/>
<glyph glyph-name="Imacron" horiz-adv-x="269" unicode="Ī" d="M-20 812v58h313v-58h-313zM93 0v723h83v-723h-83z"/>
<glyph glyph-name="imacron" horiz-adv-x="218" unicode="ī" d="M-45 606v58h313v-58h-313zM70 0v509h78v-509h-78z"/>
<glyph glyph-name="Iogonek" horiz-adv-x="269" unicode="Į" d="M93 0v723h83v-723q-84 -44 -84 -99q0 -24 14.5 -38t42.5 -14q22 0 45 6v-49q-25 -7 -53 -7q-50 0 -78.5 24.5t-28.5 65.5q0 71 75 111h-16z"/>
<glyph glyph-name="iogonek" horiz-adv-x="218" unicode="į" d="M70 638v85h78v-85h-78zM70 0v509h78v-509q-84 -44 -84 -99q0 -24 14.5 -38t42.5 -14q22 0 45 6v-49q-25 -7 -53 -7q-50 0 -78.5 24.5t-28.5 65.5q0 71 75 111h-11z"/>
<glyph glyph-name="Idotaccent" horiz-adv-x="269" unicode="İ" d="M96 807v85h78v-85h-78zM93 0v723h83v-723h-83z"/>
<glyph glyph-name="dotlessi" horiz-adv-x="218" unicode="ı" d="M70 0v509h78v-509h-78z"/>
<glyph glyph-name="Jcircumflex" horiz-adv-x="614" unicode="Ĵ" d="M442 920h92l100 -141h-80l-66 94l-66 -94h-80zM42 266h83v-89q0 -62 25 -86q26 -23 151 -23q64 0 92.5 8t41.5 29q16 28 16 111v507h83v-506q0 -70 -8.5 -106t-30.5 -63q-26 -31 -72.5 -43t-143.5 -12q-87 0 -132.5 12.5t-70.5 43.5q-34 42 -34 130v87z"/>
<glyph glyph-name="jcircumflex" horiz-adv-x="218" unicode="ĵ" d="M64 714h92l100 -141h-80l-66 94l-66 -94h-80zM4 -192v61h7q35 0 47 17t12 66v557h78v-582q0 -61 -22 -88q-24 -32 -99 -32q-13 0 -23 1z"/>
<glyph glyph-name="Kcommaaccent" horiz-adv-x="681" unicode="Ķ" d="M312 -53h93l-71 -148h-59zM90 0v723h83v-309h67l297 309h114l-336 -347l380 -376h-118l-337 340h-67v-340h-83z"/>
<glyph glyph-name="kcommaaccent" horiz-adv-x="466" unicode="ķ" d="M218 -53h93l-71 -148h-59zM68 0v723h78v-416h24l168 202h105l-208 -235l243 -274h-103l-205 244h-24v-244h-78z"/>
<glyph glyph-name="Lacute" horiz-adv-x="608" unicode="Ĺ" d="M188 920h109l-131 -141h-67zM90 0v723h83v-647h415v-76h-498z"/>
<glyph glyph-name="lacute" horiz-adv-x="218" unicode="ĺ" d="M144 920h109l-131 -141h-67zM70 0v723h78v-723h-78z"/>
<glyph glyph-name="Lcommaaccent" horiz-adv-x="608" unicode="Ļ" d="M289 -53h93l-71 -148h-59zM90 0v723h83v-647h415v-76h-498z"/>
<glyph glyph-name="lcommaaccent" horiz-adv-x="218" unicode="ļ" d="M64 -53h93l-71 -148h-59zM70 0v723h78v-723h-78z"/>
<glyph glyph-name="Lcaron" horiz-adv-x="608" unicode="Ľ" d="M284 714h87l-51 -181h-55zM90 0v723h83v-647h415v-76h-498z"/>
<glyph glyph-name="lcaron" horiz-adv-x="218" unicode="ľ" d="M226 714h87l-51 -181h-55zM70 0v723h78v-723h-78z"/>
<glyph glyph-name="Ldot" horiz-adv-x="608" unicode="Ŀ" d="M349 316v85h78v-85h-78zM90 0v723h83v-647h415v-76h-498z"/>
<glyph glyph-name="ldot" horiz-adv-x="319" unicode="ŀ" d="M219 316v85h78v-85h-78zM70 0v723h78v-723h-78z"/>
<glyph glyph-name="Lslash" horiz-adv-x="608" unicode="Ł" d="M2 237l88 62v424h83v-369l236 164v-80l-236 -162v-200h415v-76h-498v220l-88 -62v79z"/>
<glyph glyph-name="lslash" horiz-adv-x="238" unicode="ł" d="M6 364l74 51v308h78v-257l74 52v-68l-74 -52v-398h-78v347l-74 -51v68z"/>
<glyph glyph-name="Nacute" horiz-adv-x="784" unicode="Ń" d="M435 920h109l-131 -141h-67zM86 0v723h134l396 -645v645h82v-723h-129l-401 649v-649h-82z"/>
<glyph glyph-name="nacute" horiz-adv-x="558" unicode="ń" d="M326 714h109l-131 -141h-67zM66 0v509h76v-73l16 22q24 34 56 47t92 13q68 0 106 -15.5t58 -50.5q24 -42 24 -162v-290h-78v319q0 73 -20 101q-27 35 -103 35q-80 0 -114.5 -35.5t-34.5 -117.5v-302h-78z"/>
<glyph glyph-name="Ncommaaccent" horiz-adv-x="784" unicode="Ņ" d="M363 -53h93l-71 -148h-59zM86 0v723h134l396 -645v645h82v-723h-129l-401 649v-649h-82z"/>
<glyph glyph-name="ncommaaccent" horiz-adv-x="558" unicode="ņ" d="M233 -53h93l-71 -148h-59zM66 0v509h76v-73l16 22q24 34 56 47t92 13q68 0 106 -15.5t58 -50.5q24 -42 24 -162v-290h-78v319q0 73 -20 101q-27 35 -103 35q-80 0 -114.5 -35.5t-34.5 -117.5v-302h-78z"/>
<glyph glyph-name="Ncaron" horiz-adv-x="784" unicode="Ň" d="M541 920l-100 -141h-92l-100 141h80l66 -94l66 94h80zM86 0v723h134l396 -645v645h82v-723h-129l-401 649v-649h-82z"/>
<glyph glyph-name="ncaron" horiz-adv-x="558" unicode="ň" d="M433 714l-100 -141h-92l-100 141h80l66 -94l66 94h80zM66 0v509h76v-73l16 22q24 34 56 47t92 13q68 0 106 -15.5t58 -50.5q24 -42 24 -162v-290h-78v319q0 73 -20 101q-27 35 -103 35q-80 0 -114.5 -35.5t-34.5 -117.5v-302h-78z"/>
<glyph glyph-name="Omacron" horiz-adv-x="779" unicode="Ō" d="M237 812v58h313v-58h-313zM619 268v161q0 90 -6 130t-21 60q-23 27 -74 35q-24 4 -115 4q-110 0 -143 -4t-55 -19q-25 -18 -35 -49t-10 -91v-218q0 -81 8.5 -120.5t30.5 -59.5q21 -19 53.5 -24t126.5 -5q107 0 137.5 3.5t52.5 18.5q30 20 40 55.5t10 122.5zM702 427v-176 q0 -76 -11 -119.5t-39 -73.5q-35 -39 -86 -52t-172 -13q-128 0 -178 11t-84 47q-55 58 -55 185v291q0 102 64 156q40 33 95 41q34 6 175 6q93 0 133.5 -6.5t72.5 -26.5q55 -35 73 -105q12 -50 12 -165z"/>
<glyph glyph-name="omacron" horiz-adv-x="558" unicode="ō" d="M127 606v58h313v-58h-313zM263 456q-87 0 -109 -33q-25 -38 -25 -166q0 -132 28 -170q23 -31 116 -31q39 0 61.5 1.5t42.5 9.5t28 19t14.5 35.5t8 53t1.5 78.5q0 53 -1 82t-8 55.5t-15.5 36.5t-30 18.5t-44.5 9.5t-67 1zM293 518q131 0 174 -50q23 -26 31 -69t8 -139 q0 -99 -7.5 -141t-29.5 -73q-23 -30 -69.5 -42.5t-137.5 -12.5q-70 0 -109 11.5t-61 39.5q-23 28 -31.5 76t-8.5 145q0 98 12.5 146t44.5 75q22 19 62 26.5t122 7.5z"/>
<glyph glyph-name="Obreve" horiz-adv-x="779" unicode="Ŏ" d="M239 920h50q18 -77 106 -77q87 0 104 77h49q-7 -65 -47.5 -100.5t-108.5 -35.5q-70 0 -109 35t-44 101zM619 268v161q0 90 -6 130t-21 60q-23 27 -74 35q-24 4 -115 4q-110 0 -143 -4t-55 -19q-25 -18 -35 -49t-10 -91v-218q0 -81 8.5 -120.5t30.5 -59.5q21 -19 53.5 -24 t126.5 -5q107 0 137.5 3.5t52.5 18.5q30 20 40 55.5t10 122.5zM702 427v-176q0 -76 -11 -119.5t-39 -73.5q-35 -39 -86 -52t-172 -13q-128 0 -178 11t-84 47q-55 58 -55 185v291q0 102 64 156q40 33 95 41q34 6 175 6q93 0 133.5 -6.5t72.5 -26.5q55 -35 73 -105 q12 -50 12 -165z"/>
<glyph glyph-name="obreve" horiz-adv-x="558" unicode="ŏ" d="M129 714h50q18 -77 106 -77q87 0 104 77h49q-7 -65 -47.5 -100.5t-108.5 -35.5q-70 0 -109 35t-44 101zM263 456q-87 0 -109 -33q-25 -38 -25 -166q0 -132 28 -170q23 -31 116 -31q39 0 61.5 1.5t42.5 9.5t28 19t14.5 35.5t8 53t1.5 78.5q0 53 -1 82t-8 55.5t-15.5 36.5 t-30 18.5t-44.5 9.5t-67 1zM293 518q131 0 174 -50q23 -26 31 -69t8 -139q0 -99 -7.5 -141t-29.5 -73q-23 -30 -69.5 -42.5t-137.5 -12.5q-70 0 -109 11.5t-61 39.5q-23 28 -31.5 76t-8.5 145q0 98 12.5 146t44.5 75q22 19 62 26.5t122 7.5z"/>
<glyph glyph-name="Ohungarumlaut" horiz-adv-x="779" unicode="Ő" d="M506 920h94l-121 -141h-67zM357 920h89l-111 -141h-67zM619 268v161q0 90 -6 130t-21 60q-23 27 -74 35q-24 4 -115 4q-110 0 -143 -4t-55 -19q-25 -18 -35 -49t-10 -91v-218q0 -81 8.5 -120.5t30.5 -59.5q21 -19 53.5 -24t126.5 -5q107 0 137.5 3.5t52.5 18.5 q30 20 40 55.5t10 122.5zM702 427v-176q0 -76 -11 -119.5t-39 -73.5q-35 -39 -86 -52t-172 -13q-128 0 -178 11t-84 47q-55 58 -55 185v291q0 102 64 156q40 33 95 41q34 6 175 6q93 0 133.5 -6.5t72.5 -26.5q55 -35 73 -105q12 -50 12 -165z"/>
<glyph glyph-name="ohungarumlaut" horiz-adv-x="558" unicode="ő" d="M396 714h94l-121 -141h-67zM247 714h89l-111 -141h-67zM263 456q-87 0 -109 -33q-25 -38 -25 -166q0 -132 28 -170q23 -31 116 -31q39 0 61.5 1.5t42.5 9.5t28 19t14.5 35.5t8 53t1.5 78.5q0 53 -1 82t-8 55.5t-15.5 36.5t-30 18.5t-44.5 9.5t-67 1zM293 518 q131 0 174 -50q23 -26 31 -69t8 -139q0 -99 -7.5 -141t-29.5 -73q-23 -30 -69.5 -42.5t-137.5 -12.5q-70 0 -109 11.5t-61 39.5q-23 28 -31.5 76t-8.5 145q0 98 12.5 146t44.5 75q22 19 62 26.5t122 7.5z"/>
<glyph glyph-name="OE" horiz-adv-x="998" unicode="Œ" d="M517 288v187q0 102 -26 140q-33 46 -168 46q-60 0 -90 -10t-47 -35q-24 -36 -24 -115v-285q0 -78 27 -111q16 -21 41.5 -29t73.5 -8q52 0 82.5 2t57.5 11t39 21.5t21 39.5t11 59.5t2 86.5zM517 723h412v-74h-329v-239h321v-72h-321v-263h335v-75h-418v75l-10 -14 q-28 -39 -65.5 -53t-124.5 -14q-84 0 -127 15.5t-73 56.5q-38 51 -38 156v273q0 116 43 170q28 36 71.5 51t119.5 15q155 0 196 -66l8 -13v71z"/>
<glyph glyph-name="oe" horiz-adv-x="884" unicode="œ" d="M487 300h266q1 13 1 31q0 77 -27 100t-118 23q-70 0 -96.5 -26t-26.5 -95q0 -17 1 -33zM133 324v-125q0 -77 20 -103q28 -37 119 -37q93 0 118 37q21 30 21 173q0 119 -21 149q-13 20 -40 28.5t-78 8.5q-56 0 -82 -9t-40 -33q-17 -30 -17 -89zM753 145h77v-20 q0 -74 -43 -102.5t-154 -28.5q-86 0 -128.5 18.5t-56.5 61.5q-13 -43 -55.5 -61.5t-129.5 -18.5q-73 0 -114 15.5t-65 51.5q-32 48 -32 155v69q0 129 37 176q24 32 65 44.5t120 12.5q84 0 122 -16.5t51 -58.5q17 42 55.5 58.5t120.5 16.5q151 0 190 -84q19 -38 19 -131v-66 h-345q-1 -14 -1 -31q0 -88 27 -118t105 -30q84 0 109.5 16.5t25.5 70.5z"/>
<glyph glyph-name="Racute" horiz-adv-x="729" unicode="Ŕ" d="M395 920h109l-131 -141h-67zM173 361h259q83 0 110.5 31t27.5 122q0 87 -26.5 112t-118.5 25h-252v-290zM90 0v723h350q110 0 159 -39q30 -25 42 -63.5t12 -109.5q0 -93 -22 -130t-83 -54q59 -13 80 -48q13 -21 17 -61t4 -141v-77h-83v168q0 70 -25.5 95.5t-94.5 25.5 h-273v-289h-83z"/>
<glyph glyph-name="racute" horiz-adv-x="445" unicode="ŕ" d="M278 714h109l-131 -141h-67zM66 0v509h74v-58q29 38 58 52t78 14q79 0 112 -34.5t33 -117.5q0 -20 -1 -32h-74q1 10 1 25q0 55 -17.5 75.5t-64.5 20.5q-71 0 -101 -42q-20 -27 -20 -79v-333h-78z"/>
<glyph glyph-name="Rcommaaccent" horiz-adv-x="729" unicode="Ŗ" d="M324 -53h93l-71 -148h-59zM173 361h259q83 0 110.5 31t27.5 122q0 87 -26.5 112t-118.5 25h-252v-290zM90 0v723h350q110 0 159 -39q30 -25 42 -63.5t12 -109.5q0 -93 -22 -130t-83 -54q59 -13 80 -48q13 -21 17 -61t4 -141v-77h-83v168q0 70 -25.5 95.5t-94.5 25.5h-273 v-289h-83z"/>
<glyph glyph-name="rcommaaccent" horiz-adv-x="445" unicode="ŗ" d="M60 -53h93l-71 -148h-59zM66 0v509h74v-58q29 38 58 52t78 14q79 0 112 -34.5t33 -117.5q0 -20 -1 -32h-74q1 10 1 25q0 55 -17.5 75.5t-64.5 20.5q-71 0 -101 -42q-20 -27 -20 -79v-333h-78z"/>
<glyph glyph-name="Rcaron" horiz-adv-x="729" unicode="Ř" d="M501 920l-100 -141h-92l-100 141h80l66 -94l66 94h80zM173 361h259q83 0 110.5 31t27.5 122q0 87 -26.5 112t-118.5 25h-252v-290zM90 0v723h350q110 0 159 -39q30 -25 42 -63.5t12 -109.5q0 -93 -22 -130t-83 -54q59 -13 80 -48q13 -21 17 -61t4 -141v-77h-83v168 q0 70 -25.5 95.5t-94.5 25.5h-273v-289h-83z"/>
<glyph glyph-name="rcaron" horiz-adv-x="445" unicode="ř" d="M384 714l-100 -141h-92l-100 141h80l66 -94l66 94h80zM66 0v509h74v-58q29 38 58 52t78 14q79 0 112 -34.5t33 -117.5q0 -20 -1 -32h-74q1 10 1 25q0 55 -17.5 75.5t-64.5 20.5q-71 0 -101 -42q-20 -27 -20 -79v-333h-78z"/>
<glyph glyph-name="Sacute" horiz-adv-x="709" unicode="Ś" d="M395 920h109l-131 -141h-67zM63 234h82v-32q0 -86 34 -110q20 -13 51 -17.5t107 -4.5q151 0 185 15q23 11 32.5 34t9.5 74q0 71 -10 91q-16 31 -91 37l-158 13q-83 7 -120.5 16.5t-64.5 32.5q-48 42 -48 158q0 64 13 100.5t44 58.5q27 19 62 25t124 6q138 0 189.5 -7.5 t83.5 -31.5q26 -21 36.5 -53t10.5 -98v-22h-76v23q0 75 -31 94q-34 23 -163 23h-46q-105 0 -134.5 -22.5t-29.5 -101.5q0 -72 21.5 -93t90.5 -27l140 -12q90 -8 132 -18.5t68 -32.5q40 -36 40 -141q0 -65 -6.5 -97t-24.5 -57q-27 -37 -77.5 -50t-169.5 -13q-121 0 -167.5 7 t-77.5 30q-62 47 -62 172q0 17 1 31z"/>
<glyph glyph-name="sacute" horiz-adv-x="548" unicode="ś" d="M310 714h109l-131 -141h-67zM48 154h73q3 -62 28.5 -79t114.5 -17q108 0 138 18q21 13 21 64q0 58 -15 69t-95 16l-54 3q-141 8 -175 38t-34 114q0 81 42 109q27 17 68 23t125 6q81 0 119.5 -9.5t58.5 -34.5q22 -27 23 -85h-72q-3 35 -22 51q-22 19 -123 19 q-94 0 -123 -20q-20 -12 -20 -70q0 -20 1.5 -28t7.5 -18t22.5 -13t42 -6.5t70.5 -5.5l79 -4q92 -4 121.5 -33.5t29.5 -116.5t-43 -116q-51 -34 -193 -34q-83 0 -127 12.5t-66 42.5q-23 31 -23 105z"/>
<glyph glyph-name="Scircumflex" horiz-adv-x="709" unicode="Ŝ" d="M309 920h92l100 -141h-80l-66 94l-66 -94h-80zM63 234h82v-32q0 -86 34 -110q20 -13 51 -17.5t107 -4.5q151 0 185 15q23 11 32.5 34t9.5 74q0 71 -10 91q-16 31 -91 37l-158 13q-83 7 -120.5 16.5t-64.5 32.5q-48 42 -48 158q0 64 13 100.5t44 58.5q27 19 62 25t124 6 q138 0 189.5 -7.5t83.5 -31.5q26 -21 36.5 -53t10.5 -98v-22h-76v23q0 75 -31 94q-34 23 -163 23h-46q-105 0 -134.5 -22.5t-29.5 -101.5q0 -72 21.5 -93t90.5 -27l140 -12q90 -8 132 -18.5t68 -32.5q40 -36 40 -141q0 -65 -6.5 -97t-24.5 -57q-27 -37 -77.5 -50t-169.5 -13 q-121 0 -167.5 7t-77.5 30q-62 47 -62 172q0 17 1 31z"/>
<glyph glyph-name="scircumflex" horiz-adv-x="548" unicode="ŝ" d="M224 714h92l100 -141h-80l-66 94l-66 -94h-80zM48 154h73q3 -62 28.5 -79t114.5 -17q108 0 138 18q21 13 21 64q0 58 -15 69t-95 16l-54 3q-141 8 -175 38t-34 114q0 81 42 109q27 17 68 23t125 6q81 0 119.5 -9.5t58.5 -34.5q22 -27 23 -85h-72q-3 35 -22 51 q-22 19 -123 19q-94 0 -123 -20q-20 -12 -20 -70q0 -20 1.5 -28t7.5 -18t22.5 -13t42 -6.5t70.5 -5.5l79 -4q92 -4 121.5 -33.5t29.5 -116.5t-43 -116q-51 -34 -193 -34q-83 0 -127 12.5t-66 42.5q-23 31 -23 105z"/>
<glyph glyph-name="Scedilla" horiz-adv-x="709" unicode="Ş" d="M63 234h82v-32q0 -86 34 -110q20 -13 51 -17.5t107 -4.5q151 0 185 15q23 11 32.5 34t9.5 74q0 71 -10 91q-16 31 -91 37l-158 13q-83 7 -120.5 16.5t-64.5 32.5q-48 42 -48 158q0 64 13 100.5t44 58.5q27 19 62 25t124 6q138 0 189.5 -7.5t83.5 -31.5q26 -21 36.5 -53 t10.5 -98v-22h-76v23q0 75 -31 94q-34 23 -163 23h-46q-105 0 -134.5 -22.5t-29.5 -101.5q0 -72 21.5 -93t90.5 -27l140 -12q90 -8 132 -18.5t68 -32.5q40 -36 40 -141q0 -65 -6.5 -97t-24.5 -57q-26 -37 -73.5 -49.5t-158.5 -13.5l-45 -57q13 1 26 1q39 0 64 -20.5 t25 -56.5q0 -86 -118 -86q-46 0 -87 10v47q43 -9 72 -9q59 0 59 38q0 17 -15.5 26.5t-39.5 9.5q-17 0 -42 -3v34l51 66q-99 1 -140.5 8t-69.5 29q-62 47 -62 172q0 17 1 31z"/>
<glyph glyph-name="scedilla" horiz-adv-x="548" unicode="ş" d="M48 154h73q3 -62 28.5 -79t114.5 -17q108 0 138 18q21 13 21 64q0 58 -15 69t-95 16l-54 3q-141 8 -175 38t-34 114q0 81 42 109q27 17 68 23t125 6q81 0 119.5 -9.5t58.5 -34.5q22 -27 23 -85h-72q-3 35 -22 51q-22 19 -123 19q-94 0 -123 -20q-20 -12 -20 -70 q0 -20 1.5 -28t7.5 -18t22.5 -13t42 -6.5t70.5 -5.5l79 -4q92 -4 121.5 -33.5t29.5 -116.5t-43 -116q-45 -30 -153 -33l-45 -58q13 1 26 1q39 0 64 -20.5t25 -56.5q0 -86 -118 -86q-46 0 -87 10v47q43 -9 72 -9q59 0 59 38q0 17 -15.5 26.5t-39.5 9.5q-17 0 -42 -3v34l51 66 q-77 1 -119 13.5t-64 41.5q-23 31 -23 105z"/>
<glyph glyph-name="Scaron" horiz-adv-x="709" unicode="Š" d="M501 920l-100 -141h-92l-100 141h80l66 -94l66 94h80zM63 234h82v-32q0 -86 34 -110q20 -13 51 -17.5t107 -4.5q151 0 185 15q23 11 32.5 34t9.5 74q0 71 -10 91q-16 31 -91 37l-158 13q-83 7 -120.5 16.5t-64.5 32.5q-48 42 -48 158q0 64 13 100.5t44 58.5q27 19 62 25 t124 6q138 0 189.5 -7.5t83.5 -31.5q26 -21 36.5 -53t10.5 -98v-22h-76v23q0 75 -31 94q-34 23 -163 23h-46q-105 0 -134.5 -22.5t-29.5 -101.5q0 -72 21.5 -93t90.5 -27l140 -12q90 -8 132 -18.5t68 -32.5q40 -36 40 -141q0 -65 -6.5 -97t-24.5 -57q-27 -37 -77.5 -50 t-169.5 -13q-121 0 -167.5 7t-77.5 30q-62 47 -62 172q0 17 1 31z"/>
<glyph glyph-name="scaron" horiz-adv-x="548" unicode="š" d="M417 714l-100 -141h-92l-100 141h80l66 -94l66 94h80zM48 154h73q3 -62 28.5 -79t114.5 -17q108 0 138 18q21 13 21 64q0 58 -15 69t-95 16l-54 3q-141 8 -175 38t-34 114q0 81 42 109q27 17 68 23t125 6q81 0 119.5 -9.5t58.5 -34.5q22 -27 23 -85h-72q-3 35 -22 51 q-22 19 -123 19q-94 0 -123 -20q-20 -12 -20 -70q0 -20 1.5 -28t7.5 -18t22.5 -13t42 -6.5t70.5 -5.5l79 -4q92 -4 121.5 -33.5t29.5 -116.5t-43 -116q-51 -34 -193 -34q-83 0 -127 12.5t-66 42.5q-23 31 -23 105z"/>
<glyph glyph-name="Tcommaaccent" horiz-adv-x="566" unicode="Ţ" d="M235 -53h93l-71 -148h-59zM10 723h546v-76h-232v-647h-83v647h-231v76z"/>
<glyph glyph-name="tcommaaccent" horiz-adv-x="430" unicode="ţ" d="M183 -53h93l-71 -148h-59zM84 444h-64v65h64v121h78v-121h219v-65h-219v-319q0 -38 17.5 -53t61.5 -15q52 0 69.5 18t17.5 73q0 13 -1 35h70v-56q0 -66 -28 -94q-40 -40 -136 -40q-89 0 -125 43q-24 29 -24 82v326z"/>
<glyph glyph-name="Tcaron" horiz-adv-x="566" unicode="Ť" d="M430 920l-100 -141h-92l-100 141h80l66 -94l66 94h80zM10 723h546v-76h-232v-647h-83v647h-231v76z"/>
<glyph glyph-name="tcaron" horiz-adv-x="430" unicode="ť" d="M285 714h87l-51 -181h-55zM84 444h-64v65h64v121h78v-121h219v-65h-219v-319q0 -38 17.5 -53t61.5 -15q52 0 69.5 18t17.5 73q0 13 -1 35h70v-56q0 -66 -28 -94q-40 -40 -136 -40q-89 0 -125 43q-24 29 -24 82v326z"/>
<glyph glyph-name="Tbar" horiz-adv-x="566" unicode="Ŧ" d="M10 723h546v-76h-232v-160h154v-68h-154v-419h-83v419h-154v68h154v160h-231v76z"/>
<glyph glyph-name="tbar" horiz-adv-x="430" unicode="ŧ" d="M341 346v-55h-179v-166q0 -38 17.5 -53t61.5 -15q52 0 69.5 18t17.5 73q0 9 -1 25h70v-46q0 -66 -28 -94q-40 -40 -136 -40q-89 0 -125 43q-24 29 -24 82v173h-57v55h57v98h-64v65h64v121h78v-121h219v-65h-219v-98h179z"/>
<glyph glyph-name="Utilde" horiz-adv-x="755" unicode="Ũ" d="M498 904h51q-6 -49 -33.5 -79t-66.5 -30q-23 0 -68 16q-60 22 -79 22q-17 0 -29.5 -12.5t-17.5 -32.5h-47q5 50 33 79t71 29q33 0 90 -24q30 -13 48 -13q44 0 48 45zM80 723h83v-509q0 -82 34 -114q20 -19 61 -25.5t141 -6.5q81 0 114.5 8t52.5 33q26 34 26 105v509h83 v-516q0 -114 -57 -165q-33 -29 -83 -39t-167 -10q-144 0 -193 26q-51 27 -73 73.5t-22 127.5v503z"/>
<glyph glyph-name="utilde" horiz-adv-x="558" unicode="ũ" d="M399 698h51q-6 -49 -33.5 -79t-66.5 -30q-23 0 -68 16q-60 22 -79 22q-17 0 -29.5 -12.5t-17.5 -32.5h-47q5 50 33 79t71 29q33 0 90 -24q30 -13 48 -13q43 0 48 45zM63 509h78v-348q0 -53 22 -75q30 -30 95 -30q101 0 135 58q21 37 21 129v266h78v-509h-74v73l-12 -18 q-42 -64 -159 -64q-93 0 -138.5 40t-45.5 123v355z"/>
<glyph glyph-name="Umacron" horiz-adv-x="755" unicode="Ū" d="M222 812v58h313v-58h-313zM80 723h83v-509q0 -82 34 -114q20 -19 61 -25.5t141 -6.5q81 0 114.5 8t52.5 33q26 34 26 105v509h83v-516q0 -114 -57 -165q-33 -29 -83 -39t-167 -10q-144 0 -193 26q-51 27 -73 73.5t-22 127.5v503z"/>
<glyph glyph-name="umacron" horiz-adv-x="558" unicode="ū" d="M123 606v58h313v-58h-313zM63 509h78v-348q0 -53 22 -75q30 -30 95 -30q101 0 135 58q21 37 21 129v266h78v-509h-74v73l-12 -18q-42 -64 -159 -64q-93 0 -138.5 40t-45.5 123v355z"/>
<glyph glyph-name="Ubreve" horiz-adv-x="755" unicode="Ŭ" d="M224 920h50q18 -77 106 -77q87 0 104 77h49q-7 -65 -47.5 -100.5t-108.5 -35.5q-70 0 -109 35t-44 101zM80 723h83v-509q0 -82 34 -114q20 -19 61 -25.5t141 -6.5q81 0 114.5 8t52.5 33q26 34 26 105v509h83v-516q0 -114 -57 -165q-33 -29 -83 -39t-167 -10 q-144 0 -193 26q-51 27 -73 73.5t-22 127.5v503z"/>
<glyph glyph-name="ubreve" horiz-adv-x="558" unicode="ŭ" d="M125 714h50q18 -77 106 -77q87 0 104 77h49q-7 -65 -47.5 -100.5t-108.5 -35.5q-70 0 -109 35t-44 101zM63 509h78v-348q0 -53 22 -75q30 -30 95 -30q101 0 135 58q21 37 21 129v266h78v-509h-74v73l-12 -18q-42 -64 -159 -64q-93 0 -138.5 40t-45.5 123v355z"/>
<glyph glyph-name="Uring" horiz-adv-x="755" unicode="Ů" d="M378 756q-44 0 -73 27t-29 74q0 45 29.5 73.5t73.5 28.5t73 -27t29 -74q0 -45 -29.5 -73.5t-73.5 -28.5zM379 796q26 0 43.5 17t17.5 45q0 27 -17.5 44t-44.5 17q-26 0 -43.5 -17t-17.5 -45q0 -27 17.5 -44t44.5 -17zM80 723h83v-509q0 -82 34 -114q20 -19 61 -25.5 t141 -6.5q81 0 114.5 8t52.5 33q26 34 26 105v509h83v-516q0 -114 -57 -165q-33 -29 -83 -39t-167 -10q-144 0 -193 26q-51 27 -73 73.5t-22 127.5v503z"/>
<glyph glyph-name="uring" horiz-adv-x="558" unicode="ů" d="M279 572q-44 0 -73 27t-29 74q0 45 29.5 73.5t73.5 28.5t73 -27t29 -74q0 -45 -29.5 -73.5t-73.5 -28.5zM280 612q26 0 43.5 17t17.5 45q0 27 -17.5 44t-44.5 17q-26 0 -43.5 -17t-17.5 -45q0 -27 17.5 -44t44.5 -17zM63 509h78v-348q0 -53 22 -75q30 -30 95 -30 q101 0 135 58q21 37 21 129v266h78v-509h-74v73l-12 -18q-42 -64 -159 -64q-93 0 -138.5 40t-45.5 123v355z"/>
<glyph glyph-name="Uhungarumlaut" horiz-adv-x="755" unicode="Ű" d="M492 920h94l-121 -141h-67zM343 920h89l-111 -141h-67zM80 723h83v-509q0 -82 34 -114q20 -19 61 -25.5t141 -6.5q81 0 114.5 8t52.5 33q26 34 26 105v509h83v-516q0 -114 -57 -165q-33 -29 -83 -39t-167 -10q-144 0 -193 26q-51 27 -73 73.5t-22 127.5v503z"/>
<glyph glyph-name="uhungarumlaut" horiz-adv-x="558" unicode="ű" d="M392 714h94l-121 -141h-67zM243 714h89l-111 -141h-67zM63 509h78v-348q0 -53 22 -75q30 -30 95 -30q101 0 135 58q21 37 21 129v266h78v-509h-74v73l-12 -18q-42 -64 -159 -64q-93 0 -138.5 40t-45.5 123v355z"/>
<glyph glyph-name="Uogonek" horiz-adv-x="755" unicode="Ų" d="M80 723h83v-509q0 -82 34 -114q20 -19 61 -25.5t141 -6.5q81 0 114.5 8t52.5 33q26 34 26 105v509h83v-516q0 -114 -57 -165q-29 -26 -68.5 -36t-121.5 -12q-72 -42 -72 -93q0 -24 14.5 -38t42.5 -14q22 0 45 6v-49q-25 -7 -53 -7q-50 0 -78.5 24.5t-28.5 65.5 q0 65 62 104q-140 1 -185 26q-51 27 -73 73.5t-22 127.5v503z"/>
<glyph glyph-name="uogonek" horiz-adv-x="558" unicode="ų" d="M418 0v73l-12 -18q-42 -64 -159 -64q-93 0 -138.5 40t-45.5 123v355h78v-348q0 -53 22 -75q30 -30 95 -30q101 0 135 58q21 37 21 129v266h78v-509h-7q-84 -44 -84 -99q0 -24 14.5 -38t42.5 -14q22 0 45 6v-49q-25 -7 -53 -7q-50 0 -78.5 24.5t-28.5 65.5q0 71 75 111z "/>
<glyph glyph-name="Wcircumflex" horiz-adv-x="1000" unicode="Ŵ" d="M452 920h92l100 -141h-80l-66 94l-66 -94h-80zM19 723h87l165 -638l169 638h117l163 -638l174 638h84l-196 -723h-124l-160 642l-165 -642h-122z"/>
<glyph glyph-name="wcircumflex" horiz-adv-x="782" unicode="ŵ" d="M345 714h92l100 -141h-80l-66 94l-66 -94h-80zM18 509h85l118 -442l114 442h110l116 -442l119 442h82l-143 -509h-120l-109 432l-112 -432h-114z"/>
<glyph glyph-name="Ycircumflex" horiz-adv-x="654" unicode="Ŷ" d="M283 920h92l100 -141h-80l-66 94l-66 -94h-80zM371 0h-87v303l-292 420h102l233 -340l238 340h99l-293 -420v-303z"/>
<glyph glyph-name="ycircumflex" horiz-adv-x="494" unicode="ŷ" d="M205 714h92l100 -141h-80l-66 94l-66 -94h-80zM13 509h84l166 -435l134 435h82l-164 -519q-25 -78 -37.5 -106t-32.5 -47q-36 -33 -102 -33q-17 0 -33 2v66q13 -1 22 -1q50 0 72 40q18 32 29 91h-23z"/>
<glyph glyph-name="Ydieresis" horiz-adv-x="654" unicode="Ÿ" d="M367 791v101h82v-101h-82zM293 892v-101h-82v101h82zM371 0h-87v303l-292 420h102l233 -340l238 340h99l-293 -420v-303z"/>
<glyph glyph-name="Zacute" horiz-adv-x="627" unicode="Ź" d="M351 920h109l-131 -141h-67zM26 0v78l453 571h-434v74h541v-74l-453 -573h462v-76h-569z"/>
<glyph glyph-name="zacute" horiz-adv-x="482" unicode="ź" d="M285 714h109l-131 -141h-67zM29 0v79l320 365h-306v65h400v-72l-320 -370h325v-67h-419z"/>
<glyph glyph-name="Zdotaccent" horiz-adv-x="627" unicode="Ż" d="M273 807v85h78v-85h-78zM26 0v78l453 571h-434v74h541v-74l-453 -573h462v-76h-569z"/>
<glyph glyph-name="zdotaccent" horiz-adv-x="482" unicode="ż" d="M207 601v85h78v-85h-78zM29 0v79l320 365h-306v65h400v-72l-320 -370h325v-67h-419z"/>
<glyph glyph-name="Zcaron" horiz-adv-x="627" unicode="Ž" d="M456 920l-100 -141h-92l-100 141h80l66 -94l66 94h80zM26 0v78l453 571h-434v74h541v-74l-453 -573h462v-76h-569z"/>
<glyph glyph-name="zcaron" horiz-adv-x="482" unicode="ž" d="M391 714l-100 -141h-92l-100 141h80l66 -94l66 94h80zM29 0v79l320 365h-306v65h400v-72l-320 -370h325v-67h-419z"/>
<glyph glyph-name="florin" horiz-adv-x="667" unicode="ƒ" d="M26 -177v65q25 -9 73 -9q70 0 98 35.5t50 151.5l60 324h-142v61h154q19 102 34.5 149.5t40.5 77.5q23 29 56.5 41t90.5 12q44 0 80 -7v-65q-36 9 -74 9q-72 0 -99 -39t-49 -178h148v-61h-159l-46 -251q-21 -114 -39 -171t-44 -93q-43 -62 -155 -62q-43 0 -78 10z"/>
<glyph glyph-name="Scommaaccent" horiz-adv-x="709" unicode="Ș" d="M315 -53h93l-71 -148h-59zM63 234h82v-32q0 -86 34 -110q20 -13 51 -17.5t107 -4.5q151 0 185 15q23 11 32.5 34t9.5 74q0 71 -10 91q-16 31 -91 37l-158 13q-83 7 -120.5 16.5t-64.5 32.5q-48 42 -48 158q0 64 13 100.5t44 58.5q27 19 62 25t124 6q138 0 189.5 -7.5 t83.5 -31.5q26 -21 36.5 -53t10.5 -98v-22h-76v23q0 75 -31 94q-34 23 -163 23h-46q-105 0 -134.5 -22.5t-29.5 -101.5q0 -72 21.5 -93t90.5 -27l140 -12q90 -8 132 -18.5t68 -32.5q40 -36 40 -141q0 -65 -6.5 -97t-24.5 -57q-27 -37 -77.5 -50t-169.5 -13q-121 0 -167.5 7 t-77.5 30q-62 47 -62 172q0 17 1 31z"/>
<glyph glyph-name="scommaaccent" horiz-adv-x="548" unicode="ș" d="M235 -53h93l-71 -148h-59zM48 154h73q3 -62 28.5 -79t114.5 -17q108 0 138 18q21 13 21 64q0 58 -15 69t-95 16l-54 3q-141 8 -175 38t-34 114q0 81 42 109q27 17 68 23t125 6q81 0 119.5 -9.5t58.5 -34.5q22 -27 23 -85h-72q-3 35 -22 51q-22 19 -123 19q-94 0 -123 -20 q-20 -12 -20 -70q0 -20 1.5 -28t7.5 -18t22.5 -13t42 -6.5t70.5 -5.5l79 -4q92 -4 121.5 -33.5t29.5 -116.5t-43 -116q-51 -34 -193 -34q-83 0 -127 12.5t-66 42.5q-23 31 -23 105z"/>
<glyph glyph-name="uni021A" horiz-adv-x="566" unicode="Ț" d="M235 -53h93l-71 -148h-59zM10 723h546v-76h-232v-647h-83v647h-231v76z"/>
<glyph glyph-name="uni021B" horiz-adv-x="430" unicode="ț" d="M183 -53h93l-71 -148h-59zM84 444h-64v65h64v121h78v-121h219v-65h-219v-319q0 -38 17.5 -53t61.5 -15q52 0 69.5 18t17.5 73q0 13 -1 35h70v-56q0 -66 -28 -94q-40 -40 -136 -40q-89 0 -125 43q-24 29 -24 82v326z"/>
<glyph glyph-name="dotlessj" horiz-adv-x="218" unicode="ȷ" d="M4 -192v61h7q35 0 47 17t12 66v557h78v-582q0 -61 -22 -88q-24 -32 -99 -32q-13 0 -23 1z"/>
<glyph glyph-name="circumflex" d="M121 714h92l100 -141h-80l-66 94l-66 -94h-80z" unicode="ˆ"/>
<glyph glyph-name="caron" d="M313 714l-100 -141h-92l-100 141h80l66 -94l66 94h80z" unicode="ˇ"/>
<glyph glyph-name="uni02C9" d="M10 606v58h313v-58h-313z" unicode="ˉ"/>
<glyph glyph-name="breve" d="M12 714h50q18 -77 106 -77q87 0 104 77h49q-7 -65 -47.5 -100.5t-108.5 -35.5q-70 0 -109.5 35t-43.5 101z" unicode="˘"/>
<glyph glyph-name="dotaccent" d="M127 601v85h78v-85h-78z" unicode="˙"/>
<glyph glyph-name="ring" d="M165 572q-44 0 -73 27t-29 74q0 45 29.5 73.5t73.5 28.5t73 -27t29 -74q0 -45 -29.5 -73.5t-73.5 -28.5zM166 612q26 0 43.5 17t17.5 45q0 27 -17.5 44t-44.5 17q-26 0 -43.5 -17t-17.5 -45q0 -27 17.5 -44t44.5 -17z" unicode="˚"/>
<glyph glyph-name="ogonek" d="M153 0h67q-84 -44 -84 -99q0 -24 14.5 -38t42.5 -14q22 0 45 6v-49q-25 -7 -53 -7q-50 0 -78.5 24.5t-28.5 65.5q0 71 75 111z" unicode="˛"/>
<glyph glyph-name="tilde" d="M285 698h51q-6 -49 -33.5 -79t-66.5 -30q-23 0 -68 16q-60 22 -79 22q-17 0 -29.5 -12.5t-17.5 -32.5h-47q5 50 33 79t71 29q33 0 90 -24q30 -13 48 -13q43 0 48 45z" unicode="˜"/>
<glyph glyph-name="hungarumlaut" d="M267 714h94l-121 -141h-67zM118 714h89l-111 -141h-67z" unicode="˝"/>
<glyph glyph-name="endash" horiz-adv-x="667" unicode="–" d="M667 235h-667v60h667v-60z"/>
<glyph glyph-name="emdash" horiz-adv-x="1000" unicode="—" d="M930 235h-860v60h860v-60z"/>
<glyph glyph-name="quoteleft" horiz-adv-x="222" unicode="‘" d="M154 723v-44q-20 -2 -27.5 -9t-7.5 -23v-28h33v-106h-84v126q0 46 19 64.5t67 19.5z"/>
<glyph glyph-name="quoteright" horiz-adv-x="222" unicode="’" d="M68 513v44q20 2 27.5 9t7.5 23v28h-33v106h84v-126q0 -46 -19 -64.5t-67 -19.5z"/>
<glyph glyph-name="quotesinglbase" horiz-adv-x="222" unicode="‚" d="M68 -104v44q20 2 27.5 9t7.5 23v28h-33v106h84v-126q0 -46 -19 -64.5t-67 -19.5z"/>
<glyph glyph-name="quotedblleft" horiz-adv-x="400" unicode="“" d="M154 723v-44q-20 -2 -27.5 -9t-7.5 -23v-28h33v-106h-84v126q0 46 19 64.5t67 19.5zM332 723v-44q-20 -2 -27.5 -9t-7.5 -23v-28h33v-106h-84v126q0 46 19 64.5t67 19.5z"/>
<glyph glyph-name="quotedblright" horiz-adv-x="400" unicode="”" d="M246 513v44q20 2 27.5 9t7.5 23v28h-33v106h84v-126q0 -46 -19 -64.5t-67 -19.5zM68 513v44q20 2 27.5 9t7.5 23v28h-33v106h84v-126q0 -46 -19 -64.5t-67 -19.5z"/>
<glyph glyph-name="quotedblbase" horiz-adv-x="400" unicode="„" d="M246 -104v44q20 2 27.5 9t7.5 23v28h-33v106h84v-126q0 -46 -19 -64.5t-67 -19.5zM68 -104v44q20 2 27.5 9t7.5 23v28h-33v106h84v-126q0 -46 -19 -64.5t-67 -19.5z"/>
<glyph glyph-name="bullet" d="M169 469q52 0 89 -37t37 -89q0 -54 -37.5 -92t-90.5 -38t-90.5 38t-37.5 92q0 53 37.5 89.5t92.5 36.5z" unicode="•"/>
<glyph glyph-name="guilsinglleft" d="M265 104h-81l-118 153l118 153h81l-118 -153z" unicode="‹"/>
<glyph glyph-name="guilsinglright" d="M267 257l-118 -153h-81l118 153l-118 153h81z" unicode="›"/>
<glyph glyph-name="fraction" horiz-adv-x="167" unicode="⁄" d="M269 729h65l-441 -738h-65z"/>
<glyph glyph-name="Euro" horiz-adv-x="667" unicode="€" d="M71 311h71v94h-95l24 67h71v8q0 137 52 193.5t184 56.5h77q126 0 174 -74l-35 -69q-45 71 -151 71h-56q-102 0 -132 -38t-30 -148h334l-24 -67h-310v-94h282l-24 -67h-258v-15q0 -90 32.5 -125.5t112.5 -35.5h100q43 0 74 15t68 56v-92q-46 -54 -134 -54h-126 q-97 0 -153.5 56t-56.5 167v28h-95z"/>
<glyph glyph-name="uni2215" horiz-adv-x="167" unicode="∕" d="M269 729h65l-441 -738h-65z"/>
</font>
</defs>
</svg>
