<?xml version="1.0" encoding="UTF-8" standalone="no"?>
<!DOCTYPE svg  PUBLIC '-//W3C//DTD SVG 1.1//EN'  'http://www.w3.org/Graphics/SVG/1.1/DTD/svg11.dtd'>
<svg xmlns="http://www.w3.org/2000/svg">
<defs>
<font id="EurostileLTPro-BoldCn" horiz-adv-x="500">
<font-face underline-position="-50" font-weight="700" descent="-200" panose-1="2 11 8 6 3 5 2 6 2 4" units-per-em="1000" unicode-range="U+0020-2215" font-stretch="condensed" bbox="-167 -230 953 964" x-height="509" underline-thickness="50" font-family="EurostileLTPro" ascent="800" cap-height="723"/>
<missing-glyph horiz-adv-x="1000"/>
<glyph glyph-name="IJ" horiz-adv-x="709" unicode="IJ" d="M294 260h145v-110q0 -17 5.5 -23.5t19.5 -6.5q17 0 22 8t5 37v558h169v-577q0 -86 -44 -121t-152 -35q-90 0 -130 28.5t-40 93.5v148zM57 0v723h167v-723h-167z"/>
<glyph glyph-name="ij" horiz-adv-x="477" unicode="ij" d="M237 -185v113h11q19 1 26.5 14.5t7.5 46.5v520h149v-565q0 -73 -30 -103.5t-103 -30.5q-29 0 -61 5zM431 723v-118h-149v118h149zM46 0v509h149v-509h-149zM46 605v118h149v-118h-149z"/>
<glyph glyph-name="napostrophe" horiz-adv-x="593" unicode='&quot;n' d="M11 405v79q33 5 46 19.5t13 46.5q0 8 -1 17h-60v155h146v-165q0 -151 -144 -152zM177 0v509h145v-51q35 60 112 60q68 0 97 -44q18 -27 18 -83v-391h-149v354q0 26 -7.5 35t-28.5 9q-38 0 -38 -29v-369h-149z"/>
<glyph glyph-name=".notdef" horiz-adv-x="1000"/>
<glyph glyph-name=".null" horiz-adv-x="1000"/>
<glyph glyph-name="nonmarkingreturn" horiz-adv-x="333"/>
<glyph glyph-name="space" horiz-adv-x="250" unicode=" "/>
<glyph glyph-name="exclam" horiz-adv-x="278" unicode="!" d="M64 0v157h150v-157h-150zM64 227v496h150v-496h-150z"/>
<glyph glyph-name="quotedbl" horiz-adv-x="350" unicode='&quot;' d="M199 723h122v-130l-33 -169h-58l-31 169v130zM29 723h122v-130l-33 -169h-58l-31 169v130z"/>
<glyph glyph-name="numbersign" d="M218 431l-29 -133h82l29 133h-82zM487 541v-110h-77l-29 -133h73v-109h-97l-40 -189h-110l40 189h-82l-40 -189h-110l40 189h-46v109h70l29 133h-66v110h90l39 182h110l-39 -182h82l39 182h110l-39 -182h53z" unicode="#"/>
<glyph glyph-name="dollar" d="M274 300v-184q30 0 38 10q9 12 9 88q0 46 -7.5 59t-39.5 27zM221 453v161q-29 0 -39 -13q-8 -11 -8 -64q0 -44 8.5 -59.5t38.5 -24.5zM31 235h133v-69q0 -27 11 -41q13 -8 34 -8v204l-20 5q-96 24 -126 61t-30 128q0 85 12.5 125t46.5 61q40 26 127 26v86h68v-86 q101 -3 132 -26q25 -18 32.5 -46t7.5 -101v-39h-131v57q0 26 -8.5 34t-35.5 8v-180l30 -9q97 -29 124 -65t27 -136q0 -75 -10.5 -114.5t-36.5 -65.5q-20 -19 -50 -27.5t-91 -13.5v-106h-72v106h-16q-41 0 -76.5 14.5t-53.5 39.5q-28 41 -28 97v81z" unicode="$"/>
<glyph glyph-name="percent" horiz-adv-x="870" unicode="%" d="M728 135v171q0 30 -42 30q-46 0 -46 -32v-174q0 -21 9.5 -29t34.5 -8q27 0 35.5 8t8.5 34zM528 108v218q0 66 36.5 94t121.5 28q94 0 128 -41q26 -30 26 -122v-153q0 -82 -35 -113t-128 -31q-79 0 -114 28.5t-35 91.5zM556 731h103l-345 -740h-103zM228 420v171 q0 30 -42 30q-46 0 -46 -32v-174q0 -21 9.5 -29t34.5 -8q27 0 35.5 8t8.5 34zM28 393v218q0 66 36.5 94t121.5 28q94 0 128 -41q26 -30 26 -122v-153q0 -82 -35 -113t-128 -31q-79 0 -114 28.5t-35 91.5z"/>
<glyph glyph-name="ampersand" horiz-adv-x="556" unicode="&amp;" d="M319 170l-92 129q-5 5 -9 5q-13 0 -21 -11q-7 -8 -8.5 -19t-1.5 -51q0 -82 7 -95q10 -17 50 -17q52 0 67 7t15 32q0 11 -7 20zM558 74l-110 -82q-19 19 -28 40q-23 -25 -54 -32t-114 -7q-84 0 -119.5 8t-59.5 32q-36 37 -36 101v146q0 119 112 132q-45 58 -60 92.5 t-15 76.5q0 83 38 118q33 32 127 32q72 0 108.5 -7t57.5 -25t29.5 -46t8.5 -80q0 -27 -1 -43h-138v45q0 23 -10 31.5t-36 8.5q-22 0 -30.5 -8t-8.5 -28q0 -24 14 -46l111 -156v67h127v-247z"/>
<glyph glyph-name="quotesingle" horiz-adv-x="200" unicode="&apos;" d="M39 723h122v-130l-33 -169h-58l-31 169v130z"/>
<glyph glyph-name="parenleft" horiz-adv-x="250" unicode="(" d="M41 194v335q0 106 40.5 156t144.5 50h17v-117q-31 -1 -40.5 -15.5t-9.5 -51.5v-379q0 -36 9.5 -50.5t40.5 -16.5v-117h-17q-109 2 -147 49t-38 157z"/>
<glyph glyph-name="parenright" horiz-adv-x="250" unicode=")" d="M209 529v-335q0 -106 -40.5 -156t-144.5 -50h-17v117q31 1 40.5 15.5t9.5 51.5v379q0 36 -9.5 50.5t-40.5 16.5v117h17q109 -2 147 -49t38 -157z"/>
<glyph glyph-name="asterisk" horiz-adv-x="460" unicode="*" d="M169 537v-81l62 -47l61 47v79l-61 55zM162 454l-139 -12v109l143 -12l-87 146l105 49l47 -138l47 138l101 -49l-81 -146l139 12v-109l-139 12l86 -143l-104 -46l-49 139l-47 -139l-100 46z"/>
<glyph glyph-name="plus" d="M37 336h146v178h133v-178h147v-128h-147v-178h-133v178h-146v128z" unicode="+"/>
<glyph glyph-name="comma" horiz-adv-x="250" unicode="," d="M47 -162v79q33 5 46 19.5t13 46.5q0 8 -1 17h-60v155h146v-165q0 -151 -144 -152z"/>
<glyph glyph-name="hyphen" horiz-adv-x="333" unicode="-" d="M35 201v132h262v-132h-262z"/>
<glyph glyph-name="period" horiz-adv-x="250" unicode="." d="M44 0v157h148v-157h-148z"/>
<glyph glyph-name="slash" horiz-adv-x="296" unicode="/" d="M220 733h109l-257 -745h-109z"/>
<glyph glyph-name="zero" d="M208 585v-439q0 -21 8 -28.5t30 -7.5q28 0 37 8t9 32v439q0 14 -9.5 20t-31.5 6q-25 0 -34 -6.5t-9 -23.5zM458 537v-367q0 -109 -43.5 -145.5t-172.5 -36.5q-125 0 -166 47q-34 37 -34 95v445q0 74 39 113q46 45 173 45q120 0 162 -40.5t42 -155.5z" unicode="0"/>
<glyph glyph-name="one" d="M380 723v-723h-167v598l-109 -162l-89 87l154 200h211z" unicode="1"/>
<glyph glyph-name="two" d="M211 458h-156v123q0 73 35 110q41 42 164 42q118 0 157 -40q19 -20 26 -53t7 -105q0 -96 -2.5 -128.5t-12.5 -54.5q-11 -24 -34.5 -41.5t-78.5 -42.5q-75 -34 -92 -57t-17 -86h232v-125h-391v140q0 86 29 130t111 84l56 28q23 11 30 29q5 15 5 118q0 56 -5.5 69.5 t-28.5 13.5q-24 0 -30 -13t-6 -86q0 -4 0.5 -11t1 -20t0.5 -24z" unicode="2"/>
<glyph glyph-name="three" d="M37 241h156v-79q0 -29 9 -39.5t34 -10.5q31 0 39 14q9 15 9 99q0 71 -19 81q-20 9 -79 9q-12 0 -38 -2v119h12q86 0 101 14q16 16 16 87q0 55 -6.5 68t-33.5 13q-25 0 -33 -8t-8 -32v-61h-152q-2 21 -2 44q0 90 27 124q42 52 172 52q108 0 155 -37q23 -19 32 -48t9 -82 q0 -106 -17.5 -140t-78.5 -44q49 -7 73 -32q18 -20 24.5 -47t6.5 -85q0 -77 -4.5 -109.5t-18.5 -54.5q-39 -65 -195 -65q-71 0 -111 13.5t-60 45.5q-19 28 -19 108v85z" unicode="3"/>
<glyph glyph-name="four" d="M148 272h122v361zM179 723h252v-453h39v-123h-39v-147h-161v147h-249v174z" unicode="4"/>
<glyph glyph-name="five" d="M51 219h154v-66q0 -23 8.5 -32.5t28.5 -9.5q25 0 32 10q6 8 6 34v197q0 23 -7.5 30t-32.5 7q-31 0 -38 -15q-3 -6 -4 -44h-140v393h359v-122h-211v-144q27 29 48.5 38.5t60.5 9.5q84 0 110 -42q16 -26 19 -57q5 -32 5 -175q0 -96 -6.5 -132.5t-27.5 -60.5 q-42 -49 -181 -49q-109 0 -151 42q-34 35 -34 136q0 12 2 52z" unicode="5"/>
<glyph glyph-name="six" d="M295 152v147q0 27 -8.5 36.5t-32.5 9.5q-45 0 -45 -32v-169q0 -20 9 -28t32 -8q28 0 36.5 8.5t8.5 35.5zM441 531h-147v23q0 44 -6.5 55t-34.5 11q-44 0 -44 -27v-182q36 47 110 47q59 0 90.5 -19.5t41.5 -60.5q5 -22 5 -70v-148q0 -106 -43.5 -138.5t-185.5 -32.5 q-109 0 -151 41q-31 31 -31 77v491q0 64 38 99q42 36 161 36q123 0 164 -31q20 -16 26.5 -38t6.5 -71v-62z" unicode="6"/>
<glyph glyph-name="seven" d="M51 723h368v-122l-155 -601h-168l159 601h-204v122z" unicode="7"/>
<glyph glyph-name="eight" d="M292 146v132q0 34 -46 34t-46 -31v-142q0 -19 9.5 -26.5t32.5 -7.5q28 0 39 9t11 32zM202 585v-129q0 -20 10.5 -27t39.5 -7q46 0 46 33v130q0 19 -11 26.5t-37 7.5q-27 0 -37.5 -7.5t-10.5 -26.5zM140 376q-53 9 -74.5 46t-21.5 119q0 110 43 151.5t155 41.5 q125 0 174 -43q22 -20 31 -51.5t9 -92.5q0 -93 -19.5 -126t-76.5 -47q58 -15 78 -48t20 -126q0 -71 -9 -106.5t-34 -58.5q-51 -47 -167 -47t-165.5 47t-49.5 156q0 94 22.5 132.5t84.5 52.5z" unicode="8"/>
<glyph glyph-name="nine" d="M198 583v-150q0 -30 44 -30q50 0 50 34v148q0 19 -9.5 25.5t-36.5 6.5q-26 0 -37 -7.5t-11 -26.5zM39 218h158v-66q0 -24 8 -32.5t31 -8.5q32 0 42.5 8.5t10.5 34.5v190q-18 -29 -42.5 -40.5t-68.5 -11.5q-86 0 -117 36q-16 18 -22.5 53.5t-6.5 107.5q0 91 7.5 135.5 t27.5 67.5q37 43 167 43t175.5 -29t45.5 -111v-362q0 -143 -34 -189q-22 -30 -66.5 -42.5t-130.5 -12.5q-68 0 -103.5 8.5t-54.5 29.5q-27 28 -27 88v103z" unicode="9"/>
<glyph glyph-name="colon" horiz-adv-x="250" unicode=":" d="M51 356v156h148v-156h-148zM51 0v157h148v-157h-148z"/>
<glyph glyph-name="semicolon" horiz-adv-x="250" unicode=";" d="M53 -162v79q33 5 46 19.5t13 46.5q0 8 -1 17h-60v155h146v-165q0 -151 -144 -152zM51 356v156h148v-156h-148z"/>
<glyph glyph-name="less" d="M37 220v96l420 179v-133l-247 -91l247 -97v-132z" unicode="&lt;"/>
<glyph glyph-name="equal" d="M44 226h412v-120h-412v120zM44 443h412v-120h-412v120z" unicode="="/>
<glyph glyph-name="greater" d="M463 316v-96l-420 -179v133l247 91l-247 97v132z" unicode="&gt;"/>
<glyph glyph-name="question" horiz-adv-x="426" unicode="?" d="M115 0v157h155v-157h-155zM164 512h-156q-1 15 -1 34q0 106 25 143q19 29 57 40.5t114 11.5q147 0 180 -53q25 -41 25 -166q0 -70 -14 -103.5t-54 -59.5l-35 -22q-25 -16 -30 -28t-5 -53v-29h-153v72q0 59 14 79t92 75q23 16 23 88q0 55 -6.5 68.5t-32.5 13.5 q-25 0 -34 -7.5t-9 -28.5v-75z"/>
<glyph glyph-name="at" horiz-adv-x="777" unicode="@" d="M408 319q-24 0 -35.5 -18t-18.5 -70q-5 -32 -5 -67q0 -54 37 -54q23 0 34.5 17t16.5 57l6 55q2 20 2 29q0 51 -37 51zM378 426q72 0 86 -66l9 53h112l-41 -254q-4 -21 -4 -39q0 -28 19 -28q29 0 50.5 49t21.5 143q0 120 -49.5 176.5t-160.5 56.5q-251 0 -251 -350 q0 -127 56 -191.5t187 -64.5q86 0 189 30v-103q-107 -28 -203 -28q-178 0 -268.5 91.5t-90.5 265.5q0 217 94.5 334.5t291.5 117.5q155 0 235.5 -84.5t80.5 -247.5q0 -138 -59 -212.5t-139 -74.5q-75 0 -88 74q-29 -74 -108 -74q-122 0 -122 134q0 59 6 103q14 105 50 147 t96 42z"/>
<glyph glyph-name="A" horiz-adv-x="509" unicode="A" d="M212 297h80l-42 326zM118 723h270l110 -723h-170l-22 175h-107l-20 -175h-168z"/>
<glyph glyph-name="B" horiz-adv-x="532" unicode="B" d="M220 312v-189q14 -1 33 -1q49 0 59 10.5t10 59.5q0 79 -3 94q-4 17 -16 22t-46 5q-9 0 -17 -0.5t-13.5 -0.5h-6.5zM220 600v-172q11 -1 30 -1q48 0 57.5 14.5t9.5 88.5q0 50 -10 60.5t-58 10.5q-18 0 -29 -1zM55 723h241q109 0 145 -28q24 -18 33.5 -52.5t9.5 -102.5 q0 -85 -21.5 -117.5t-86.5 -46.5q68 -11 92 -48t24 -132q0 -88 -21.5 -132t-71.5 -58q-23 -6 -104 -6h-240v723z"/>
<glyph glyph-name="C" horiz-adv-x="502" unicode="C" d="M461 477h-155q0 74 -3 104q-4 24 -38 24q-42 0 -42 -30v-420q0 -23 8 -30.5t33 -7.5t34 9.5t9 35.5v105h154v-50q0 -85 -7 -124t-29 -62q-42 -43 -169 -43q-138 0 -179 49q-30 39 -30 98v421q0 95 37 135q22 25 59.5 34.5t108.5 9.5q91 0 137.5 -16t61.5 -52 q11 -28 11 -130q0 -33 -1 -60z"/>
<glyph glyph-name="D" horiz-adv-x="521" unicode="D" d="M222 598v-468h36q22 0 30.5 4t13.5 19q3 12 3 146v202q0 72 -8 85t-51 13q-14 0 -24 -1zM55 0v723h213q114 0 160 -46t46 -177v-220q0 -117 -15.5 -175t-53 -81.5t-113.5 -23.5h-237z"/>
<glyph glyph-name="E" horiz-adv-x="410" unicode="E" d="M55 0v723h319v-127h-152v-164h141v-125h-141v-176h164v-131h-331z"/>
<glyph glyph-name="F" horiz-adv-x="392" unicode="F" d="M55 0v723h315v-129h-148v-183h134v-130h-134v-281h-167z"/>
<glyph glyph-name="G" horiz-adv-x="523" unicode="G" d="M476 491h-166v73q0 26 -9.5 35t-38.5 9q-46 0 -46 -36v-425q0 -17 11 -23t45 -6q27 0 36.5 7.5t9.5 27.5v105h-51v132h211v-234q0 -100 -44.5 -134t-176.5 -34q-133 0 -176 50q-34 39 -34 124v415q0 31 11 63.5t28 49.5q44 45 166 45q133 0 179 -39q45 -38 45 -162v-43z "/>
<glyph glyph-name="H" horiz-adv-x="538" unicode="H" d="M55 0v723h167v-282h94v282h167v-723h-167v311h-94v-311h-167z"/>
<glyph glyph-name="I" horiz-adv-x="281" unicode="I" d="M57 0v723h167v-723h-167z"/>
<glyph glyph-name="J" horiz-adv-x="433" unicode="J" d="M18 260h145v-110q0 -17 5.5 -23.5t19.5 -6.5q17 0 22 8t5 37v558h169v-577q0 -86 -44 -121t-152 -35q-90 0 -130 28.5t-40 93.5v148z"/>
<glyph glyph-name="K" horiz-adv-x="516" unicode="K" d="M55 0v723h167v-307l109 307h175l-142 -344l160 -379h-176l-126 323v-323h-167z"/>
<glyph glyph-name="L" horiz-adv-x="392" unicode="L" d="M55 0v723h167v-590h159v-133h-326z"/>
<glyph glyph-name="M" horiz-adv-x="789" unicode="M" d="M53 0v723h266l74 -566l86 566h257v-723h-153l9 610l-110 -610h-186l-95 612v-612h-148z"/>
<glyph glyph-name="N" horiz-adv-x="618" unicode="N" d="M53 0v723h243l123 -563l-12 563h158v-723h-243l-124 566l10 -566h-155z"/>
<glyph glyph-name="O" horiz-adv-x="522" unicode="O" d="M304 160v415q0 20 -9.5 28t-32.5 8q-24 0 -34 -8t-10 -27v-424q0 -20 9 -28t32 -8q26 0 35.5 9t9.5 35zM47 142v436q0 71 39 113q23 24 59 34t100 10q151 0 196 -48q34 -37 34 -104v-384q0 -127 -44.5 -169t-177.5 -42q-71 0 -110.5 12t-63.5 40q-32 38 -32 102z"/>
<glyph glyph-name="P" horiz-adv-x="508" unicode="P" d="M222 596v-260h40q26 0 35.5 12.5t9.5 46.5v176q0 15 -13 21q-11 4 -53 4h-19zM55 0v723h237q97 0 140 -40q26 -25 36 -64.5t10 -117.5q0 -124 -10.5 -176t-41.5 -79q-42 -37 -139 -37h-65v-209h-167z"/>
<glyph glyph-name="Q" horiz-adv-x="522" unicode="Q" d="M260 116q42 0 48 31l-77 111l51 67l27 -38v288q0 36 -45 36q-46 0 -46 -35v-424q0 -20 9.5 -28t32.5 -8zM442 -46l-40 56q-47 -22 -149 -22q-71 0 -110.5 12t-63.5 40q-32 38 -32 102v436q0 31 11 64t28 50q23 24 58.5 33.5t100.5 9.5q151 0 196 -48q34 -37 34 -104v-384 q0 -78 -16 -123l39 -53z"/>
<glyph glyph-name="R" horiz-adv-x="535" unicode="R" d="M220 598v-227h17q57 0 70 15q12 12 12 83q0 75 -2.5 93.5t-13.5 26.5q-13 10 -60 10q-10 0 -23 -1zM55 0v723h224q124 0 171 -46q22 -21 30 -58.5t8 -116.5q0 -99 -22 -134t-93 -52q67 -16 88.5 -40.5t21.5 -85.5v-190h-163v197q0 35 -17.5 44.5t-82.5 9.5v-251h-165z "/>
<glyph glyph-name="S" horiz-adv-x="489" unicode="S" d="M38 237h151v-31q0 -66 6 -76q8 -14 43 -14q33 0 43 13q7 9 7 60q0 75 -9 88q-9 15 -63 28l-58 15q-75 19 -99 57t-24 135q0 79 3.5 107.5t15.5 51.5q19 34 58.5 48.5t113.5 14.5q131 0 172 -32.5t41 -135.5q0 -41 -1 -61h-148v19q0 63 -6.5 76t-37.5 13q-37 0 -44 -12.5 t-7 -76.5q0 -47 16.5 -61.5t91.5 -33.5q78 -19 110 -49q23 -22 32 -61.5t9 -115.5q0 -116 -37 -161q-26 -30 -63.5 -42t-106.5 -12q-145 0 -186 60q-26 36 -26 138q0 23 3 51z"/>
<glyph glyph-name="T" horiz-adv-x="414" unicode="T" d="M8 723h398v-132h-116v-591h-167v591h-115v132z"/>
<glyph glyph-name="U" horiz-adv-x="518" unicode="U" d="M49 723h168v-561q0 -24 9 -33.5t33 -9.5q23 0 32.5 11.5t9.5 38.5v554h168v-543q0 -102 -36 -142q-43 -49 -184 -49q-62 0 -98.5 10.5t-62.5 36.5q-24 24 -31.5 52t-7.5 78v557z"/>
<glyph glyph-name="V" horiz-adv-x="493" unicode="V" d="M10 723h170l66 -636l66 636h169l-96 -723h-279z"/>
<glyph glyph-name="W" horiz-adv-x="794" unicode="W" d="M11 723h160l49 -614l65 614h224l70 -612l44 612h159l-81 -723h-234l-71 600l-64 -600h-234z"/>
<glyph glyph-name="X" horiz-adv-x="479" unicode="X" d="M16 723h164l56 -302l59 302h163l-82 -341l91 -382h-169l-62 323l-59 -323h-168l88 377z"/>
<glyph glyph-name="Y" horiz-adv-x="443" unicode="Y" d="M307 0h-167v234l-151 489h165l68 -325l66 325h165l-146 -480v-243z"/>
<glyph glyph-name="Z" horiz-adv-x="400" unicode="Z" d="M379 0h-363v126l186 472h-168v125h345v-119l-189 -476h189v-128z"/>
<glyph glyph-name="bracketleft" horiz-adv-x="250" unicode="[" d="M46 0v723h194v-115h-51v-493h51v-115h-194z"/>
<glyph glyph-name="backslash" horiz-adv-x="250" unicode="\" d="M151 -9l-151 740h99l151 -740h-99z"/>
<glyph glyph-name="bracketright" horiz-adv-x="250" unicode="]" d="M204 722v-723h-194v115h51v493h-51v115h194z"/>
<glyph glyph-name="asciicircum" horiz-adv-x="400" unicode="^" d="M113 333h-126l161 390h106l159 -390h-130l-84 228z"/>
<glyph glyph-name="underscore" d="M500 -75v-50h-500v50h500z" unicode="_"/>
<glyph glyph-name="grave" horiz-adv-x="241" unicode="`" d="M110 723l94 -146h-101l-148 146h155z"/>
<glyph glyph-name="a" horiz-adv-x="444" unicode="a" d="M215 222q-24 0 -30 -11q-6 -8 -6 -55q0 -32 7.5 -42t29.5 -10q21 0 29 11q6 11 6 61q0 28 -7 37t-29 9zM251 281v112q0 22 -37 22t-37 -24v-30h-127v68q0 49 35 69t121 20q114 0 154 -28.5t40 -108.5v-381h-142v44q-23 -30 -46 -41.5t-60 -11.5q-69 0 -96.5 36.5 t-27.5 128.5q0 87 28.5 122t98.5 35q54 0 96 -32z"/>
<glyph glyph-name="b" horiz-adv-x="460" unicode="b" d="M266 148v228q0 25 -34 25q-35 0 -35 -26v-236q0 -29 35 -29q21 0 27.5 7t6.5 31zM48 0v723h149v-258q40 53 109 53q112 0 112 -107v-268q0 -92 -27 -119q-33 -33 -96 -33q-39 0 -62.5 14t-42.5 49v-54h-142z"/>
<glyph glyph-name="c" horiz-adv-x="438" unicode="c" d="M400 332h-133v36q0 19 -7.5 27t-25.5 8q-20 0 -28 -7t-8 -24v-226q0 -22 7.5 -31t25.5 -9q21 0 29 11.5t8 41.5v39h139v-42q0 -59 -5.5 -85t-23.5 -42q-41 -38 -149 -38q-116 0 -154 44q-20 24 -28.5 66.5t-8.5 123.5q0 172 17 216q28 77 155 77q112 0 155 -31 q20 -15 27.5 -34.5t7.5 -61.5v-59z"/>
<glyph glyph-name="d" horiz-adv-x="460" unicode="d" d="M263 139v237q0 25 -36 25q-33 0 -33 -25v-228q0 -21 6.5 -29.5t23.5 -8.5q23 0 31 6t8 23zM412 0h-142v54q-18 -34 -42 -48.5t-62 -14.5q-72 0 -98 32q-16 19 -21 45t-5 75v268q0 55 27 81t84 26q71 0 110 -53v258h149v-723z"/>
<glyph glyph-name="e" horiz-adv-x="462" unicode="e" d="M192 315h82v72q0 15 -9.5 21.5t-32.5 6.5q-40 0 -40 -31v-69zM425 219h-233v-86q0 -18 9 -25t31 -7q29 0 37.5 7t8.5 32v21h148q0 -56 -4.5 -80t-17.5 -41q-38 -49 -169 -49q-107 0 -152 34t-45 114v206q0 89 32 127q40 46 159 46q127 0 169 -47q27 -31 27 -95v-157z"/>
<glyph glyph-name="f" horiz-adv-x="288" unicode="f" d="M61 395h-43v114h43v100q0 57 40 89t111 32q40 0 68 -6v-106q-14 2 -20 2q-50 0 -50 -41v-70h71v-114h-71v-395h-149v395z"/>
<glyph glyph-name="g" horiz-adv-x="460" unicode="g" d="M265 138v237q0 17 -8 23.5t-28 6.5q-19 0 -27 -8t-8 -28v-234q0 -33 37 -33q19 0 26.5 8t7.5 28zM60 -50h128v-7q0 -16 7.5 -21.5t28.5 -5.5q36 0 39 22q1 1 1 104q-43 -48 -102 -48q-118 0 -118 137v225q0 88 27 125t90 37q70 0 115 -55v46h138v-546q0 -85 -41.5 -119 t-144.5 -34q-94 0 -131 27t-37 96v17z"/>
<glyph glyph-name="h" horiz-adv-x="464" unicode="h" d="M48 0v723h149v-267q19 33 44 47.5t64 14.5q65 0 94 -40q21 -29 21 -77v-401h-149v360q0 21 -8 29.5t-28 8.5q-38 0 -38 -30v-368h-149z"/>
<glyph glyph-name="i" horiz-adv-x="241" unicode="i" d="M46 0v509h149v-509h-149zM46 605v118h149v-118h-149z"/>
<glyph glyph-name="j" horiz-adv-x="241" unicode="j" d="M1 -185v113h11q19 1 26.5 14.5t7.5 46.5v520h149v-565q0 -73 -30 -103.5t-103 -30.5q-29 0 -61 5zM195 723v-118h-149v118h149z"/>
<glyph glyph-name="k" horiz-adv-x="431" unicode="k" d="M48 0v723h149v-400l69 186h146l-76 -223l100 -286h-158l-81 253v-253h-149z"/>
<glyph glyph-name="l" horiz-adv-x="245" unicode="l" d="M48 0v723h149v-723h-149z"/>
<glyph glyph-name="m" horiz-adv-x="685" unicode="m" d="M46 0v509h145v-50q25 33 50.5 46t67.5 13q74 0 100 -65q42 65 118 65q57 0 85.5 -29.5t28.5 -82.5v-406h-149v361q0 37 -37 37t-37 -35v-363h-149v359q0 22 -7.5 30.5t-27.5 8.5q-39 0 -39 -36v-362h-149z"/>
<glyph glyph-name="n" horiz-adv-x="462" unicode="n" d="M46 0v509h145v-51q35 60 112 60q68 0 97 -44q18 -27 18 -83v-391h-149v354q0 26 -7.5 35t-28.5 9q-38 0 -38 -29v-369h-149z"/>
<glyph glyph-name="o" horiz-adv-x="465" unicode="o" d="M273 155v211q0 26 -8 34t-33 8q-40 0 -40 -28v-234q0 -23 8 -32t29 -9q26 0 35 10.5t9 39.5zM38 179v162q0 102 41 139.5t153 37.5q127 0 168 -50q27 -35 27 -118v-184q0 -94 -35 -130q-23 -25 -61 -35t-110 -10q-67 0 -103 13.5t-56 45.5q-24 39 -24 129z"/>
<glyph glyph-name="p" horiz-adv-x="458" unicode="p" d="M264 148v212q0 23 -7 32t-26 9q-21 0 -28.5 -9.5t-7.5 -37.5v-214q0 -30 35 -30q20 0 27 7.5t7 30.5zM46 -189v698h141v-55q37 64 114 64q69 0 97 -49q18 -31 18 -107v-242q0 -68 -28 -98.5t-90 -30.5q-73 0 -104 57v-237h-148z"/>
<glyph glyph-name="q" horiz-adv-x="458" unicode="q" d="M263 140v226q0 20 -7.5 27.5t-27.5 7.5t-27 -8.5t-7 -32.5v-212q0 -23 7 -30.5t27 -7.5q35 0 35 30zM412 -189h-148v237q-31 -57 -103 -57q-62 0 -90.5 31t-28.5 99v240q0 84 27 120.5t89 36.5q41 0 67 -14.5t46 -49.5v55h141v-698z"/>
<glyph glyph-name="r" horiz-adv-x="392" unicode="r" d="M46 0v509h145v-51q20 60 93 60q63 0 81 -25q9 -12 11.5 -31.5t2.5 -76.5q0 -41 -3 -82h-119v65q0 19 -5.5 25.5t-22.5 6.5q-34 0 -34 -31v-369h-149z"/>
<glyph glyph-name="s" horiz-adv-x="418" unicode="s" d="M36 156h135v-27q0 -31 36 -31q20 0 27 9t7 34q0 31 -8 39.5t-43 14.5q-60 11 -82.5 17.5t-37.5 19.5q-21 18 -28.5 44.5t-7.5 81.5q0 89 29 122q19 22 48.5 30t87.5 8q113 0 146 -26q31 -25 31 -104v-28h-130v28q0 27 -32 27q-21 0 -28 -7.5t-7 -32.5q0 -28 9 -36t47 -15 q77 -14 105 -26q26 -12 37 -41.5t11 -88.5q0 -106 -36 -141.5t-146 -35.5q-101 0 -136.5 27.5t-35.5 106.5q0 17 2 31z"/>
<glyph glyph-name="t" horiz-adv-x="298" unicode="t" d="M12 395v114h44v133h150v-133h84v-114h-84v-257q0 -33 36 -33q13 0 39 4v-113q-52 -5 -98 -5q-127 0 -127 103v301h-44z"/>
<glyph glyph-name="u" horiz-adv-x="462" unicode="u" d="M267 509h149v-509h-149v61q-14 -37 -39.5 -53.5t-68.5 -16.5q-56 0 -85.5 26t-29.5 75v417h149v-359q0 -20 8.5 -29t27.5 -9q38 0 38 44v353z"/>
<glyph glyph-name="v" horiz-adv-x="409" unicode="v" d="M11 509h148l45 -420l47 420h147l-77 -509h-236z"/>
<glyph glyph-name="w" horiz-adv-x="700" unicode="w" d="M687 509l-73 -509h-220l-44 405l-40 -405h-219l-78 509h140l51 -414l41 414h211l44 -414l48 414h139z"/>
<glyph glyph-name="x" horiz-adv-x="403" unicode="x" d="M16 509h145l42 -211l40 211h144l-63 -237l73 -272h-150l-48 222l-49 -222h-148l75 276z"/>
<glyph glyph-name="y" horiz-adv-x="409" unicode="y" d="M11 509h149l43 -418l47 418h148l-81 -556q-11 -78 -47 -110.5t-111 -32.5q-56 0 -76 14v100q19 -7 42 -7q31 0 41 15t15 68h-99z"/>
<glyph glyph-name="z" horiz-adv-x="343" unicode="z" d="M321 0h-303v111l143 294h-134v104h287v-122l-137 -278h144v-109z"/>
<glyph glyph-name="braceleft" horiz-adv-x="250" unicode="{" d="M4 252v95q60 8 60 63q0 22 -2.5 78t-2.5 77q0 91 40.5 124.5t141.5 33.5v-125q-29 0 -39.5 -14t-10.5 -56q0 -17 1.5 -62.5t1.5 -63.5q0 -20 -2 -33t-9.5 -28.5t-24.5 -26t-44 -16.5q46 -8 63 -32.5t17 -70.5q0 -8 -1.5 -49.5t-1.5 -65.5q0 -82 50 -82v-123 q-105 0 -143 38t-38 119q0 33 2 83.5t2 73.5q0 55 -60 63z"/>
<glyph glyph-name="bar" horiz-adv-x="250" unicode="|" d="M54 740h141v-830h-141v830z"/>
<glyph glyph-name="braceright" horiz-adv-x="250" unicode="}" d="M246 346v-95q-60 -8 -60 -63q0 -22 2.5 -78t2.5 -77q0 -91 -40.5 -124.5t-141.5 -33.5v125q29 0 39.5 14t10.5 56q0 17 -1.5 62.5t-1.5 63.5q0 20 2 33t9.5 28.5t24.5 26t44 16.5q-46 8 -63 32.5t-17 70.5q0 8 1.5 49.5t1.5 65.5q0 82 -50 82v123q105 0 143 -38t38 -119 q0 -33 -2 -83.5t-2 -73.5q0 -55 60 -63z"/>
<glyph glyph-name="asciitilde" d="M338 315q38 0 40 75h92q0 -113 -33 -161.5t-94 -48.5q-33 0 -68.5 19t-65.5 37.5t-48 18.5q-37 0 -39 -74h-92q0 210 127 210q33 0 71.5 -19t68 -38t41.5 -19z" unicode="~"/>
<glyph glyph-name="uni00A0" horiz-adv-x="250" unicode=" "/>
<glyph glyph-name="exclamdown" horiz-adv-x="278" unicode="¡" d="M214 509v-157h-150v157h150zM214 282v-471h-150v471h150z"/>
<glyph glyph-name="cent" d="M199 224l82 193q-23 5 -35 5q-26 0 -36.5 -8t-10.5 -29v-161zM323 518l52 114h65l-59 -138q21 -20 28.5 -44t7.5 -75v-32h-108l-100 -234q6 -1 21 -1q48 0 55 20q4 12 4 80h132q1 -27 1 -60q0 -54 -11 -82t-40 -44q-39 -22 -140 -22q-33 0 -63 5l-51 -123h-66l59 142 q-30 24 -42 57t-12 90v200q0 86 40.5 121t141.5 35q41 0 85 -9z" unicode="¢"/>
<glyph glyph-name="sterling" d="M35 0v124q40 0 55 15q10 11 12.5 24t2.5 53q0 28 -1 46h-69v120h63q-7 124 -7 166q0 62 8 92.5t28 50.5q47 42 152 42q132 0 172 -64q21 -31 21 -113q0 -16 -1 -37h-149v63q0 33 -34 33q-39 0 -39 -35q0 -8 2 -42l10 -156h124v-120h-119q1 -12 1 -23q0 -50 -12 -112h218 v-127h-438z" unicode="£"/>
<glyph glyph-name="currency" d="M251 110q-65 0 -113 36l-54 -69l-74 76l63 61q-34 48 -34 127q0 75 31 116l-67 62l74 82l63 -70q44 35 110 35q65 0 113 -36l54 69l74 -76l-63 -61q35 -50 35 -127q0 -73 -32 -116l67 -62l-74 -82l-63 70q-44 -35 -110 -35zM251 230q38 0 61 28.5t23 76.5q0 53 -23.5 82 t-60.5 29q-39 0 -62 -28.5t-23 -76.5q0 -53 23.5 -82t61.5 -29z" unicode="¤"/>
<glyph glyph-name="yen" d="M334 0h-167v98h-131v111h131v80h-131v111h86l-106 323h165l68 -295l66 295h165l-105 -323h95v-111h-136v-80h136v-111h-136v-98z" unicode="¥"/>
<glyph glyph-name="brokenbar" horiz-adv-x="250" unicode="¦" d="M49 740h151v-350h-151v350zM49 260h151v-350h-151v350z"/>
<glyph glyph-name="section" d="M171 426q-18 -11 -18 -33q0 -19 15.5 -30t63.5 -28q77 -26 92 -41q19 5 19 33q0 25 -26 41q-16 10 -88 35q-49 17 -58 23zM44 145h147q-1 -13 -1 -22q0 -28 44 -28q30 0 41 7.5t11 25.5q0 20 -12 30.5t-48 22.5q-82 30 -115 46q-82 42 -82 124q0 85 78 123 q-45 41 -45 113q0 67 42 106q45 40 148 40q98 0 144 -30.5t46 -96.5q0 -16 -1 -25h-141v9q0 20 -8.5 27t-33.5 7q-44 0 -44 -32q0 -31 27 -43q18 -8 84 -30q44 -14 62 -22.5t36 -23.5q45 -37 45 -111q0 -90 -70 -122q44 -43 44 -109q0 -77 -40 -110q-43 -33 -157 -33 q-134 0 -172 41q-30 30 -30 93q0 14 1 23z" unicode="§"/>
<glyph glyph-name="dieresis" horiz-adv-x="241" unicode="¨" d="M154 586v116h127v-116h-127zM-42 586v116h127v-116h-127z"/>
<glyph glyph-name="copyright" horiz-adv-x="800" unicode="©" d="M563 414h-117v23q0 42 -44 42q-24 0 -33.5 -12.5t-9.5 -53.5v-104q0 -36 9.5 -48t33.5 -12t35 9t11 30v36h117v-22q0 -71 -32.5 -112t-92.5 -41h-59q-71 0 -106 33.5t-35 106.5v139q0 80 34 115t107 35h59q123 0 123 -138v-26zM63 362q0 167 89 267.5t249 100.5t248 -101 t88 -269q0 -167 -89 -267.5t-249 -100.5t-248 101t-88 269zM144 362q0 -136 65 -215.5t190 -79.5q129 0 193 78t64 215q0 136 -65 215.5t-190 79.5q-128 0 -192.5 -78t-64.5 -215z"/>
<glyph glyph-name="ordfeminine" horiz-adv-x="350" unicode="ª" d="M175 520q-13 0 -17.5 -8.5t-4.5 -32.5q0 -19 4.5 -26t18.5 -7t18 7.5t4 38.5q0 16 -4.5 22t-18.5 6zM198 567v75q0 15 -23 15q-24 0 -24 -17v-16h-102v42q0 36 28.5 52.5t91.5 16.5q88 0 117.5 -20t29.5 -77v-270h-113v32q-17 -23 -30.5 -30.5t-38.5 -7.5 q-54 0 -77.5 26.5t-23.5 90.5q0 60 25.5 85.5t77.5 25.5q34 0 62 -23z"/>
<glyph glyph-name="guillemotleft" d="M316 435h151l-87 -175l91 -179h-153l-88 175zM113 435h151l-88 -175l90 -179h-153l-87 175z" unicode="«"/>
<glyph glyph-name="logicalnot" d="M37 440h406v-335h-137v207h-269v128z" unicode="¬"/>
<glyph glyph-name="uni00AD" horiz-adv-x="333" unicode="­" d="M35 201v132h262v-132h-262z"/>
<glyph glyph-name="registered" horiz-adv-x="440" unicode="®" d="M203 546h19q25 0 25 20q0 22 -29 22h-15v-42zM147 436v198h85q72 0 72 -59q0 -40 -40 -50q39 -13 39 -45v-44h-57v27q0 21 -7.5 29.5t-27.5 8.5h-8v-65h-56zM220 681q-65 0 -98 -39.5t-33 -110.5t33 -110.5t98 -39.5t98 39.5t33 110.5t-33 110.5t-98 39.5zM220 730 q87 0 135.5 -54.5t48.5 -144.5q0 -88 -49.5 -143.5t-134.5 -55.5q-87 0 -135.5 54.5t-48.5 144.5q0 88 49.5 143.5t134.5 55.5z"/>
<glyph glyph-name="macron" horiz-adv-x="241" unicode="¯" d="M-46 608v74h333v-74h-333z"/>
<glyph glyph-name="degree" horiz-adv-x="360" unicode="°" d="M180 731q65 0 103 -41t38 -108t-38.5 -108.5t-102.5 -41.5q-65 0 -103 41t-38 108t38.5 108.5t102.5 41.5zM180 657q-62 0 -62 -76q0 -34 15.5 -54.5t46.5 -20.5q62 0 62 76q0 34 -15.5 54.5t-46.5 20.5z"/>
<glyph glyph-name="plusminus" d="M41 418h145v128h128v-128h145v-122h-145v-123h-128v123h-145v122zM41 120h418v-120h-418v120z" unicode="±"/>
<glyph glyph-name="twosuperior" d="M203 556h-129q-2 17 -2 31q0 70 42 104t130 34q107 0 148.5 -34t41.5 -123q0 -63 -26.5 -95t-94.5 -55l-80 -27q-31 -10 -31 -44h230v-109h-363v115q0 63 28.5 90.5t105.5 52.5l59 19q40 12 40 59t-49 47q-32 0 -41 -13t-9 -52z" unicode="²"/>
<glyph glyph-name="threesuperior" d="M69 400h130l-1 -18q0 -21 13 -34.5t38 -13.5q54 0 54 52q0 48 -50 48q-12 0 -36 -2v102h23q57 0 57 40q0 49 -50 49q-23 0 -33.5 -13t-10.5 -45h-125q-2 14 -2 27q0 65 45 99t127 34q101 0 142 -33.5t41 -103.5q0 -78 -74 -102q82 -19 82 -111q0 -143 -185 -143 q-187 0 -187 135q0 13 2 33z" unicode="³"/>
<glyph glyph-name="acute" horiz-adv-x="241" unicode="´" d="M131 723h155l-148 -146h-101z"/>
<glyph glyph-name="mu" d="M287 509h149v-509h-149v61q-19 -54 -75 -57v-193h-148v698h149v-359q0 -20 8.5 -29t27.5 -9q38 0 38 44v353z" unicode="µ"/>
<glyph glyph-name="paragraph" d="M447 -197h-107v800h-55v-800h-107v477q-164 0 -164 220q0 223 175 223h294v-121h-36v-799z" unicode="¶"/>
<glyph glyph-name="periodcentered" horiz-adv-x="250" unicode="·" d="M125 251q-36 0 -60 27.5t-24 67.5t24 67t61 27q36 0 60 -27.5t24 -67.5t-24 -67t-61 -27z"/>
<glyph glyph-name="cedilla" horiz-adv-x="241" unicode="¸" d="M10 -220v52q45 -9 83 -9q21 0 33.5 9.5t12.5 25.5q0 34 -45 34q-24 0 -49 -3v40l47 71h61l-43 -64q14 2 29 2q40 0 63 -21.5t23 -57.5q0 -41 -31 -65t-93 -24q-41 0 -91 10z"/>
<glyph glyph-name="onesuperior" d="M358 238h-135v344l-88 -78l-73 94l143 121h153v-481z" unicode="¹"/>
<glyph glyph-name="ordmasculine" horiz-adv-x="350" unicode="º" d="M200 483v139q0 18 -5 24t-21 6q-24 0 -24 -20v-155q0 -16 5 -22.5t17 -6.5q16 0 22 7t6 28zM27 495v115q0 72 31 98.5t116 26.5q82 0 115 -25t33 -94v-130q0 -73 -36 -98.5t-120 -25.5q-77 0 -107 29t-32 104z"/>
<glyph glyph-name="guillemotright" d="M184 81h-151l87 175l-91 179h153l88 -175zM387 81h-151l88 175l-90 179h153l87 -175z" unicode="»"/>
<glyph glyph-name="onequarter" horiz-adv-x="1000" unicode="¼" d="M328 238h-135v344l-88 -78l-73 94l143 121h153v-481zM644 192h86v174zM865 91v-91h-135v91h-215v110l158 280h192v-289h48v-101h-48zM301 0l233 723h89l-231 -723h-91z"/>
<glyph glyph-name="onehalf" horiz-adv-x="1000" unicode="½" d="M328 238h-135v344l-88 -78l-73 94l143 121h153v-481zM699 318h-129q-2 17 -2 31q0 70 42 104t130 34q107 0 148.5 -34t41.5 -123q0 -63 -26.5 -95t-94.5 -55l-80 -27q-31 -10 -31 -44h230v-109h-363v115q0 63 28.5 90.5t105.5 52.5l59 19q40 12 40 59t-49 47 q-32 0 -41 -13t-9 -52zM301 0l233 723h89l-231 -723h-91z"/>
<glyph glyph-name="threequarters" horiz-adv-x="1000" unicode="¾" d="M38 400h130l-1 -18q0 -21 13 -34.5t38 -13.5q54 0 54 52q0 48 -50 48q-12 0 -36 -2v102h23q57 0 57 40q0 49 -50 49q-23 0 -33.5 -13t-10.5 -45h-125q-2 14 -2 27q0 65 45 99t127 34q101 0 142 -33.5t41 -103.5q0 -78 -74 -102q82 -19 82 -111q0 -143 -185 -143 q-187 0 -187 135q0 13 2 33zM684 192h86v174zM905 91v-91h-135v91h-215v110l158 280h192v-289h48v-101h-48zM341 0l233 723h89l-231 -723h-91z"/>
<glyph glyph-name="questiondown" horiz-adv-x="426" unicode="¿" d="M311 509v-157h-155v157h155zM262 32h156q1 -15 1 -37q0 -96 -25 -133q-19 -29 -57 -40.5t-114 -11.5q-147 0 -180 53q-25 41 -25 166q0 65 14 96t54 57l35 22q24 16 29.5 25t5.5 36v17h153v-40q0 -59 -14 -79t-92 -75q-23 -16 -23 -78q0 -55 6.5 -68.5t32.5 -13.5 q25 0 34 7.5t9 28.5v68z"/>
<glyph glyph-name="Agrave" horiz-adv-x="509" unicode="À" d="M243 926l94 -146h-101l-148 146h155zM212 297h80l-42 326zM118 723h270l110 -723h-170l-22 175h-107l-20 -175h-168z"/>
<glyph glyph-name="Aacute" horiz-adv-x="509" unicode="Á" d="M263 926h155l-148 -146h-101zM212 297h80l-42 326zM118 723h270l110 -723h-170l-22 175h-107l-20 -175h-168z"/>
<glyph glyph-name="Acircumflex" horiz-adv-x="509" unicode="Â" d="M315 926l114 -146h-113l-64 82l-64 -82h-113l115 146h125zM212 297h80l-42 326zM118 723h270l110 -723h-170l-22 175h-107l-20 -175h-168z"/>
<glyph glyph-name="Atilde" horiz-adv-x="509" unicode="Ã" d="M373 914h65q-9 -56 -38 -88t-72 -32q-23 0 -75 16l-40 13q-17 6 -31 6q-39 0 -47 -42h-64q10 59 40.5 90.5t78.5 31.5q26 0 49 -9l46 -17q28 -10 41 -10q17 0 30 11t17 30zM212 297h80l-42 326zM118 723h270l110 -723h-170l-22 175h-107l-20 -175h-168z"/>
<glyph glyph-name="Adieresis" horiz-adv-x="509" unicode="Ä" d="M288 789v116h127v-116h-127zM92 789v116h127v-116h-127zM212 297h80l-42 326zM118 723h270l110 -723h-170l-22 175h-107l-20 -175h-168z"/>
<glyph glyph-name="Aring" horiz-adv-x="509" unicode="Å" d="M253 805q22 0 36 14.5t14 38.5t-14 38t-35 14q-22 0 -36 -14.5t-14 -38.5t14 -38t35 -14zM254 964q47 0 76.5 -29.5t29.5 -76.5t-30 -77t-77 -30t-76.5 29.5t-29.5 76.5t30 77t77 30zM212 297h80l-42 326zM118 723h270l110 -723h-170l-22 175h-107l-20 -175h-168z"/>
<glyph glyph-name="AE" horiz-adv-x="730" unicode="Æ" d="M370 311v292h-30l-85 -292h115zM222 723h467v-127h-152v-164h141v-125h-141v-176h165v-131h-332v189h-153l-55 -189h-169z"/>
<glyph glyph-name="Ccedilla" horiz-adv-x="502" unicode="Ç" d="M148 -220v52q45 -9 83 -9q21 0 33.5 9.5t12.5 25.5q0 34 -45 34q-24 0 -49 -3v40l39 60q-110 4 -145 48q-30 39 -30 98v421q0 95 37 135q22 25 59.5 34.5t108.5 9.5q91 0 137.5 -16t61.5 -52q11 -28 11 -130q0 -33 -1 -60h-155q0 74 -3 104q-4 24 -38 24q-42 0 -42 -30 v-420q0 -23 8 -30.5t33 -7.5t34 9.5t9 35.5v105h154v-50q0 -85 -7 -124t-29 -62q-38 -39 -142 -42l-35 -53q14 2 29 2q40 0 63 -21.5t23 -57.5q0 -41 -31 -65t-93 -24q-41 0 -91 10z"/>
<glyph glyph-name="Egrave" horiz-adv-x="410" unicode="È" d="M204 926l94 -146h-101l-148 146h155zM55 0v723h319v-127h-152v-164h141v-125h-141v-176h164v-131h-331z"/>
<glyph glyph-name="Eacute" horiz-adv-x="410" unicode="É" d="M224 926h155l-148 -146h-101zM55 0v723h319v-127h-152v-164h141v-125h-141v-176h164v-131h-331z"/>
<glyph glyph-name="Ecircumflex" horiz-adv-x="410" unicode="Ê" d="M276 926l114 -146h-113l-64 82l-64 -82h-113l115 146h125zM55 0v723h319v-127h-152v-164h141v-125h-141v-176h164v-131h-331z"/>
<glyph glyph-name="Edieresis" horiz-adv-x="410" unicode="Ë" d="M249 789v116h127v-116h-127zM53 789v116h127v-116h-127zM55 0v723h319v-127h-152v-164h141v-125h-141v-176h164v-131h-331z"/>
<glyph glyph-name="Igrave" horiz-adv-x="281" unicode="Ì" d="M130 926l94 -146h-101l-148 146h155zM57 0v723h167v-723h-167z"/>
<glyph glyph-name="Iacute" horiz-adv-x="281" unicode="Í" d="M150 926h155l-148 -146h-101zM57 0v723h167v-723h-167z"/>
<glyph glyph-name="Icircumflex" horiz-adv-x="281" unicode="Î" d="M202 926l114 -146h-113l-64 82l-64 -82h-113l115 146h125zM57 0v723h167v-723h-167z"/>
<glyph glyph-name="Idieresis" horiz-adv-x="281" unicode="Ï" d="M175 789v116h127v-116h-127zM-21 789v116h127v-116h-127zM57 0v723h167v-723h-167z"/>
<glyph glyph-name="Eth" horiz-adv-x="521" unicode="Ð" d="M222 598v-179h50v-102h-50v-187h36q22 0 30.5 4t13.5 19q3 12 3 146v202q0 72 -8 85t-51 13q-14 0 -24 -1zM55 0v317h-47v102h47v304h213q114 0 160 -46t46 -177v-220q0 -117 -15.5 -175t-53 -81.5t-113.5 -23.5h-237z"/>
<glyph glyph-name="Ntilde" horiz-adv-x="618" unicode="Ñ" d="M431 914h65q-9 -56 -38 -88t-72 -32q-23 0 -75 16l-40 13q-17 6 -31 6q-39 0 -47 -42h-64q10 59 40.5 90.5t78.5 31.5q26 0 49 -9l46 -17q28 -10 41 -10q17 0 30 11t17 30zM53 0v723h243l123 -563l-12 563h158v-723h-243l-124 566l10 -566h-155z"/>
<glyph glyph-name="Ograve" horiz-adv-x="522" unicode="Ò" d="M254 926l94 -146h-101l-148 146h155zM304 160v415q0 20 -9.5 28t-32.5 8q-24 0 -34 -8t-10 -27v-424q0 -20 9 -28t32 -8q26 0 35.5 9t9.5 35zM47 142v436q0 71 39 113q23 24 59 34t100 10q151 0 196 -48q34 -37 34 -104v-384q0 -127 -44.5 -169t-177.5 -42 q-71 0 -110.5 12t-63.5 40q-32 38 -32 102z"/>
<glyph glyph-name="Oacute" horiz-adv-x="522" unicode="Ó" d="M274 926h155l-148 -146h-101zM304 160v415q0 20 -9.5 28t-32.5 8q-24 0 -34 -8t-10 -27v-424q0 -20 9 -28t32 -8q26 0 35.5 9t9.5 35zM47 142v436q0 71 39 113q23 24 59 34t100 10q151 0 196 -48q34 -37 34 -104v-384q0 -127 -44.5 -169t-177.5 -42q-71 0 -110.5 12 t-63.5 40q-32 38 -32 102z"/>
<glyph glyph-name="Ocircumflex" horiz-adv-x="522" unicode="Ô" d="M326 926l114 -146h-113l-64 82l-64 -82h-113l115 146h125zM304 160v415q0 20 -9.5 28t-32.5 8q-24 0 -34 -8t-10 -27v-424q0 -20 9 -28t32 -8q26 0 35.5 9t9.5 35zM47 142v436q0 71 39 113q23 24 59 34t100 10q151 0 196 -48q34 -37 34 -104v-384q0 -127 -44.5 -169 t-177.5 -42q-71 0 -110.5 12t-63.5 40q-32 38 -32 102z"/>
<glyph glyph-name="Otilde" horiz-adv-x="522" unicode="Õ" d="M384 914h65q-9 -56 -38 -88t-72 -32q-23 0 -75 16l-40 13q-17 6 -31 6q-39 0 -47 -42h-64q10 59 40.5 90.5t78.5 31.5q27 0 49 -9l46 -17q28 -10 41 -10q17 0 30 11t17 30zM304 160v415q0 20 -9.5 28t-32.5 8q-24 0 -34 -8t-10 -27v-424q0 -20 9 -28t32 -8q26 0 35.5 9 t9.5 35zM47 142v436q0 71 39 113q23 24 59 34t100 10q151 0 196 -48q34 -37 34 -104v-384q0 -127 -44.5 -169t-177.5 -42q-71 0 -110.5 12t-63.5 40q-32 38 -32 102z"/>
<glyph glyph-name="Odieresis" horiz-adv-x="522" unicode="Ö" d="M299 789v116h127v-116h-127zM103 789v116h127v-116h-127zM304 160v415q0 20 -9.5 28t-32.5 8q-24 0 -34 -8t-10 -27v-424q0 -20 9 -28t32 -8q26 0 35.5 9t9.5 35zM47 142v436q0 71 39 113q23 24 59 34t100 10q151 0 196 -48q34 -37 34 -104v-384q0 -127 -44.5 -169 t-177.5 -42q-71 0 -110.5 12t-63.5 40q-32 38 -32 102z"/>
<glyph glyph-name="multiply" d="M26 415l88 94l136 -154l135 151l86 -93l-134 -151l137 -154l-88 -93l-136 153l-135 -151l-86 92l134 152z" unicode="×"/>
<glyph glyph-name="Oslash" horiz-adv-x="522" unicode="Ø" d="M213 581v-223l95 179v43q0 36 -46 36q-49 0 -49 -35zM308 156v222l-95 -179v-51q0 -36 46 -36q27 0 38 9t11 35zM47 142v436q0 71 39 113q23 24 59 34t100 10q100 0 150 -19l39 73l79 -39l-51 -95q13 -29 13 -72v-384q0 -127 -44.5 -169t-177.5 -42q-92 0 -135 21 l-41 -78l-76 41l56 105q-10 26 -10 65z"/>
<glyph glyph-name="Ugrave" horiz-adv-x="518" unicode="Ù" d="M251 926l94 -146h-101l-148 146h155zM49 723h168v-561q0 -24 9 -33.5t33 -9.5q23 0 32.5 11.5t9.5 38.5v554h168v-543q0 -102 -36 -142q-43 -49 -184 -49q-62 0 -98.5 10.5t-62.5 36.5q-24 24 -31.5 52t-7.5 78v557z"/>
<glyph glyph-name="Uacute" horiz-adv-x="518" unicode="Ú" d="M271 926h155l-148 -146h-101zM49 723h168v-561q0 -24 9 -33.5t33 -9.5q23 0 32.5 11.5t9.5 38.5v554h168v-543q0 -102 -36 -142q-43 -49 -184 -49q-62 0 -98.5 10.5t-62.5 36.5q-24 24 -31.5 52t-7.5 78v557z"/>
<glyph glyph-name="Ucircumflex" horiz-adv-x="518" unicode="Û" d="M323 926l114 -146h-113l-64 82l-64 -82h-113l115 146h125zM49 723h168v-561q0 -24 9 -33.5t33 -9.5q23 0 32.5 11.5t9.5 38.5v554h168v-543q0 -102 -36 -142q-43 -49 -184 -49q-62 0 -98.5 10.5t-62.5 36.5q-24 24 -31.5 52t-7.5 78v557z"/>
<glyph glyph-name="Udieresis" horiz-adv-x="518" unicode="Ü" d="M296 789v116h127v-116h-127zM100 789v116h127v-116h-127zM49 723h168v-561q0 -24 9 -33.5t33 -9.5q23 0 32.5 11.5t9.5 38.5v554h168v-543q0 -102 -36 -142q-43 -49 -184 -49q-62 0 -98.5 10.5t-62.5 36.5q-24 24 -31.5 52t-7.5 78v557z"/>
<glyph glyph-name="Yacute" horiz-adv-x="443" unicode="Ý" d="M234 926h155l-148 -146h-101zM307 0h-167v234l-151 489h165l68 -325l66 325h165l-146 -480v-243z"/>
<glyph glyph-name="Thorn" horiz-adv-x="508" unicode="Þ" d="M222 520v-242h40q26 0 36.5 12t10.5 44v153q0 18 -10 25.5t-38 7.5h-39zM57 0v723h167v-79h68q109 0 147.5 -47.5t38.5 -164.5q0 -168 -36 -223t-155 -55h-63v-154h-167z"/>
<glyph glyph-name="germandbls" horiz-adv-x="483" unicode="ß" d="M48 0v573q0 157 189 157q98 0 140.5 -41.5t42.5 -136.5q0 -74 -24.5 -108t-85.5 -44q73 -13 99 -41q21 -23 28.5 -52.5t7.5 -92.5q0 -81 -4 -109t-18 -51q-36 -63 -127 -63q-46 0 -69 16v113q17 -6 32 -6q26 0 32 15t6 85t-11 88t-59 27v122q31 3 42 14.5t11 39.5 q0 87 -5 99q-6 16 -35 16q-23 0 -33 -7.5t-10 -25.5v-587h-149z"/>
<glyph glyph-name="agrave" horiz-adv-x="444" unicode="à" d="M213 723l94 -146h-101l-148 146h155zM215 222q-24 0 -30 -11q-6 -8 -6 -55q0 -32 7.5 -42t29.5 -10q21 0 29 11q6 11 6 61q0 28 -7 37t-29 9zM251 281v112q0 22 -37 22t-37 -24v-30h-127v68q0 49 35 69t121 20q114 0 154 -28.5t40 -108.5v-381h-142v44q-23 -30 -46 -41.5 t-60 -11.5q-69 0 -96.5 36.5t-27.5 128.5q0 87 28.5 122t98.5 35q54 0 96 -32z"/>
<glyph glyph-name="aacute" horiz-adv-x="444" unicode="á" d="M233 723h155l-148 -146h-101zM215 222q-24 0 -30 -11q-6 -8 -6 -55q0 -32 7.5 -42t29.5 -10q21 0 29 11q6 11 6 61q0 28 -7 37t-29 9zM251 281v112q0 22 -37 22t-37 -24v-30h-127v68q0 49 35 69t121 20q114 0 154 -28.5t40 -108.5v-381h-142v44q-23 -30 -46 -41.5 t-60 -11.5q-69 0 -96.5 36.5t-27.5 128.5q0 87 28.5 122t98.5 35q54 0 96 -32z"/>
<glyph glyph-name="acircumflex" horiz-adv-x="444" unicode="â" d="M285 723l114 -146h-113l-64 82l-64 -82h-113l115 146h125zM215 222q-24 0 -30 -11q-6 -8 -6 -55q0 -32 7.5 -42t29.5 -10q21 0 29 11q6 11 6 61q0 28 -7 37t-29 9zM251 281v112q0 22 -37 22t-37 -24v-30h-127v68q0 49 35 69t121 20q114 0 154 -28.5t40 -108.5v-381h-142 v44q-23 -30 -46 -41.5t-60 -11.5q-69 0 -96.5 36.5t-27.5 128.5q0 87 28.5 122t98.5 35q54 0 96 -32z"/>
<glyph glyph-name="atilde" horiz-adv-x="444" unicode="ã" d="M343 711h65q-9 -56 -38 -88t-72 -32q-23 0 -75 16l-40 13q-17 6 -31 6q-39 0 -47 -42h-64q10 59 40.5 90.5t78.5 31.5q26 0 49 -9l46 -17q28 -10 41 -10q17 0 30 11t17 30zM215 222q-24 0 -30 -11q-6 -8 -6 -55q0 -32 7.5 -42t29.5 -10q21 0 29 11q6 11 6 61q0 28 -7 37 t-29 9zM251 281v112q0 22 -37 22t-37 -24v-30h-127v68q0 49 35 69t121 20q114 0 154 -28.5t40 -108.5v-381h-142v44q-23 -30 -46 -41.5t-60 -11.5q-69 0 -96.5 36.5t-27.5 128.5q0 87 28.5 122t98.5 35q54 0 96 -32z"/>
<glyph glyph-name="adieresis" horiz-adv-x="444" unicode="ä" d="M258 586v116h127v-116h-127zM62 586v116h127v-116h-127zM215 222q-24 0 -30 -11q-6 -8 -6 -55q0 -32 7.5 -42t29.5 -10q21 0 29 11q6 11 6 61q0 28 -7 37t-29 9zM251 281v112q0 22 -37 22t-37 -24v-30h-127v68q0 49 35 69t121 20q114 0 154 -28.5t40 -108.5v-381h-142v44 q-23 -30 -46 -41.5t-60 -11.5q-69 0 -96.5 36.5t-27.5 128.5q0 87 28.5 122t98.5 35q54 0 96 -32z"/>
<glyph glyph-name="aring" horiz-adv-x="444" unicode="å" d="M225 628q22 0 36 14.5t14 38.5t-14 38t-35 14q-22 0 -36 -14.5t-14 -38.5t14 -38t35 -14zM226 787q47 0 76.5 -29.5t29.5 -76.5t-30 -77t-77 -30t-76.5 29.5t-29.5 76.5t30 77t77 30zM215 222q-24 0 -30 -11q-6 -8 -6 -55q0 -32 7.5 -42t29.5 -10q21 0 29 11q6 11 6 61 q0 28 -7 37t-29 9zM251 281v112q0 22 -37 22t-37 -24v-30h-127v68q0 49 35 69t121 20q114 0 154 -28.5t40 -108.5v-381h-142v44q-23 -30 -46 -41.5t-60 -11.5q-69 0 -96.5 36.5t-27.5 128.5q0 87 28.5 122t98.5 35q54 0 96 -32z"/>
<glyph glyph-name="ae" horiz-adv-x="665" unicode="æ" d="M395 315h82v72q0 15 -9.5 21.5t-32.5 6.5q-40 0 -40 -31v-69zM442 518q117 0 159 -47q27 -31 27 -95v-157h-233v-86q0 -18 9 -25t31 -7q29 0 37.5 7t8.5 32v21h148q0 -56 -4.5 -80t-17.5 -41q-38 -49 -169 -49q-67 0 -94.5 11t-44.5 45q-14 -31 -43.5 -43.5t-89.5 -12.5 q-77 0 -107.5 35.5t-30.5 126.5q0 89 27 123t97 34q64 0 98 -31v49q0 67 -5 78t-32 11q-37 0 -37 -24v-32h-127v68q0 49 35 69t121 20q101 0 124 -39q30 39 113 39zM179 188v-56q0 -28 32 -28q21 0 28.5 6.5t7.5 25.5v56q0 28 -31 28q-21 0 -29 -6.5t-8 -25.5z"/>
<glyph glyph-name="ccedilla" horiz-adv-x="438" unicode="ç" d="M112 -220v52q45 -9 83 -9q21 0 33.5 9.5t12.5 25.5q0 34 -45 34q-24 0 -49 -3v40l42 64q-84 6 -114 42q-20 24 -28.5 66.5t-8.5 123.5q0 172 17 216q28 77 155 77q112 0 155 -31q20 -15 27.5 -34.5t7.5 -61.5v-59h-133v36q0 19 -7.5 27t-25.5 8q-20 0 -28 -7t-8 -24v-226 q0 -22 7.5 -31t25.5 -9q21 0 29 11.5t8 41.5v39h139v-42q0 -59 -5.5 -85t-23.5 -42q-36 -33 -129 -38l-37 -55q14 2 29 2q40 0 63 -21.5t23 -57.5q0 -41 -31 -65t-93 -24q-41 0 -91 10z"/>
<glyph glyph-name="egrave" horiz-adv-x="462" unicode="è" d="M224 723l94 -146h-101l-148 146h155zM192 315h82v72q0 15 -9.5 21.5t-32.5 6.5q-40 0 -40 -31v-69zM425 219h-233v-86q0 -18 9 -25t31 -7q29 0 37.5 7t8.5 32v21h148q0 -56 -4.5 -80t-17.5 -41q-38 -49 -169 -49q-107 0 -152 34t-45 114v206q0 89 32 127q40 46 159 46 q127 0 169 -47q27 -31 27 -95v-157z"/>
<glyph glyph-name="eacute" horiz-adv-x="462" unicode="é" d="M244 723h155l-148 -146h-101zM192 315h82v72q0 15 -9.5 21.5t-32.5 6.5q-40 0 -40 -31v-69zM425 219h-233v-86q0 -18 9 -25t31 -7q29 0 37.5 7t8.5 32v21h148q0 -56 -4.5 -80t-17.5 -41q-38 -49 -169 -49q-107 0 -152 34t-45 114v206q0 89 32 127q40 46 159 46 q127 0 169 -47q27 -31 27 -95v-157z"/>
<glyph glyph-name="ecircumflex" horiz-adv-x="462" unicode="ê" d="M296 723l114 -146h-113l-64 82l-64 -82h-113l115 146h125zM192 315h82v72q0 15 -9.5 21.5t-32.5 6.5q-40 0 -40 -31v-69zM425 219h-233v-86q0 -18 9 -25t31 -7q29 0 37.5 7t8.5 32v21h148q0 -56 -4.5 -80t-17.5 -41q-38 -49 -169 -49q-107 0 -152 34t-45 114v206 q0 89 32 127q40 46 159 46q127 0 169 -47q27 -31 27 -95v-157z"/>
<glyph glyph-name="edieresis" horiz-adv-x="462" unicode="ë" d="M269 586v116h127v-116h-127zM73 586v116h127v-116h-127zM192 315h82v72q0 15 -9.5 21.5t-32.5 6.5q-40 0 -40 -31v-69zM425 219h-233v-86q0 -18 9 -25t31 -7q29 0 37.5 7t8.5 32v21h148q0 -56 -4.5 -80t-17.5 -41q-38 -49 -169 -49q-107 0 -152 34t-45 114v206 q0 89 32 127q40 46 159 46q127 0 169 -47q27 -31 27 -95v-157z"/>
<glyph glyph-name="igrave" horiz-adv-x="241" unicode="ì" d="M112 723l94 -146h-101l-148 146h155zM46 0v509h149v-509h-149z"/>
<glyph glyph-name="iacute" horiz-adv-x="241" unicode="í" d="M132 723h155l-148 -146h-101zM46 0v509h149v-509h-149z"/>
<glyph glyph-name="icircumflex" horiz-adv-x="241" unicode="î" d="M184 723l114 -146h-113l-64 82l-64 -82h-113l115 146h125zM46 0v509h149v-509h-149z"/>
<glyph glyph-name="idieresis" horiz-adv-x="241" unicode="ï" d="M157 586v116h127v-116h-127zM-39 586v116h127v-116h-127zM46 0v509h149v-509h-149z"/>
<glyph glyph-name="eth" horiz-adv-x="464" unicode="ð" d="M272 149v198q0 25 -8 33t-33 8q-39 0 -39 -27v-221q0 -22 7.5 -30.5t28.5 -8.5q26 0 35 10t9 38zM426 293v-133q0 -90 -35 -125q-23 -24 -61 -34t-110 -10q-66 0 -102 13t-56 44q-24 38 -24 124v151q0 95 40.5 131t132.5 36q50 0 72 -19q-5 24 -25.5 55t-43.5 52l-90 -41 l-26 65l63 29l-45 42l98 58l59 -44l79 37l27 -67l-54 -24q61 -77 81 -148t20 -192z"/>
<glyph glyph-name="ntilde" horiz-adv-x="462" unicode="ñ" d="M352 711h65q-9 -56 -38 -88t-72 -32q-23 0 -75 16l-40 13q-17 6 -31 6q-39 0 -47 -42h-64q10 59 40.5 90.5t78.5 31.5q27 0 49 -9l46 -17q28 -10 41 -10q17 0 30 11t17 30zM46 0v509h145v-51q35 60 112 60q68 0 97 -44q18 -27 18 -83v-391h-149v354q0 26 -7.5 35t-28.5 9 q-38 0 -38 -29v-369h-149z"/>
<glyph glyph-name="ograve" horiz-adv-x="465" unicode="ò" d="M226 723l94 -146h-101l-148 146h155zM273 155v211q0 26 -8 34t-33 8q-40 0 -40 -28v-234q0 -23 8 -32t29 -9q26 0 35 10.5t9 39.5zM38 179v162q0 102 41 139.5t153 37.5q127 0 168 -50q27 -35 27 -118v-184q0 -94 -35 -130q-23 -25 -61 -35t-110 -10q-67 0 -103 13.5 t-56 45.5q-24 39 -24 129z"/>
<glyph glyph-name="oacute" horiz-adv-x="465" unicode="ó" d="M246 723h155l-148 -146h-101zM273 155v211q0 26 -8 34t-33 8q-40 0 -40 -28v-234q0 -23 8 -32t29 -9q26 0 35 10.5t9 39.5zM38 179v162q0 102 41 139.5t153 37.5q127 0 168 -50q27 -35 27 -118v-184q0 -94 -35 -130q-23 -25 -61 -35t-110 -10q-67 0 -103 13.5t-56 45.5 q-24 39 -24 129z"/>
<glyph glyph-name="ocircumflex" horiz-adv-x="465" unicode="ô" d="M298 723l114 -146h-113l-64 82l-64 -82h-113l115 146h125zM273 155v211q0 26 -8 34t-33 8q-40 0 -40 -28v-234q0 -23 8 -32t29 -9q26 0 35 10.5t9 39.5zM38 179v162q0 102 41 139.5t153 37.5q127 0 168 -50q27 -35 27 -118v-184q0 -94 -35 -130q-23 -25 -61 -35t-110 -10 q-67 0 -103 13.5t-56 45.5q-24 39 -24 129z"/>
<glyph glyph-name="otilde" horiz-adv-x="465" unicode="õ" d="M356 711h65q-9 -56 -38 -88t-72 -32q-23 0 -75 16l-40 13q-17 6 -31 6q-39 0 -47 -42h-64q10 59 40.5 90.5t78.5 31.5q27 0 49 -9l46 -17q28 -10 41 -10q17 0 30 11t17 30zM273 155v211q0 26 -8 34t-33 8q-40 0 -40 -28v-234q0 -23 8 -32t29 -9q26 0 35 10.5t9 39.5z M38 179v162q0 102 41 139.5t153 37.5q127 0 168 -50q27 -35 27 -118v-184q0 -94 -35 -130q-23 -25 -61 -35t-110 -10q-67 0 -103 13.5t-56 45.5q-24 39 -24 129z"/>
<glyph glyph-name="odieresis" horiz-adv-x="465" unicode="ö" d="M271 586v116h127v-116h-127zM75 586v116h127v-116h-127zM273 155v211q0 26 -8 34t-33 8q-40 0 -40 -28v-234q0 -23 8 -32t29 -9q26 0 35 10.5t9 39.5zM38 179v162q0 102 41 139.5t153 37.5q127 0 168 -50q27 -35 27 -118v-184q0 -94 -35 -130q-23 -25 -61 -35t-110 -10 q-67 0 -103 13.5t-56 45.5q-24 39 -24 129z"/>
<glyph glyph-name="divide" d="M248 -9q-40 0 -60 21.5t-20 60.5q0 83 81 83q79 0 81 -83q0 -38 -21 -60t-61 -22zM248 367q-40 0 -60 21.5t-20 60.5q0 83 81 83q79 0 81 -83q0 -38 -21 -60t-61 -22zM37 326h426v-128h-426v128z" unicode="÷"/>
<glyph glyph-name="oslash" horiz-adv-x="465" unicode="ø" d="M277 152v109l-88 -134q5 -25 40 -25q27 0 37.5 10.5t10.5 39.5zM188 383v-141l89 135q-1 20 -11 27t-34 7q-44 0 -44 -28zM38 179v162q0 102 41 139.5t153 37.5q75 0 117 -16l46 71l66 -43l-51 -77q17 -33 17 -103v-184q0 -94 -35 -130q-23 -25 -61 -35t-110 -10 q-69 0 -105 14l-45 -70l-65 44l52 78q-20 37 -20 122z"/>
<glyph glyph-name="ugrave" horiz-adv-x="462" unicode="ù" d="M222 723l94 -146h-101l-148 146h155zM267 509h149v-509h-149v61q-14 -37 -39.5 -53.5t-68.5 -16.5q-56 0 -85.5 26t-29.5 75v417h149v-359q0 -20 8.5 -29t27.5 -9q38 0 38 44v353z"/>
<glyph glyph-name="uacute" horiz-adv-x="462" unicode="ú" d="M242 723h155l-148 -146h-101zM267 509h149v-509h-149v61q-14 -37 -39.5 -53.5t-68.5 -16.5q-56 0 -85.5 26t-29.5 75v417h149v-359q0 -20 8.5 -29t27.5 -9q38 0 38 44v353z"/>
<glyph glyph-name="ucircumflex" horiz-adv-x="462" unicode="û" d="M294 723l114 -146h-113l-64 82l-64 -82h-113l115 146h125zM267 509h149v-509h-149v61q-14 -37 -39.5 -53.5t-68.5 -16.5q-56 0 -85.5 26t-29.5 75v417h149v-359q0 -20 8.5 -29t27.5 -9q38 0 38 44v353z"/>
<glyph glyph-name="udieresis" horiz-adv-x="462" unicode="ü" d="M267 586v116h127v-116h-127zM71 586v116h127v-116h-127zM267 509h149v-509h-149v61q-14 -37 -39.5 -53.5t-68.5 -16.5q-56 0 -85.5 26t-29.5 75v417h149v-359q0 -20 8.5 -29t27.5 -9q38 0 38 44v353z"/>
<glyph glyph-name="yacute" horiz-adv-x="409" unicode="ý" d="M218 723h155l-148 -146h-101zM11 509h149l43 -418l47 418h148l-81 -556q-11 -78 -47 -110.5t-111 -32.5q-56 0 -76 14v100q19 -7 42 -7q31 0 41 15t15 68h-99z"/>
<glyph glyph-name="thorn" horiz-adv-x="460" unicode="þ" d="M266 148v212q0 23 -7 32t-26 9q-21 0 -28.5 -9.5t-7.5 -37.5v-214q0 -30 35 -30q20 0 27 7.5t7 30.5zM48 -189v912h149v-258q40 53 109 53q112 0 112 -107v-291q0 -68 -28 -98.5t-90 -30.5q-73 0 -104 57v-237h-148z"/>
<glyph glyph-name="ydieresis" horiz-adv-x="409" unicode="ÿ" d="M243 586v116h127v-116h-127zM47 586v116h127v-116h-127zM11 509h149l43 -418l47 418h148l-81 -556q-11 -78 -47 -110.5t-111 -32.5q-56 0 -76 14v100q19 -7 42 -7q31 0 41 15t15 68h-99z"/>
<glyph glyph-name="Amacron" horiz-adv-x="509" unicode="Ā" d="M87 811v74h333v-74h-333zM212 297h80l-42 326zM118 723h270l110 -723h-170l-22 175h-107l-20 -175h-168z"/>
<glyph glyph-name="amacron" horiz-adv-x="444" unicode="ā" d="M57 608v74h333v-74h-333zM215 222q-24 0 -30 -11q-6 -8 -6 -55q0 -32 7.5 -42t29.5 -10q21 0 29 11q6 11 6 61q0 28 -7 37t-29 9zM251 281v112q0 22 -37 22t-37 -24v-30h-127v68q0 49 35 69t121 20q114 0 154 -28.5t40 -108.5v-381h-142v44q-23 -30 -46 -41.5t-60 -11.5 q-69 0 -96.5 36.5t-27.5 128.5q0 87 28.5 122t98.5 35q54 0 96 -32z"/>
<glyph glyph-name="Abreve" horiz-adv-x="509" unicode="Ă" d="M349 926h65q-12 -145 -161 -145q-157 0 -161 145h66q5 -36 26.5 -53t69.5 -17q44 0 64.5 15.5t30.5 54.5zM212 297h80l-42 326zM118 723h270l110 -723h-170l-22 175h-107l-20 -175h-168z"/>
<glyph glyph-name="abreve" horiz-adv-x="444" unicode="ă" d="M322 723h65q-12 -145 -161 -145q-157 0 -161 145h66q5 -36 26.5 -53t69.5 -17q44 0 64.5 15.5t30.5 54.5zM215 222q-24 0 -30 -11q-6 -8 -6 -55q0 -32 7.5 -42t29.5 -10q21 0 29 11q6 11 6 61q0 28 -7 37t-29 9zM251 281v112q0 22 -37 22t-37 -24v-30h-127v68q0 49 35 69 t121 20q114 0 154 -28.5t40 -108.5v-381h-142v44q-23 -30 -46 -41.5t-60 -11.5q-69 0 -96.5 36.5t-27.5 128.5q0 87 28.5 122t98.5 35q54 0 96 -32z"/>
<glyph glyph-name="Aogonek" horiz-adv-x="509" unicode="Ą" d="M212 297h80l-42 326zM349 0h-21l-22 175h-107l-20 -175h-168l107 723h270l110 -723h-65q-57 -50 -57 -93q0 -42 47 -42q18 0 45 8v-76q-29 -10 -65 -10q-55 0 -85 26.5t-30 74.5q0 60 61 112z"/>
<glyph glyph-name="aogonek" horiz-adv-x="444" unicode="ą" d="M215 222q-24 0 -30 -11q-6 -8 -6 -55q0 -32 7.5 -42t29.5 -10q21 0 29 11q6 11 6 61q0 28 -7 37t-29 9zM277 0h-19v44q-23 -30 -46 -41.5t-60 -11.5q-69 0 -96.5 36.5t-27.5 128.5q0 87 28.5 122t98.5 35q54 0 96 -32v112q0 22 -37 22t-37 -24v-30h-127v68q0 49 35 69 t121 20q114 0 154 -28.5t40 -108.5v-381h-39q-57 -50 -57 -93q0 -42 47 -42q18 0 45 8v-76q-29 -10 -65 -10q-55 0 -85 26.5t-30 74.5q0 60 61 112z"/>
<glyph glyph-name="Cacute" horiz-adv-x="502" unicode="Ć" d="M269 926h155l-148 -146h-101zM461 477h-155q0 74 -3 104q-4 24 -38 24q-42 0 -42 -30v-420q0 -23 8 -30.5t33 -7.5t34 9.5t9 35.5v105h154v-50q0 -85 -7 -124t-29 -62q-42 -43 -169 -43q-138 0 -179 49q-30 39 -30 98v421q0 95 37 135q22 25 59.5 34.5t108.5 9.5 q91 0 137.5 -16t61.5 -52q11 -28 11 -130q0 -33 -1 -60z"/>
<glyph glyph-name="cacute" horiz-adv-x="438" unicode="ć" d="M237 723h155l-148 -146h-101zM400 332h-133v36q0 19 -7.5 27t-25.5 8q-20 0 -28 -7t-8 -24v-226q0 -22 7.5 -31t25.5 -9q21 0 29 11.5t8 41.5v39h139v-42q0 -59 -5.5 -85t-23.5 -42q-41 -38 -149 -38q-116 0 -154 44q-20 24 -28.5 66.5t-8.5 123.5q0 172 17 216 q28 77 155 77q112 0 155 -31q20 -15 27.5 -34.5t7.5 -61.5v-59z"/>
<glyph glyph-name="Ccircumflex" horiz-adv-x="502" unicode="Ĉ" d="M321 926l114 -146h-113l-64 82l-64 -82h-113l115 146h125zM461 477h-155q0 74 -3 104q-4 24 -38 24q-42 0 -42 -30v-420q0 -23 8 -30.5t33 -7.5t34 9.5t9 35.5v105h154v-50q0 -85 -7 -124t-29 -62q-42 -43 -169 -43q-138 0 -179 49q-30 39 -30 98v421q0 95 37 135 q22 25 59.5 34.5t108.5 9.5q91 0 137.5 -16t61.5 -52q11 -28 11 -130q0 -33 -1 -60z"/>
<glyph glyph-name="ccircumflex" horiz-adv-x="438" unicode="ĉ" d="M289 723l114 -146h-113l-64 82l-64 -82h-113l115 146h125zM400 332h-133v36q0 19 -7.5 27t-25.5 8q-20 0 -28 -7t-8 -24v-226q0 -22 7.5 -31t25.5 -9q21 0 29 11.5t8 41.5v39h139v-42q0 -59 -5.5 -85t-23.5 -42q-41 -38 -149 -38q-116 0 -154 44q-20 24 -28.5 66.5 t-8.5 123.5q0 172 17 216q28 77 155 77q112 0 155 -31q20 -15 27.5 -34.5t7.5 -61.5v-59z"/>
<glyph glyph-name="Cdotaccent" horiz-adv-x="502" unicode="Ċ" d="M191 789v116h139v-116h-139zM461 477h-155q0 74 -3 104q-4 24 -38 24q-42 0 -42 -30v-420q0 -23 8 -30.5t33 -7.5t34 9.5t9 35.5v105h154v-50q0 -85 -7 -124t-29 -62q-42 -43 -169 -43q-138 0 -179 49q-30 39 -30 98v421q0 95 37 135q22 25 59.5 34.5t108.5 9.5 q91 0 137.5 -16t61.5 -52q11 -28 11 -130q0 -33 -1 -60z"/>
<glyph glyph-name="cdotaccent" horiz-adv-x="438" unicode="ċ" d="M164 586v116h127v-116h-127zM400 332h-133v36q0 19 -7.5 27t-25.5 8q-20 0 -28 -7t-8 -24v-226q0 -22 7.5 -31t25.5 -9q21 0 29 11.5t8 41.5v39h139v-42q0 -59 -5.5 -85t-23.5 -42q-41 -38 -149 -38q-116 0 -154 44q-20 24 -28.5 66.5t-8.5 123.5q0 172 17 216 q28 77 155 77q112 0 155 -31q20 -15 27.5 -34.5t7.5 -61.5v-59z"/>
<glyph glyph-name="Ccaron" horiz-adv-x="502" unicode="Č" d="M324 780h-125l-115 146h113l64 -82l64 82h113zM461 477h-155q0 74 -3 104q-4 24 -38 24q-42 0 -42 -30v-420q0 -23 8 -30.5t33 -7.5t34 9.5t9 35.5v105h154v-50q0 -85 -7 -124t-29 -62q-42 -43 -169 -43q-138 0 -179 49q-30 39 -30 98v421q0 95 37 135q22 25 59.5 34.5 t108.5 9.5q91 0 137.5 -16t61.5 -52q11 -28 11 -130q0 -33 -1 -60z"/>
<glyph glyph-name="ccaron" horiz-adv-x="438" unicode="č" d="M289 577h-125l-115 146h113l64 -82l64 82h113zM400 332h-133v36q0 19 -7.5 27t-25.5 8q-20 0 -28 -7t-8 -24v-226q0 -22 7.5 -31t25.5 -9q21 0 29 11.5t8 41.5v39h139v-42q0 -59 -5.5 -85t-23.5 -42q-41 -38 -149 -38q-116 0 -154 44q-20 24 -28.5 66.5t-8.5 123.5 q0 172 17 216q28 77 155 77q112 0 155 -31q20 -15 27.5 -34.5t7.5 -61.5v-59z"/>
<glyph glyph-name="Dcaron" horiz-adv-x="521" unicode="Ď" d="M306 780h-125l-115 146h113l64 -82l64 82h113zM222 598v-468h36q22 0 30.5 4t13.5 19q3 12 3 146v202q0 72 -8 85t-51 13q-14 0 -24 -1zM55 0v723h213q114 0 160 -46t46 -177v-220q0 -117 -15.5 -175t-53 -81.5t-113.5 -23.5h-237z"/>
<glyph glyph-name="dcaron" horiz-adv-x="460" unicode="ď" d="M589 723l-62 -179h-78l22 179h118zM263 139v237q0 25 -36 25q-33 0 -33 -25v-228q0 -21 6.5 -29.5t23.5 -8.5q23 0 31 6t8 23zM412 0h-142v54q-18 -34 -42 -48.5t-62 -14.5q-72 0 -98 32q-16 19 -21 45t-5 75v268q0 55 27 81t84 26q71 0 110 -53v258h149v-723z"/>
<glyph glyph-name="Dcroat" horiz-adv-x="521" unicode="Đ" d="M222 598v-179h50v-102h-50v-187h36q22 0 30.5 4t13.5 19q3 12 3 146v202q0 72 -8 85t-51 13q-14 0 -24 -1zM55 0v317h-47v102h47v304h213q114 0 160 -46t46 -177v-220q0 -117 -15.5 -175t-53 -81.5t-113.5 -23.5h-237z"/>
<glyph glyph-name="dcroat" horiz-adv-x="460" unicode="đ" d="M263 139v237q0 25 -36 25q-33 0 -33 -25v-228q0 -21 6.5 -29.5t23.5 -8.5q23 0 31 6t8 23zM412 0h-142v54q-18 -34 -42 -48.5t-62 -14.5q-72 0 -98 32q-16 19 -21 45t-5 75v268q0 55 27 81t84 26q71 0 110 -53v99h-110v77h110v82h149v-82h45v-77h-45v-564z"/>
<glyph glyph-name="Emacron" horiz-adv-x="410" unicode="Ē" d="M48 811v74h333v-74h-333zM55 0v723h319v-127h-152v-164h141v-125h-141v-176h164v-131h-331z"/>
<glyph glyph-name="emacron" horiz-adv-x="462" unicode="ē" d="M68 608v74h333v-74h-333zM192 315h82v72q0 15 -9.5 21.5t-32.5 6.5q-40 0 -40 -31v-69zM425 219h-233v-86q0 -18 9 -25t31 -7q29 0 37.5 7t8.5 32v21h148q0 -56 -4.5 -80t-17.5 -41q-38 -49 -169 -49q-107 0 -152 34t-45 114v206q0 89 32 127q40 46 159 46q127 0 169 -47 q27 -31 27 -95v-157z"/>
<glyph glyph-name="Ebreve" horiz-adv-x="410" unicode="Ĕ" d="M313 926h65q-12 -145 -161 -145q-157 0 -161 145h66q5 -36 26.5 -53t69.5 -17q44 0 64.5 15.5t30.5 54.5zM55 0v723h319v-127h-152v-164h141v-125h-141v-176h164v-131h-331z"/>
<glyph glyph-name="ebreve" horiz-adv-x="462" unicode="ĕ" d="M333 723h65q-12 -145 -161 -145q-157 0 -161 145h66q5 -36 26.5 -53t69.5 -17q44 0 64.5 15.5t30.5 54.5zM192 315h82v72q0 15 -9.5 21.5t-32.5 6.5q-40 0 -40 -31v-69zM425 219h-233v-86q0 -18 9 -25t31 -7q29 0 37.5 7t8.5 32v21h148q0 -56 -4.5 -80t-17.5 -41 q-38 -49 -169 -49q-107 0 -152 34t-45 114v206q0 89 32 127q40 46 159 46q127 0 169 -47q27 -31 27 -95v-157z"/>
<glyph glyph-name="Edotaccent" horiz-adv-x="410" unicode="Ė" d="M145 789v116h139v-116h-139zM55 0v723h319v-127h-152v-164h141v-125h-141v-176h164v-131h-331z"/>
<glyph glyph-name="edotaccent" horiz-adv-x="462" unicode="ė" d="M172 586v116h127v-116h-127zM192 315h82v72q0 15 -9.5 21.5t-32.5 6.5q-40 0 -40 -31v-69zM425 219h-233v-86q0 -18 9 -25t31 -7q29 0 37.5 7t8.5 32v21h148q0 -56 -4.5 -80t-17.5 -41q-38 -49 -169 -49q-107 0 -152 34t-45 114v206q0 89 32 127q40 46 159 46 q127 0 169 -47q27 -31 27 -95v-157z"/>
<glyph glyph-name="Eogonek" horiz-adv-x="410" unicode="Ę" d="M55 0v723h319v-127h-152v-164h141v-125h-141v-176h164v-131h-47q-57 -50 -57 -93q0 -42 47 -42q18 0 45 8v-76q-29 -10 -65 -10q-55 0 -85 26.5t-30 74.5q0 60 61 112h-200z"/>
<glyph glyph-name="eogonek" horiz-adv-x="462" unicode="ę" d="M192 315h82v72q0 15 -9.5 21.5t-32.5 6.5q-40 0 -40 -31v-69zM425 219h-233v-86q0 -18 9 -25t31 -7q29 0 37.5 7t8.5 32v21h148q0 -56 -4.5 -80t-17.5 -41q-31 -40 -117 -47q-48 -46 -48 -86q0 -42 47 -42q18 0 45 8v-76q-29 -10 -65 -10q-55 0 -85 26.5t-30 74.5 q0 56 51 104q-88 4 -126 38.5t-38 108.5v206q0 89 32 127q40 46 159 46q127 0 169 -47q27 -31 27 -95v-157z"/>
<glyph glyph-name="Ecaron" horiz-adv-x="410" unicode="Ě" d="M277 780h-125l-115 146h113l64 -82l64 82h113zM55 0v723h319v-127h-152v-164h141v-125h-141v-176h164v-131h-331z"/>
<glyph glyph-name="ecaron" horiz-adv-x="462" unicode="ě" d="M296 577h-125l-115 146h113l64 -82l64 82h113zM192 315h82v72q0 15 -9.5 21.5t-32.5 6.5q-40 0 -40 -31v-69zM425 219h-233v-86q0 -18 9 -25t31 -7q29 0 37.5 7t8.5 32v21h148q0 -56 -4.5 -80t-17.5 -41q-38 -49 -169 -49q-107 0 -152 34t-45 114v206q0 89 32 127 q40 46 159 46q127 0 169 -47q27 -31 27 -95v-157z"/>
<glyph glyph-name="Gcircumflex" horiz-adv-x="523" unicode="Ĝ" d="M325 926l114 -146h-113l-64 82l-64 -82h-113l115 146h125zM476 491h-166v73q0 26 -9.5 35t-38.5 9q-46 0 -46 -36v-425q0 -17 11 -23t45 -6q27 0 36.5 7.5t9.5 27.5v105h-51v132h211v-234q0 -100 -44.5 -134t-176.5 -34q-133 0 -176 50q-34 39 -34 124v415q0 31 11 63.5 t28 49.5q44 45 166 45q133 0 179 -39q45 -38 45 -162v-43z"/>
<glyph glyph-name="gcircumflex" horiz-adv-x="460" unicode="ĝ" d="M301 723l114 -146h-113l-64 82l-64 -82h-113l115 146h125zM265 138v237q0 17 -8 23.5t-28 6.5q-19 0 -27 -8t-8 -28v-234q0 -33 37 -33q19 0 26.5 8t7.5 28zM60 -50h128v-7q0 -16 7.5 -21.5t28.5 -5.5q36 0 39 22q1 1 1 104q-43 -48 -102 -48q-118 0 -118 137v225 q0 88 27 125t90 37q70 0 115 -55v46h138v-546q0 -85 -41.5 -119t-144.5 -34q-94 0 -131 27t-37 96v17z"/>
<glyph glyph-name="Gbreve" horiz-adv-x="523" unicode="Ğ" d="M359 926h65q-12 -145 -161 -145q-157 0 -161 145h66q5 -36 26.5 -53t69.5 -17q44 0 64.5 15.5t30.5 54.5zM476 491h-166v73q0 26 -9.5 35t-38.5 9q-46 0 -46 -36v-425q0 -17 11 -23t45 -6q27 0 36.5 7.5t9.5 27.5v105h-51v132h211v-234q0 -100 -44.5 -134t-176.5 -34 q-133 0 -176 50q-34 39 -34 124v415q0 31 11 63.5t28 49.5q44 45 166 45q133 0 179 -39q45 -38 45 -162v-43z"/>
<glyph glyph-name="gbreve" horiz-adv-x="460" unicode="ğ" d="M338 723h65q-12 -145 -161 -145q-157 0 -161 145h66q5 -36 26.5 -53t69.5 -17q44 0 64.5 15.5t30.5 54.5zM265 138v237q0 17 -8 23.5t-28 6.5q-19 0 -27 -8t-8 -28v-234q0 -33 37 -33q19 0 26.5 8t7.5 28zM60 -50h128v-7q0 -16 7.5 -21.5t28.5 -5.5q36 0 39 22q1 1 1 104 q-43 -48 -102 -48q-118 0 -118 137v225q0 88 27 125t90 37q70 0 115 -55v46h138v-546q0 -85 -41.5 -119t-144.5 -34q-94 0 -131 27t-37 96v17z"/>
<glyph glyph-name="Gdotaccent" horiz-adv-x="523" unicode="Ġ" d="M194 789v116h139v-116h-139zM476 491h-166v73q0 26 -9.5 35t-38.5 9q-46 0 -46 -36v-425q0 -17 11 -23t45 -6q27 0 36.5 7.5t9.5 27.5v105h-51v132h211v-234q0 -100 -44.5 -134t-176.5 -34q-133 0 -176 50q-34 39 -34 124v415q0 31 11 63.5t28 49.5q44 45 166 45 q133 0 179 -39q45 -38 45 -162v-43z"/>
<glyph glyph-name="gdotaccent" horiz-adv-x="460" unicode="ġ" d="M175 586v116h127v-116h-127zM265 138v237q0 17 -8 23.5t-28 6.5q-19 0 -27 -8t-8 -28v-234q0 -33 37 -33q19 0 26.5 8t7.5 28zM60 -50h128v-7q0 -16 7.5 -21.5t28.5 -5.5q36 0 39 22q1 1 1 104q-43 -48 -102 -48q-118 0 -118 137v225q0 88 27 125t90 37q70 0 115 -55v46 h138v-546q0 -85 -41.5 -119t-144.5 -34q-94 0 -131 27t-37 96v17z"/>
<glyph glyph-name="Gcommaaccent" horiz-adv-x="523" unicode="Ģ" d="M333 -48l-69 -142h-90l30 142h129zM476 491h-166v73q0 26 -9.5 35t-38.5 9q-46 0 -46 -36v-425q0 -17 11 -23t45 -6q27 0 36.5 7.5t9.5 27.5v105h-51v132h211v-234q0 -100 -44.5 -134t-176.5 -34q-133 0 -176 50q-34 39 -34 124v415q0 31 11 63.5t28 49.5q44 45 166 45 q133 0 179 -39q45 -38 45 -162v-43z"/>
<glyph glyph-name="gcommaaccent" horiz-adv-x="460" unicode="ģ" d="M161 577l73 146h88l-41 -146h-120zM265 138v237q0 17 -8 23.5t-28 6.5q-19 0 -27 -8t-8 -28v-234q0 -33 37 -33q19 0 26.5 8t7.5 28zM60 -50h128v-7q0 -16 7.5 -21.5t28.5 -5.5q36 0 39 22q1 1 1 104q-43 -48 -102 -48q-118 0 -118 137v225q0 88 27 125t90 37 q70 0 115 -55v46h138v-546q0 -85 -41.5 -119t-144.5 -34q-94 0 -131 27t-37 96v17z"/>
<glyph glyph-name="Hcircumflex" horiz-adv-x="538" unicode="Ĥ" d="M332 926l114 -146h-113l-64 82l-64 -82h-113l115 146h125zM55 0v723h167v-282h94v282h167v-723h-167v311h-94v-311h-167z"/>
<glyph glyph-name="hcircumflex" horiz-adv-x="464" unicode="ĥ" d="M290 926l114 -146h-113l-64 82l-64 -82h-113l115 146h125zM48 0v723h149v-267q19 33 44 47.5t64 14.5q65 0 94 -40q21 -29 21 -77v-401h-149v360q0 21 -8 29.5t-28 8.5q-38 0 -38 -30v-368h-149z"/>
<glyph glyph-name="Hbar" horiz-adv-x="538" unicode="Ħ" d="M222 411h94v103h-94v-103zM55 0v723h167v-115h94v115h167v-723h-167v281h-94v-281h-167z"/>
<glyph glyph-name="hbar" horiz-adv-x="464" unicode="ħ" d="M3 641h45v82h149v-82h110v-77h-110v-108q19 33 44 47.5t64 14.5q65 0 94 -40q21 -29 21 -77v-401h-149v360q0 21 -8 29.5t-28 8.5q-38 0 -38 -30v-368h-149v564h-45v77z"/>
<glyph glyph-name="Itilde" horiz-adv-x="281" unicode="Ĩ" d="M260 914h65q-9 -56 -38 -88t-72 -32q-23 0 -75 16l-40 13q-17 6 -31 6q-39 0 -47 -42h-64q10 59 40.5 90.5t78.5 31.5q27 0 49 -9l46 -17q28 -10 41 -10q17 0 30 11t17 30zM57 0v723h167v-723h-167z"/>
<glyph glyph-name="itilde" horiz-adv-x="241" unicode="ĩ" d="M242 711h65q-9 -56 -38 -88t-72 -32q-23 0 -75 16l-40 13q-17 6 -31 6q-39 0 -47 -42h-64q10 59 40.5 90.5t78.5 31.5q27 0 49 -9l46 -17q28 -10 41 -10q17 0 30 11t17 30zM46 0v509h149v-509h-149z"/>
<glyph glyph-name="Imacron" horiz-adv-x="281" unicode="Ī" d="M-26 811v74h333v-74h-333zM57 0v723h167v-723h-167z"/>
<glyph glyph-name="imacron" horiz-adv-x="241" unicode="ī" d="M-44 608v74h333v-74h-333zM46 0v509h149v-509h-149z"/>
<glyph glyph-name="Iogonek" horiz-adv-x="281" unicode="Į" d="M57 0v723h167v-723h-31q-57 -50 -57 -93q0 -42 47 -42q18 0 45 8v-76q-29 -10 -65 -10q-55 0 -85 26.5t-30 74.5q0 60 61 112h-52z"/>
<glyph glyph-name="iogonek" horiz-adv-x="241" unicode="į" d="M46 605v118h149v-118h-149zM46 0v509h149v-509h-27q-55 -49 -55 -93q0 -42 47 -42q18 0 45 8v-76q-29 -10 -65 -10q-55 0 -85 26.5t-30 74.5q0 62 59 112h-38z"/>
<glyph glyph-name="Idotaccent" horiz-adv-x="281" unicode="İ" d="M71 789v116h139v-116h-139zM57 0v723h167v-723h-167z"/>
<glyph glyph-name="dotlessi" horiz-adv-x="241" unicode="ı" d="M46 0v509h149v-509h-149z"/>
<glyph glyph-name="Jcircumflex" horiz-adv-x="433" unicode="Ĵ" d="M356 926l114 -146h-113l-64 82l-64 -82h-113l115 146h125zM18 260h145v-110q0 -17 5.5 -23.5t19.5 -6.5q17 0 22 8t5 37v558h169v-577q0 -86 -44 -121t-152 -35q-90 0 -130 28.5t-40 93.5v148z"/>
<glyph glyph-name="jcircumflex" horiz-adv-x="241" unicode="ĵ" d="M184 723l114 -146h-113l-64 82l-64 -82h-113l115 146h125zM1 -185v113h11q19 1 26.5 14.5t7.5 46.5v520h149v-565q0 -73 -30 -103.5t-103 -30.5q-29 0 -61 5z"/>
<glyph glyph-name="Kcommaaccent" horiz-adv-x="516" unicode="Ķ" d="M337 -48l-69 -142h-90l30 142h129zM55 0v723h167v-307l109 307h175l-142 -344l160 -379h-176l-126 323v-323h-167z"/>
<glyph glyph-name="kcommaaccent" horiz-adv-x="431" unicode="ķ" d="M297 -48l-69 -142h-90l30 142h129zM48 0v723h149v-400l69 186h146l-76 -223l100 -286h-158l-81 253v-253h-149z"/>
<glyph glyph-name="Lacute" horiz-adv-x="392" unicode="Ĺ" d="M160 926h155l-148 -146h-101zM55 0v723h167v-590h159v-133h-326z"/>
<glyph glyph-name="lacute" horiz-adv-x="245" unicode="ĺ" d="M147 926h155l-148 -146h-101zM48 0v723h149v-723h-149z"/>
<glyph glyph-name="Lcommaaccent" horiz-adv-x="392" unicode="Ļ" d="M280 -48l-69 -142h-90l30 142h129zM55 0v723h167v-590h159v-133h-326z"/>
<glyph glyph-name="lcommaaccent" horiz-adv-x="245" unicode="ļ" d="M187 -48l-69 -142h-90l30 142h129zM48 0v723h149v-723h-149z"/>
<glyph glyph-name="Lcaron" horiz-adv-x="392" unicode="Ľ" d="M393 723l-62 -179h-78l22 179h118zM55 0v723h167v-590h159v-133h-326z"/>
<glyph glyph-name="lcaron" horiz-adv-x="245" unicode="ľ" d="M374 723l-62 -179h-78l22 179h118zM48 0v723h149v-723h-149z"/>
<glyph glyph-name="Ldot" horiz-adv-x="392" unicode="Ŀ" d="M248 310v116h127v-116h-127zM55 0v723h167v-590h159v-133h-326z"/>
<glyph glyph-name="ldot" horiz-adv-x="353" unicode="ŀ" d="M230 310v116h127v-116h-127zM48 0v723h149v-723h-149z"/>
<glyph glyph-name="Lslash" horiz-adv-x="392" unicode="Ł" d="M55 0v225l-51 -29v111l51 29v387h167v-286l102 61v-111l-102 -61v-193h159v-133h-326z"/>
<glyph glyph-name="lslash" horiz-adv-x="261" unicode="ł" d="M3 337l53 37v349h149v-244l56 39v-111l-56 -39v-368h-149v263l-53 -37v111z"/>
<glyph glyph-name="Nacute" horiz-adv-x="618" unicode="Ń" d="M321 926h155l-148 -146h-101zM53 0v723h243l123 -563l-12 563h158v-723h-243l-124 566l10 -566h-155z"/>
<glyph glyph-name="nacute" horiz-adv-x="462" unicode="ń" d="M242 723h155l-148 -146h-101zM46 0v509h145v-51q35 60 112 60q68 0 97 -44q18 -27 18 -83v-391h-149v354q0 26 -7.5 35t-28.5 9q-38 0 -38 -29v-369h-149z"/>
<glyph glyph-name="Ncommaaccent" horiz-adv-x="618" unicode="Ņ" d="M388 -48l-69 -142h-90l30 142h129zM53 0v723h243l123 -563l-12 563h158v-723h-243l-124 566l10 -566h-155z"/>
<glyph glyph-name="ncommaaccent" horiz-adv-x="462" unicode="ņ" d="M296 -48l-69 -142h-90l30 142h129zM46 0v509h145v-51q35 60 112 60q68 0 97 -44q18 -27 18 -83v-391h-149v354q0 26 -7.5 35t-28.5 9q-38 0 -38 -29v-369h-149z"/>
<glyph glyph-name="Ncaron" horiz-adv-x="618" unicode="Ň" d="M374 780h-125l-115 146h113l64 -82l64 82h113zM53 0v723h243l123 -563l-12 563h158v-723h-243l-124 566l10 -566h-155z"/>
<glyph glyph-name="ncaron" horiz-adv-x="462" unicode="ň" d="M295 577h-125l-115 146h113l64 -82l64 82h113zM46 0v509h145v-51q35 60 112 60q68 0 97 -44q18 -27 18 -83v-391h-149v354q0 26 -7.5 35t-28.5 9q-38 0 -38 -29v-369h-149z"/>
<glyph glyph-name="Omacron" horiz-adv-x="522" unicode="Ō" d="M304 160v415q0 20 -9.5 28t-32.5 8q-24 0 -34 -8t-10 -27v-424q0 -20 9 -28t32 -8q26 0 35.5 9t9.5 35zM47 142v436q0 71 39 113q23 24 59 34t100 10q151 0 196 -48q34 -37 34 -104v-384q0 -127 -44.5 -169t-177.5 -42q-71 0 -110.5 12t-63.5 40q-32 38 -32 102zM96 811 v74h333v-74h-333z"/>
<glyph glyph-name="omacron" horiz-adv-x="465" unicode="ō" d="M70 608v74h333v-74h-333zM273 155v211q0 26 -8 34t-33 8q-40 0 -40 -28v-234q0 -23 8 -32t29 -9q26 0 35 10.5t9 39.5zM38 179v162q0 102 41 139.5t153 37.5q127 0 168 -50q27 -35 27 -118v-184q0 -94 -35 -130q-23 -25 -61 -35t-110 -10q-67 0 -103 13.5t-56 45.5 q-24 39 -24 129z"/>
<glyph glyph-name="Obreve" horiz-adv-x="522" unicode="Ŏ" d="M360 926h65q-12 -145 -161 -145q-157 0 -161 145h66q5 -36 26.5 -53t69.5 -17q44 0 64.5 15.5t30.5 54.5zM304 160v415q0 20 -9.5 28t-32.5 8q-24 0 -34 -8t-10 -27v-424q0 -20 9 -28t32 -8q26 0 35.5 9t9.5 35zM47 142v436q0 71 39 113q23 24 59 34t100 10 q151 0 196 -48q34 -37 34 -104v-384q0 -127 -44.5 -169t-177.5 -42q-71 0 -110.5 12t-63.5 40q-32 38 -32 102z"/>
<glyph glyph-name="obreve" horiz-adv-x="465" unicode="ŏ" d="M335 723h65q-12 -145 -161 -145q-157 0 -161 145h66q5 -36 26.5 -53t69.5 -17q44 0 64.5 15.5t30.5 54.5zM273 155v211q0 26 -8 34t-33 8q-40 0 -40 -28v-234q0 -23 8 -32t29 -9q26 0 35 10.5t9 39.5zM38 179v162q0 102 41 139.5t153 37.5q127 0 168 -50q27 -35 27 -118 v-184q0 -94 -35 -130q-23 -25 -61 -35t-110 -10q-67 0 -103 13.5t-56 45.5q-24 39 -24 129z"/>
<glyph glyph-name="Ohungarumlaut" horiz-adv-x="522" unicode="Ő" d="M306 926l-102 -146h-82l76 146h108zM474 926l-117 -146h-89l86 146h120zM304 160v415q0 20 -9.5 28t-32.5 8q-24 0 -34 -8t-10 -27v-424q0 -20 9 -28t32 -8q26 0 35.5 9t9.5 35zM47 142v436q0 71 39 113q23 24 59 34t100 10q151 0 196 -48q34 -37 34 -104v-384 q0 -127 -44.5 -169t-177.5 -42q-71 0 -110.5 12t-63.5 40q-32 38 -32 102z"/>
<glyph glyph-name="ohungarumlaut" horiz-adv-x="465" unicode="ő" d="M282 723l-102 -146h-82l76 146h108zM450 723l-117 -146h-89l86 146h120zM273 155v211q0 26 -8 34t-33 8q-40 0 -40 -28v-234q0 -23 8 -32t29 -9q26 0 35 10.5t9 39.5zM38 179v162q0 102 41 139.5t153 37.5q127 0 168 -50q27 -35 27 -118v-184q0 -94 -35 -130 q-23 -25 -61 -35t-110 -10q-67 0 -103 13.5t-56 45.5q-24 39 -24 129z"/>
<glyph glyph-name="OE" horiz-adv-x="670" unicode="Œ" d="M311 165v415q0 17 -10.5 23.5t-35.5 6.5q-44 0 -44 -32v-421q0 -24 9 -33t34 -9q29 0 38 9.5t9 40.5zM349 689v33h281v-126h-152v-164h141v-125h-141v-176h164v-131h-299v31q-17 -24 -44.5 -32.5t-86.5 -8.5q-101 0 -138 46q-27 34 -27 95v417q0 93 35 136 q22 28 54.5 38.5t92.5 10.5q51 0 77 -10t43 -34z"/>
<glyph glyph-name="oe" horiz-adv-x="689" unicode="œ" d="M419 315h82v72q0 15 -9.5 21.5t-32.5 6.5q-40 0 -40 -31v-69zM462 -9q-76 0 -116 43q-13 -25 -40.5 -34t-87.5 -9q-122 0 -159 59q-21 34 -21 120v178q0 83 34 123q22 26 56.5 36.5t95.5 10.5q51 0 77 -8.5t49 -31.5q35 40 116 40q117 0 159 -47q27 -31 27 -95v-157h-233 v-86q0 -18 9 -25t31 -7q29 0 37.5 7t8.5 32v21h148q0 -56 -4.5 -80t-17.5 -41q-38 -49 -169 -49zM271 145v231q0 19 -8 26t-30 7q-42 0 -42 -33v-236q0 -21 7.5 -28t30.5 -7q26 0 34 7.5t8 32.5z"/>
<glyph glyph-name="Racute" horiz-adv-x="535" unicode="Ŕ" d="M264 926h155l-148 -146h-101zM220 598v-227h17q57 0 70 15q12 12 12 83q0 75 -2.5 93.5t-13.5 26.5q-13 10 -60 10q-10 0 -23 -1zM55 0v723h224q124 0 171 -46q22 -21 30 -58.5t8 -116.5q0 -99 -22 -134t-93 -52q67 -16 88.5 -40.5t21.5 -85.5v-190h-163v197 q0 35 -17.5 44.5t-82.5 9.5v-251h-165z"/>
<glyph glyph-name="racute" horiz-adv-x="392" unicode="ŕ" d="M221 723h155l-148 -146h-101zM46 0v509h145v-51q20 60 93 60q63 0 81 -25q9 -12 11.5 -31.5t2.5 -76.5q0 -41 -3 -82h-119v65q0 19 -5.5 25.5t-22.5 6.5q-34 0 -34 -31v-369h-149z"/>
<glyph glyph-name="Rcommaaccent" horiz-adv-x="535" unicode="Ŗ" d="M336 -48l-69 -142h-90l30 142h129zM220 598v-227h17q57 0 70 15q12 12 12 83q0 75 -2.5 93.5t-13.5 26.5q-13 10 -60 10q-10 0 -23 -1zM55 0v723h224q124 0 171 -46q22 -21 30 -58.5t8 -116.5q0 -99 -22 -134t-93 -52q67 -16 88.5 -40.5t21.5 -85.5v-190h-163v197 q0 35 -17.5 44.5t-82.5 9.5v-251h-165z"/>
<glyph glyph-name="rcommaaccent" horiz-adv-x="392" unicode="ŗ" d="M185 -48l-69 -142h-90l30 142h129zM46 0v509h145v-51q20 60 93 60q63 0 81 -25q9 -12 11.5 -31.5t2.5 -76.5q0 -41 -3 -82h-119v65q0 19 -5.5 25.5t-22.5 6.5q-34 0 -34 -31v-369h-149z"/>
<glyph glyph-name="Rcaron" horiz-adv-x="535" unicode="Ř" d="M316 780h-125l-115 146h113l64 -82l64 82h113zM220 598v-227h17q57 0 70 15q12 12 12 83q0 75 -2.5 93.5t-13.5 26.5q-13 10 -60 10q-10 0 -23 -1zM55 0v723h224q124 0 171 -46q22 -21 30 -58.5t8 -116.5q0 -99 -22 -134t-93 -52q67 -16 88.5 -40.5t21.5 -85.5v-190h-163 v197q0 35 -17.5 44.5t-82.5 9.5v-251h-165z"/>
<glyph glyph-name="rcaron" horiz-adv-x="392" unicode="ř" d="M274 577h-125l-115 146h113l64 -82l64 82h113zM46 0v509h145v-51q20 60 93 60q63 0 81 -25q9 -12 11.5 -31.5t2.5 -76.5q0 -41 -3 -82h-119v65q0 19 -5.5 25.5t-22.5 6.5q-34 0 -34 -31v-369h-149z"/>
<glyph glyph-name="Sacute" horiz-adv-x="489" unicode="Ś" d="M251 926h155l-148 -146h-101zM38 237h151v-31q0 -66 6 -76q8 -14 43 -14q33 0 43 13q7 9 7 60q0 75 -9 88q-9 15 -63 28l-58 15q-75 19 -99 57t-24 135q0 79 3.5 107.5t15.5 51.5q19 34 58.5 48.5t113.5 14.5q131 0 172 -32.5t41 -135.5q0 -41 -1 -61h-148v19 q0 63 -6.5 76t-37.5 13q-37 0 -44 -12.5t-7 -76.5q0 -47 16.5 -61.5t91.5 -33.5q78 -19 110 -49q23 -22 32 -61.5t9 -115.5q0 -116 -37 -161q-26 -30 -63.5 -42t-106.5 -12q-145 0 -186 60q-26 36 -26 138q0 23 3 51z"/>
<glyph glyph-name="sacute" horiz-adv-x="418" unicode="ś" d="M219 723h155l-148 -146h-101zM36 156h135v-27q0 -31 36 -31q20 0 27 9t7 34q0 31 -8 39.5t-43 14.5q-60 11 -82.5 17.5t-37.5 19.5q-21 18 -28.5 44.5t-7.5 81.5q0 89 29 122q19 22 48.5 30t87.5 8q113 0 146 -26q31 -25 31 -104v-28h-130v28q0 27 -32 27q-21 0 -28 -7.5 t-7 -32.5q0 -28 9 -36t47 -15q77 -14 105 -26q26 -12 37 -41.5t11 -88.5q0 -106 -36 -141.5t-146 -35.5q-101 0 -136.5 27.5t-35.5 106.5q0 17 2 31z"/>
<glyph glyph-name="Scircumflex" horiz-adv-x="489" unicode="Ŝ" d="M303 926l114 -146h-113l-64 82l-64 -82h-113l115 146h125zM38 237h151v-31q0 -66 6 -76q8 -14 43 -14q33 0 43 13q7 9 7 60q0 75 -9 88q-9 15 -63 28l-58 15q-75 19 -99 57t-24 135q0 79 3.5 107.5t15.5 51.5q19 34 58.5 48.5t113.5 14.5q131 0 172 -32.5t41 -135.5 q0 -41 -1 -61h-148v19q0 63 -6.5 76t-37.5 13q-37 0 -44 -12.5t-7 -76.5q0 -47 16.5 -61.5t91.5 -33.5q78 -19 110 -49q23 -22 32 -61.5t9 -115.5q0 -116 -37 -161q-26 -30 -63.5 -42t-106.5 -12q-145 0 -186 60q-26 36 -26 138q0 23 3 51z"/>
<glyph glyph-name="scircumflex" horiz-adv-x="418" unicode="ŝ" d="M271 723l114 -146h-113l-64 82l-64 -82h-113l115 146h125zM36 156h135v-27q0 -31 36 -31q20 0 27 9t7 34q0 31 -8 39.5t-43 14.5q-60 11 -82.5 17.5t-37.5 19.5q-21 18 -28.5 44.5t-7.5 81.5q0 89 29 122q19 22 48.5 30t87.5 8q113 0 146 -26q31 -25 31 -104v-28h-130v28 q0 27 -32 27q-21 0 -28 -7.5t-7 -32.5q0 -28 9 -36t47 -15q77 -14 105 -26q26 -12 37 -41.5t11 -88.5q0 -106 -36 -141.5t-146 -35.5q-101 0 -136.5 27.5t-35.5 106.5q0 17 2 31z"/>
<glyph glyph-name="Scedilla" horiz-adv-x="489" unicode="Ş" d="M132 -220v52q45 -9 83 -9q21 0 33.5 9.5t12.5 25.5q0 34 -45 34q-24 0 -49 -3v40l39 60q-109 7 -145 59q-26 36 -26 138q0 23 3 51h151v-31q0 -66 6 -76q8 -14 43 -14q33 0 43 13q7 9 7 60q0 75 -9 88q-9 15 -63 28l-58 15q-75 19 -99 57t-24 135q0 79 3.5 107.5 t15.5 51.5q19 34 58.5 48.5t113.5 14.5q131 0 172 -32.5t41 -135.5q0 -41 -1 -61h-148v19q0 63 -6.5 76t-37.5 13q-37 0 -44 -12.5t-7 -76.5q0 -47 16.5 -61.5t91.5 -33.5q78 -19 110 -49q23 -22 32 -61.5t9 -115.5q0 -116 -37 -161q-24 -28 -58 -40.5t-92 -13.5l-35 -52 q14 2 29 2q40 0 63 -21.5t23 -57.5q0 -41 -31 -65t-93 -24q-41 0 -91 10z"/>
<glyph glyph-name="scedilla" horiz-adv-x="418" unicode="ş" d="M97 -220v52q45 -9 83 -9q21 0 33.5 9.5t12.5 25.5q0 34 -45 34q-23 0 -49 -3v40l41 63q-80 4 -109.5 32.5t-29.5 100.5q0 17 2 31h135v-27q0 -31 36 -31q20 0 27 9t7 34q0 31 -8 39.5t-43 14.5q-60 11 -82.5 17.5t-37.5 19.5q-21 18 -28.5 44.5t-7.5 81.5q0 89 29 122 q19 22 48.5 30t87.5 8q113 0 146 -26q31 -25 31 -104v-28h-130v28q0 27 -32 27q-21 0 -28 -7.5t-7 -32.5q0 -28 9 -36t47 -15q77 -14 105 -26q26 -12 37 -41.5t11 -88.5q0 -100 -31.5 -136.5t-122.5 -39.5l-37 -56q14 2 29 2q40 0 63 -21.5t23 -57.5q0 -41 -31 -65t-93 -24 q-41 0 -91 10z"/>
<glyph glyph-name="Scaron" horiz-adv-x="489" unicode="Š" d="M305 780h-125l-115 146h113l64 -82l64 82h113zM38 237h151v-31q0 -66 6 -76q8 -14 43 -14q33 0 43 13q7 9 7 60q0 75 -9 88q-9 15 -63 28l-58 15q-75 19 -99 57t-24 135q0 79 3.5 107.5t15.5 51.5q19 34 58.5 48.5t113.5 14.5q131 0 172 -32.5t41 -135.5q0 -41 -1 -61 h-148v19q0 63 -6.5 76t-37.5 13q-37 0 -44 -12.5t-7 -76.5q0 -47 16.5 -61.5t91.5 -33.5q78 -19 110 -49q23 -22 32 -61.5t9 -115.5q0 -116 -37 -161q-26 -30 -63.5 -42t-106.5 -12q-145 0 -186 60q-26 36 -26 138q0 23 3 51z"/>
<glyph glyph-name="scaron" horiz-adv-x="418" unicode="š" d="M270 577h-125l-115 146h113l64 -82l64 82h113zM36 156h135v-27q0 -31 36 -31q20 0 27 9t7 34q0 31 -8 39.5t-43 14.5q-60 11 -82.5 17.5t-37.5 19.5q-21 18 -28.5 44.5t-7.5 81.5q0 89 29 122q19 22 48.5 30t87.5 8q113 0 146 -26q31 -25 31 -104v-28h-130v28 q0 27 -32 27q-21 0 -28 -7.5t-7 -32.5q0 -28 9 -36t47 -15q77 -14 105 -26q26 -12 37 -41.5t11 -88.5q0 -106 -36 -141.5t-146 -35.5q-101 0 -136.5 27.5t-35.5 106.5q0 17 2 31z"/>
<glyph glyph-name="Tcommaaccent" horiz-adv-x="414" unicode="Ţ" d="M272 -48l-69 -142h-90l30 142h129zM8 723h398v-132h-116v-591h-167v591h-115v132z"/>
<glyph glyph-name="tcommaaccent" horiz-adv-x="298" unicode="ţ" d="M230 -48l-69 -142h-90l30 142h129zM12 395v114h44v133h150v-133h84v-114h-84v-257q0 -33 36 -33q13 0 39 4v-113q-52 -5 -98 -5q-127 0 -127 103v301h-44z"/>
<glyph glyph-name="Tcaron" horiz-adv-x="414" unicode="Ť" d="M269 780h-125l-115 146h113l64 -82l64 82h113zM8 723h398v-132h-116v-591h-167v591h-115v132z"/>
<glyph glyph-name="tcaron" horiz-adv-x="298" unicode="ť" d="M379 723l-62 -179h-78l22 179h118zM12 395v114h44v133h150v-133h84v-114h-84v-257q0 -33 36 -33q13 0 39 4v-113q-52 -5 -98 -5q-127 0 -127 103v301h-44z"/>
<glyph glyph-name="Tbar" horiz-adv-x="414" unicode="Ŧ" d="M8 723h398v-132h-116v-111h78v-104h-78v-376h-167v376h-79v104h79v111h-115v132z"/>
<glyph glyph-name="tbar" horiz-adv-x="298" unicode="ŧ" d="M12 395v114h44v133h150v-133h84v-114h-84v-63h73v-81h-73v-113q0 -33 36 -33q13 0 39 4v-113q-52 -5 -98 -5q-127 0 -127 103v157h-39v81h39v63h-44z"/>
<glyph glyph-name="Utilde" horiz-adv-x="518" unicode="Ũ" d="M381 914h65q-9 -56 -38 -88t-72 -32q-23 0 -75 16l-40 13q-17 6 -31 6q-39 0 -47 -42h-64q10 59 40.5 90.5t78.5 31.5q26 0 49 -9l46 -17q28 -10 41 -10q17 0 30 11t17 30zM49 723h168v-561q0 -24 9 -33.5t33 -9.5q23 0 32.5 11.5t9.5 38.5v554h168v-543q0 -102 -36 -142 q-43 -49 -184 -49q-62 0 -98.5 10.5t-62.5 36.5q-24 24 -31.5 52t-7.5 78v557z"/>
<glyph glyph-name="utilde" horiz-adv-x="462" unicode="ũ" d="M352 711h65q-9 -56 -38 -88t-72 -32q-23 0 -75 16l-40 13q-17 6 -31 6q-39 0 -47 -42h-64q10 59 40.5 90.5t78.5 31.5q27 0 49 -9l46 -17q28 -10 41 -10q17 0 30 11t17 30zM267 509h149v-509h-149v61q-14 -37 -39.5 -53.5t-68.5 -16.5q-56 0 -85.5 26t-29.5 75v417h149 v-359q0 -20 8.5 -29t27.5 -9q38 0 38 44v353z"/>
<glyph glyph-name="Umacron" horiz-adv-x="518" unicode="Ū" d="M95 811v74h333v-74h-333zM49 723h168v-561q0 -24 9 -33.5t33 -9.5q23 0 32.5 11.5t9.5 38.5v554h168v-543q0 -102 -36 -142q-43 -49 -184 -49q-62 0 -98.5 10.5t-62.5 36.5q-24 24 -31.5 52t-7.5 78v557z"/>
<glyph glyph-name="umacron" horiz-adv-x="462" unicode="ū" d="M66 608v74h333v-74h-333zM267 509h149v-509h-149v61q-14 -37 -39.5 -53.5t-68.5 -16.5q-56 0 -85.5 26t-29.5 75v417h149v-359q0 -20 8.5 -29t27.5 -9q38 0 38 44v353z"/>
<glyph glyph-name="Ubreve" horiz-adv-x="518" unicode="Ŭ" d="M357 926h65q-12 -145 -161 -145q-157 0 -161 145h66q5 -36 26.5 -53t69.5 -17q44 0 64.5 15.5t30.5 54.5zM49 723h168v-561q0 -24 9 -33.5t33 -9.5q23 0 32.5 11.5t9.5 38.5v554h168v-543q0 -102 -36 -142q-43 -49 -184 -49q-62 0 -98.5 10.5t-62.5 36.5q-24 24 -31.5 52 t-7.5 78v557z"/>
<glyph glyph-name="ubreve" horiz-adv-x="462" unicode="ŭ" d="M331 723h65q-12 -145 -161 -145q-157 0 -161 145h66q5 -36 26.5 -53t69.5 -17q44 0 64.5 15.5t30.5 54.5zM267 509h149v-509h-149v61q-14 -37 -39.5 -53.5t-68.5 -16.5q-56 0 -85.5 26t-29.5 75v417h149v-359q0 -20 8.5 -29t27.5 -9q38 0 38 44v353z"/>
<glyph glyph-name="Uring" horiz-adv-x="518" unicode="Ů" d="M259 805q22 0 36 14.5t14 38.5t-14 38t-35 14q-22 0 -36 -14.5t-14 -38.5t14 -38t35 -14zM260 964q47 0 76.5 -29.5t29.5 -76.5t-30 -77t-77 -30t-76.5 29.5t-29.5 76.5t30 77t77 30zM49 723h168v-561q0 -24 9 -33.5t33 -9.5q23 0 32.5 11.5t9.5 38.5v554h168v-543 q0 -102 -36 -142q-43 -49 -184 -49q-62 0 -98.5 10.5t-62.5 36.5q-24 24 -31.5 52t-7.5 78v557z"/>
<glyph glyph-name="uring" horiz-adv-x="462" unicode="ů" d="M232 628q22 0 36 14.5t14 38.5t-14 38t-35 14q-22 0 -36 -14.5t-14 -38.5t14 -38t35 -14zM233 787q47 0 76.5 -29.5t29.5 -76.5t-30 -77t-77 -30t-76.5 29.5t-29.5 76.5t30 77t77 30zM267 509h149v-509h-149v61q-14 -37 -39.5 -53.5t-68.5 -16.5q-56 0 -85.5 26t-29.5 75 v417h149v-359q0 -20 8.5 -29t27.5 -9q38 0 38 44v353z"/>
<glyph glyph-name="Uhungarumlaut" horiz-adv-x="518" unicode="Ű" d="M307 926l-102 -146h-82l76 146h108zM475 926l-117 -146h-89l86 146h120zM49 723h168v-561q0 -24 9 -33.5t33 -9.5q23 0 32.5 11.5t9.5 38.5v554h168v-543q0 -102 -36 -142q-43 -49 -184 -49q-62 0 -98.5 10.5t-62.5 36.5q-24 24 -31.5 52t-7.5 78v557z"/>
<glyph glyph-name="uhungarumlaut" horiz-adv-x="462" unicode="ű" d="M278 723l-102 -146h-82l76 146h108zM446 723l-117 -146h-89l86 146h120zM267 509h149v-509h-149v61q-14 -37 -39.5 -53.5t-68.5 -16.5q-56 0 -85.5 26t-29.5 75v417h149v-359q0 -20 8.5 -29t27.5 -9q38 0 38 44v353z"/>
<glyph glyph-name="Uogonek" horiz-adv-x="518" unicode="Ų" d="M49 723h168v-561q0 -24 9 -33.5t33 -9.5q23 0 32.5 11.5t9.5 38.5v554h168v-543q0 -102 -36 -142q-38 -42 -135 -48q-46 -44 -46 -83q0 -42 47 -42q18 0 45 8v-76q-29 -10 -65 -10q-55 0 -85 26.5t-30 74.5q0 55 49 102q-85 6 -125 46q-24 24 -31.5 52t-7.5 78v557z"/>
<glyph glyph-name="uogonek" horiz-adv-x="462" unicode="ų" d="M293 0h-26v61q-14 -37 -39.5 -53.5t-68.5 -16.5q-56 0 -85.5 26t-29.5 75v417h149v-359q0 -20 8.5 -29t27.5 -9q38 0 38 44v353h149v-509h-39q-57 -50 -57 -93q0 -42 47 -42q18 0 45 8v-76q-29 -10 -65 -10q-55 0 -85 26.5t-30 74.5q0 60 61 112z"/>
<glyph glyph-name="Wcircumflex" horiz-adv-x="794" unicode="Ŵ" d="M461 926l114 -146h-113l-64 82l-64 -82h-113l115 146h125zM11 723h160l49 -614l65 614h224l70 -612l44 612h159l-81 -723h-234l-71 600l-64 -600h-234z"/>
<glyph glyph-name="wcircumflex" horiz-adv-x="700" unicode="ŵ" d="M414 723l114 -146h-113l-64 82l-64 -82h-113l115 146h125zM687 509l-73 -509h-220l-44 405l-40 -405h-219l-78 509h140l51 -414l41 414h211l44 -414l48 414h139z"/>
<glyph glyph-name="Ycircumflex" horiz-adv-x="443" unicode="Ŷ" d="M286 926l114 -146h-113l-64 82l-64 -82h-113l115 146h125zM307 0h-167v234l-151 489h165l68 -325l66 325h165l-146 -480v-243z"/>
<glyph glyph-name="ycircumflex" horiz-adv-x="409" unicode="ŷ" d="M270 723l114 -146h-113l-64 82l-64 -82h-113l115 146h125zM11 509h149l43 -418l47 418h148l-81 -556q-11 -78 -47 -110.5t-111 -32.5q-56 0 -76 14v100q19 -7 42 -7q31 0 41 15t15 68h-99z"/>
<glyph glyph-name="Ydieresis" horiz-adv-x="443" unicode="Ÿ" d="M259 789v116h127v-116h-127zM63 789v116h127v-116h-127zM307 0h-167v234l-151 489h165l68 -325l66 325h165l-146 -480v-243z"/>
<glyph glyph-name="Zacute" horiz-adv-x="400" unicode="Ź" d="M217 926h155l-148 -146h-101zM379 0h-363v126l186 472h-168v125h345v-119l-189 -476h189v-128z"/>
<glyph glyph-name="zacute" horiz-adv-x="343" unicode="ź" d="M183 723h155l-148 -146h-101zM321 0h-303v111l143 294h-134v104h287v-122l-137 -278h144v-109z"/>
<glyph glyph-name="Zdotaccent" horiz-adv-x="400" unicode="Ż" d="M138 789v116h139v-116h-139zM379 0h-363v126l186 472h-168v125h345v-119l-189 -476h189v-128z"/>
<glyph glyph-name="zdotaccent" horiz-adv-x="343" unicode="ż" d="M111 586v116h127v-116h-127zM321 0h-303v111l143 294h-134v104h287v-122l-137 -278h144v-109z"/>
<glyph glyph-name="Zcaron" horiz-adv-x="400" unicode="Ž" d="M269 780h-125l-115 146h113l64 -82l64 82h113zM379 0h-363v126l186 472h-168v125h345v-119l-189 -476h189v-128z"/>
<glyph glyph-name="zcaron" horiz-adv-x="343" unicode="ž" d="M236 577h-125l-115 146h113l64 -82l64 82h113zM321 0h-303v111l143 294h-134v104h287v-122l-137 -278h144v-109z"/>
<glyph glyph-name="florin" d="M-16 -175v125q30 -15 53 -15q31 0 45.5 28.5t27.5 111.5l43 287h-79v116h94q23 144 73.5 199.5t157.5 55.5q35 0 73 -7v-116q-34 7 -49 7q-40 0 -62 -32.5t-31 -106.5h89v-116h-104l-51 -322q-20 -124 -57 -170q-47 -57 -139 -57q-51 0 -84 12z" unicode="ƒ"/>
<glyph glyph-name="Scommaaccent" horiz-adv-x="489" unicode="Ș" d="M314 -48l-69 -142h-90l30 142h129zM38 237h151v-31q0 -66 6 -76q8 -14 43 -14q33 0 43 13q7 9 7 60q0 75 -9 88q-9 15 -63 28l-58 15q-75 19 -99 57t-24 135q0 79 3.5 107.5t15.5 51.5q19 34 58.5 48.5t113.5 14.5q131 0 172 -32.5t41 -135.5q0 -41 -1 -61h-148v19 q0 63 -6.5 76t-37.5 13q-37 0 -44 -12.5t-7 -76.5q0 -47 16.5 -61.5t91.5 -33.5q78 -19 110 -49q23 -22 32 -61.5t9 -115.5q0 -116 -37 -161q-26 -30 -63.5 -42t-106.5 -12q-145 0 -186 60q-26 36 -26 138q0 23 3 51z"/>
<glyph glyph-name="scommaaccent" horiz-adv-x="418" unicode="ș" d="M278 -48l-69 -142h-90l30 142h129zM36 156h135v-27q0 -31 36 -31q20 0 27 9t7 34q0 31 -8 39.5t-43 14.5q-60 11 -82.5 17.5t-37.5 19.5q-21 18 -28.5 44.5t-7.5 81.5q0 89 29 122q19 22 48.5 30t87.5 8q113 0 146 -26q31 -25 31 -104v-28h-130v28q0 27 -32 27 q-21 0 -28 -7.5t-7 -32.5q0 -28 9 -36t47 -15q77 -14 105 -26q26 -12 37 -41.5t11 -88.5q0 -106 -36 -141.5t-146 -35.5q-101 0 -136.5 27.5t-35.5 106.5q0 17 2 31z"/>
<glyph glyph-name="uni021A" horiz-adv-x="414" unicode="Ț" d="M272 -48l-69 -142h-90l30 142h129zM8 723h398v-132h-116v-591h-167v591h-115v132z"/>
<glyph glyph-name="uni021B" horiz-adv-x="298" unicode="ț" d="M230 -48l-69 -142h-90l30 142h129zM12 395v114h44v133h150v-133h84v-114h-84v-257q0 -33 36 -33q13 0 39 4v-113q-52 -5 -98 -5q-127 0 -127 103v301h-44z"/>
<glyph glyph-name="dotlessj" horiz-adv-x="241" unicode="ȷ" d="M1 -185v113h11q19 1 26.5 14.5t7.5 46.5v520h149v-565q0 -73 -30 -103.5t-103 -30.5q-29 0 -61 5z"/>
<glyph glyph-name="circumflex" horiz-adv-x="241" unicode="ˆ" d="M183 723l114 -146h-113l-64 82l-64 -82h-113l115 146h125z"/>
<glyph glyph-name="caron" horiz-adv-x="241" unicode="ˇ" d="M183 577h-125l-115 146h113l64 -82l64 82h113z"/>
<glyph glyph-name="uni02C9" horiz-adv-x="241" unicode="ˉ" d="M-46 608v74h333v-74h-333z"/>
<glyph glyph-name="breve" horiz-adv-x="241" unicode="˘" d="M220 723h65q-12 -145 -161 -145q-157 0 -161 145h66q5 -36 26.5 -53t69.5 -17q44 0 64.5 15.5t30.5 54.5z"/>
<glyph glyph-name="dotaccent" horiz-adv-x="241" unicode="˙" d="M57 586v116h127v-116h-127z"/>
<glyph glyph-name="ring" horiz-adv-x="241" unicode="˚" d="M119 628q22 0 36 14.5t14 38.5t-14 38t-35 14q-22 0 -36 -14.5t-14 -38.5t14 -38t35 -14zM120 787q47 0 76.5 -29.5t29.5 -76.5t-30 -77t-77 -30t-76.5 29.5t-29.5 76.5t30 77t77 30z"/>
<glyph glyph-name="ogonek" horiz-adv-x="241" unicode="˛" d="M84 0h84q-57 -50 -57 -93q0 -42 47 -42q18 0 45 8v-76q-29 -10 -65 -10q-55 0 -85 26.5t-30 74.5q0 60 61 112z"/>
<glyph glyph-name="tilde" horiz-adv-x="241" unicode="˜" d="M238 711h65q-9 -56 -38 -88t-72 -32q-23 0 -75 16l-40 13q-17 6 -31 6q-39 0 -47 -42h-64q10 59 40.5 90.5t78.5 31.5q27 0 49 -9l46 -17q28 -10 41 -10q17 0 30 11t17 30z"/>
<glyph glyph-name="hungarumlaut" horiz-adv-x="241" unicode="˝" d="M179 723l-102 -146h-82l76 146h108zM347 723l-117 -146h-89l86 146h120z"/>
<glyph glyph-name="endash" d="M500 322v-114h-500v114h500z" unicode="–"/>
<glyph glyph-name="emdash" horiz-adv-x="1000" unicode="—" d="M60 322h880v-114h-880v114z"/>
<glyph glyph-name="quoteleft" horiz-adv-x="250" unicode="‘" d="M195 727v-79q-33 -5 -46 -19.5t-13 -46.5q0 -8 1 -17h60v-155h-146v165q0 151 144 152z"/>
<glyph glyph-name="quoteright" horiz-adv-x="250" unicode="’" d="M55 405v79q33 5 46 19.5t13 46.5q0 8 -1 17h-60v155h146v-165q0 -151 -144 -152z"/>
<glyph glyph-name="quotesinglbase" horiz-adv-x="250" unicode="‚" d="M54 -162v79q33 5 46 19.5t13 46.5q0 8 -1 17h-60v155h146v-165q0 -151 -144 -152z"/>
<glyph glyph-name="quotedblleft" horiz-adv-x="440" unicode="“" d="M193 727v-79q-33 -5 -46 -19.5t-13 -46.5q0 -8 1 -17h60v-155h-146v165q0 151 144 152zM387 727v-79q-33 -5 -46 -19.5t-13 -46.5q0 -8 1 -17h60v-155h-146v165q0 151 144 152z"/>
<glyph glyph-name="quotedblright" horiz-adv-x="440" unicode="”" d="M247 405v79q33 5 46 19.5t13 46.5q0 8 -1 17h-60v155h146v-165q0 -151 -144 -152zM53 405v79q33 5 46 19.5t13 46.5q0 8 -1 17h-60v155h146v-165q0 -151 -144 -152z"/>
<glyph glyph-name="quotedblbase" horiz-adv-x="440" unicode="„" d="M246 -162v79q33 5 46 19.5t13 46.5q0 8 -1 17h-60v155h146v-165q0 -151 -144 -152zM52 -162v79q33 5 46 19.5t13 46.5q0 8 -1 17h-60v155h146v-165q0 -151 -144 -152z"/>
<glyph glyph-name="bullet" horiz-adv-x="250" unicode="•" d="M128 466q50 0 85.5 -36t35.5 -85q0 -52 -36 -89t-87 -37t-87.5 37t-36.5 89q0 51 36.5 86t89.5 35z"/>
<glyph glyph-name="guilsinglleft" horiz-adv-x="295" unicode="‹" d="M113 435h151l-88 -175l90 -179h-153l-87 175z"/>
<glyph glyph-name="guilsinglright" horiz-adv-x="295" unicode="›" d="M182 81h-151l88 175l-90 179h153l87 -175z"/>
<glyph glyph-name="fraction" horiz-adv-x="167" unicode="⁄" d="M333 733l-395 -743h-105l396 743h104z"/>
<glyph glyph-name="Euro" d="M24 479h50q10 252 245 252q100 0 173 -35l-34 -130q-63 29 -120 29q-55 0 -79.5 -26.5t-28.5 -89.5h211l-19 -87h-193v-67h181l-19 -87h-162q0 -63 25.5 -87t79.5 -24q42 0 72.5 10t65.5 38v-142q-49 -41 -160 -41q-120 0 -177.5 62t-59.5 184h-70l19 87h49v67h-68z" unicode="€"/>
<glyph glyph-name="uni2215" horiz-adv-x="167" unicode="∕" d="M333 733l-395 -743h-105l396 743h104z"/>
</font>
</defs>
</svg>
